<svg xmlns="http://www.w3.org/2000/svg" viewBox="0 0 298.5 144.8"><style type="text/css">  
	.st0{fill:#EC008C;}
</style><path class="st0" d="M41.1 20.6c0.7 0 1.9 0.1 3.7 0.3 1.8 0.2 4.4 0.5 7.7 0.8 1.3 0.1 2.4 0.2 3.5 0.2 1.1 0.1 2.1 0.1 3 0.2l2.7 0.2v0.2c0 0.3 0.3 0.5 0.9 0.8 0.6 0.3 1 0.5 1.4 0.7 0.4 0.1 0.9 0.4 1.6 0.8 0.6 0.4 1.2 0.9 1.9 1.4 0.6 0.5 1.2 1.1 1.8 1.7 0.6 0.6 1.1 1.2 1.5 1.8 0.1 0.3 0.2 0.9 0.3 1.7 0.1 0.8 0.3 1.7 0.4 2.7 0.1 1 0.2 1.9 0.3 2.8 0.1 0.9 0.1 1.6 0.1 2 -0.4 1-0.8 1.7-1.1 2.1 -0.3 0.4-0.8 0.4-1.6 0 -0.8 0-1.3-0.2-1.4-0.7 -0.1-0.4-0.2-1.3-0.2-2.5 0-1 0-2-0.1-2.9 0-0.9-0.2-1.8-0.6-2.6 -0.7-1.8-2.1-2.8-4.2-2.9 -2-0.2-4.2 0.4-6.6 1.6 -2.4 1.2-4.7 3.1-6.9 5.5 -2.2 2.5-3.9 5.4-4.9 8.7 -0.4 0.5-0.9 0.9-1.3 1.4 -0.5 0.5-0.7 0.9-0.7 1.3 0 0.7-0.5 1.3-1.4 1.7 -0.2 0.2-0.5 0.6-1.1 1.4 -0.5 0.8-1.2 1.7-1.9 2.8 -0.8 1.1-1.6 2.3-2.4 3.6 -0.9 1.3-1.7 2.5-2.4 3.7 -0.7 1.2-1.3 2.2-1.8 3.1 -0.5 0.9-0.7 1.5-0.7 1.8 0 0.5-0.3 1.2-0.8 1.9 -0.5 0.7-0.9 1.4-1.2 2 -0.4 0.6-0.8 1.3-1.1 2 -0.3 0.7-0.5 1.4-0.7 2.1 -0.2 0.7-0.2 1.2-0.2 1.7 0 0.4 0.1 0.7 0.2 0.7 0.4 0 0.8 0.1 1.2 0.3 0.4 0.2 0.6 0.5 0.6 0.9 0.3 0.5 0.4 1 0.1 1.6 -0.3 0.5-0.9 0.8-1.8 0.8 -0.4-0.2-0.7-0.1-0.9 0.5 -0.2 0.5-0.1 1 0.3 1.3 0 0.2 0.1 0.2 0.3 0.2 0.2 0 0.3-0.2 0.3-0.6 1.2-0.9 1.9-1.3 2.3-1.1 0.3 0.2 0.8 0.8 1.5 1.8 0 0.4 0.1 0.6 0.4 0.7 0.3 0.1 0.6 0.2 0.9 0.2 0.8 0 1.4 0.2 2 0.5 0.6 0.3 0.9 0.7 0.9 1h-1.4c-0.4 0-0.8 0.1-1 0.2 -0.3 0.2-0.2 0.4 0.1 0.8 0 0.4 0 0.6-0.1 0.6 0 0-0.2 0-0.6-0.2 -0.3-0.4-0.6-0.5-0.9-0.5 -0.3 0-0.4 0.3-0.4 0.8v0.9l-0.8-1.3C29.4 85.4 28.7 85 28 85c-0.7 0-1.2 0.4-1.6 1.1 0 0.4-0.1 0.7-0.4 0.8 -0.3 0.1-0.6 0.2-0.9 0.2l-0.4 0.5c-0.3 0.3-0.4 0.5-0.4 0.9 -0.4 0.4-0.7 0.8-0.8 1.1 -0.1 0.3-0.4 0.5-0.7 0.7 -0.2 0.3 0 0.7 0.4 1.1 0.5 0.4 1.1 0.7 1.9 1.1 0.8 0.3 1.7 0.6 2.7 0.8 1 0.2 2 0.3 2.9 0.3 1.4-0.3 2.6-0.6 3.4-1s0.9-0.7 0.1-0.9c-0.2-0.1-0.4-0.1-0.8-0.1 -0.5 0-0.8 0-0.8 0.1 -0.7 0-0.9 0-0.7 0 0.2 0 0.4-0.1 0.7-0.2 0.8-0.4 1.6-0.4 2.3 0 0.4 0.3 1.2 0.4 2.2 0.3 1.1-0.1 1.8-0.2 2.2-0.3 0-0.5 0.5-0.8 1.5-0.8 0.7 0 1-0.1 1-0.2 0-0.1-0.3-0.5-1-1.3 0-0.4 0-0.6 0.1-0.7 0 0 0.3 0 0.7 0.2 0 0.3 0.3 0.5 1 0.6 0.7 0.2 1.2 0.3 1.6 0.5 1.1 0.4 1.9 0.6 2.6 0.7 0.6 0 1.5-0.1 2.7-0.3 0.5-0.1 1.2-0.3 2.1-0.7 0.9-0.4 1.9-0.8 2.9-1.3 1-0.5 2.1-1 3.1-1.6 1-0.6 1.9-1.1 2.6-1.6 0.9-0.5 2.2-1.5 3.9-2.9 1.7-1.4 3.4-3.1 5.2-4.8 1.8-1.8 3.6-3.6 5.2-5.4 1.7-1.8 3-3.3 3.9-4.6 0.4-0.4 0.8-0.8 1.1-1.3 0.3-0.4 0.6-0.8 0.8-1.1l0.9-1c1-0.6 1.5-1.3 1.5-2.1 0.4-0.4 0.8-0.8 1.1-1.2 0.3-0.4 0.7-0.7 1.1-0.7 0.2-0.1 0.3-0.3 0.4-0.7 0.1-0.3 0.5-0.7 1.1-1 0.2-0.5 0.4-1 0.8-1.5 0.3-0.5 0.7-1 1.1-1.5 0.4-0.5 0.8-0.9 1.2-1.2 0.4-0.4 0.8-0.6 1.1-0.7 1.4 0 1.4 0.4 0 1.3 -0.4 0.3-0.7 0.5-1 0.6 -0.3 0.1-0.4 0.3-0.4 0.4 0 0.3-0.2 0.7-0.5 1.3 -0.3 0.5-0.7 1.1-1.1 1.7 -0.4 0.6-0.9 1.1-1.4 1.6 -0.5 0.5-1 0.8-1.3 0.9 0 0.1-0.1 0.3-0.4 0.7 -0.3 0.3-0.4 0.7-0.4 1l-1 0.8c-0.1 0.1-0.2 0.2-0.3 0.2 -0.1 0-0.2 0.1-0.3 0.1 -0.4 0-0.6 0.5-0.6 1.6 0 0.4-0.2 0.8-0.5 1.2l-0.4 0.6c-0.3 0.2-0.6 0.4-0.9 0.7 -0.3 0.3-0.4 0.6-0.4 1 0 0.4-0.2 0.7-0.5 0.9 -0.3 0.2-0.7 0.4-1 0.5 -0.4 0.1-0.9 0.4-1.4 0.8 -0.5 0.4-1 0.9-1.4 1.4 -0.5 0.5-0.9 1-1.2 1.5 -0.3 0.5-0.5 0.7-0.5 0.9 0 0.1-0.5 0.6-1.4 1.4 -0.9 0.8-1.9 1.7-2.9 2.8 -0.7 1.2-1.6 2.4-2.8 3.6 -1.2 1.2-2.2 2.2-3.1 2.9 -0.9 0.9-2 1.8-3.3 2.9 -1.3 1-2.7 2-4.1 3 -1.5 1-2.9 1.9-4.4 2.7 -1.5 0.8-2.8 1.4-4.1 1.8 -1.2 0.5-2.3 1-3.4 1.3 -1.1 0.4-2.2 0.6-3.4 0.8 -1.2 0.2-2.5 0.3-4 0.3 -1.5 0.1-3.2 0-5.2-0.1 -4 0-7.4-0.3-10.1-0.9 -2.7-0.6-3.2-1.9-5.8-3.2 -1.7-0.8-2.2-1.6-3.5-2.5 -1.3-0.9-2.8-2.2-4-3.5 -1.3-1.3-3-3-4.2-4.8 -1.2-1.7-0.7-1.5-2.1-4 -0.3-0.7-1.2-1.9-1.4-2.4 -0.2-0.5-0.1-1.6-0.3-2.1 -0.1-0.5-0.2-2.3-0.3-2.9 -0.1-0.7 0 0-0.2-1.1 -0.4-3.1-0.5-5.4 0.3-8.8s2.3-7.7 4-11c1.7-3.3 4.5-6.7 7-9.8 2.5-3.1 5.3-5.8 8.5-8.3 1.4-1.1 1.3-1 3.7-2.5 2.4-1.5 5.5-3.7 7.9-5 2.3-1.3 0.5-3.2 2.4-4 1.8-0.8 2.9-1.1 3.2-0.9 0.3 0 0.5 0 0.6-0.1 0.3-0.1 0.7-0.2 1-0.4h1.5H41.1zM6.2 62.4c-0.4 0.2-0.7 0.5-0.8 1 -0.1 0.5-0.4 1.2-0.8 2 -0.7 2.9-1.4 3.6-2.1 2.1v1.4 1.2c0-0.5 0.5-0.7 1.5-0.7 1.4 0 2.2-0.3 2.4-0.8 0.2-0.5 0.3-1.6 0.3-3.2C6.7 63.4 6.5 62.4 6.2 62.4zM19.9 80.1c-0.3 0-0.7 0-1.1 0 -0.4 0-0.6 0.1-0.6 0.3 0 0.4 0.4 0.7 1.3 1 0.9 0.2 1.5 0.2 1.9 0 0.3-0.1 0.3-0.4 0-0.8C21.3 80.3 20.8 80.1 19.9 80.1zM22.8 77.3c-0.3 0-0.6 0.1-0.9 0.3 -0.3 0.2-0.4 0.4-0.6 0.7 -0.1 0.2-0.2 0.5-0.2 0.7 0 0.2 0.1 0.3 0.4 0.4 0.3 0.2 0.6 0.3 0.8 0.3 0.2 0.1 0.3 0.1 0.5 0 0.8-0.2 1-0.5 0.8-1.1C23.4 77.9 23.2 77.5 22.8 77.3z"/><path class="st0" d="M86.6 23.7c0.4 0 0.9 0 1.5 0.1 0.6 0.1 1.2 0.2 1.9 0.3 0.6 0.1 1.3 0.2 1.8 0.3 0.6 0.1 1 0.2 1.3 0.2 0.9 0.3 1.5 0.7 2.1 1.2 0.5 0.4 0.9 0.9 1.2 1.5s0.5 1.3 0.6 2.1c0.1 0.8 0.2 1.8 0.3 2.8 0.2 1.1 0.3 2.3 0.3 3.6 0 1.3 0 2.7-0.2 4 -0.1 1.3-0.3 2.6-0.6 3.9 -0.3 1.2-0.6 2.2-0.9 3.1 -0.1 0.4-0.2 0.8-0.2 1.1 0 0.4-0.1 0.7-0.2 1l-0.2 1c0 0.1 0.1 0.3 0.4 0.5 0.3 0.2 0.6 0.4 0.9 0.5 0.3 0.1 0.7 0.2 1 0.3 0.3 0 0.5 0 0.6-0.1 0.1-0.2 0.4-0.4 0.9-0.4 0.5 0 0.9 0 1.5 0 0.4 0 0.8 0 1.3-0.1 0.5-0.1 0.9-0.2 1.4-0.3 0.4-0.1 0.8-0.2 1.1-0.3 0.3-0.1 0.4-0.2 0.4-0.3s0.2-0.3 0.5-0.8c0.4-0.4 0.8-0.8 1.2-1.3s0.9-0.8 1.3-1.2c0.4-0.4 0.7-0.5 0.8-0.5 0 0 0.4 0.2 1 0.5s1.4 0.7 2.2 1.2c0.8 0.4 1.5 0.9 2.3 1.3 0.7 0.5 1.2 0.8 1.4 1 0.3 0.2 0.6 0.5 0.9 0.9 0.3 0.4 0.5 0.8 0.6 1.1 0.4 0.7 0.9 1.5 1.7 2.4 0.2 0.3 0.5 0.9 0.9 1.5 0.4 0.7 0.8 1.4 1.1 2.1 0.3 0.6 0.6 1 0.8 1.4 0.2 0.4 0.3 0.7 0.4 1 0.1 0.3 0.1 0.6 0 0.9 0 0.3-0.1 0.6-0.2 1 0 0.9-0.1 1.5-0.3 1.8 -0.2 0.3-0.7 0.7-1.3 1.3 -0.7 0.5-1.2 0.8-1.6 1 -0.4 0.2-0.7 0.2-1.1-0.1 -0.4-0.1-0.7-0.1-0.8 0.2 -0.1 0.3-0.3 1-0.5 2.2V70c0.2-0.2 0.4-0.3 0.4-0.3 0 0 0.1 0 0.2 0 0.1 0 0.2 0.2 0.3 0.6 0 0.4 0 0.8-0.1 1.3 -0.1 0.5-0.2 0.9-0.4 1.4 -0.2 0.4-0.3 0.7-0.5 0.8 0 0.1-0.1 0.6-0.2 1.5 -0.1 0.9-0.3 2.1-0.5 3.8 -0.1 1.3-0.3 2.6-0.5 3.9 -0.2 1.3-0.3 2.2-0.3 2.7 -0.3 1.1-0.3 1.8 0 2.1l0.2 0.2c0 0.1 0.1 0.2 0.1 0.2 0 0 0.1 0.1 0.1 0.2 0 0.2 0 0.6 0.1 0.9l0.1 0.4c0.3 0.2 0.5 0.4 0.5 0.6 0 0.2 0 0.7-0.2 1.3 -0.1 0.7-0.3 1.5-0.3 2.6 -0.1 1-0.1 2.1-0.1 3.2s0 2.1 0.1 3.1c0.1 1 0.2 1.7 0.3 2.2 0.1 0.1 0.2 0.3 0.2 0.4 0 0.1-0.1 0.2-0.2 0.2 -0.2 0-0.4-0.3-0.4-1 0 0 0-0.1-0.1-0.4l-0.1-0.2c-0.2-0.2-0.4-0.4-0.4-0.6 0-0.2-0.1-0.4-0.3-0.8 0-0.3 0-0.7-0.1-1.1 -0.1-0.4-0.1-0.7-0.1-0.9 -0.4-0.6-0.4-1.3 0-1.9v-5.1c0.1-0.5 0.2-0.9 0.3-1.4 0-0.4 0-0.8 0-1.2 -0.1-0.3-0.2-0.4-0.3-0.2 0 0.2-0.2 0.8-0.4 1.8 -0.1 0.8-0.2 1.6-0.3 2.4 0 0.8 0 1.4 0 1.9 0 0.4 0 0.9 0 1.4 0 0.6-0.2 1-0.4 1.3 -0.2 2.5-0.3 4.6-0.3 6.2 0 1.6 0.1 2.3 0.3 2.2 0.1 0 0.2 0 0.2 0.1 0.1 0.1 0.2 0.3 0.2 0.6 0 0.2 0 0.4 0 0.5 0 0.1 0.1 0.3 0.3 0.5 0.3 0.1 0.5 0.2 0.5 0.1 0 0 0-0.3-0.2-0.8 0-0.5 0-0.8 0-0.8 0 0 0.1 0.1 0.3 0.5l0.4 0.6 0.3 0.4c0 0.1 0 0.2 0 0.2 0 0 0.1-0.1 0.3-0.2 -0.1-0.4 0-0.8 0.3-1.2 0.6-0.8 1.2-1.8 1.9-3 0.7-1.2 1.5-2.5 2.2-3.9 0.7-1.4 1.5-2.8 2.2-4.3 0.7-1.5 1.4-2.9 1.9-4.2 0.1-0.5 0.4-0.9 0.6-1.4 0.3-0.4 0.5-0.8 0.7-1.2l2.4-4.9c0.5-1.1 1.1-2.2 1.7-3.3 0.6-1.2 1.1-2.2 1.6-3.2 0.5-1 0.9-1.9 1.3-2.6 0.4-0.7 0.6-1.3 0.7-1.5 0.2-0.3 0.3-0.5 0.3-0.5 0 0-0.2 0-0.5 0.2 -0.2 0-0.4 0-0.5 0.1 -0.1 0.1-0.2 0-0.2-0.1 -0.1 0 0-0.2 0.3-0.7 0.4-0.5 0.7-0.8 1-0.9 0.1-0.1 0.4-0.3 0.7-0.8 0.3-0.4 0.6-0.9 0.9-1.4s0.5-1 0.8-1.5c0.2-0.5 0.3-0.9 0.3-1.2 0-0.1 0.1-0.6 0.3-1.4s0.5-1.6 0.7-2.6c0.3-0.9 0.5-1.8 0.8-2.7 0.3-0.9 0.5-1.5 0.6-2 0.3-0.3 0.6-0.8 1-1.3 0.4-0.5 0.8-1 1.2-1.4 0.4-0.5 0.7-0.8 1.1-1.2 0.3-0.3 0.6-0.5 0.8-0.5 0.2 0 0.3 0.3 0.3 0.8 0 0.5-0.2 1-0.6 1.5 -0.1 0.3-0.3 0.8-0.6 1.3 -0.3 0.6-0.5 1-0.7 1.3 -0.2 0.5-0.4 1.1-0.7 1.7 -0.3 0.6-0.5 1.2-0.6 1.7 -0.2 0.3-0.4 0.8-0.5 1.5 -0.2 0.6-0.3 1.1-0.5 1.5 -0.1 1.5-0.4 3.1-0.8 4.8 -0.4 1.6-0.9 3-1.4 4 -0.4 0.7-0.8 1.6-1.4 2.8 -0.5 1.2-1.1 2.4-1.7 3.8l-1.2 2.7c-0.7 1.4-1.2 2.7-1.7 3.8 -0.4 1.1-0.6 1.7-0.5 1.9 0 0.2 0 0.4 0 0.5 0 0.2-0.1 0.3-0.3 0.5l-0.3 0.4 -0.4 0.6c0 0.6-0.2 0.9-0.6 0.9 -0.2 0-0.4-0.2-0.4-0.6 0.2-0.3 0.2-0.5 0.1-0.6 -0.1 0-0.3-0.1-0.5-0.1 -0.1 0.1-0.2 0.2-0.3 0.3 -0.1 0-0.2 0.2-0.2 0.4 0 0.1-0.1 0.4-0.4 0.9 -0.3 0.5-0.6 1-1 1.7 -0.3 0.7-0.6 1.4-0.8 2.1 -0.2 0.7-0.4 1.2-0.6 1.3 0 0.3-0.1 0.8-0.4 1.4 -0.3 0.6-0.6 1.2-0.9 1.9 -0.3 0.9-0.6 1.7-0.9 2.6 -0.3 0.9-0.5 1.9-0.7 3.1 -0.2 1-0.4 1.9-0.5 2.8s-0.3 1.5-0.5 1.8c-0.1 0.5-0.1 1.1 0 1.6 0.1 0.5 0.3 1 0.4 1.5 0.1 0.5 0.1 0.9 0 1.3 -0.1 0.4-0.4 0.7-1 0.9 -0.4 0.1-0.9 0.3-1.5 0.6 -0.6 0.3-1.1 0.5-1.5 0.7 -0.9 0.6-1.7 1-2.2 1.4 -0.6 0.4-1.1 0.6-1.5 0.8 -0.5 0.2-0.9 0.3-1.3 0.4 -0.4 0.1-0.9 0.1-1.5 0.1 -0.5-0.1-1-0.2-1.4-0.4 -0.4-0.1-0.9-0.4-1.4-0.6 -0.5-0.3-1-0.7-1.7-1.2 -0.6-0.5-1.4-1.1-2.2-1.8 -0.8-1.1-1.3-1.7-1.5-2 -0.2-0.3-0.3-0.5-0.1-0.7 0.2-0.1 0.4-0.3 0.5-0.4 0.1-0.1 0.1-0.6-0.1-1.2 -0.2-0.3-0.4-0.6-0.4-0.9 0-0.3 0-0.5 0-0.7l0.2 0.2c0 0.1 0.1 0.2 0.1 0.2 0 0 0.1 0.1 0.1 0.2 0.1 0.3 0.2 0.6 0.3 0.8 0 0.2 0.1 0.3 0.3 0.3 0.1 0 0.1-0.1 0.1-0.4 0-0.2-0.1-0.5-0.3-0.8 -0.1-0.3-0.3-0.6-0.5-0.9 -0.2-0.3-0.4-0.5-0.6-0.6 0-0.2-0.1-0.5-0.2-0.8 -0.1-0.3-0.2-0.5-0.2-0.6 0-0.4-0.1-0.9-0.2-1.5 -0.1-0.6-0.3-1.1-0.5-1.6 -0.2-0.5-0.4-0.9-0.5-1.2 -0.2-0.3-0.3-0.4-0.4-0.4 0 0-0.1 0.1-0.1 0.1 -0.1 0.1-0.1 0.2-0.1 0.2v0.4c-0.1 0.1-0.2 0.1-0.3-0.1 0-0.2-0.2-0.5-0.4-0.8 0-0.1 0-0.5-0.1-0.9l-0.1-0.4c-0.3 0.1-0.6-0.5-0.8-1.8 -0.2-1.3-0.4-3.2-0.6-5.5 0-2.7 0-5 0.1-6.8 0.1-1.8 0.4-3.4 0.9-4.9 0.3-0.7 0.6-1.5 0.8-2.5 0.3-1 0.5-1.9 0.7-2.9 0.2-0.9 0.3-1.7 0.4-2.4 0.1-0.6 0.1-1 0.1-1l-0.4 0.7c-0.1 0.5-0.3 0.7-0.4 0.5 -0.1-0.2-0.2-0.6-0.2-1.3 0-0.6 0.1-1.4 0.2-2.3 0.1-1 0.3-2.1 0.4-3.2 0.2-1.2 0.4-2.3 0.6-3.6 0.2-1.2 0.5-2.4 0.7-3.5 0.3-1.3 0.6-2.4 0.8-3.1 0.2-0.7 0.3-1.2 0.3-1.6 0-0.3 0-0.6 0-0.6 0-0.1-0.1-0.2-0.2-0.3 -0.1 0-0.3 0.1-0.6 0.2 -0.3 0.1-0.6 0.3-1 0.5 -0.2 0.2-0.5 0.4-0.6 0.5 -0.2 0.1-0.5 0.2-0.8 0.3C98.3 56 97.8 56 97.3 56c-0.6 0-1.4 0-2.4 0 -0.8 0-1.5-0.1-2-0.1 -0.5 0-1-0.1-1.4-0.2 -0.4-0.1-0.7-0.2-1.1-0.3 -0.3-0.1-0.7-0.2-1.2-0.4 -0.6-0.2-1-0.4-1.4-0.5 -0.4-0.1-0.7-0.2-0.9-0.1 -0.3 0-0.5 0.2-0.8 0.4 -0.2 0.2-0.5 0.5-0.8 0.9 -0.2 0.1-0.4 0.3-0.5 0.4 -0.1 0.1-0.3 0.2-0.5 0.2 0-0.1 0-0.3 0.1-0.4 0-0.1 0.2-0.3 0.6-0.5 0.5-0.9 0.6-1.3 0.4-1.3 -0.2 0-0.4-0.2-0.4-0.7 0.1-0.1 0.2-0.3 0.1-0.4L85 52.7c-0.1 0-0.5-0.2-0.9-0.6 -0.5-0.4-1.1-1-1.7-1.7 -0.7-0.7-1.3-1.2-1.9-1.7 -0.6-0.4-1-0.6-1.2-0.6L78 43.7c-0.2-0.5-0.4-0.9-0.5-1.4 -0.1-0.5-0.2-1-0.2-1.5 0-0.6 0-1.2 0.1-1.9 0.1-0.7 0.2-1.7 0.3-2.8 0.4-1.8 0.8-3.5 1.3-5 0.5-1.5 1.1-2.8 1.7-4 0.5-0.7 1.1-1.3 1.8-1.8 0.6-0.5 1.7-1 3.1-1.5H86.6zM92.9 31.8c-0.4 0-1 0.3-1.7 1 -0.8 0.7-1.4 1.4-1.9 2.2 -0.3 0.8-0.6 1.5-0.8 2.2 -0.2 0.6-0.3 1.5-0.3 2.5 0 0.9-0.1 1.7-0.2 2.5 -0.1 0.8 0.2 1.7 0.8 2.6l3.9 4 1.4-2.7c0.3-1.9 0.7-3.5 1-4.8 0.3-1.3 0.5-2.5 0.6-3.6 0-1.1-0.1-2.1-0.5-3 -0.4-0.9-1.1-2-2.1-3.1H92.9zM109.6 102.9c0-0.1-0.1-0.2-0.2-0.1s-0.4 0.2-0.7 0.4c-0.5 0.3-0.7 0.8-0.8 1.3 0 0.6 0.2 1.3 0.5 2.3 0.2 1.2 0.5 1.7 0.9 1.7 0.1 0.1 0.3 0.2 0.4 0.1 0.1-0.1 0.1-0.2-0.1-0.4 -0.1-0.1-0.2-0.2-0.2-0.4 0-0.2-0.1-0.3-0.2-0.5l-0.2-0.7c0.2 0 0.4 0.1 0.8 0.4 0.3 0.3 0.6 0.6 0.9 1 0.5 0.5 1 0.9 1.3 1.2 0.3 0.3 0.6 0.4 0.7 0.4s0.2-0.3 0-0.9c-0.1-0.6-0.3-1.2-0.7-1.7 -0.1-0.3-0.2-0.6-0.3-0.9 0-0.3 0-0.5 0-0.6 0.1-0.2 0.2-0.4 0.2-0.4 0 0-0.2 0-0.6 0 -0.1 0.2-0.2 0.3-0.3 0.1 0-0.2-0.2-0.4-0.4-0.8C110.6 103.4 110.3 102.9 109.6 102.9zM108.1 100.6c0.2-0.1 0.4-0.3 0.4-0.6s-0.1-0.5-0.4-0.7V100.6z"/><path class="st0" d="M197.3 58.5c0 0.4-0.1 0.7-0.2 1 -0.1 0.3-0.3 0.5-0.5 0.7l-0.1 0.5c-0.1 0.5-0.1 0.9-0.1 1.3 -0.2 0.4-0.4 1-0.7 1.9 -0.3 0.9-0.5 1.9-0.6 2.9 -0.4 0.9-0.7 1.8-0.9 2.8s-0.4 1.7-0.6 2c-0.1 1.2-0.4 2.2-0.6 3 -0.3 0.7-0.6 1-0.8 0.8 -0.1 0-0.1 0-0.1 0.1 0 0 0 0.2 0.1 0.4 0 0-0.1 0.3-0.2 0.9 -0.1 0.6-0.3 1.2-0.5 1.9 -0.2 0.7-0.4 1.3-0.6 1.9 -0.2 0.6-0.4 1-0.6 1.2l-0.4 1.1c-0.1 0.4-0.3 0.8-0.5 1.3s-0.3 1-0.5 1.5c-0.4 1.2-1 2.5-1.7 3.9 -0.7 1.3-1.4 2.6-2.2 3.8 -0.8 1.2-1.6 2.2-2.3 3 -0.8 0.8-1.5 1.4-2.1 1.6 -0.9 0.4-1.9 0.5-3 0.2s-2.2-0.7-3.3-1.3c-1.1-0.6-2.1-1.5-3.1-2.5 -1-1-1.8-2.1-2.4-3.2 -0.2-0.4-0.4-1.1-0.7-2s-0.6-2-0.9-3.2c-0.3-1.2-0.6-2.6-0.9-4 -0.3-1.4-0.5-2.9-0.6-4.3 -0.2-1.2-0.4-2.6-0.5-4.2 -0.2-1.6-0.3-3.7-0.3-6.3v-6.5c-0.1 0-0.3 0.2-0.4 0.5 -0.1 0.3-0.2 0.6-0.2 1 0 0.4-0.2 1-0.6 1.8 -0.4 0.8-0.8 1.7-1.2 2.8 -0.3 0.4-0.6 1-0.9 1.6 -0.3 0.6-0.7 1.3-1 2.1 -0.4 0.7-0.7 1.5-1.1 2.2 -0.4 0.7-0.7 1.4-1.1 2 -0.7 1.2-1.3 2.4-2 3.6 -0.6 1.2-1 1.9-1.2 2.3 -0.2 0.1-0.4 0.5-0.8 1.1 -0.3 0.6-0.6 1-1 1.4 -0.3 0.6-0.6 1.1-1 1.7 -0.4 0.6-0.8 1.1-1.3 1.5 -0.5 0.5-0.9 0.9-1.4 1.2 -0.5 0.4-0.9 0.6-1.2 0.8 -0.9 0.4-2 0.6-3.2 0.6 -1.2 0-2.4 0-3.4-0.2 -0.7-0.2-1.4-0.6-1.9-1 -0.6-0.5-1.2-0.9-1.9-1.5l-2.1-2.1 -4.8-7.8 -2.6-8.9 -0.2-7.5 2.1-10.2 5.5-11.5 1.1-1.9c0.7-1.3 1.5-2.6 2.5-4 1-1.4 2-2.7 3.1-4 1.1-1.2 2.1-2.4 3.1-3.3 1-1 1.8-1.7 2.5-2.1 0.4-0.4 0.8-0.7 1.3-1 0.5-0.3 0.9-0.6 1.2-0.8 0.3-0.4 0.7-0.7 1-0.8 0.3-0.2 0.6-0.3 0.8-0.3 0.1 0.2 0.4 0.2 0.7 0.1 0.3-0.1 0.6-0.3 0.8-0.5 0.1-0.1 0.3-0.2 0.3-0.2 0.1 0 0.3 0.1 0.7 0.2 0.3 0.2 0.9 0.5 1.7 0.9 0.8 0.4 1.6 0.8 2.5 1.2 1.9 1.1 3.6 2.3 5 3.7 1.4 1.4 2.6 3 3.4 4.9 0.1 0.5 0.3 1 0.3 1.3s0.1 0.7 0.1 1.1 0 0.9-0.1 1.4c-0.1 0.6-0.2 1.3-0.3 2.1 -0.2 1.2-0.3 2.1-0.5 2.4 -0.1 0.4-0.4 0.7-1 1.1 -0.1 0-0.4 0.1-0.6 0.3 -0.3 0.2-0.4 0.4-0.4 0.7 0 0-0.1 0.1-0.1 0.2 -0.1 0.1-0.2 0.1-0.2 0.1v-3.5c0.1-1.5 0.2-2.6 0.2-3.2 0-0.6-0.2-1.1-0.5-1.4 -0.5-0.2-0.8-0.7-0.8-1.3 -0.2-0.7-0.5-1.3-0.8-1.8 -0.3-0.5-0.8-0.7-1.4-0.7 -0.1 0-0.3 0-0.4-0.1l-0.6-0.1c-0.3-0.3-0.6-0.5-0.6-0.6l-0.4-0.2c-0.1 0-0.2 0.3-0.2 0.8s-0.1 1.1-0.1 1.7c0 0.6 0 1.2 0.1 1.8 0 0.6 0.1 0.9 0.2 1 0.1 0.1 0 0.5-0.4 1.2 -0.4 0.6-0.9 1.1-1.4 1.3 -0.2 0.1-0.4 0.3-0.6 0.5 -0.1 0.2-0.3 0.5-0.6 0.9 -0.2 0.4-0.6 1-1 1.7 -0.4 0.7-1.1 1.6-1.9 2.8 -0.1 0-0.3 0.2-0.6 0.6 -0.3 0.4-0.7 0.9-1 1.5s-0.7 1.1-0.9 1.6c-0.2 0.5-0.3 0.8-0.2 1 0 0.2-0.1 0.6-0.2 1.1s-0.3 1.1-0.4 1.8c-0.2 0.5-0.5 1.1-0.7 1.7 -0.2 0.6-0.4 1.1-0.4 1.4 0 0.1 0 0.5 0 1 0 0.6-0.1 1-0.3 1.4 -0.4 0.7-0.7 1.7-0.9 3 -0.2 1.3-0.4 3.3-0.6 5.9 0 0.7 0 1.2 0.1 1.4 0 0.2 0.3 0.3 0.6 0.3 0.5 0.2 0.8 0.7 0.9 1.4 0 0.7-0.1 1.4-0.5 2.1 -0.7 1-0.7 3.2 0 6.5 0.4 1.1 0.6 1.9 0.6 2.3 0 0.4-0.1 0.6-0.3 0.6 -0.1 0.1-0.3 0.3-0.3 0.7 -0.1 0.4-0.1 0.8 0 1.3 0 0.5 0.1 1 0.3 1.4 0.1 0.5 0.3 0.8 0.5 0.9 0.3 0.3 0.8 0.3 1.4 0 0.6-0.4 1.4-1.2 2.4-2.4 0.6-0.8 1.4-2 2.3-3.6 0.9-1.6 1.8-3.3 2.7-5.1 0.9-1.8 1.7-3.4 2.4-5 0.7-1.6 1.1-2.7 1.3-3.3 0.2-0.5 0.5-1.2 0.8-2.1 0.3-0.8 0.6-1.5 1-2 0.6-1.6 1.1-2.8 1.4-3.7 0.3-0.9 0.6-1.7 0.8-2.4 0.2-0.7 0.3-1.4 0.3-2.1 0-0.7 0-1.7 0-3 0-1.2 0-2.1 0-2.7 0-0.7 0.1-1.2 0.1-1.7 0.1-0.4 0.2-0.8 0.3-1.1 0.1-0.3 0.3-0.6 0.5-1.1 0.7-1.4 1.4-2.1 2.1-2.1 0.7-0.2 1.6-0.2 2.8-0.1 1.2 0.1 2.3 0.4 3.1 0.6 1.4 0.6 2.5 1.2 3.4 1.6 0.9 0.4 1.6 0.8 2.2 1.2 0.6 0.4 1.1 0.7 1.5 1 0.4 0.3 0.8 0.7 1.3 1.2 0.4 0.5 0.8 1.1 1.2 1.6 0.4 0.6 0.6 0.9 0.6 1.2 0.2 0.6 0.4 1.4 0.4 2.6s0 2.4-0.1 3.7c-0.1 1.3-0.3 2.6-0.5 3.9 -0.3 1.3-0.6 2.4-0.9 3.4 -0.2 0.7-0.3 1.3-0.5 1.9 -0.1 0.6-0.1 1.3 0.1 2.2 0 0.8 0 1.6 0 2.4 0 0.8-0.1 1.6-0.3 2.5 -0.2 0.5-0.3 1-0.4 1.4 -0.1 0.4-0.1 0.8-0.1 1.3s0 1.1 0.1 1.8c0.1 0.7 0.2 1.6 0.4 2.8 0.1 0.7 0.2 1.5 0.2 2.3 0 0.8 0.1 1.6 0.1 2.3 0 0.8 0 1.5 0 2.2 0 0.7 0 1.3 0 1.8v3.9l-0.4-1.2 -1-0.6v0.6c0 0.6 0.2 1.1 0.7 1.4 0.1 0.4 0.3 0.5 0.5 0.4 0.2-0.1 0.7-0.6 1.6-1.4 0.3-0.5 0.7-1.2 1.1-1.9 0.5-0.8 0.9-1.4 1.3-1.8 0.2-0.6 0.4-1.4 0.8-2.2 0.3-0.8 0.6-1.5 1-2.1 0.4-1 0.8-1.9 1.2-2.7s0.7-1.9 1.2-3.2c0.4-1.3 0.9-2.9 1.5-4.9 0.6-2 1.3-4.6 2.2-7.7 0.5-2.6 1-4.5 1.5-5.6 0.5-1.2 0.9-1.7 1.3-1.7 0 0.1 0.1 0.2 0.1 0.3 0 0.1 0 0.2 0.1 0.4C197.5 56.3 197.5 57.1 197.3 58.5z"/><path class="st0" d="M199.3 7.7c0.5 0.1 1.1 0.2 1.7 0.2s1 0 1.2 0c0.7 0.1 1.3 0.2 1.8 0.3 0.5 0.1 1.1 0.3 1.6 0.5 0.5 0.2 1.1 0.5 1.7 0.8 0.6 0.3 1.2 0.6 1.9 1 2.6 1.3 4.4 3 5.5 5.1 0.4 0.6 0.7 1.3 0.9 2.2s0.3 1.8 0.4 2.9 0 2.2-0.1 3.3c-0.1 1.2-0.2 2.3-0.4 3.4 -0.3 0.7-0.5 1.4-0.6 2.2 -0.1 0.8-0.1 1.3-0.1 1.7 0 0.4-0.1 1-0.2 1.8 -0.1 0.8-0.3 1.8-0.6 2.8 -0.2 1.1-0.5 2.1-0.8 3.2 -0.3 1.1-0.6 2.1-1 2.9 -0.4 1.2-0.7 2.1-0.8 3 -0.1 0.8-0.2 1.7-0.2 2.7 0 0.9 0 1.5-0.1 1.9 0 0.4-0.2 0.7-0.4 1 -0.1 0.1-0.2 0.3-0.4 0.4 -0.1 0.1-0.2 0.4-0.2 0.7v0.9c-0.2 0.2-0.3 0.4-0.1 0.4 0.1 0 0.3 0.1 0.5 0.1 0.1 0 0.2 0.1 0.4 0.3 0.1 0.2 0.1 0.3-0.1 0.4 0 0.4 0 0.7-0.1 1 -0.1 0.3-0.1 0.7-0.1 1 -0.2 0.5-0.3 0.9-0.4 1 -0.1 0.1-0.2 0.2-0.5 0.2 -0.1 0-0.3 0.1-0.5 0.3 -0.2 0.2-0.3 0.5-0.3 1 0 0.1 0.1 0.3 0.2 0.5l0.2 0.4c0.1 0 0.3 0.1 0.5 0.3s0.4 0.4 0.6 0.8c0.1 0.4 0.1 1 0.1 1.7s0 2-0.1 3.7c0 0.8 0.1 1.5 0.2 2.2l0.3 1.2 2.8-1.5c0.8-0.4 1.5-0.9 2.3-1.4 0.8-0.5 1.5-0.9 2-1.4 0.6-0.1 1.2-0.3 1.7-0.7 0.6-0.4 1.1-0.6 1.4-0.7 0.4-0.1 1-0.5 1.8-1.1 0.8-0.6 1.6-1.3 2.6-2.1 0.9-0.8 1.9-1.7 3-2.7 1-0.9 2-1.8 2.9-2.7 0.6-0.4 1.1-0.8 1.4-1.2 0.4-0.3 0.6-0.5 0.8-0.4l0.1-0.1c0.1-0.1 0.1-0.2 0.1-0.4 0.6-0.7 1.2-0.9 1.9-0.6 0.1 0.2 0.3 0.3 0.5 0.3 0.2 0 0.4-0.2 0.5-0.5 0.2-0.1 0.4-0.2 0.5-0.3 0.1-0.1 0.2-0.2 0.3-0.3l0.1-0.4c0-0.1 0.3-0.6 0.8-1.4 0.6-0.8 1.2-1.8 2.1-2.9 1.5-1.9 2.8-3.4 3.8-4.6 1.1-1.2 1.8-1.8 2.4-1.8 0.2 0 0.2 0.1 0 0.3 -0.2 0.2-0.3 0.4-0.5 0.6 -0.2 0.2-0.3 0.4-0.3 0.6 0 0.2 0.3 0.3 1 0.3v1.2c-0.2 0.4-0.6 1-1.1 1.8 -0.5 0.8-1.1 1.8-1.8 2.7 -0.7 1-1.4 2-2.2 3 -0.8 1-1.5 1.8-2.2 2.4 -0.6 0.7-1.4 1.4-2.2 2.1 -0.8 0.7-1.6 1.4-2.4 2.1 -0.8 0.6-1.4 1.1-2 1.5 -0.6 0.4-0.9 0.6-1 0.6 -0.2 0-0.7 0.3-1.5 0.9s-1.8 1.3-2.8 2.2c-1 0.8-1.8 1.6-2.6 2.2 -0.7 0.7-1.2 1.1-1.5 1.3 -0.4 0.2-0.8 0.5-1.1 0.9 -0.4 0.4-0.9 0.8-1.5 1.2l-1.4 1.9h-2.5c-0.9 0-1.6 0-2.1 0.1 -0.5 0.1-1.1 0.3-1.8 0.8 -0.4 0.2-0.8 0.4-1.2 0.6l-0.5 0.4c0 0.1 0.1 0.3 0.4 0.5 0.3 0.2 0.6 0.3 0.9 0.5 0.4 0.1 0.7 0.2 1.1 0.3 0.4 0 0.6 0 0.8-0.1 0.3 0 0.5 0 0.6 0 0.1 0 0.1 0.1 0 0.3 0 0.2 0.1 0.5 0.2 0.7 0.1 0.2 0.5 0.4 0.9 0.7 0.5 0.2 0.8 0.4 1 0.4 0.2 0 0.2 0 0-0.2 -0.1-0.3-0.1-0.5 0-0.6 0.1 0 0.4-0.1 0.8-0.1 0.8 0 1.6 0.2 2.4 0.6 0.8 0.4 1.2 0.8 1.2 1.3V77l-1.2-0.8 -0.5-0.4 -0.4-0.2c-0.1 0.1 0 0.3 0.3 0.7 0.3 0.4 0.7 0.8 1.2 1.2 0.5 0.4 0.9 0.9 1.4 1.3 0.5 0.4 0.8 0.7 1.1 0.8 0.6 0.1 1.4 0.8 2.2 2.1 0.9 1.2 1.9 2.8 3 4.7 0.6 1 1 1.8 1.4 2.6s0.5 1.3 0.5 1.5c0 0.1 0.2 0.3 0.5 0.8 0.3 0.4 0.7 0.9 1 1.3 0.4 0.6 0.8 1.3 1.1 1.9 0.4 0.7 0.6 1.4 0.8 2.1 0.1 0.7 0.3 1.5 0.6 2.4 0.3 0.9 0.7 1.7 1 2.3 0.2 0.3 0.4 0.7 0.6 1 0.2 0.3 0.3 0.6 0.5 0.8 0.2 0.3 0.3 0.6 0.4 0.8 0 0.1 0 0.4 0 0.8 0 0.5 0.2 0.9 0.4 1.3 0.2 0.5 0.5 1.1 0.8 1.8 0.3 0.7 0.4 1.3 0.4 1.7 0 0.6 0.1 1.3 0.3 2 0.2 0.7 0.4 1.2 0.6 1.4 0.3 0.7 0.5 1.1 0.5 1.2 0 0.1-0.2 0.3-0.5 0.5 -0.4 0.3-0.6 0.4-0.7 0.3 -0.1-0.1-0.1-0.3-0.1-0.7 0-0.5-0.1-0.8-0.2-1 -0.1-0.2-0.4-0.2-0.9 0 -0.2 0-0.3 0.2-0.3 0.6 0.2 0.6 0.3 1.3 0.5 2.3 0.2 1 0.4 1.9 0.5 2.8 0.2 0.9 0.3 1.8 0.3 2.6 0.1 0.8 0.1 1.2 0 1.4 -0.1 0.2-0.1 0.6-0.1 1.1 0.1 0.5 0.1 0.9 0.1 1.4 0.2 0.7 0.4 1.4 0.4 2.1 0 0.7 0 1.5 0 2.3 0 0.7-0.1 1.4-0.2 2.2 -0.1 0.8-0.2 1.5-0.2 2 0 0.4 0 0.9-0.1 1.4 -0.1 0.6-0.3 1-0.6 1.3 -0.1 0.7-0.1 1.1-0.1 1.2 0 0.1 0 0.3 0.1 0.4 0.6 0.1 0.9 0.3 0.7 0.5 -0.1 0.3-0.6 0.5-1.2 0.6 -0.5 0.1-0.9 0.2-1 0.4 -0.1 0.2-0.4 0.7-0.6 1.7l-1 1.9c-0.3 0.4-1 0.7-1.9 0.9 -0.9 0.2-1.9 0.3-3.1 0.4 -1.2 0-2.3 0-3.6-0.1 -1.2-0.1-2.3-0.4-3.3-0.7 -0.8-0.2-1.5-0.4-2.2-0.8 -0.6-0.3-1.2-0.5-1.5-0.7 -0.5-0.4-0.9-0.6-1.2-0.7 -0.3-0.1-0.6-0.1-1-0.1 -0.4 0.1-0.8 0-1.2-0.2 -0.4-0.2-1.2-0.9-2.3-1.9 -0.8-0.6-1.5-1.2-2.1-1.9 -0.6-0.7-0.8-1.2-0.8-1.5 -0.2-0.1-0.5-0.4-0.8-0.8 -0.3-0.4-0.6-0.8-0.8-1 -0.1-0.3-0.4-0.9-0.9-1.7 -0.5-0.8-0.9-1.7-1.3-2.7 -0.4-1-0.8-1.9-1.2-2.8 -0.4-0.9-0.7-1.5-0.9-1.7 -1-1.6-1.9-3.7-2.7-6.1s-1.8-5.4-2.7-9c-0.2-1.1-0.5-2.1-0.8-3 -0.3-0.9-0.5-1.5-0.6-1.9 -0.2-0.4-0.5-0.8-0.8-1.2 -0.3-0.4-0.4-0.7-0.4-0.8 0-0.4-0.1-1.1-0.3-2.2s-0.4-2.2-0.7-3.4c-0.1-0.6-0.3-1.4-0.5-2.2 -0.2-0.8-0.3-1.7-0.5-2.6 -0.2-0.9-0.3-1.8-0.5-2.7 -0.1-0.9-0.2-1.7-0.3-2.4 -0.1-1.3-0.2-2.4-0.3-3.2 -0.1-0.8-0.2-1.4-0.3-1.8 -0.1-0.4-0.2-0.7-0.4-0.9 -0.1-0.2-0.3-0.4-0.4-0.5 -0.3-0.2-0.5-0.5-0.7-0.9 -0.2-0.3-0.3-0.8-0.4-1.5 -0.1-0.6-0.2-1.5-0.3-2.6s-0.1-2.5-0.2-4.2c0-0.6 0-1.4-0.1-2.3 -0.1-0.9-0.1-1.9-0.2-3s-0.2-2.1-0.3-3.2c-0.1-1.1-0.2-2.1-0.2-3.1 0-1.6 0-3.1 0-4.4s0-2.5 0.1-3.7c0-1.2 0.1-2.4 0.3-3.6 0.1-1.2 0.3-2.6 0.5-4.2 0.1-0.8 0.3-2 0.4-3.6 0.1-1.6 0.1-3.3 0.1-5.1 0.3-2.8 0.5-5.2 0.7-7.1 0.2-2 0.4-3.6 0.5-5 0.1-1.4 0.3-2.5 0.4-3.5 0.1-0.9 0.2-1.7 0.3-2.5 0.1-0.7 0.3-1.4 0.4-2.1 0.2-0.6 0.4-1.4 0.6-2.3 0.5-0.8 0.8-1.6 0.9-2.3 0.1-0.7 0.2-1.2 0.2-1.5 0.4-0.7 0.7-1.2 0.9-1.4 0.2-0.3 0.7-0.4 1.3-0.4H199.3zM207.6 67c-0.2 0.3-0.3 0.8-0.3 1.3s0.1 0.8 0.3 0.8c0.2 0 0.4-0.1 0.4-0.4 0-0.3 0-0.5 0-0.8V67H207.6zM211.6 75.6c-0.2 0-0.4 0.1-0.4 0.4 0 0.3 0 0.6 0 1 0 0.1 0 0.3 0 0.5 0 0.2 0.2 0.3 0.4 0.3v0.8 0.6c-0.2-0.1-0.4 0.2-0.4 0.9 0 0.8 0 1.7 0 2.9 0 0.8 0 1.5 0.1 1.9 0 0.5 0.1 0.9 0.2 1.3 0.1 0.4 0.2 0.7 0.3 0.9 0.1 0.3 0.2 0.6 0.3 0.9 0.3 0.4 0.6 0.9 0.9 1.7 0.3 0.7 0.6 1.5 0.9 2.4s0.6 1.7 0.8 2.6c0.3 0.9 0.5 1.6 0.6 2.3 0.1 0.7 0.3 1.3 0.5 2 0.2 0.6 0.4 1 0.4 1.1 0 0.2 0 0.7 0.1 1.5 0.1 0.7 0.1 1.6 0.1 2.6 0.1 1 0.2 1.9 0.4 2.9 0.2 1 0.4 1.7 0.5 2.3 0.2 0.5 0.3 1 0.3 1.5 0 0.6 0 1.1 0 1.5 0.2 0.6 0.5 1.4 0.8 2.4 0.3 1 0.7 1.9 1 2.5 0.4 0.3 0.6 0.7 0.7 1.1 0.1 0.4 0.1 0.7 0.1 0.9 0 0.1 0.1 0.3 0.3 0.7 0.2 0.4 0.4 0.7 0.6 1.1 0.4 0.3 1 1 1.6 1.9 0.6 0.9 1.2 1.8 1.9 2.7 0.4 0.8 0.8 1.5 1.2 2.1 0.4 0.6 0.8 1.1 1.2 1.6 0.4 0.5 0.8 1 1.3 1.4 0.5 0.5 1 1 1.5 1.5l2.4 2.3c0.4 0.4 0.7 0.7 0.9 0.9 0.3 0 0.6-0.5 0.8-1.4 0.3-0.9 0.5-2 0.8-3.2 0-0.5 0.1-1.5 0.1-2.9 0-1.4 0-2.9 0-4.4 0-1.5 0-2.9 0-4.1 0-1.2-0.1-1.8-0.1-1.9l-0.3-1c-0.2-0.5-0.3-1.3-0.3-2.4 -0.1-1.1-0.4-2.4-0.6-3.9 -0.3-1.6-0.6-3.2-1-4.9 -0.4-1.7-0.7-3.4-1.2-5.1 -0.4-1.7-0.8-3.2-1.1-4.6 -0.4-0.8-0.7-1.4-0.8-1.7 -0.2-0.3-0.4-0.6-0.6-0.9 -0.4-0.2-0.7-0.4-0.9-0.8 -0.2-0.3-0.4-0.9-0.6-1.9 -0.4-0.9-0.7-1.6-0.9-2.2 -0.2-0.6-0.5-1-0.6-1.4 -0.2-0.4-0.4-0.7-0.5-1 -0.2-0.3-0.3-0.6-0.5-0.9 -0.3-0.4-0.8-1-1.5-1.7 -0.6-0.7-1.4-1.3-2.2-2 -0.8-0.6-1.6-1.2-2.5-1.8 -0.8-0.6-1.6-1-2.3-1.3 -0.1-0.3-0.4-0.5-0.7-0.6 -0.3-0.1-0.5-0.3-0.5-0.4 -0.1 0-0.4-0.2-0.8-0.4 -0.4-0.2-0.7-0.4-1.2-0.6 -0.4-0.2-0.8-0.4-1.2-0.5C211.9 75.7 211.7 75.6 211.6 75.6z"/><path class="st0" d="M221.6 26.3c0.1-0.2 0.5-0.4 1.1-0.5 0.6-0.2 1.6-0.3 3-0.5 1.1 0 2.2-0.1 3.4-0.4 1.2-0.2 2.1-0.5 2.6-0.6 0.8 0 1.8-0.1 3.1-0.3 1.3-0.2 2.6-0.3 4-0.5 1.2 0 2.5-0.1 3.7-0.4 1.2-0.2 2.1-0.4 2.6-0.4l0.7-3.1 0.7-3.2c0.2-1.1 0.4-2 0.6-3 0.2-0.9 0.3-1.8 0.5-2.6 0-0.4 0.1-0.7 0.2-1.1 0.1-0.3 0.2-0.6 0.3-0.9 0.3-1.9 0.6-3.3 0.9-4.2 0.2-0.9 0.5-1.6 0.7-2.1 0.1-0.3 0.4-0.6 0.8-0.8 0.4-0.2 0.7-0.3 1.1-0.4 0.4-0.1 0.7-0.1 0.9-0.1 0.2 0 0.3 0.1 0.3 0.2l3.9-1.5 2.6 0.7 3.6 0.8 3.7 1.6 -0.3 0.5c-0.2 0-0.3 0.2 0 0.7 0.2 0.5 0.3 1 0.3 1.8 0 0.5 0 1-0.1 1.3 -0.1 0.4-0.1 0.7-0.2 1s-0.1 0.6 0 0.9c0 0.3 0.1 0.6 0.3 1.1 0.3 0.3 0.4 0.8 0.4 1.4 0 0.6-0.1 1-0.1 1.2 0 0 0 0.3 0 0.8 0 0.5 0 1 0.1 1.5 0 0.6 0.1 1.1 0.1 1.5s0.2 0.7 0.3 0.8c0.2 0.4 0.8 0.6 1.6 0.5 0.8 0 2.3-0.3 4.4-0.8 0.8-0.2 1.7-0.4 2.6-0.6 0.9-0.2 1.8-0.4 2.7-0.5 0.7-0.1 1.3-0.2 2-0.3 0.6-0.1 1.3-0.2 1.8-0.3 0.7-0.1 1.4-0.2 2-0.2 0.6 0 1.1 0 1.5 0.1 0.7-0.1 1-0.1 1 0.1 0 0.2-0.2 0.4-0.6 0.8 -0.4 0.4-1.4 1-2.9 1.7 -0.4 0.2-0.9 0.4-1.3 0.6 -0.5 0.2-0.9 0.3-1.5 0.5 -1.6 0.5-3.2 0.9-4.7 1.2 -0.3 0.1-0.6 0.2-0.9 0.2s-0.6 0.1-0.9 0.2c-0.7 0.1-1.3 0.3-1.9 0.4 -0.6 0.1-1.2 0.3-1.7 0.4 -0.2 0-0.4 0.1-0.5 0.1 -0.1 0-0.3 0.1-0.4 0.1 -2.6 0.8-4 1.4-4.2 1.9 -0.1 0.2-0.1 1-0.1 2.6 0 1.5 0 3.2 0.1 5.1v7.3l-0.1 0.1c-0.3 0.1-0.5 0.1-0.6 0.1 -0.1 0-0.3 0.2-0.3 0.5 -0.1 0.3-0.1 1-0.2 2 -0.1 1-0.1 2.5-0.2 4.5 -0.1 1.9-0.2 4.5-0.3 7.7v11.8l1 0.4c0.8 0.4 1.2 0.7 1.2 1 0 0.3-0.4 0.4-1.2 0.4l-1.4-0.4v5.9c-0.1 0.7-0.2 1.5-0.2 2.3 0 0.8-0.1 1.6-0.1 2.3 0 0.7 0 1.3 0.1 1.8 0 0.5 0.1 0.9 0.2 1.1 0 0.7 0.1 1.4 0.2 2.1 0.1 0.6 0.2 1.1 0.2 1.5l0.4 1.4 -0.8-1.1 -0.3-1v1c0 0.4 0 0.9 0 1.7 0 0.7 0.1 1.5 0.3 2.1 0.2 1.4 0.4 2.4 0.6 3 0.2 0.6 0.5 0.7 0.8 0.1 0-0.2 0.1-0.3 0.3-0.3 0.2 0 0.3 0.2 0.3 0.5 0.1 0.4 0.2 0.6 0.2 0.8 0 0.1 0.2 0 0.4-0.4 0.2-0.2 0.5-0.2 0.6-0.1 0.2 0.1 0.4 0.6 0.7 1.5 0.4 0.7 0.6 1.2 0.6 1.4s0 0.4-0.1 0.4h-1.1c-0.2 0.3-0.7 0.1-1.4-0.7 -0.4-0.5-0.6-0.7-0.8-0.6 -0.1 0.1 0 0.4 0.3 1 0.2 0.2 0.3 0.4 0.3 0.5 0 0.1-0.2 0.2-0.6 0.2l-0.2-0.1c-0.1 0-0.2-0.1-0.3-0.1 -0.1 0-0.2-0.1-0.3-0.1v0.4c0.2 0.4 0.3 0.6 0.3 0.8 0 0.1-0.3 0.2-0.6 0.2 -0.2 0-0.3 0.3-0.3 1 0 0.9 0.1 1.5 0.4 1.9 0.3 0.3 0.9 0.8 2 1.3l2.2 0.7 1.4-1.4c0.5-0.2 1.1-0.6 1.7-1.2 0.6-0.6 1.2-1.1 1.7-1.6 0.5-0.7 1.2-1.5 2.1-2.5 0.9-1 1.7-1.9 2.3-2.8 0.9-0.9 1.8-1.8 2.6-2.7 0.8-0.9 1.4-1.6 1.7-2.1 0.3-0.6 0.8-1.3 1.3-2.2 0.6-0.9 1.1-1.8 1.6-2.7 0.5-0.9 1-1.7 1.4-2.3 0.4-0.7 0.6-1.1 0.6-1.2l0.2-0.4 0.4-0.6c0.1-0.1 0.5-0.7 1.1-1.7 0.6-1 1.2-2.1 1.9-3.3 0.7-1.2 1.3-2.4 1.9-3.5s0.9-1.8 1.1-2.1c0.5-0.6 1-1.4 1.6-2.3 0.6-1 1.1-2 1.5-3 0.5-1 0.8-2 1-2.9 0.2-0.9 0.3-1.6 0.1-1.9 0.3-0.5 0.5-0.8 0.6-0.9 0.1-0.1 0.4 0 0.8 0.2 0.2 0.2 0.3 0.6 0.2 1 0 0.4 0 0.8 0.2 1.2 -0.4 0.4-0.7 0.9-0.8 1.3 -0.1 0.5-0.1 0.9-0.1 1.4 0 0.5 0.1 0.9 0.1 1.4 0 0.5-0.1 0.9-0.4 1.3 -0.7 0.8-1.4 1.7-2.2 2.6 -0.8 0.9-1.2 1.7-1.2 2.3 -0.4 0.8-0.8 1.7-1 2.6 -0.2 0.9-0.3 1.5-0.3 1.7 -0.3 0.1-0.7 0.6-1.2 1.6 -0.5 1-1.1 2.1-1.6 3.3 -0.6 1.2-1.1 2.4-1.5 3.6 -0.5 1.2-0.8 2-0.9 2.6 -0.1 0.5-0.4 1.1-0.7 1.7 -0.3 0.6-0.7 1.1-1.1 1.5 -0.2 0.1-0.5 0.6-0.9 1.3 -0.4 0.7-0.9 1.5-1.4 2.1 -0.4 0.7-0.9 1.3-1.4 2 -0.6 0.6-1 1.2-1.4 1.5 -1.2 0.9-2.2 1.7-2.8 2.4 -0.6 0.8-1 1.3-1 1.7 0 0.3-0.1 0.5-0.3 0.5 -0.2 0-0.3 0-0.5-0.2 -0.2-0.2-0.3-0.2-0.4-0.1 -0.1 0.1-0.1 0.3-0.2 0.6 -0.1 0.3-0.2 0.7-0.4 1.2 -0.2 0.5-0.4 0.9-0.8 1.4 -0.3 0.5-0.8 1.1-1.3 1.7 -0.5 0.6-1 1.2-1.5 1.9s-1 1.2-1.4 1.8c-0.4 0.6-0.7 1.1-0.8 1.5 -2.4 1.8-4.6 2.7-6.5 2.9 -1.9 0.2-3.7-0.1-5.3-0.9 -1.6-0.8-2.9-1.9-4.1-3.3 -1.2-1.4-2.1-2.9-2.9-4.3 -0.8-1.4-1.4-2.7-1.9-3.9 -0.5-1.1-0.8-1.8-0.9-1.9 -0.1-0.2-0.2-0.4-0.1-0.7 0.1-0.3 0.2-0.5 0.4-0.8 0.1-0.2 0.3-0.5 0.4-0.7 0.1-0.2 0.1-0.5-0.1-0.6 -0.2-0.4-0.4-0.7-0.5-1 -0.1-0.3-0.3-0.4-0.5-0.4v2.8 2.8c-0.2 0.1-0.5 0-0.9-0.3 -0.4-0.3-0.6-0.6-0.6-0.9 0.2-0.1 0.4-0.2 0.4-0.3 0 0 0.1 0 0.3 0 0 0.1 0.1 0.2 0.2 0.1 0.1-0.1 0.2-0.2 0.2-0.4l-0.6-0.6c-0.5 0-0.8-0.1-0.9-0.4 0-0.3 0.1-0.6 0.4-1 0.4-0.3 0.6-0.5 0.6-0.6s-0.2-0.2-0.6-0.5c-0.1 0-0.3 0-0.4 0s-0.2 0.2-0.2 0.4c-0.2 0.5-0.3 0.7-0.5 0.4 -0.1-0.3-0.1-0.7 0.1-1.2v-0.9c-0.4 0-0.4-0.4 0-1.1 0.1-0.5 0.1-1.2 0.1-2.3 0-1.1 0-2.2-0.1-3.4 0-1.2-0.1-2.4-0.3-3.7s-0.3-2.3-0.5-3.1c-0.4-1.3-0.7-2.5-0.9-3.5 -0.2-1-0.3-2.1-0.4-3.2 0-1.1 0-2.3 0-3.7s0.1-3 0.2-4.9c0-1 0-2.1 0-3.5s0.1-2.7 0.1-4.2c0.1-1.5 0.1-3 0.2-4.5 0.1-1.5 0.2-2.9 0.3-4.2 0-1.3 0-2.6 0.1-4 0-1.4 0.1-2.7 0.2-4 0.1-1.3 0.1-2.5 0.2-3.6 0.1-1.1 0.2-2 0.3-2.6 0.2-1.4 0.4-2.7 0.5-3.9 0.1-1.2 0.2-1.9 0.2-2.1s0-0.4 0-0.5c0-0.1-0.2-0.1-0.6-0.1 -0.4 0-0.9 0.1-1.8 0.2 -0.8 0.1-2 0.3-3.6 0.4 -0.3 0.2-1.1 0.3-2.3 0.3 -1.2 0-2.5 0-3.9 0 -1.2 0-2.4 0.1-3.4 0.3 -1 0.2-1.6 0.3-1.8 0.5 -0.5 0.2-1.4 0.3-2.6 0.3 -1.2 0-2.1-0.1-2.8-0.3 -0.9-0.4-1.3-0.6-1.4-0.7C220.8 27.4 221 27 221.6 26.3z"/></svg>