<svg xmlns="http://www.w3.org/2000/svg" viewBox="0 0 258.9 133"><style type="text/css">  
	.st0{fill:#F7941E;}
</style><path class="st0" d="M18.5 28.2c1.1 0 2 0 2.7 0 0.7 0 1.4 0.1 2 0.2 0.7 0.1 1.4 0.2 2.2 0.3 0.8 0.1 1.8 0.3 3 0.6 3.8 0.9 6.9 2.2 9.2 3.7 2.3 1.6 4.3 3.7 5.9 6.3 1 1.5 1.5 2.6 1.7 3.5 0.2 0.8-0.1 1.4-0.8 1.8 -0.5 0.4-0.7 0.9-0.6 1.5 0.1 0.6 0.6 1.2 1.6 1.8 0.5 0.6 0.8 1.2 1 1.6 0.2 0.5 0.3 1.2 0.3 2.1 0 0.8-0.1 1.4-0.3 1.8 -0.2 0.4-0.4 0.8-0.6 1.2 -0.2 0.2-0.5 0.5-0.6 0.8 -0.2 0.3-0.3 0.5-0.3 0.7 0 0.2-0.2 0.4-0.5 0.6 -0.3 0.2-0.7 0.4-1.1 0.6 -0.5 0.2-0.9 0.4-1.4 0.5C41.4 58 41 58 40.6 58c-1 0-1.8-0.2-2.4-0.7s-1-1-1-1.5c0-0.1 0-0.2-0.1-0.2 -0.1-0.1-0.1-0.1-0.2-0.2l-0.2-0.2c-0.1 0-0.2-0.1-0.4-0.2 -0.1-0.1-0.1-0.1-0.1-0.2 0.1-0.1 0.2-0.2 0.2-0.2 -0.1 0-0.1 0-0.2-0.1 -0.3 0-0.5 0.1-0.5 0.3l-0.5 0.4c-0.5 0-0.5-0.4 0-1.2 0.5-0.4 0.7-0.8 0.5-1.2 -0.1-0.4-0.3-0.7-0.5-0.7 -0.6 0-0.6-0.6 0-1.8 0-0.5 0-1.1-0.1-1.9 -0.1-0.8-0.1-1.6-0.2-2.4 -0.1-0.8-0.2-1.5-0.3-2.1 -0.1-0.6-0.2-1-0.4-1.1L33.9 43c-0.2 0.1-0.4 0.2-0.6 0.2 -0.2 0.1-0.5 0.1-0.7 0.2 -0.2 0.3-0.5 0.6-0.7 0.9 -0.2 0.3-0.5 0.7-0.8 1.2 -0.3 0.5-0.7 1-1.1 1.6 -0.4 0.6-0.9 1.4-1.5 2.3 -0.1 0.2-0.2 0.5-0.3 1.2 -0.1 0.6-0.1 1.3 0 2.1 0 0.8 0.1 1.6 0.2 2.4 0.1 0.8 0.3 1.6 0.5 2.2 0.5 1.5 1.4 3.1 2.8 4.9 1.4 1.8 3.4 3.6 6.2 5.5 1.2 0.9 2.2 1.8 3 2.5 0.8 0.8 1.4 1.2 1.7 1.2 0.5 0.2 1.3 0 2.4-0.6 1.1-0.6 3.1-1.6 6-3.1l3.8-1.5c0.2 0 0.8-0.3 1.6-1 0.8-0.7 1.8-1.5 3-2.4 2.4-1.7 4-2.7 4.8-3 0.8-0.3 0.7 0.1-0.5 1.2 -0.1 0.3-0.1 0.5 0 0.5s0.2 0.2 0.3 0.3c0.1 0.1 0.1 0.2 0 0.4 -0.1 0.1-0.3 0.4-0.7 0.7 -0.8 0.8-1.4 1.3-1.8 1.7 -0.4 0.4-1 0.9-1.8 1.4 -0.3 0.2-0.6 0.4-0.9 0.7 -0.3 0.2-0.6 0.5-1 0.8l-2.8 2.2c-0.2 0.2-0.5 0.4-0.7 0.6 -0.2 0.2-0.5 0.4-0.8 0.6 -0.7 0.5-1.4 1.1-2.2 1.8 -0.8 0.6-1.7 1.3-2.7 2.1l-0.9 0.7 1.8 2.2c0.7 0.8 1.5 1.7 2.3 2.7 0.8 1 1.5 2 1.9 3l2.4 3.3 0.5 4.9c0 1.3 0.1 2.8 0.3 4.6 0.2 1.7 0.3 3.1 0.3 4.1 0.1 0.8 0.2 1.4 0.3 2 0.1 0.5 0.1 1.1 0 1.6 -0.1 0.5-0.2 1.1-0.3 1.7 -0.1 0.6-0.3 1.3-0.5 2.1 -0.2 0.9-0.6 1.9-1 3 -0.4 1-0.8 2-1.3 2.9 -0.5 0.9-0.9 1.7-1.5 2.4 -0.5 0.7-1 1.2-1.5 1.4l-1.4 1.2c-0.5 0.7-1 0.7-1.5 0 -0.2-0.4-0.5-0.7-0.8-0.9 -0.3-0.2-0.8-0.3-1.5-0.3 -0.7 0-1.3 0.2-1.9 0.5 -0.6 0.4-1.7 1.2-3.3 2.5 -1.2 0.8-2.3 1.5-3.3 2.1s-1.6 0.9-1.9 0.9c-0.5 0.2-1.1 0.4-1.7 0.6 -0.7 0.2-1.4 0.5-2.1 0.9 -1.2 0.5-2.2 1-2.9 1.4 -0.8 0.4-1.5 0.6-2.1 0.8 -0.6 0.2-1.3 0.3-1.9 0.4 -0.7 0.1-1.5 0.1-2.4 0.1 -0.8 0-1.5 0-2 0 -0.5 0-1-0.1-1.3-0.1 -0.4 0-0.7-0.1-1-0.2 -0.3-0.1-0.7-0.2-1.2-0.4 -0.5-0.4-0.9-0.7-1.4-1.1 -0.4-0.3-0.8-0.6-1-0.8 -0.2-0.2-0.5-0.3-0.7-0.3 -0.2 0-0.4 0-0.7 0 -0.1 0-0.5-0.4-1.2-1.2 -0.7-0.8-1.4-1.7-2.2-2.8 -0.8-1.1-1.5-2.2-2.3-3.2 -0.7-1.1-1.2-1.9-1.5-2.5 -0.5-0.9-0.8-1.8-0.9-2.7 -0.1-0.9-0.1-2-0.1-3.3 0-0.8 0-1.5 0-2.1 0-0.6 0-1.2 0.1-1.8 0.1-0.6 0.2-1.2 0.5-1.8 0.2-0.6 0.5-1.3 0.9-2.1 0.6-1.2 1.3-2.4 2.1-3.7 0.8-1.2 1.6-2.4 2.5-3.5 0.9-1.1 1.8-2 2.7-2.9 0.9-0.9 1.8-1.5 2.6-1.9 0.7-0.6 1.2-0.8 1.3-0.6 0.2 0.2-0.1 0.5-0.9 0.9 -0.4 0.3-0.8 0.6-1.3 1 -0.5 0.4-1 0.8-1.4 1.3 -0.5 0.4-0.8 0.8-1.1 1.2 -0.3 0.3-0.5 0.5-0.5 0.7 0 0.2 0 0.3 0 0.2 0-0.1 0.2-0.2 0.5-0.2 0.2-0.2 0.7-0.6 1.3-1.2 0.6-0.6 1.3-1.2 2-1.7 0.7-0.8 1.4-1.4 1.9-1.9 0.5-0.5 0.7-0.7 0.5-0.7 0-0.1 0.3-0.3 0.8-0.7 0.5-0.3 1.1-0.7 1.7-1s1.3-0.6 1.9-0.9c0.6-0.3 1-0.4 1.3-0.4 0.4 0 0.4-0.3 0.2-0.8 -0.2-0.5-0.7-1.2-1.4-2.1 -0.7-0.8-1.6-1.8-2.6-2.8 -1-1-2.1-2-3.3-2.9 -2.9-2.3-5.4-4.5-7.4-6.6 -2.1-2.1-3.7-4.2-5-6.2 -1.3-2.1-2.2-4.2-2.9-6.3 -0.6-2.2-1-4.5-1.1-7 0-0.7 0-1.3-0.1-1.9 -0.1-0.6-0.1-1.2-0.2-1.7L0.5 45c-0.5-0.2-0.6-0.4-0.5-0.8 0.2-0.4 0.5-0.8 1-1.4 0.5-0.4 1-1.2 1.6-2.3 0.6-1.2 1-2.5 1.2-4C3.9 36.1 4 36 4.3 36c0.5 0 0.9-0.3 1.3-0.9C6 34.6 6.2 34 6.2 33.5c0-0.5 0.1-0.8 0.5-0.8 0.1 0 0.3-0.1 0.6-0.2l0.3-0.2c0-0.2 0.2-0.4 0.6-0.6 0.4-0.2 0.8-0.5 1.3-0.9 0.5-0.2 1-0.5 1.6-0.9 0.6-0.4 1-0.7 1.2-0.9 0.2-0.2 0.5-0.3 0.7-0.4 0.2-0.1 0.6-0.2 1-0.2 0.4-0.1 0.9-0.1 1.6-0.1C16.3 28.2 17.3 28.2 18.5 28.2zM26.9 90.1c-1.9 1.5-3.8 2.2-5.6 1.9 -0.5 0-0.9 0-1.1 0 -0.3 0-0.5 0.1-0.8 0.2 -0.3 0.1-0.6 0.4-0.9 0.7 -0.3 0.3-0.8 0.7-1.4 1.3 -0.5 0.7-1 1.4-1.5 2.2 -0.5 0.8-1 1.5-1.5 2.2 -0.5 0.7-0.8 1.3-1 1.8 -0.2 0.5-0.3 0.8-0.2 0.9 0.1 0 0.4-0.1 0.7-0.2l0.3-0.2c0.5-0.2 0.7-0.3 0.8-0.4 0 0-0.1 0-0.3 0 0 0.2-0.1 0.7-0.3 1.5 -0.2 0.8-0.4 1.5-0.6 2.3 -0.3 1.3-0.6 2.1-0.8 2.6 -0.2 0.5-0.4 0.8-0.7 1.1 -0.7 0.4-1.1 0.7-1.1 0.9 0 0.2 0.4 0.8 1.1 1.7 0.2 0.4 0.5 0.9 0.6 1.5 0.2 0.6 0.3 1.1 0.3 1.5 0 0.8 0.1 1.5 0.4 2.1 0.2 0.6 0.6 1.1 1.1 1.3 0.5 0.2 0.8 0.2 1 0.2 0.2-0.1 0.2-0.4-0.1-0.9 0-0.6 0-0.9 0-0.9 0 0 0.2 0.2 0.5 0.5 0.1 0.1 0.2 0.2 0.3 0.4 0.1 0.1 0.2 0.3 0.3 0.4l0.3 0.4c0 0.2 0.1 0.3 0.2 0.3 0.1 0.1 0.1 0.1 0.3 0 0.2-0.2 0.4-0.3 0.4-0.5s-0.1-0.2-0.4-0.2c-0.8-0.7-0.8-1.1 0-1.1 0.2 0.2 0.5 0.2 0.7 0.2 0.2 0 0.3-0.1 0.3-0.2 0-0.4 0.5-0.4 1.4 0 0.7 0.4 1.2 0.6 1.3 0.6 0.1 0 0.3-0.2 0.6-0.6 0.5-0.5 1-0.7 1.4-0.7 0.3 0 0.6-0.1 1-0.2 0.4-0.2 0.7-0.3 0.9-0.5 0-0.3 0.3-0.4 1-0.4 0.5 0 1.1-0.5 1.9-1.4 0.8-0.9 1.4-1.8 1.9-2.8 0.2-0.4 0.5-1.1 0.7-2 0.2-1 0.5-1.9 0.7-2.8 0.1-1 0.2-2 0.2-2.9 0-0.9-0.1-1.8-0.2-2.8 -0.2-1-0.4-2-0.7-3 -0.3-1.1-0.7-2.3-1.2-3.6 -0.2-1.1-0.5-1.8-0.7-2.1 -0.2-0.3-0.5-0.5-0.8-0.5L26.9 90.1z"/><path class="st0" d="M86.2 0c0.5 0 1.2 0.1 2 0.4 0.9 0.3 1.8 0.7 2.7 1.1C91.8 2 92.7 2.5 93.5 3c0.8 0.5 1.4 1 1.8 1.4 0.2 0.1 0.4 0.4 0.5 0.6 0.2 0.3 0.3 0.6 0.3 0.8 0 0.5 0 0.8-0.1 0.9 -0.1 0.1-0.4 0.2-0.9 0.4 -0.5 0-0.8 0.3-0.8 0.8 0 0.6 0.4 1.8 1 3.6 0.3 0.6 0.5 1.1 0.6 1.5 0.1 0.5 0.3 1 0.3 1.5 0.1 0.6 0.1 1.2 0.1 1.9 0 0.7 0 1.5 0 2.6 0.1 1.4 0.2 2.5 0.2 3.2 0 0.8 0 1.4-0.1 1.8 -0.1 0.4-0.2 0.6-0.4 0.7 -0.2 0.1-0.5 0.1-0.8 0 -0.3 0-0.5 0.1-0.6 0.2 -0.1 0.1-0.2 0.6-0.4 1.5 -0.4 1.4-0.6 2.3-0.6 2.7 0 0.3 0 0.5 0 0.5 0 0 0.1 0 0.2-0.2 0.4-0.4 0.6-0.5 0.6-0.2 0 0.2-0.1 0.9-0.3 1.9 -0.1 0.9-0.3 1.9-0.6 3.1 -0.3 1.1-0.7 2.2-1.2 3.3 -0.5 1.1-1 2.1-1.5 3.1 -0.6 1-1.2 1.8-1.7 2.3 -0.7 0.5-1.1 0.8-1.4 1 -0.3 0.2-0.6 0.2-1-0.1h-0.9c0 0.2 0 0.5 0 0.8 0 0.3-0.1 0.5-0.3 0.7 -0.2 0.3-0.3 0.7-0.3 1 0 0.3 0 0.5 0 0.7 0 0.3-0.3 0.6-1 1 -0.2 0-0.4 0.1-0.7 0.4 -0.3 0.3-0.4 0.5-0.4 0.6 -0.2 0.3-0.4 0.7-0.6 1.1 -0.1 0.4-0.3 0.8-0.5 1.2 -0.2 0.3-0.4 0.7-0.5 1.2 -0.1 0.5-0.2 1.1-0.3 1.9 -0.1 0.8-0.1 1.9-0.2 3.2 0 1.3-0.1 3.1-0.2 5.3 0 1.4 0 2.7 0 3.7 0 1.1 0 2.1 0 3 0 0.9 0.1 1.8 0.1 2.7 0 0.9 0.1 1.9 0.2 3.1 0 0.8 0.1 1.6 0.2 2.2 0.1 0.7 0.2 1.3 0.3 1.8l0.4 1.7 0.2-0.3c0.1-0.1 0.3-0.4 0.4-0.8 0.1-0.3 0.4-0.9 1-1.8 0.6-0.8 1.2-1.7 2-2.7 0.8-1 1.6-1.9 2.4-2.8 0.8-0.9 1.5-1.7 2.1-2.2 2.7-2.6 5.4-4.1 8.1-4.6 2.7-0.5 5 0 7 1.6 1.2 0.9 2.3 2.2 3.2 4 0.9 1.8 1.8 4.4 2.6 7.8 0.6 2.5 0.6 4.5 0 5.8 -0.3 0.6-0.3 0.9 0 0.9 0.2 0.2 0.3 0.4 0.2 0.8 0 0.3-0.3 0.6-0.9 0.9 -0.2 0.4-0.4 0.8-0.7 1.3 -0.3 0.5-0.5 1-0.7 1.5 -0.9 2.4-1.8 4.4-2.9 6.2 -1.1 1.8-2.3 3.5-3.8 5 -0.9 0.8-1.7 1.7-2.4 2.5 -0.8 0.9-1.3 1.3-1.7 1.4 -0.6 0.4-1 0.7-1 0.9 0 0.2 0.1 0.4 0.4 0.7 0 0.4 0.1 0.7 0.3 0.9 0.2 0.2 0.4 0.3 0.6 0.3 0.4 0.1 0.9 0.5 1.5 0.9 0.6 0.5 1.2 1.1 1.8 1.8 0.6 0.7 1.2 1.5 1.8 2.5 0.6 0.9 1.1 1.9 1.5 2.9 0.3 0.6 0.7 1.2 1.2 1.8 0.5 0.6 1 1.3 1.6 1.8 0.6 0.6 1.1 1.1 1.6 1.6 0.5 0.5 1 0.8 1.3 1.1 0.3 0 0.7 0.1 1.2 0.4 0.4 0.3 0.8 0.5 1.2 0.6 1 0.5 2.1 0.8 3.2 0.8 1.2 0 2-0.3 2.5-0.8 0.2-0.3 0.7-1 1.3-2.1 0.6-1.1 1.3-2.4 2.2-4 0.8-1.6 1.7-3.3 2.6-5.1 0.9-1.8 1.8-3.7 2.7-5.4 0.8-1.8 1.6-3.4 2.3-4.9 0.7-1.5 1.2-2.7 1.5-3.6 0.1-0.5 0.4-1.3 0.6-2.2 0.3-1 0.6-2 1.1-3.2 0.3-0.8 0.6-1.7 0.9-2.6 0.3-0.9 0.6-1.8 1-2.8 0.2-0.7 0.5-1.3 0.8-1.9 0.3-0.6 0.6-1.3 0.8-1.9 0.9-2.3 1.6-4.3 2.1-6 0.5-1.8 0.8-2.7 1-3 0.4-0.8 0.6-0.9 0.6-0.4 0 0.5-0.2 1.5-0.5 2.8 -0.3 1.3-0.7 3-1.3 5 -0.6 2-1.1 4-1.8 6l-1.5 4.9c-0.5 1.6-1 3-1.4 4.4 -0.4 1.3-0.8 2.4-1.2 3.2 -0.3 1.1-0.6 1.9-0.9 2.5 -0.3 0.6-0.4 1-0.4 1.2 0 0.2-0.1 0.5-0.2 0.6 -0.1 0.2-0.3 0.3-0.5 0.4 -0.3 0.2-0.4 0.4-0.4 0.7s0.1 0.5 0.4 0.7c0.2 0.1 0.3 0.2 0.5 0.4 0.1 0.2 0.1 0.3-0.1 0.3 -0.2 0.2-0.3 0.4-0.3 0.6 0 0.2 0 0.5 0 0.8 0 0.1-0.1 0.4-0.2 0.9 -0.1 0.5-0.4 0.9-0.8 1.4 -0.2 0.4-0.4 0.9-0.6 1.3 -0.2 0.4-0.4 0.9-0.4 1.4 -0.1 0.4-0.3 0.8-0.5 1.2 -0.3 0.4-0.6 0.8-0.9 1.2 -0.3 0.4-0.7 0.7-1 0.9 -0.3 0.3-0.5 0.4-0.7 0.4 -0.2 0-0.4 0.1-0.4 0.4 0 0 0 0.1 0.1 0.1 0 0 0.1 0 0.3-0.1 0.2-0.2 0.3-0.1 0.3 0.3 0 0.4-0.2 0.9-0.6 1.4 -0.1 0.1-0.2 0.2-0.2 0.3 0 0.1-0.1 0.2-0.2 0.3l-0.2 0.4c0 0.1 0 0.3-0.1 0.7 -0.1 0.4-0.2 0.8-0.4 1.2 -0.1 0.4-0.3 0.8-0.5 1.1 -0.2 0.3-0.3 0.5-0.3 0.5 -0.2 0-0.4 0.2-0.5 0.6 -0.2 0.4-0.3 0.8-0.5 1.2 -0.1 0.3-0.4 0.7-0.7 1.2 -0.3 0.4-0.7 0.8-1.1 1.2 -0.1 0.2-0.3 0.5-0.6 0.8 -0.3 0.4-0.5 0.7-0.7 0.9 -0.7 1.2-1.6 2-2.8 2.3 -1.2 0.3-2.8 0.2-4.9-0.3 -3.2-0.7-6.5-2.1-9.8-4.2 -3.3-2.2-6.2-4.8-8.8-7.9l-1.1-1.4 -0.6-0.6c-0.1 0-0.3-0.1-0.5-0.4 -0.2-0.3-0.5-0.5-0.9-0.8 -0.1-0.4-0.4-0.9-0.9-1.5 -0.5-0.6-1-1.2-1.4-1.7 -0.5-0.5-1-1.1-1.4-1.8 -0.4-0.7-0.7-1.2-0.9-1.5 -0.4-0.5-0.6-0.8-0.7-0.9 -0.1-0.1-0.3 0-0.6 0.1 -0.2 0.2-0.4 0.4-0.5 0.5 -0.2 0.1-0.4 0.1-0.6-0.1 -0.1-0.1-0.3 0-0.6 0.1 -0.3 0.2-0.5 0.5-0.7 0.8 -0.2 0.4-0.4 0.7-0.5 1.1 -0.1 0.4-0.1 0.7 0 1 0.1 0 0.2 0.3 0.3 0.7 0.1 0.4 0.1 0.9 0.2 1.4 0 0.6 0.1 1.1 0.1 1.7 0 0.6 0 1.1 0 1.5 0 1.3-0.1 2.4-0.3 3.1 -0.2 0.7-0.5 1.2-1 1.3 -0.3 0.2-0.7 0.4-1 0.8 -0.3 0.3-0.5 0.6-0.7 1 -0.3 0.4-0.7 0.6-1 0.6 -0.4 0-1.2-0.1-2.4-0.3 -1.3 0-2.1-0.1-2.4-0.2 -0.3-0.1-0.5-0.4-0.5-0.7 0-0.1-0.1-0.4-0.3-0.7 -0.2-0.3-0.4-0.6-0.8-0.9 -0.3-0.4-0.7-1.1-1.2-2 -0.5-1-1-2-1.5-3 -0.5-1-1-2-1.4-3 -0.4-0.9-0.7-1.5-0.8-1.8 0-0.4-0.1-0.9-0.2-1.3 -0.1-0.4-0.3-0.7-0.4-0.8 -0.5-0.5-0.8-1-0.9-1.4 0-0.4 0.1-0.6 0.5-0.6 0.5 0 0.6-0.3 0.4-1 -0.1-0.3-0.3-1.1-0.6-2.4 -0.3-1.3-0.6-2.7-0.9-4.2 -0.3-1.6-0.6-3.1-0.9-4.5 -0.3-1.5-0.5-2.6-0.7-3.3 -0.1-0.8-0.2-1.9-0.3-3.4 -0.1-1.4-0.2-3-0.4-4.7 -0.1-1.7-0.2-3.4-0.4-5.1 -0.1-1.8-0.2-3.3-0.3-4.8 0-1.4-0.1-2.6 0-3.6 0-0.9 0.1-1.4 0.3-1.5 0.2-0.2 0.3-0.7 0.4-1.5 0-0.8 0.2-2.3 0.4-4.3 0.2-0.7 0.3-1.2 0.4-1.7 0-0.5 0.1-0.7 0.2-0.7 0.2 0 0.4-0.6 0.5-1.8 0.1-1.2 0.2-2.6 0.2-4.1 0-0.7 0.1-1.5 0.2-2.3 0.1-0.9 0.3-1.7 0.6-2.5 0.1-1.7 0.3-3.1 0.4-4.3 0.1-1.2 0.1-1.9-0.1-2.1 -0.3-0.4-0.3-1.5 0-3.2 0.2-0.8 0.4-1.6 0.5-2.5 0.1-0.8 0.2-1.5 0.2-1.8 0-0.5 0.1-1.4 0.2-2.6 0.1-1.2 0.3-2.5 0.5-3.9 0.2-1.4 0.5-2.9 0.7-4.3 0.3-1.5 0.5-2.7 0.8-3.7 0.4-1.4 0.8-2.7 1.2-3.9 0.4-1.2 0.7-2.2 1-3.2 0.3-1 0.7-1.9 1-2.9 0.4-0.9 0.8-1.9 1.2-2.9 1.4-2.9 2.5-4.8 3.3-5.9 0.7-1 1.5-1.5 2.1-1.5 1 0 2-0.2 2.8-0.5 0.9-0.3 1.6-0.7 2.1-1.3 0.1-0.2 0.4-0.3 0.8-0.3 0.4 0 0.9 0 1.6 0H86.2zM89.2 5.4c-0.2 0-0.4 0.1-0.5 0.3 -0.2 0.2-0.3 0.3-0.5 0.5 -0.7 0.6-1.1 1.7-1.3 3.3 -0.2 1.6-0.3 3.7-0.3 6.4 0 1.3 0.1 2.6 0.1 3.6s0 2.1-0.1 3.1c-0.1 1-0.2 1.9-0.4 2.9 -0.2 1-0.5 2-0.8 3.1 -0.2 0.8-0.4 1.7-0.7 2.7 -0.3 1-0.5 1.9-0.7 2.6 -0.4 1.1-0.7 2.3-1 3.7 -0.3 1.4-0.6 2.7-0.8 4 0 1.2 0 1.8 0.1 1.9 0 0.1 0.2-0.2 0.6-0.8 0.2-0.4 0.5-0.9 0.8-1.5 0.3-0.6 0.6-1.2 1-1.7 0.2-0.5 0.4-0.9 0.5-1.4 0.2-0.4 0.3-0.8 0.5-1 0.1-0.1 0.4-0.5 0.6-1.1 0.3-0.6 0.6-1.3 1-2.2 0.4-0.8 0.8-1.7 1.2-2.7 0.4-1 0.8-1.8 1.2-2.7 0.5-1.4 0.9-2.9 1.3-4.6 0.4-1.7 0.7-3.3 0.9-4.9 0.2-1.6 0.4-3 0.5-4.3 0.1-1.3 0-2.3-0.1-3 -0.4-1.3-0.8-2.6-1.2-3.7s-0.8-1.9-1.2-2.2c-0.1-0.2-0.2-0.3-0.4-0.4C89.5 5.4 89.4 5.4 89.2 5.4zM99 72.2c-0.8 0-1.8 0.3-2.8 0.8s-2.2 1.3-3.3 2.3 -2.3 2.2-3.5 3.6c-1.2 1.4-2.3 3-3.4 4.7 -0.9 1.4-1.5 2.6-2 3.4 -0.5 0.8-0.8 1.5-1 1.9 -0.2 0.5-0.3 0.9-0.4 1.1 0 0.3 0 0.6 0 0.9 0.1 0.3 0.2 1.1 0.3 2.2 0 1.1 0 2.3 0 3.7 0 1.2 0 2.3 0 3.1 0 0.8 0.2 1.3 0.4 1.3 0.1 0 0.4-0.2 0.8-0.5 0.4-0.3 0.9-0.7 1.5-1.1 0.6-0.4 1.1-0.8 1.7-1.2 0.6-0.4 1-0.7 1.3-0.9 0.4-0.1 0.9-0.4 1.4-0.9 0.5-0.4 1.1-1 1.6-1.6 0.6-0.6 1.1-1.3 1.6-2 0.5-0.7 1-1.4 1.4-2.1 0.2-0.2 0.5-0.5 0.7-0.7 0.2-0.2 0.4-0.5 0.6-0.7 0.1-0.1 0.3-0.4 0.5-0.8l0.2-0.4c0.1-0.1 0.2-0.3 0.2-0.5 0-0.2 0.1-0.3 0.2-0.5 0.2-0.4 0.5-1 0.9-1.8 0.3-0.8 0.7-1.6 1-2.6 0.4-0.9 0.7-1.8 1-2.7 0.3-0.9 0.6-1.7 0.8-2.4 0.1-1.4 0.2-2.6 0.2-3.7 0-1.1-0.1-1.8-0.2-1.9H99z"/><path class="st0" d="M173.9 86.5c0 0.2 0 0.5 0 0.7 0 0.2-0.1 0.4-0.3 0.6 0 0.5-0.1 0.8-0.3 0.9 -0.2 0-0.7 0-1.3-0.3 -0.9 0-1.4 0-1.5 0.1 -0.2 0.1-0.3 0.4-0.5 1 0 0.1-0.1 0.3-0.3 0.4 -0.2 0.1-0.3 0.2-0.5 0.2 -0.5-0.1-0.8-0.1-0.8 0 -0.1 0.1-0.1 0.4-0.1 0.9 0 0.4-0.1 0.8-0.3 1.2 -0.2 0.4-0.3 0.7-0.5 0.8 -0.4 0.5-0.7 1.1-0.9 1.9 -0.2 0.8-0.2 1.4 0 1.9 0.5 0.7 0.4 1.1-0.4 1.3 -0.3 0.1-0.5 0.3-0.8 0.5 -0.2 0.2-0.4 0.5-0.5 0.8 -0.1 0.3-0.1 0.5 0 0.7 0.1 0.2 0.2 0.3 0.5 0.3 0.2 0 0.4 0.3 0.4 1 0 0.3 0 0.6-0.1 1 -0.1 0.4-0.2 0.8-0.3 1.2 -0.1 0.4-0.3 0.7-0.4 0.9 -0.2 0.2-0.3 0.4-0.5 0.4 -0.2 0-0.4 0.1-0.8 0.4 -0.3 0.2-0.6 0.5-1 0.9 -0.3 0.3-0.7 0.7-1 1 -0.4 0.4-0.7 0.6-0.9 0.8 0 0.4-0.1 0.6-0.3 0.7 -0.2 0.1-0.5 0.1-0.9 0.1 -0.4 0-0.7 0-0.8 0.1 -0.1 0.1-0.1 0.5-0.1 1.1 0 0.3-0.1 0.6-0.2 0.9 -0.1 0.3-0.2 0.5-0.2 0.7 -0.2 0.3-0.6 0.8-1.2 1.6 -0.6 0.8-1.3 1.7-2.1 2.8 -1.1 1.2-2.2 2.4-3.5 3.5 -1.3 1.1-2.7 2-4.4 2.6 -1.1 0.5-2 0.8-2.7 1 -0.7 0.2-1.5 0.3-2.5 0.3 -4.6 0-8.7-2.2-12.5-6.6 -0.7-0.5-1.3-1.1-1.8-1.6 -0.5-0.5-0.9-0.9-1-1.2 -0.7-0.4-1.2-0.9-1.7-1.4 -0.4-0.5-0.8-1-1.2-1.6 -0.3-0.6-0.6-1.3-0.9-2.1 -0.3-0.8-0.6-1.8-0.9-2.9 -0.1-0.9-0.2-2.2-0.2-4s-0.1-3.7-0.1-5.9c0-2.2 0-4.5 0.1-6.8 0-2.4 0.1-4.6 0.2-6.6 0.2-2.6 0.4-4.9 0.7-6.8 0.3-2 0.6-3.8 1-5.5 0.4-1.7 0.9-3.4 1.5-5.1 0.6-1.7 1.3-3.5 2.2-5.4 0.1-0.8 0.3-1.6 0.4-2.2 0.1-0.7 0.2-1.1 0.2-1.2 0-0.2 0.2-0.6 0.5-1.2 0.3-0.6 0.7-1.2 1.2-1.7 0.4-0.6 0.9-1.1 1.3-1.5 0.4-0.4 0.7-0.6 0.8-0.6 1.1 0 2.3 0.4 3.6 1.3 1.3 0.9 2.3 2.1 3.1 3.5 0.4 0.4 0.9 0.9 1.5 1.5 0.6 0.6 1.2 1 1.9 1.3 1.2 1 2 1.9 2.5 2.8 0.3 0.6 0.6 1.1 0.9 1.3 0.2 0.3 0.6 0.5 1.1 0.7 1 0.3 1.7 0.5 2 0.8 0.3 0.2 0.6 0.6 0.8 1 0.4 0.7 0.4 1.4 0.1 2.2 -0.3 0.8-0.8 1.8-1.5 3.2 -0.3 0.4-0.6 0.8-0.9 1.3 -0.3 0.5-0.6 0.9-0.8 1.2 -0.2 0.6-0.5 0.9-0.7 1 -0.2 0.1-0.9 0-1.9-0.2 -0.1-0.1-0.3-0.2-0.4-0.1 -0.1 0.1-0.2 0.4-0.2 1v2.8c-0.2 0.4-0.4 1.2-0.4 2.3 0 1.1-0.2 2.1-0.4 3.1 0 1.1 0 2.3-0.1 3.7 0 1.4-0.2 2.5-0.5 3.3 0 0.8-0.1 1.7-0.2 2.6 -0.1 0.9-0.2 1.7-0.2 2.2 0 0.6 0 1.1 0 1.4 0 0.3-0.1 0.5-0.3 0.6 -0.1 0-0.3 0-0.5 0 -0.2 0-0.3-0.1-0.3-0.2 0-0.3-0.1-0.3-0.3 0s-0.3 0.6-0.3 1.1c-0.1 0.4-0.2 0.9 0 1.3 0.1 0.4 0.3 0.8 0.5 1 0.2 0.3 0.5 0.4 0.8 0.5 0.3 0 0.5-0.1 0.6-0.4v1.2c0 1-0.1 1.6-0.2 1.8 -0.1 0.2-0.3 0-0.4-0.9 0-0.3-0.1-0.5-0.3-0.6 -0.2-0.1-0.4-0.1-0.6 0.1 -0.2 0-0.4-0.3-0.7-0.8s-0.6-1.1-0.8-1.8c-0.2-0.7-0.5-1.4-0.6-2.1 -0.2-0.7-0.3-1.2-0.3-1.6 0.2-0.5 0.2-0.9 0.1-1.1 -0.1-0.2-0.3-0.3-0.4-0.3 -1-0.3-1.4 0.3-1.1 1.7 0 0.4-0.1 0.6-0.3 0.6 -0.1 0-0.2 0-0.2 0.1 -0.1 0.1-0.1 0.2-0.1 0.3 0 0.1 0 0.2 0.1 0.2h0.2c0.1-0.1 0.2 0.1 0.3 0.6 0 0.5 0 1.2 0 1.9v2.3c0-0.3-0.1-0.6-0.2-0.8 -0.1-0.3-0.3-0.4-0.5-0.4v2.5c0 0.9 0 1.7 0 2.3 0 0.6-0.2 1-0.4 1.2 -0.1 0.1-0.2 0.1-0.2 0 -0.1 0-0.2-0.1-0.2-0.3 0-0.2 0-0.3-0.1-0.3 0 0-0.2 0.1-0.4 0.3 -0.2 0.2-0.3 0.5-0.4 0.7 0 0.2 0 0.5 0.1 0.8 0.1 0.3 0.3 0.7 0.6 1.2 0.3 0.5 0.6 1.1 1 1.9 0.3 0.6 0.7 1.2 1.1 1.7 0.4 0.6 0.6 1 0.6 1.2 0 0.6 0.1 1.1 0.4 1.5 0.2 0.4 0.5 0.6 0.7 0.6v-0.6c0.1 0 0.2 0 0.2-0.1 0.1 0 0.2 0 0.2 0.1 0.1 0 0.3 0 0.4-0.1 0 0 0.1-0.1 0.1-0.1 0-0.3 0.1-0.4 0.3-0.5 0.2 0 0.4 0 0.5 0.2 0.2 0.1 0.3 0.2 0.3 0.2 0 0 0-0.1 0-0.2 0-0.4 0.1-0.6 0.4-0.6 0.3 0 0.7 0.2 1.2 0.6l0.9 0.9 -0.4-0.9c0-0.1 0-0.3 0.1-0.4 0.1-0.1 0.3-0.2 0.7-0.2 0.2 0 0.4-0.1 0.4-0.2 -0.1-0.2-0.2-0.5-0.2-0.9 0-0.4-0.1-0.8-0.1-1.1s0-0.7 0.1-0.9c0-0.3 0.1-0.4 0.2-0.4l0.1 0.3 0.1 0.4 0.6 0.3c0.2 0 0.3 0 0.4-0.1 0 0 0.1-0.1 0.1-0.1 -0.2 0-0.3-0.2-0.2-0.4l0.2-0.3c0.2 0 0.3-0.1 0.3-0.3 0-0.2-0.1-0.3-0.3-0.3 -0.2 0-0.5-0.1-0.7-0.3 -0.2-0.2-0.4-0.4-0.4-0.7 0-0.7 0.2-0.9 0.5-0.7 0.4 0.2 1 1 2.1 2.3 0.2 0.7 0.5 1.2 0.7 1.7 0.2 0.4 0.3 0.7 0.1 0.9 0 0.5 0.3 1 0.8 1.5 0.5 0.5 1.1 0.7 1.6 0.7 0.2 0.1 0.7-0.1 1.4-0.5 0.7-0.4 1.4-1 2.2-1.7 0.8-0.7 1.5-1.4 2.3-2.2 0.7-0.7 1.3-1.4 1.7-2 0.9-1.4 1.8-3.1 2.7-4.9 1-1.8 1.8-3.7 2.7-5.5 0.7-1 1.4-2.3 2.2-4 0.8-1.6 1.6-3.2 2.4-4.6 0.8-1.7 1.6-3.1 2.3-4.4 0.7-1.2 1-2 1-2.4 0.4-0.6 0.9-1.2 1.5-1.6 0.6-0.4 1-0.6 1.5-0.6 0.4 0.1 0.6 0.2 0.7 0.4 0.1 0.1 0.1 0.6 0.1 1.2 0 0.3-0.1 0.6-0.2 0.9 -0.1 0.3-0.3 0.4-0.6 0.4 -0.3 0.4-0.4 0.6-0.4 0.8 0 0.1 0.3 0.1 0.8 0 0.3-0.5 0.8-0.7 1.3-0.7 0.1 0 0.2 0.2 0.1 0.6 0 0.4-0.3 0.8-0.7 1.2V86.5zM153.3 37c-0.1 0.1-0.4 0.4-0.7 0.7 -0.3 0.3-0.6 0.7-0.8 1 -0.6 0.6-1.1 1.3-1.7 2.1 -0.6 0.7-1.2 1.6-1.9 2.6 -0.1 0.1-0.3 0.2-0.4 0.4 -0.1 0.2-0.3 0.3-0.4 0.3h-0.3c-0.1 0-0.2 0-0.3 0.1 -0.1 0-0.2 0.1-0.3 0.1 -0.3 0.1-0.7 0.2-1.3 0.2 -0.6 0-1.2 0-1.8-0.1 -0.6-0.1-1.2-0.2-1.7-0.4 -0.5-0.2-0.9-0.4-1.2-0.6 -0.2-0.1-0.5-0.4-0.9-0.6 -0.3-0.3-0.7-0.6-1.1-0.8 -0.5-0.2-0.8-0.5-1-0.8 -0.2-0.3-0.3-0.7-0.4-1.2 -0.3-0.8-0.4-1.5-0.4-2.1 0-0.6 0.1-1.4 0.4-2.5 0.4-1.2 0.8-2.3 1.1-3.1 0.4-0.8 0.8-1.5 1.3-2.1 0.5-0.5 0.8-0.8 0.9-1 0.1-0.2 0.1-0.3 0.1-0.4 -0.2-0.4-0.1-0.7 0.3-0.9 0.4-0.2 1.1-0.3 2.1-0.3 0.5 0.1 1 0.2 1.4 0.3 0.4 0 0.8 0.2 1.4 0.4 0.5 0.5 0.9 0.7 1.2 0.7l0.5 0.2c0.1 0.1 0.3 0.2 0.5 0.3 0.2 0.1 0.4 0.2 0.7 0.3 1 0.5 1.7 1.1 2.2 1.7 0.1 0.1 0.3 0.4 0.6 0.7 0 0.1 0.1 0.2 0.1 0.2 0 0 0.1 0.1 0.1 0.1 0.4 0 0.8 0.7 1.2 2.2 0.2 0.6 0.4 1.1 0.4 1.5C153.5 36.5 153.4 36.8 153.3 37z"/><path class="st0" d="M186.1 0.4c0.1 0 0.4 0.1 0.7 0.2 0.3 0.1 0.7 0.3 1.1 0.5 0.4 0.1 0.8 0.3 1.2 0.4 0.4 0.1 0.8 0.2 1.2 0.2 0.6 0 1.3 0.2 2.1 0.7 0.2 0 0.4 0 0.8 0.1 0.3 0.1 0.7 0.1 1 0.1 0.3 0 0.5 0 0.8 0.1s0.4 0.2 0.6 0.6c0.1 0.1 0.4 0.4 0.7 0.8 0.3 0.4 0.8 0.8 1.3 1.1 0.8 0.8 1.4 1.5 1.8 2.2 0.4 0.6 0.6 1.3 0.6 2 0 0.7 0.1 1 0.4 1 0 0 0.1 0 0.1 0.1 0 0 0 0.1-0.1 0.3 0 0.1 0 0.3 0 0.8 0 0.4 0.1 0.9 0.3 1.4 0.4 0.7 0.6 1.2 0.6 1.7 0 0.5-0.1 1.2-0.3 2.1 0 0.7-0.1 1.8-0.2 3.3 -0.1 1.5-0.2 3-0.2 4.4 0 1.5 0 2.8 0 3.7 0 0.9-0.1 1.8-0.3 2.6 -0.1 0.8-0.4 1.5-0.7 2.3 -0.3 0.8-0.8 1.8-1.4 3 -0.1 0.3-0.2 0.7-0.3 1 0 0.3 0 0.5 0 0.7 0 0.2-0.2 0.7-0.6 1.4 -0.4 0.7-0.9 1.4-1.4 2.2 -0.5 0.7-1 1.4-1.5 2s-0.9 0.9-1 0.9c-0.2 0-0.3 0-0.3 0.1 0 0 0 0.2 0 0.6 0.2 0.3 0.1 0.9-0.4 1.7 -0.4 0.8-1 1.6-1.7 2.4 -0.3 0.5-0.8 1.1-1.4 1.8 -0.6 0.7-1.2 1.3-1.7 1.8 -0.4 0.6-0.8 1.2-1.3 1.8 -0.5 0.6-0.9 0.9-1.2 1 -1.8 1.3-2.5 4.6-2.1 9.7 0 1.1 0.1 2 0.2 2.8 0.1 0.7 0.3 1.2 0.5 1.4 0 0.1 0 0.3 0.1 0.6 0.1 0.2 0.1 0.4 0.1 0.6 0 0.4 0.1 1 0.2 1.8s0.3 1.5 0.4 2.2c0.1 0.7 0.3 1.4 0.5 1.9 0.2 0.6 0.3 0.9 0.4 0.9 -0.2-0.3-0.2-0.7-0.1-1.2 0.1-0.5 0.4-0.7 0.6-0.7l0.2 0.4c0.2 0.2 0.3 0.5 0.3 0.9 0 0.7-0.1 1.1-0.3 1.3 -0.2 0.2-0.4 0.3-0.5 0.3 -0.3 0-0.5 0-0.5 0.1 0 0 0.2 0.2 0.5 0.6 0.1 0.4 0.2 0.6 0.3 0.7 0 0.1 0 0.3 0 0.6 -0.1 0.2-0.2 0.4-0.3 0.5 0 0.1 0 0.3 0 0.4 0.4 0.2 0.7 0.8 1 1.9 0.3 1.1 0.4 2.4 0.4 3.9 0.2 0.8 0.4 1.5 0.5 1.9 0.1 0.5 0.3 0.8 0.7 1 0.1 0.2 0.3 0.5 0.5 1 0.2 0.5 0.4 1 0.5 1.5 0.2 0.5 0.3 1 0.4 1.5 0.1 0.5 0 0.7-0.1 0.8 -0.2 0-0.3 0.1-0.3 0.3 -0.1 0.1-0.1 0.1 0 0.1 0 0.1 0.1 0 0.3-0.1 0.1 0 0.3 0.4 0.6 1.1 0.3 0.7 0.7 1.7 1.1 2.8 0.4 1.1 0.8 2.3 1.2 3.6 0.4 1.3 0.7 2.4 1 3.5 0.2 1.1 0.6 2.2 1 3.2 0.4 1 0.8 1.7 1.1 1.9 0.2 0.2 0.5 0.6 0.9 1.1 0.4 0.6 0.8 1.2 1.2 1.8 1 1.5 1.7 2.4 2.1 2.7 0.4 0.3 0.8 0.1 1.4-0.6 0.4-0.6 0.6-1.2 0.6-1.6 0.1-0.4 0.2-0.7 0.3-0.9 0.1-0.2 0.2-0.5 0.4-0.9 0.2-0.4 0.4-0.8 0.7-1.2 0.5-1.1 1-2.1 1.4-3 0.4-1 0.8-2 1.1-3.2 0.4-1.2 0.7-2.5 1.1-4.1 0.4-1.5 0.8-3.4 1.3-5.7 0.1-0.6 0.3-1.5 0.5-2.8 0.2-1.2 0.5-2.6 0.8-4s0.6-2.9 0.9-4.5 0.6-3 0.8-4.2c0.3-1.3 0.5-2.4 0.6-3.3 0.2-0.9 0.3-1.4 0.3-1.5 0-0.7 0.1-0.9 0.4-0.7 0.2 0.2 0.5 0.6 0.7 1.3 0.1 0.2 0.1 0.9-0.1 2.1 -0.1 1.2-0.3 2.5-0.5 3.9 -0.2 1.5-0.4 2.9-0.7 4.4 -0.2 1.5-0.4 2.7-0.5 3.5 0 1.8 0 3 0 3.6 0 0.6 0.1 1 0.3 1.2 0.1 0.1 0.2 0.4 0.1 0.8 -0.1 0.4-0.4 1.1-0.9 2 -0.2 0.2-0.4 0.6-0.5 1.1 -0.1 0.5-0.3 1-0.4 1.5 0 0.5-0.1 1-0.4 1.4 -0.3 0.5-0.4 0.9-0.4 1.2 -0.1 0.1-0.2 0.3-0.3 0.6 0 0.3 0 0.6 0 0.9 0 0.1-0.1 0.4-0.2 0.8 -0.1 0.4-0.2 0.7-0.2 0.9 -0.1 0-0.3 0.3-0.5 0.8 -0.2 0.5-0.3 1.1-0.5 1.7 0 0.7-0.2 1.7-0.6 3.1 -0.4 1.4-0.8 2.7-1.2 4.1 -0.2 0.7-0.4 1.3-0.6 1.8 -0.2 0.6-0.3 1-0.4 1.5 -0.1 0.2-0.2 0.5-0.2 0.7 0 0.2-0.1 0.5-0.1 0.6 0 0.2 0 0.4-0.1 0.7 0 0.3-0.3 0.5-0.6 0.6 -0.2 0.1-0.4 0.4-0.7 0.7 -0.3 0.3-0.5 0.7-0.8 1.1 -0.3 0.4-0.5 0.8-0.7 1.1 -0.2 0.3-0.3 0.5-0.3 0.6 0 0.2-0.1 0.5-0.4 0.9 -0.2 0.3-0.5 0.7-0.9 1 -0.3 0.3-0.7 0.6-1.1 0.9 -0.4 0.3-0.8 0.5-1.1 0.6 -3.6 2.1-7.3 1.8-11.2-0.9 -0.6-0.4-1.3-0.9-2-1.4s-1.4-1.1-2.1-1.7c-0.7-0.6-1.3-1.2-1.9-1.9 -0.6-0.6-1-1.3-1.4-1.8 -1.6-2.5-2.8-4.6-3.6-6 -0.8-1.5-1.5-2.9-2-4.1 -0.3-0.8-0.7-1.9-1.2-3.3 -0.5-1.4-0.9-2.7-1.3-3.8 -0.5-1-1-2.1-1.3-3.3 -0.4-1.2-0.7-2.2-1-2.8 -0.4-1.1-0.6-1.8-0.7-2.1 -0.1-0.3-0.3-0.4-0.7-0.4 -0.2 0-0.3 0-0.4 0 -0.1 0-0.2-0.2-0.3-0.5 -0.1-0.3-0.1-0.8-0.2-1.5 0-0.7-0.1-1.7-0.2-3.1 0-0.5-0.1-1.1-0.2-1.6 -0.1-0.6-0.3-1-0.5-1.3 -0.1-0.5-0.4-1.1-0.6-1.8 -0.3-0.7-0.4-1.4-0.4-2.1l-0.4-1.7 -0.2-0.8h-0.7c-0.2 0.1-0.3 0.3-0.3 0.5 0 0.2 0 0.4 0 0.8 0 0.1 0 0.2-0.1 0.3 0 0.1-0.1 0.2-0.1 0.3 0 0.1-0.1 0.2-0.1 0.2s0 0.1-0.1 0.1c-0.2 0-0.3-0.4-0.5-1.1 -0.1-0.7-0.2-1.5-0.2-2.3 0-1.2 0-2.2 0-2.9 0-0.7 0-1.3 0.1-1.8 0-0.4 0.1-0.8 0.2-1 0.1-0.2 0.2-0.5 0.4-0.7 0.3-0.4 0.5-1 0.7-1.7s0.3-1.3 0.3-1.9c0-0.6 0-1.1-0.2-1.6 -0.2-0.5-0.4-0.7-0.8-0.7 -0.7 0-0.7-0.3 0-1 0.2-0.1 0.3-0.3 0.3-0.4 0-0.1-0.1-0.2-0.3-0.2 -0.3-0.1-0.5-0.6-0.5-1.2 0-0.7 0-1.3 0.2-2 0.1-0.2 0.1-0.5 0.1-0.8 0-0.3 0-0.6-0.1-0.8 0-0.2-0.1-0.4-0.2-0.5 -0.1-0.1-0.1-0.1-0.2 0 -0.2 0.1-0.3 0.4-0.3 0.6s0 0.6 0 0.9c0 0.2 0 0.5-0.1 0.6 0 0.2-0.1 0.4-0.1 0.5l-0.2 0.4c0 0-0.1-0.1-0.1-0.3 0-0.2-0.1-0.6-0.1-1.2 0-0.6 0-1.5 0-2.6 0-1.1 0.1-2.7 0.2-4.6 0-1.4 0.1-2.8 0.3-4 0.2-1.2 0.5-2.4 0.8-3.3 0.2-0.7 0.4-1.3 0.5-2 0.1-0.7 0.2-1.1 0.2-1.2 0-0.1 0-0.4 0-0.6s0.1-0.6 0.3-0.9c0.2-0.2 0.4-0.7 0.8-1.5 0.3-0.8 0.6-1.7 0.9-2.7 0.3-0.9 0.7-2 1.2-3.3 0.5-1.3 0.9-2.5 1.3-3.5 1.6-4.2 2.7-7.2 3.4-9.1 0.7-1.9 1-3 0.8-3.3 0-0.2 0.1-0.5 0.2-0.9 0.1-0.4 0.3-0.9 0.5-1.5 0.2-0.6 0.5-1.1 0.8-1.7 0.3-0.6 0.6-1 0.9-1.5 0.2-0.3 0.6-0.8 1-1.5 0.4-0.6 0.8-1.2 1.1-1.6 0.7-1.3 1.5-2.7 2.4-4.1 1-1.4 1.8-2.4 2.4-3l0.9-0.9 0.4-0.4c0-0.2 0.1-0.3 0.3-0.4 0.2 0 0.5-0.1 0.8-0.3 0.2 0 0.5 0 1-0.1l0.4-0.2c0.2-0.1 0.4-0.2 0.5-0.3C185.8 0.4 186 0.4 186.1 0.4zM198.1 16.8c-0.1 0-0.2 0.1-0.4 0.4 -0.2 0.3-0.3 0.6-0.5 1 -0.1 0.4-0.3 0.7-0.4 1.1 -0.1 0.4-0.2 0.6-0.2 0.8l-0.4 0.3c-0.2 0-0.6 0.5-1.1 1.4 -0.5 0.9-1.2 2.2-2.1 3.8 -0.2 0.5-0.6 1.5-1.1 2.8 -0.5 1.3-1 2.7-1.5 4.2 -0.5 1.4-0.9 2.7-1.3 3.9 -0.4 1.2-0.5 1.8-0.5 1.9 0 0.2-0.1 0.6-0.3 1.3 -0.2 0.7-0.5 1.4-0.9 2.2 -0.5 1.6-0.9 3.1-1.2 4.4 -0.3 1.3-0.4 2.2-0.4 2.7 0 0.3 0.1 0.5 0.3 0.4 0.2 0 0.4-0.4 0.8-1 0.3-0.4 0.7-0.8 1.1-1.2 0.5-0.4 0.8-0.9 0.9-1.4 0.2-0.5 0.4-1.1 0.8-1.6 0.3-0.5 0.7-1 1-1.3 0.3-0.3 0.6-0.9 0.9-1.6 0.3-0.7 0.6-1.4 0.8-1.9 0.3-0.5 0.6-1.1 0.8-1.6 0.2-0.5 0.4-0.9 0.6-1.1 0-0.1 0.1-0.4 0.3-0.8 0.2-0.4 0.3-0.9 0.5-1.3 0.1-0.5 0.2-0.9 0.3-1.2 0-0.3 0.2-0.5 0.4-0.5 0.1 0.2 0.3 0 0.5-0.5 0.2-0.5 0.3-1.3 0.5-2.4 0.1-1.1 0.3-2.4 0.4-3.9 0.1-1.5 0.2-3.2 0.3-5 0-0.8 0.1-1.4 0.3-1.9 0.2-0.4 0.5-1 0.9-1.7 0-0.2 0-0.3 0.1-0.5C198.3 16.8 198.2 16.8 198.1 16.8z"/><path class="st0" d="M231.5 0.4c0.1 0 0.4 0.1 0.7 0.2 0.3 0.1 0.7 0.3 1.1 0.5 0.4 0.1 0.8 0.3 1.2 0.4 0.4 0.1 0.8 0.2 1.2 0.2 0.6 0 1.3 0.2 2.1 0.7 0.2 0 0.4 0 0.8 0.1 0.3 0.1 0.7 0.1 1 0.1 0.3 0 0.5 0 0.8 0.1 0.2 0 0.4 0.2 0.6 0.6 0.1 0.1 0.4 0.4 0.7 0.8 0.3 0.4 0.8 0.8 1.3 1.1 0.8 0.8 1.4 1.5 1.8 2.2 0.4 0.6 0.6 1.3 0.6 2 0 0.7 0.1 1 0.4 1 0 0 0.1 0 0.1 0.1 0 0 0 0.1-0.1 0.3 0 0.1 0 0.3 0 0.8 0 0.4 0.1 0.9 0.3 1.4 0.4 0.7 0.6 1.2 0.6 1.7 0 0.5-0.1 1.2-0.3 2.1 0 0.7-0.1 1.8-0.2 3.3 -0.1 1.5-0.2 3-0.2 4.4 0 1.5 0 2.8 0 3.7 0 0.9-0.1 1.8-0.3 2.6 -0.1 0.8-0.4 1.5-0.7 2.3 -0.3 0.8-0.8 1.8-1.4 3 -0.1 0.3-0.2 0.7-0.3 1 0 0.3 0 0.5 0 0.7 0 0.2-0.2 0.7-0.6 1.4 -0.4 0.7-0.9 1.4-1.4 2.2 -0.5 0.7-1 1.4-1.5 2s-0.9 0.9-1 0.9 -0.3 0-0.3 0.1c0 0 0 0.2 0 0.6 0.2 0.3 0.1 0.9-0.4 1.7 -0.4 0.8-1 1.6-1.7 2.4 -0.3 0.5-0.8 1.1-1.4 1.8 -0.6 0.7-1.2 1.3-1.7 1.8 -0.4 0.6-0.8 1.2-1.3 1.8 -0.5 0.6-0.9 0.9-1.2 1 -1.8 1.3-2.5 4.6-2.1 9.7 0 1.1 0.1 2 0.2 2.8 0.1 0.7 0.3 1.2 0.5 1.4 0 0.1 0 0.3 0.1 0.6 0.1 0.2 0.1 0.4 0.1 0.6 0 0.4 0.1 1 0.2 1.8s0.3 1.5 0.4 2.2c0.1 0.7 0.3 1.4 0.5 1.9 0.2 0.6 0.3 0.9 0.4 0.9 -0.2-0.3-0.2-0.7-0.1-1.2 0.1-0.5 0.4-0.7 0.6-0.7l0.2 0.4c0.2 0.2 0.3 0.5 0.3 0.9 0 0.7-0.1 1.1-0.3 1.3 -0.2 0.2-0.4 0.3-0.5 0.3 -0.3 0-0.5 0-0.5 0.1 0 0 0.2 0.2 0.5 0.6 0.1 0.4 0.2 0.6 0.3 0.7 0 0.1 0 0.3 0 0.6 -0.1 0.2-0.2 0.4-0.3 0.5 0 0.1 0 0.3 0 0.4 0.4 0.2 0.7 0.8 1 1.9 0.3 1.1 0.4 2.4 0.4 3.9 0.2 0.8 0.4 1.5 0.5 1.9 0.1 0.5 0.3 0.8 0.7 1 0.1 0.2 0.3 0.5 0.5 1 0.2 0.5 0.4 1 0.5 1.5 0.2 0.5 0.3 1 0.4 1.5 0.1 0.5 0 0.7-0.1 0.8 -0.2 0-0.3 0.1-0.3 0.3 -0.1 0.1-0.1 0.1 0 0.1 0 0.1 0.1 0 0.3-0.1 0.1 0 0.3 0.4 0.6 1.1 0.3 0.7 0.7 1.7 1.1 2.8 0.4 1.1 0.8 2.3 1.2 3.6 0.4 1.3 0.7 2.4 1 3.5 0.2 1.1 0.6 2.2 1 3.2 0.4 1 0.8 1.7 1.1 1.9 0.2 0.2 0.5 0.6 0.9 1.1 0.4 0.6 0.8 1.2 1.2 1.8 1 1.5 1.7 2.4 2.1 2.7 0.4 0.3 0.8 0.1 1.4-0.6 0.4-0.6 0.6-1.2 0.6-1.6 0.1-0.4 0.2-0.7 0.3-0.9 0.1-0.2 0.2-0.5 0.4-0.9 0.2-0.4 0.4-0.8 0.7-1.2 0.5-1.1 1-2.1 1.4-3 0.4-1 0.8-2 1.1-3.2 0.4-1.2 0.7-2.5 1.1-4.1 0.4-1.5 0.8-3.4 1.3-5.7 0.1-0.6 0.3-1.5 0.5-2.8 0.2-1.2 0.5-2.6 0.8-4s0.6-2.9 0.9-4.5c0.3-1.5 0.6-3 0.8-4.2 0.3-1.3 0.5-2.4 0.6-3.3 0.2-0.9 0.3-1.4 0.3-1.5 0-0.7 0.1-0.9 0.4-0.7 0.2 0.2 0.5 0.6 0.7 1.3 0.1 0.2 0.1 0.9-0.1 2.1s-0.3 2.5-0.5 3.9c-0.2 1.5-0.4 2.9-0.7 4.4 -0.2 1.5-0.4 2.7-0.5 3.5 0 1.8 0 3 0 3.6 0 0.6 0.1 1 0.3 1.2 0.1 0.1 0.2 0.4 0.1 0.8 -0.1 0.4-0.4 1.1-0.9 2 -0.2 0.2-0.4 0.6-0.5 1.1 -0.1 0.5-0.3 1-0.4 1.5 0 0.5-0.1 1-0.4 1.4 -0.3 0.5-0.4 0.9-0.4 1.2 -0.1 0.1-0.2 0.3-0.3 0.6 0 0.3 0 0.6 0 0.9 0 0.1-0.1 0.4-0.2 0.8 -0.1 0.4-0.2 0.7-0.2 0.9 -0.1 0-0.3 0.3-0.5 0.8 -0.2 0.5-0.3 1.1-0.5 1.7 0 0.7-0.2 1.7-0.6 3.1 -0.4 1.4-0.8 2.7-1.2 4.1 -0.2 0.7-0.4 1.3-0.6 1.8 -0.2 0.6-0.3 1-0.4 1.5 -0.1 0.2-0.2 0.5-0.2 0.7 0 0.2-0.1 0.5-0.1 0.6 0 0.2 0 0.4-0.1 0.7s-0.3 0.5-0.6 0.6c-0.2 0.1-0.4 0.4-0.7 0.7s-0.5 0.7-0.8 1.1c-0.3 0.4-0.5 0.8-0.7 1.1 -0.2 0.3-0.3 0.5-0.3 0.6 0 0.2-0.1 0.5-0.4 0.9 -0.2 0.3-0.5 0.7-0.9 1 -0.3 0.3-0.7 0.6-1.1 0.9 -0.4 0.3-0.8 0.5-1.1 0.6 -3.6 2.1-7.3 1.8-11.2-0.9 -0.6-0.4-1.3-0.9-2-1.4s-1.4-1.1-2.1-1.7c-0.7-0.6-1.3-1.2-1.9-1.9s-1-1.3-1.4-1.8c-1.6-2.5-2.8-4.6-3.6-6 -0.8-1.5-1.5-2.9-2-4.1 -0.3-0.8-0.7-1.9-1.2-3.3 -0.5-1.4-0.9-2.7-1.3-3.8 -0.5-1-1-2.1-1.3-3.3 -0.4-1.2-0.7-2.2-1-2.8 -0.4-1.1-0.6-1.8-0.7-2.1 -0.1-0.3-0.3-0.4-0.7-0.4 -0.2 0-0.3 0-0.4 0 -0.1 0-0.2-0.2-0.3-0.5 -0.1-0.3-0.1-0.8-0.2-1.5 0-0.7-0.1-1.7-0.2-3.1 0-0.5-0.1-1.1-0.2-1.6 -0.1-0.6-0.3-1-0.5-1.3 -0.1-0.5-0.4-1.1-0.6-1.8 -0.3-0.7-0.4-1.4-0.4-2.1l-0.4-1.7 -0.2-0.8h-0.7c-0.2 0.1-0.3 0.3-0.3 0.5 0 0.2 0 0.4 0 0.8 0 0.1 0 0.2-0.1 0.3 0 0.1-0.1 0.2-0.1 0.3 0 0.1-0.1 0.2-0.1 0.2s0 0.1-0.1 0.1c-0.2 0-0.3-0.4-0.5-1.1 -0.1-0.7-0.2-1.5-0.2-2.3 0-1.2 0-2.2 0-2.9 0-0.7 0-1.3 0.1-1.8 0-0.4 0.1-0.8 0.2-1 0.1-0.2 0.2-0.5 0.4-0.7 0.3-0.4 0.5-1 0.7-1.7 0.2-0.7 0.3-1.3 0.3-1.9 0-0.6 0-1.1-0.2-1.6 -0.2-0.5-0.4-0.7-0.8-0.7 -0.7 0-0.7-0.3 0-1 0.2-0.1 0.3-0.3 0.3-0.4 0-0.1-0.1-0.2-0.3-0.2 -0.3-0.1-0.5-0.6-0.5-1.2 0-0.7 0-1.3 0.2-2 0.1-0.2 0.1-0.5 0.1-0.8 0-0.3 0-0.6-0.1-0.8 0-0.2-0.1-0.4-0.2-0.5 -0.1-0.1-0.1-0.1-0.2 0 -0.2 0.1-0.3 0.4-0.3 0.6 0 0.3 0 0.6 0 0.9 0 0.2 0 0.5-0.1 0.6 0 0.2-0.1 0.4-0.1 0.5l-0.2 0.4c0 0-0.1-0.1-0.1-0.3 0-0.2-0.1-0.6-0.1-1.2 0-0.6 0-1.5 0-2.6 0-1.1 0.1-2.7 0.2-4.6 0-1.4 0.1-2.8 0.3-4 0.2-1.2 0.5-2.4 0.8-3.3 0.2-0.7 0.4-1.3 0.5-2 0.1-0.7 0.2-1.1 0.2-1.2 0-0.1 0-0.4 0-0.6 0-0.3 0.1-0.6 0.3-0.9 0.2-0.2 0.4-0.7 0.8-1.5 0.3-0.8 0.6-1.7 0.9-2.7 0.3-0.9 0.7-2 1.2-3.3 0.5-1.3 0.9-2.5 1.3-3.5 1.6-4.2 2.7-7.2 3.4-9.1 0.7-1.9 1-3 0.8-3.3 0-0.2 0.1-0.5 0.2-0.9 0.1-0.4 0.3-0.9 0.5-1.5 0.2-0.6 0.5-1.1 0.8-1.7 0.3-0.6 0.6-1 0.9-1.5 0.2-0.3 0.6-0.8 1-1.5 0.4-0.6 0.8-1.2 1.1-1.6 0.7-1.3 1.5-2.7 2.4-4.1 1-1.4 1.8-2.4 2.4-3l0.9-0.9 0.4-0.4c0-0.2 0.1-0.3 0.3-0.4 0.2 0 0.5-0.1 0.8-0.3 0.2 0 0.5 0 1-0.1l0.4-0.2c0.2-0.1 0.4-0.2 0.5-0.3C231.2 0.4 231.3 0.4 231.5 0.4zM243.4 16.8c-0.1 0-0.2 0.1-0.4 0.4 -0.2 0.3-0.3 0.6-0.5 1 -0.1 0.4-0.3 0.7-0.4 1.1 -0.1 0.4-0.2 0.6-0.2 0.8l-0.4 0.3c-0.2 0-0.6 0.5-1.1 1.4 -0.5 0.9-1.2 2.2-2.1 3.8 -0.2 0.5-0.6 1.5-1.1 2.8 -0.5 1.3-1 2.7-1.5 4.2 -0.5 1.4-0.9 2.7-1.3 3.9 -0.4 1.2-0.5 1.8-0.5 1.9 0 0.2-0.1 0.6-0.3 1.3 -0.2 0.7-0.5 1.4-0.9 2.2 -0.5 1.6-0.9 3.1-1.2 4.4 -0.3 1.3-0.4 2.2-0.4 2.7 0 0.3 0.1 0.5 0.3 0.4 0.2 0 0.4-0.4 0.8-1 0.3-0.4 0.7-0.8 1.1-1.2 0.5-0.4 0.8-0.9 0.9-1.4 0.2-0.5 0.4-1.1 0.8-1.6 0.3-0.5 0.7-1 1-1.3 0.3-0.3 0.6-0.9 0.9-1.6 0.3-0.7 0.6-1.4 0.8-1.9 0.3-0.5 0.6-1.1 0.8-1.6 0.2-0.5 0.4-0.9 0.6-1.1 0-0.1 0.1-0.4 0.3-0.8 0.2-0.4 0.3-0.9 0.5-1.3 0.1-0.5 0.2-0.9 0.3-1.2 0-0.3 0.2-0.5 0.4-0.5 0.1 0.2 0.3 0 0.5-0.5 0.2-0.5 0.3-1.3 0.5-2.4 0.1-1.1 0.3-2.4 0.4-3.9 0.1-1.5 0.2-3.2 0.3-5 0-0.8 0.1-1.4 0.3-1.9s0.5-1 0.9-1.7c0-0.2 0-0.3 0.1-0.5C243.6 16.8 243.6 16.8 243.4 16.8z"/></svg>