<svg xmlns="http://www.w3.org/2000/svg" viewBox="0 0 248.3 145.3">
  <style type="text/css">
    
	.st0{fill:#BE1E2D;}

  </style>
    <path class="st0" d="M3.2 49.2c1 0 2.1 0 3.3 0 1.2 0 2.1-0.2 2.9-0.4 1.7-0.2 3.3-0.1 4.6 0.3 1.3 0.4 2.4 1.1 3.1 2.1 0.3 0.3 0.7 0.8 1.3 1.5 0.6 0.7 1.1 1.5 1.7 2.3 0.6 0.8 1 1.5 1.5 2.2 0.4 0.6 0.6 1 0.6 1.1 0 0.5 0.2 1.2 0.7 2 0.3 0.4 0.5 0.7 0.6 0.9 0.1 0.2 0.2 0.5 0.3 0.7 0 0.2 0.1 0.5 0 0.8 0 0.3-0.1 0.7-0.2 1.2 -0.1 0.2-0.2 0.5-0.3 0.9 -0.1 0.4-0.1 0.9-0.2 1.5 0 0.6-0.1 1.1-0.1 1.8 0 0.6-0.1 1.2-0.2 1.8 0 1.8 0 3 0 3.5 0 0.5 0.1 0.7 0.3 0.4 0.1 0 0.3 0 0.4-0.1 0 0 0.1-0.1 0.1-0.2 0-0.2 0.2-0.4 0.7-0.4 0.6 0 0.9 0.1 1 0.2 0 0.1-0.2 0.3-0.5 0.5 -0.2 0.2-0.4 0.4-0.6 0.6s-0.2 0.4-0.2 0.6l-0.2 0.4c-0.1 0.2-0.3 0.4-0.6 0.4 -0.5 0.4-0.8 0.9-0.8 1.7 0 0.7 0.3 1.5 0.8 2.3l-0.8 4.4c-0.1-0.4-0.3-0.4-0.4-0.1 -0.1 0.3-0.1 1.3 0.1 2.9 0 0.9 0.2 2.2 0.5 4.1s0.6 3.8 1 5.8c0.4 2 0.7 3.7 1.1 5.3 0.4 1.6 0.7 2.5 0.9 2.8 0.2 0.4 0.6 0 1.3-1.3 0.7-1.2 1.5-3.1 2.5-5.5 0.8-2.2 1.3-3.9 1.5-5.2 0.2-1.3 0.1-1.8-0.3-1.5 -0.2 0.1-0.4 0.1-0.8-0.1 -0.3-0.2-0.6-0.4-0.9-0.7 -0.3-0.3-0.5-0.6-0.8-0.9 -0.2-0.3-0.3-0.5-0.3-0.7 0-0.1 0-0.2 0.1-0.2 0-0.2 0.2-0.4 0.4-0.6 0.2-0.4 0.6-0.4 1.2-0.1 0.6 0.3 1 0.9 1.2 1.6 0.2 0.2 0.4 0.5 0.6 0.8 0.2 0.3 0.4 0.4 0.6 0.4 0.4 0.2 0.6 0.4 0.6 0.5s-0.2 0.5-0.6 1.1c-0.2 0.4-0.4 0.7-0.5 1 -0.1 0.3 0.1 0.6 0.5 1 0.2 0.1 0.3 0.4 0.2 0.9 0 0.4-0.3 1.1-0.6 1.9 0 0.6-0.1 1.3-0.4 2.2 -0.3 0.8-0.4 1.5-0.4 2.2 -0.2 0.6-0.4 1.4-0.5 2.2 -0.2 0.9-0.3 1.6-0.3 2.2 -0.2 0.6-0.4 1.4-0.5 2.2s-0.2 1.6-0.2 2.2c0 1.4-0.2 2.7-0.7 3.9 -0.5 1.2-0.9 2.1-1.3 2.8 -0.1 0.2-0.2 0.5-0.3 0.9 0 0.4 0 0.8 0 1.2 0.3 0.7 0.3 1.3 0.1 1.9 -0.2 0.6-0.6 1-1.1 1.4 -0.5 0.4-1.2 0.6-1.9 0.8 -0.8 0.1-1.6 0.1-2.4-0.1 -0.4-0.2-0.8-0.4-1.3-0.6 -0.5-0.1-0.8-0.2-1.1-0.2 -0.4 0-0.7-0.1-1.1-0.2 -0.3-0.1-0.6-0.2-0.9-0.2 -0.2 0-0.5-0.2-1-0.5 -0.5-0.3-1.1-0.8-1.8-1.4 -0.7-0.6-1.5-1.3-2.3-2.1 -0.8-0.8-1.7-1.7-2.6-2.7 -0.8-0.4-1.2-1.1-1.2-2 0-0.4-0.2-1.1-0.5-2.1 -0.3-1-0.7-2.1-1.1-3.1 -1.1-2-1.5-4-1.1-6 0-0.5-0.1-1.2-0.3-2.2 -0.2-1-0.4-2-0.6-3 -0.2-1-0.4-1.9-0.6-2.8 -0.2-0.8-0.4-1.4-0.5-1.5 -0.2 0-0.4-0.3-0.4-0.8 0-0.5-0.2-1.1-0.4-1.7 0-0.4-0.1-0.9-0.3-1.5 -0.2-0.6-0.3-1-0.5-1.2 0-0.2-0.1-0.6-0.2-1.2 -0.1-0.5-0.3-1.1-0.5-1.7 0-0.4-0.1-0.8-0.2-1.3 -0.1-0.5-0.2-0.8-0.2-1 -0.1-0.1-0.2-0.5-0.3-1.2 0-0.6-0.1-1.8 0-3.5 0-1.7 0.1-4 0.1-7.1 0-3 0.1-7 0.2-11.9 0-1.5 0-2.6 0-3.2 0-0.6-0.2-1-0.4-1.2 -0.2 0-0.4-0.4-0.4-1.2 0-0.4 0-0.6 0-0.6 0 0 0.1 0.2 0.3 0.6 0 0.4 0.1 0.6 0.2 0.6s0.2 0 0.2-0.2c0.2-0.4 0.2-0.8 0.1-1 -0.1-0.2-0.3-0.6-0.5-0.9 -0.6-1-0.7-1.7-0.4-2C0.5 49.4 1.5 49.2 3.2 49.2zM33.3 89.8c0 0.2 0.1 0.3 0.2 0.1 0.1-0.1 0.2-0.3 0.2-0.5 0-0.2 0-0.5 0-0.8 0-0.4 0.1-0.7 0.3-1.1 0.2-0.4 0.3-1.2 0.4-2.2 0-1 0-2.1 0-3.2C34.4 81 34.2 80 34 79c-0.2-1-0.4-1.6-0.7-1.9 -0.4-0.5 0-0.8 1.2-0.8 0.2 0 0.5-0.1 0.7-0.2l0.4-0.2c0-0.1 0-0.2 0.1-0.3 0 0 0.1-0.1 0.2-0.1 0.4 0 0.6 0 0.6 0 0 0 0-0.2-0.2-0.4 -0.4-0.2-0.6-0.4-0.6-0.4 0 0 0.2 0 0.6 0 0.2 0 0.5 0 1 0.1s1 0.2 1.6 0.4c0.6 0.2 1.1 0.3 1.7 0.5 0.5 0.2 0.9 0.4 1.1 0.6 0.1 0.2 0.5 0.4 1 0.6 0.5 0.2 1.1 0.4 1.7 0.6 0.5 0.2 1 0.5 1.6 0.8 0.6 0.3 1.2 0.7 1.8 1.1 0.6 0.4 1.1 0.8 1.6 1.2 0.5 0.4 0.9 0.8 1.2 1.2 0.4 0.4 0.7 0.6 1 0.6 0.3 0 0.3-0.2 0.1-0.6 0-0.2 0-0.3 0.1-0.3 0.1 0 0.4 0 1 0 0.8 0 1.3 0.1 1.7 0.2 0.4 0.1 0.4 0.3 0.3 0.6 0 0.2 0 0.4 0.1 0.6 0.1 0.1 0.3 0.2 0.7 0.2 0.2 0 0.4 0 0.5 0 0.2 0 0.3 0.2 0.3 0.4 0.2 0 0.1 0.1-0.3 0.2 -0.4 0.1-0.9 0.2-1.8 0.2 -1 0-1.5 0-1.7 0 -0.2 0-0.3 0.1-0.3 0.3 0.2 0.6 0.5 1.7 0.7 3.3s0.5 3.7 0.9 6.3c0.1 1.4 0.2 2.6 0.3 3.6 0.1 1 0.2 1.9 0.4 2.8 0.1 0.8 0.3 1.7 0.5 2.4 0.2 0.8 0.5 1.7 0.8 2.7 0.8 2.6 1.7 4.2 2.6 4.6 0.9 0.4 1.5-0.4 1.7-2.6 0-0.4 0.1-1 0.4-1.9 0.3-0.9 0.5-1.7 0.7-2.5 0.4-1 0.7-2.2 0.9-3.6 0.2-1.4 0.4-2.6 0.6-3.6 0.2-1 0.4-2.1 0.6-3.3 0.2-1.2 0.4-2.2 0.6-3.1 0.1-0.3 0.2-0.7 0.4-1.3 0.1-0.6 0.3-1.2 0.5-1.9 0.2-0.7 0.4-1.5 0.6-2.3s0.4-1.6 0.6-2.4l1.2-5.6V62.4c0-2.8 0.1-5.1 0.1-6.8 0-1.8 0-3.2 0-4.2 0-1.1-0.1-1.8-0.2-2.3 -0.1-0.5-0.2-0.8-0.3-1 -0.2-0.2-0.3-0.5-0.3-0.8 0-0.3 0-0.6 0-0.7 0-0.2-0.2-0.5-0.5-0.9 -0.3-0.4-0.7-0.7-1.1-1.1 -0.6-0.6-1-1.1-1.2-1.4 -0.2-0.3-0.4-0.7-0.4-1 0.2-0.2 0.3-0.4 0.1-0.6 -0.2-0.2-0.4-0.5-0.8-0.9 -1.2-1-1.2-1.5-0.1-1.5 1.1 0 3 0.3 5.5 1.1 0.5 0.2 1.1 0.4 1.8 0.6 0.6 0.1 1.1 0.2 1.3 0.2 0 0.2 0.1 0.4 0.2 0.6s0.2 0.4 0.2 0.6c0 0.2 0 0.5 0 0.8 0 0.3 0.1 0.6 0.3 0.8 0.2 0.4 0.3 1.1 0.4 2.1 0.1 1 0.1 2.1 0.1 3.2 0 1.2-0.1 2.3-0.3 3.3s-0.4 1.9-0.6 2.5c-0.4 1.2-0.4 2 0 2.4 0 0.2 0.1 0.4 0.2 0.5 0.1 0.2 0.2 0.4 0.2 0.6 0 1.2 0.2 2.2 0.6 3 0.4 0.8 1 1.2 1.7 1.4 0.6 0.4 0.9 0.8 1 1.1 0.1 0.3 0.1 0.7 0.1 1.4 0 0.2-0.1 0.6-0.2 1s-0.3 0.8-0.6 1c-0.2 0.2-0.4 0.5-0.5 0.8 -0.2 0.3-0.3 0.5-0.3 0.7 0 0.4-0.3 0.8-0.8 1.2 -0.3 0.2-0.5 0.5-0.6 0.9 0 0.3-0.1 1.1-0.1 2.4 0 0.8-0.1 1.5-0.3 2.3 -0.2 0.7-0.3 1.3-0.5 1.7 -0.1 0.3-0.2 0.8-0.4 1.7 -0.1 0.8-0.3 1.7-0.4 2.6 -0.1 0.9-0.2 1.9-0.2 2.8 0 0.9 0 1.6 0.1 2.1 0 0.2-0.1 0.5-0.2 0.8s-0.2 0.6-0.2 0.8c-0.2 0.2-0.4 0.7-0.6 1.4 -0.2 0.7-0.4 1.4-0.6 2.2l-0.6 1.9 -0.4 0.9c-0.2 0.2-0.4 0.5-0.4 0.6 0 0.2-0.1 0.5-0.1 0.9 0 0.6-0.2 1.2-0.7 1.7 -0.2 0.4-0.4 1.1-0.5 2.1 -0.2 1-0.3 2.1-0.4 3.1 -0.1 1.1-0.1 2-0.1 2.9 0 0.8 0.1 1.3 0.3 1.4 0 0.2 0 0.4 0.1 0.6 0.1 0.2 0 0.4-0.1 0.6 0 0.2 0 0.6 0 1.2 0 0.5-0.2 1.2-0.4 2 0 1.2-0.1 2.1-0.3 2.8 -0.2 0.6-0.6 1.5-1.3 2.4 -1 1.2-1.8 2.1-2.5 2.7 -0.7 0.6-1.5 1.1-2.5 1.3 -0.2 0-0.7 0.1-1.4 0.1 -0.8 0-1.7 0-2.7 0 -1 0-2.1 0-3.3-0.1 -1.2 0-2.3-0.1-3.2-0.1 -1 0-1.8-0.1-2.5-0.2 -0.7-0.1-1-0.1-1.1-0.2v-0.8c0.2-0.4 0.3-0.6 0.3-0.8 0-0.1-0.1-0.4-0.3-0.9 -0.2-0.4-0.4-0.7-0.5-0.9 -0.1-0.2-0.1-0.3 0.1-0.3 0-0.2-0.3-0.6-0.9-1.1 -0.6-0.5-1.2-0.9-1.7-1.3 -0.5-0.4-1-1.1-1.4-1.9 -0.5-0.9-0.9-1.9-1.3-3.1 -0.4-1.2-0.7-2.5-1.1-4 -0.3-1.5-0.6-3-0.8-4.6 -0.1-0.8-0.2-1.4-0.3-1.9 -0.1-0.5-0.2-0.9-0.3-1.2 -0.1-0.3-0.2-0.5-0.4-0.7 -0.2-0.2-0.4-0.4-0.7-0.6 -1.6-0.8-2-1.4-1.2-1.9 0-0.2 0-0.4 0.1-0.6 0.1-0.2 0-0.4-0.1-0.6 0-0.4 0-0.6 0.1-0.7 0.1-0.1 0.3-0.1 0.7-0.1 0.6 0 0.9-0.2 0.9-0.6 0-0.4-0.2-1.4-0.5-2.9 -0.2-0.8-0.3-1.3-0.3-1.3 0-0.1 0 0.1 0 0.5 0 0.4-0.1 0.7-0.3 0.9 -0.2 0.2-0.3 0.2-0.5 0 -0.2 0-0.4 0-0.4 0.1 0 0 0 0.3 0 0.6 0.1 0.2 0.1 0.5 0.1 1 0 0.5-0.1 1-0.2 1.5 -0.1 0.5-0.2 0.9-0.4 1.3 -0.1 0.4-0.3 0.6-0.4 0.6 -0.2 0-0.3-0.2-0.3-0.5s0.1-0.7 0.3-1.1c0-0.8 0-1.3-0.1-1.4 0-0.1-0.2-0.2-0.6-0.2 -0.2 0.2-0.4 0.2-0.5 0 -0.1-0.3 0.1-0.5 0.5-0.8H33.3z"/>
    <path class="st0" d="M105.1 49.4c1.2 0 2 0.1 2.5 0.3 0.5 0.2 1.1 0.4 1.7 0.8 0.5 0.2 1 0.4 1.4 0.6l0.5 0.4c0.4 0 0.8 0.2 1.2 0.5 0.4 0.4 0.6 0.8 0.6 1.3 0 0.4-0.4 1-1.1 1.6 -0.4 0.2-0.8 0.6-1.3 1.3s-0.9 1.3-1.3 2c-0.3 0.5-0.5 1-0.7 1.3 -0.2 0.4-0.3 0.7-0.4 1.2 -0.1 0.4-0.2 0.9-0.3 1.4 -0.1 0.5-0.2 1.2-0.3 2 0 0.8 0 1.5 0 2 0 0.5 0 1 0.1 1.4 0 0.4 0.1 0.8 0.3 1.1 0.1 0.3 0.3 0.6 0.5 1 0.2 0.5 0.5 1.1 1 1.7 0.5 0.6 0.9 1.1 1.2 1.5 0.4 0.5 0.7 0.9 0.7 1.2 0 0.3 0 0.4-0.3 0.3 -0.2 0-0.4 0-0.4 0.1 0 0 0.1 0.2 0.4 0.4 0.1 0.2 0.5 0.6 1.1 1.1 0.6 0.5 1.4 1.1 2.1 1.6 0.8 0.6 1.5 1 2.1 1.4 0.6 0.4 1 0.6 1.1 0.5l0.2-0.9c0-0.2 0.1-0.5 0.1-0.8 0-0.3 0.1-0.6 0.1-0.8 0-0.2 0.1-1 0.2-2.3 0.1-1.4 0.1-2.9-0.1-4.5 0.3-1 0.3-2.2 0-3.7 -0.3-1.5-0.8-3.1-1.4-4.6 -0.8-1.8-1.5-3.4-2.2-4.8 -0.7-1.3-1.2-2-1.4-1.9l0.2-0.3c0-0.1 0.1-0.2 0.1-0.3 0-0.1 0.1-0.3 0.1-0.4 0-0.7 0.1-1 0.3-1.1 0.2-0.1 0.6 0.3 1.1 1.1 0.1 0.1 0.2 0.3 0.2 0.5 0 0.2 0.1 0.3 0.1 0.4 0 0.1 0.1 0.3 0.1 0.4 0.7 0.2 1.4 0.7 1.9 1.3 0.6 0.6 1.1 1.3 1.6 2.1 0.5 0.8 0.9 1.7 1.3 2.7 0.4 1 0.7 1.9 1 2.8 0.2 0.6 0.4 1.1 0.5 1.6 0.1 0.5 0.3 1 0.5 1.5 0.5 1.2 0.9 2 1.3 2.4 0.2 0.4 0.4 1.1 0.4 2.1 0 1 0 2.1 0 3.5l-1.2 9.6c0.3-0.1 0.8-0.1 1.3-0.1 0.5 0 1 0 1.4-0.1 0.2-0.1 0.5-0.2 0.7-0.3 0.2-0.1 0.5-0.2 0.7-0.3 0.5-0.2 1-0.3 1.4-0.4 0.5-0.1 1-0.2 1.4-0.4 0.3-0.1 0.6-0.2 0.9-0.4 0.3-0.1 0.6-0.3 0.9-0.4l1.8-0.8c0.9-0.4 1.5-0.9 2-1.4s0.8-0.9 1.1-1.2h0.6c1.3 0 1.6 0.2 0.9 0.7 -0.2 0.1-0.4 0.2-0.4 0.4 0 0.2 0 0.3 0 0.4 0 0.1-0.1 0.3-0.3 0.5 -0.2 0.2-0.3 0.3-0.4 0.3 -0.2 0-0.4 0.1-0.5 0.2 -0.1 0.1-0.2 0.3-0.5 0.5 0 0.1 0 0.2 0 0.4 0 0.1-0.1 0.2-0.3 0.2 -0.2 0-0.4 0.1-0.6 0.4 -0.2 0.3-0.5 0.5-0.9 0.6 -0.4 0.2-0.7 0.3-0.8 0.3 -0.1 0.1-0.2 0.1-0.2 0 -0.2 0-0.6 0.1-1.2 0.4 -0.5 0.3-1.1 0.5-1.7 0.7 -0.7 0.3-1.4 0.6-2.1 0.8 -0.7 0.2-1.3 0.3-1.9 0.5 -0.2 0.4-0.6 0.6-1.2 0.6 -0.2 0-0.5 0-0.9-0.1s-0.8 0-1 0.3c-0.2 0.1-0.4 0.3-0.6 0.4 -0.2 0.1-0.4 0.2-0.6 0.2 -0.2 0-0.4 0.2-0.7 0.6 -0.3 0.4-0.6 0.8-0.8 1.3 -0.2 0.5-0.4 1-0.6 1.5 -0.1 0.5-0.2 0.9-0.1 1.2l-0.4 0.2c-0.2 0-0.3 0.1-0.4 0.4 0 0.2-0.2 0.5-0.4 0.7 0 0.3-0.1 0.8-0.3 1.5 -0.2 0.6-0.4 1.2-0.6 1.7 -0.1 0.5-0.3 1-0.5 1.7 -0.2 0.6-0.3 1.3-0.5 1.9 -0.2 0.6-0.3 1.3-0.4 1.8 -0.1 0.6-0.1 1-0.1 1.3 0.2 0.2 0.2 0.6 0.1 1 -0.1 0.4-0.3 0.9-0.5 1.4 -0.2 1-0.3 1.7-0.4 2.2 -0.1 0.4 0 0.6 0.4 0.5l0.1 0.2c0 0.1 0.1 0.2 0.1 0.4 0 0.2 0.1 0.4 0.1 0.6 0 0.7-0.1 1.1-0.3 1.2 -0.2 0.1-0.6 0.1-1.3 0.1 -0.3 0-0.6 0.6-1 1.7 -0.4 0.3-0.8 0.7-1 1.1 -0.2 0.4-0.4 0.7-0.6 0.8 0 0.2-0.1 0.4-0.4 0.7 -0.3 0.3-0.4 0.6-0.4 0.9 -0.2 0.3-0.5 0.6-0.8 0.9 -0.3 0.3-0.5 0.7-0.7 1 -0.1 0.3-0.4 0.8-1 1.5 -0.6 0.7-1.3 1.5-2.2 2.3 -0.9 0.8-2 1.6-3.1 2.3 -1.2 0.7-2.4 1.3-3.7 1.7 -1.3 0.4-2.6 0.6-3.9 0.5 -1.3-0.1-2.5-0.6-3.6-1.6 -1.2-0.5-2.2-0.9-3-1.3 -0.7-0.4-1.4-0.9-1.9-1.3 -0.6-0.5-1.1-1-1.5-1.5 -0.5-0.6-1.1-1.2-1.7-1.9 -0.8-0.9-1.5-1.8-2.2-2.7 -0.7-0.9-1.3-1.6-1.8-2.3 -0.5-0.7-0.9-1.2-1.3-1.7 -0.3-0.5-0.5-0.7-0.5-0.8 -0.1-0.1-0.2-0.2-0.3-0.4 -0.1-0.1-0.2-0.3-0.3-0.4 -0.3-0.4-0.5-0.9-0.6-1.4 -1-1.7-1.7-3.6-2.3-5.8 -0.6-2.2-1-4.4-1.2-6.7v-4.2l0.1-1.4c0-0.4 0.1-0.9 0.1-1.5 0-0.6 0.1-1.2 0.1-1.9 0.1-2.4 0.2-4.2 0.2-5.5 0-1.3 0.1-2.4 0.3-3.3 0.1-0.9 0.4-1.7 0.6-2.4 0.3-0.7 0.7-1.7 1.2-2.8 0.4-1.2 0.8-2.3 1.3-3.4 0.5-1.1 0.8-1.9 0.9-2.4 0.2-0.3 0.4-0.8 0.7-1.3 0.3-0.5 0.4-0.9 0.4-1 0.2-0.3 0.8-0.7 1.8-1s1.9-0.5 2.8-0.4c0.4 0.2 1.1 0.4 1.9 0.4 0.8 0 1.6 0.1 2.4 0.3 1 0.1 1.9 0.3 2.8 0.5 0.9 0.2 1.6 0.5 2.1 0.8 0.2 0.1 0.4 0.2 0.6 0.3 0.2 0.1 0.5 0.1 0.6 0.2 0.3 0.1 0.5 0.1 0.6 0.1 0.2 0 0.4-0.3 0.4-1 0-0.7 0-1.6 0-2.7 0.1-2.2 0.2-3.8 0.3-5 0.1-1.2 0.3-2.1 0.5-2.8 0.2-0.7 0.5-1.3 0.9-1.8 0.4-0.5 1-1.1 1.7-1.8 0.2-0.4 0.4-0.7 0.6-0.8s0.2-0.3 0.2-0.5c0-1.1 0.4-1.3 1.2-0.6 0.9 0.7 1.1 0.7 0.7 0l0.3-0.1c0.1 0 0.3-0.1 0.5-0.1 0.2 0 0.5-0.1 0.8-0.1H105.1zM104.8 75.8c-0.1 0-0.2 0-0.3 0.1 -0.1 0-0.3 0.1-0.4 0.1 -0.1 0-0.2 0.1-0.3 0.1l-3.4 0.3 -0.2 0.6c-0.1 0.2-0.2 0.4-0.3 0.7 -0.1 0.3-0.2 0.5-0.3 0.8 -0.2 0.5-0.5 1.1-0.8 1.8 -0.3 0.7-0.6 1.4-0.8 2.1 -0.4 0.4-0.7 0.9-0.9 1.4 -0.2 0.5-0.3 0.9-0.3 1.1l-0.4 1 -0.7 2.3c-0.6 1.5-1 3-1.4 4.4 -0.3 1.4-0.6 2.7-0.7 4 -0.1 1.3-0.2 2.7-0.1 4 0.1 1.3 0.3 2.8 0.6 4.2 0.2 0.6 0.5 1.3 0.8 1.9 0.3 0.7 0.4 1.2 0.4 1.6 0.3 0.6 0.8 1.3 1.6 2.3 0.8 1 1.6 1.9 2.6 2.8 0.9 0.9 1.8 1.8 2.6 2.4 0.8 0.7 1.3 1 1.6 1 0.4 0 1-0.4 1.7-1.2 0.7-0.8 1.4-1.7 2.1-2.8 0.7-1.1 1.3-2.3 1.9-3.6 0.6-1.3 1-2.4 1.3-3.3 0.2-1 0.5-1.8 0.8-2.6 0.3-0.7 0.4-1.2 0.4-1.4 0.2-0.3 0.4-0.9 0.7-1.5 0.3-0.7 0.5-1.5 0.8-2.3s0.6-1.8 0.9-2.7c0.3-0.9 0.5-1.8 0.7-2.5 0.2-0.8 0.4-1.7 0.5-2.7 0.2-1 0.3-1.8 0.5-2.5 0.4-1.3 0.7-2.2 0.7-2.8 0-0.6-0.1-0.8-0.3-0.8 -0.2 0-0.6-0.2-1.2-0.5s-1.2-0.7-1.8-1.2c-0.6-0.4-1.2-0.8-1.7-1.2 -0.5-0.4-0.7-0.6-0.7-0.7 0-0.2-0.1-0.3-0.3-0.3 -0.2 0-0.3 0-0.5 0 -0.2 0.2-0.3 0.2-0.3 0.1 0-0.1 0-0.2 0-0.3 0.2-0.2 0.3-0.4 0.3-0.4 0 0-0.1 0-0.3 0 -0.2 0.2-0.6 0.2-1.2-0.1 -0.6-0.2-0.9-0.6-0.9-0.9 0-0.1-0.1-0.2-0.2-0.2h-0.2c-0.2 0-0.3 0-0.3 0.1 0 0 0 0.1 0 0.1 0 0.5-0.1 0.7-0.4 0.5 -0.2-0.2-0.4-0.4-0.4-0.7 0-0.3 0-0.6 0-0.8 0-0.2-0.2-0.1-0.4 0.1 -0.4 0-0.6-0.1-0.7-0.3 -0.1-0.2-0.2-0.4-0.5-0.7C105.1 76.1 105 75.8 104.8 75.8zM136.4 79.1c-0.2 0-0.2-0.1-0.1-0.1 0.1 0 0.2 0 0.3 0L136.4 79.1zM136.5 79L136.5 79 136.5 79z"/>
    <path class="st0" d="M133.5 50.1c0.4 0 0.9 0 1.5 0.1 0.6 0.1 1.2 0.2 1.9 0.3 0.6 0.1 1.3 0.2 1.8 0.3 0.6 0.1 1 0.2 1.3 0.2 0.9 0.3 1.5 0.7 2.1 1.2 0.5 0.4 0.9 0.9 1.2 1.5s0.5 1.3 0.6 2.1c0.1 0.8 0.2 1.8 0.3 2.8 0.2 1.1 0.3 2.3 0.3 3.6 0 1.3 0 2.7-0.2 4s-0.3 2.6-0.6 3.9c-0.3 1.2-0.6 2.2-0.9 3.1 -0.1 0.4-0.2 0.8-0.2 1.1 0 0.4-0.1 0.7-0.2 1l-0.2 1c0 0.1 0.1 0.3 0.4 0.5 0.3 0.2 0.6 0.4 0.9 0.5 0.3 0.1 0.7 0.2 1 0.3 0.3 0 0.5 0 0.6-0.1 0.1-0.2 0.4-0.4 0.9-0.4 0.5 0 0.9 0 1.5 0 0.4 0 0.8 0 1.3-0.1 0.5-0.1 0.9-0.2 1.4-0.3 0.4-0.1 0.8-0.2 1.1-0.3 0.3-0.1 0.4-0.2 0.4-0.3 0-0.1 0.2-0.3 0.5-0.8 0.4-0.4 0.8-0.8 1.2-1.3 0.4-0.4 0.9-0.8 1.3-1.2 0.4-0.4 0.7-0.5 0.8-0.5 0 0 0.4 0.2 1 0.5 0.6 0.3 1.4 0.7 2.2 1.2 0.8 0.4 1.5 0.9 2.3 1.3 0.7 0.5 1.2 0.8 1.4 1 0.3 0.2 0.6 0.5 0.9 0.9 0.3 0.4 0.5 0.8 0.6 1.1 0.4 0.7 0.9 1.5 1.7 2.4 0.2 0.3 0.5 0.9 0.9 1.5 0.4 0.7 0.8 1.4 1.1 2.1 0.3 0.6 0.6 1 0.8 1.4 0.2 0.4 0.3 0.7 0.4 1s0.1 0.6 0 0.9 -0.1 0.6-0.2 1c0 0.9-0.1 1.5-0.3 1.8 -0.2 0.3-0.7 0.7-1.3 1.3 -0.7 0.5-1.2 0.8-1.6 1 -0.4 0.2-0.7 0.2-1.1-0.1 -0.4-0.1-0.7-0.1-0.8 0.2 -0.1 0.3-0.3 1-0.5 2.2v1.3c0.2-0.2 0.4-0.3 0.4-0.3 0 0 0.1 0 0.2 0 0.1 0 0.2 0.2 0.3 0.6 0 0.4 0 0.8-0.1 1.3 -0.1 0.5-0.2 0.9-0.4 1.4s-0.3 0.7-0.5 0.8c0 0.1-0.1 0.6-0.2 1.5 -0.1 0.9-0.3 2.1-0.5 3.8 -0.1 1.3-0.3 2.6-0.5 3.9s-0.3 2.2-0.3 2.7c-0.3 1.1-0.3 1.8 0 2.1l0.2 0.2c0 0.1 0.1 0.2 0.1 0.2s0.1 0.1 0.1 0.2c0 0.2 0 0.6 0.1 0.9l0.1 0.4c0.3 0.2 0.5 0.4 0.5 0.6 0 0.2 0 0.7-0.2 1.3 -0.1 0.7-0.3 1.5-0.3 2.6s-0.1 2.1-0.1 3.2 0 2.1 0.1 3.1c0.1 1 0.2 1.7 0.3 2.2 0.1 0.1 0.2 0.3 0.2 0.4 0 0.1-0.1 0.2-0.2 0.2 -0.2 0-0.4-0.3-0.4-1 0 0 0-0.1-0.1-0.4l-0.1-0.2c-0.2-0.2-0.4-0.4-0.4-0.6 0-0.2-0.1-0.4-0.3-0.8 0-0.3 0-0.7-0.1-1.1 -0.1-0.4-0.1-0.7-0.1-0.9 -0.4-0.6-0.4-1.3 0-1.9v-5.1c0.1-0.5 0.2-0.9 0.3-1.4 0-0.4 0-0.8 0-1.2 -0.1-0.3-0.2-0.4-0.3-0.2s-0.2 0.8-0.4 1.8c-0.1 0.8-0.2 1.6-0.3 2.4 0 0.8 0 1.4 0 1.9 0 0.4 0 0.9 0 1.4 0 0.6-0.2 1-0.4 1.3 -0.2 2.5-0.3 4.6-0.3 6.2 0 1.6 0.1 2.3 0.3 2.2 0.1 0 0.2 0 0.2 0.1 0.1 0.1 0.2 0.3 0.2 0.6 0 0.2 0 0.4 0 0.5 0 0.1 0.1 0.3 0.3 0.5 0.3 0.1 0.5 0.2 0.5 0.1 0 0 0-0.3-0.2-0.8 0-0.5 0-0.8 0-0.8 0 0 0.1 0.1 0.3 0.5l0.4 0.6 0.3 0.4c0 0.1 0 0.2 0 0.2 0 0 0.1-0.1 0.3-0.2 -0.1-0.4 0-0.8 0.3-1.2 0.6-0.8 1.2-1.8 1.9-3 0.7-1.2 1.5-2.5 2.2-3.9 0.7-1.4 1.5-2.8 2.2-4.3 0.7-1.5 1.4-2.9 1.9-4.2 0.1-0.5 0.4-0.9 0.6-1.4 0.3-0.4 0.5-0.8 0.7-1.2l2.4-4.9c0.5-1.1 1.1-2.2 1.7-3.3 0.6-1.2 1.1-2.2 1.6-3.2s0.9-1.9 1.3-2.6c0.4-0.7 0.6-1.3 0.7-1.5 0.2-0.3 0.3-0.5 0.3-0.5 0 0-0.2 0-0.5 0.2 -0.2 0-0.4 0-0.5 0.1 -0.1 0.1-0.2 0-0.2-0.1 -0.1 0 0-0.2 0.3-0.7 0.4-0.5 0.7-0.8 1-0.9 0.1-0.1 0.4-0.3 0.7-0.8s0.6-0.9 0.9-1.4 0.5-1 0.8-1.5c0.2-0.5 0.3-0.9 0.3-1.2 0-0.1 0.1-0.6 0.3-1.4 0.2-0.8 0.5-1.6 0.7-2.6 0.3-0.9 0.5-1.8 0.8-2.7 0.3-0.9 0.5-1.5 0.6-2 0.3-0.3 0.6-0.8 1-1.3s0.8-1 1.2-1.4c0.4-0.5 0.7-0.8 1.1-1.2 0.3-0.3 0.6-0.5 0.8-0.5 0.2 0 0.3 0.3 0.3 0.8s-0.2 1-0.6 1.5c-0.1 0.3-0.3 0.8-0.6 1.3 -0.3 0.6-0.5 1-0.7 1.3 -0.2 0.5-0.4 1.1-0.7 1.7 -0.3 0.6-0.5 1.2-0.6 1.7 -0.2 0.3-0.4 0.8-0.5 1.5 -0.2 0.6-0.3 1.1-0.5 1.5 -0.1 1.5-0.4 3.1-0.8 4.8 -0.4 1.6-0.9 3-1.4 4 -0.4 0.7-0.8 1.6-1.4 2.8 -0.5 1.2-1.1 2.4-1.7 3.8l-1.2 2.7c-0.7 1.4-1.2 2.7-1.7 3.8s-0.6 1.7-0.5 1.9c0 0.2 0 0.4 0 0.5 0 0.2-0.1 0.3-0.3 0.5l-0.3 0.4 -0.4 0.6c0 0.6-0.2 0.9-0.6 0.9 -0.2 0-0.4-0.2-0.4-0.6 0.2-0.3 0.2-0.5 0.1-0.6 -0.1 0-0.3-0.1-0.5-0.1 -0.1 0.1-0.2 0.2-0.3 0.3 -0.1 0-0.2 0.2-0.2 0.4 0 0.1-0.1 0.4-0.4 0.9 -0.3 0.5-0.6 1-1 1.7 -0.3 0.7-0.6 1.4-0.8 2.1 -0.2 0.7-0.4 1.2-0.6 1.3 0 0.3-0.1 0.8-0.4 1.4 -0.3 0.6-0.6 1.2-0.9 1.9 -0.3 0.9-0.6 1.7-0.9 2.6 -0.3 0.9-0.5 1.9-0.7 3.1 -0.2 1-0.4 1.9-0.5 2.8 -0.1 0.9-0.3 1.5-0.5 1.8 -0.1 0.5-0.1 1.1 0 1.6s0.3 1 0.4 1.5c0.1 0.5 0.1 0.9 0 1.3 -0.1 0.4-0.4 0.7-1 0.9 -0.4 0.1-0.9 0.3-1.5 0.6s-1.1 0.5-1.5 0.7c-0.9 0.6-1.7 1-2.2 1.4 -0.6 0.4-1.1 0.6-1.5 0.8 -0.5 0.2-0.9 0.3-1.3 0.4 -0.4 0.1-0.9 0.1-1.5 0.1 -0.5-0.1-1-0.2-1.4-0.4 -0.4-0.1-0.9-0.4-1.4-0.6 -0.5-0.3-1-0.7-1.7-1.2 -0.6-0.5-1.4-1.1-2.2-1.8 -0.8-1.1-1.3-1.7-1.5-2 -0.2-0.3-0.3-0.5-0.1-0.7 0.2-0.1 0.4-0.3 0.5-0.4 0.1-0.1 0.1-0.6-0.1-1.2 -0.2-0.3-0.4-0.6-0.4-0.9 0-0.3 0-0.5 0-0.7l0.2 0.2c0 0.1 0.1 0.2 0.1 0.2 0 0 0.1 0.1 0.1 0.2 0.1 0.3 0.2 0.6 0.3 0.8 0 0.2 0.1 0.3 0.3 0.3 0.1 0 0.1-0.1 0.1-0.4 0-0.2-0.1-0.5-0.3-0.8 -0.1-0.3-0.3-0.6-0.5-0.9 -0.2-0.3-0.4-0.5-0.6-0.6 0-0.2-0.1-0.5-0.2-0.8 -0.1-0.3-0.2-0.5-0.2-0.6 0-0.4-0.1-0.9-0.2-1.5 -0.1-0.6-0.3-1.1-0.5-1.6 -0.2-0.5-0.4-0.9-0.5-1.2 -0.2-0.3-0.3-0.4-0.4-0.4 0 0-0.1 0.1-0.1 0.1 -0.1 0.1-0.1 0.2-0.1 0.2v0.4c-0.1 0.1-0.2 0.1-0.3-0.1 0-0.2-0.2-0.5-0.4-0.8 0-0.1 0-0.5-0.1-0.9l-0.1-0.4c-0.3 0.1-0.6-0.5-0.8-1.8 -0.2-1.3-0.4-3.2-0.6-5.5 0-2.7 0-5 0.1-6.8 0.1-1.8 0.4-3.4 0.9-4.9 0.3-0.7 0.6-1.5 0.8-2.5 0.3-1 0.5-1.9 0.7-2.9 0.2-0.9 0.3-1.7 0.4-2.4 0.1-0.6 0.1-1 0.1-1l-0.4 0.7c-0.1 0.5-0.3 0.7-0.4 0.5 -0.1-0.2-0.2-0.6-0.2-1.3 0-0.6 0.1-1.4 0.2-2.3 0.1-1 0.3-2.1 0.4-3.2s0.4-2.3 0.6-3.6c0.2-1.2 0.5-2.4 0.7-3.5 0.3-1.3 0.6-2.4 0.8-3.1 0.2-0.7 0.3-1.2 0.3-1.6 0-0.3 0-0.6 0-0.6 0-0.1-0.1-0.2-0.2-0.3 -0.1 0-0.3 0.1-0.6 0.2 -0.3 0.1-0.6 0.3-1 0.5 -0.2 0.2-0.5 0.4-0.6 0.5 -0.2 0.1-0.5 0.2-0.8 0.3 -0.4 0.1-0.8 0.1-1.4 0.1s-1.4 0-2.4 0c-0.8 0-1.5-0.1-2-0.1 -0.5 0-1-0.1-1.4-0.2 -0.4-0.1-0.7-0.2-1.1-0.3 -0.3-0.1-0.7-0.2-1.2-0.4 -0.6-0.2-1-0.4-1.4-0.5 -0.4-0.1-0.7-0.2-0.9-0.1s-0.5 0.2-0.8 0.4c-0.2 0.2-0.5 0.5-0.8 0.9 -0.2 0.1-0.4 0.3-0.5 0.4 -0.1 0.1-0.3 0.2-0.5 0.2 0-0.1 0-0.3 0.1-0.4 0-0.1 0.2-0.3 0.6-0.5 0.5-0.9 0.6-1.3 0.4-1.3 -0.2 0-0.4-0.2-0.4-0.7 0.1-0.1 0.2-0.3 0.1-0.4l-0.1-0.2c-0.1 0-0.5-0.2-0.9-0.6 -0.5-0.4-1.1-1-1.7-1.7 -0.7-0.7-1.3-1.2-1.9-1.7 -0.6-0.4-1-0.6-1.2-0.6l-1.3-4.4c-0.2-0.5-0.4-0.9-0.5-1.4 -0.1-0.5-0.2-1-0.2-1.5 0-0.6 0-1.2 0.1-1.9s0.2-1.7 0.3-2.8c0.4-1.8 0.8-3.5 1.3-5 0.5-1.5 1.1-2.8 1.7-4 0.5-0.7 1.1-1.3 1.8-1.8 0.6-0.5 1.7-1 3.1-1.5H133.5zM139.8 58.2c-0.4 0-1 0.3-1.7 1 -0.8 0.7-1.4 1.4-1.9 2.2 -0.3 0.8-0.6 1.5-0.8 2.2 -0.2 0.6-0.3 1.5-0.3 2.5 0 0.9-0.1 1.7-0.2 2.5 -0.1 0.8 0.2 1.7 0.8 2.6l3.9 4 1.4-2.7c0.3-1.9 0.7-3.5 1-4.8 0.3-1.3 0.5-2.5 0.6-3.6 0-1.1-0.1-2.1-0.5-3 -0.4-0.9-1.1-2-2.1-3.1H139.8zM156.5 129.3c0-0.1-0.1-0.2-0.2-0.1 -0.1 0.1-0.4 0.2-0.7 0.4 -0.5 0.3-0.7 0.8-0.8 1.3 0 0.6 0.2 1.3 0.5 2.3 0.2 1.2 0.5 1.7 0.9 1.7 0.1 0.1 0.3 0.2 0.4 0.1 0.1-0.1 0.1-0.2-0.1-0.4 -0.1-0.1-0.2-0.2-0.2-0.4 0-0.2-0.1-0.3-0.2-0.5l-0.2-0.7c0.2 0 0.4 0.1 0.8 0.4 0.3 0.3 0.6 0.6 0.9 1 0.5 0.5 1 0.9 1.3 1.2s0.6 0.4 0.7 0.4c0.1 0 0.2-0.3 0-0.9 -0.1-0.6-0.3-1.2-0.7-1.7 -0.1-0.3-0.2-0.6-0.3-0.9 0-0.3 0-0.5 0-0.6 0.1-0.2 0.2-0.4 0.2-0.4 0 0-0.2 0-0.6 0 -0.1 0.2-0.2 0.3-0.3 0.1 0-0.2-0.2-0.4-0.4-0.8C157.5 129.7 157.2 129.3 156.5 129.3zM154.9 127c0.2-0.1 0.4-0.3 0.4-0.6s-0.1-0.5-0.4-0.7V127z"/>
    <path class="st0" d="M194.1 0c0.5 0 1.2 0.1 2 0.4 0.9 0.3 1.8 0.7 2.7 1.1 0.9 0.5 1.8 0.9 2.6 1.4 0.8 0.5 1.4 1 1.8 1.4 0.2 0.1 0.4 0.4 0.5 0.6 0.2 0.3 0.3 0.6 0.3 0.8 0 0.5 0 0.8-0.1 0.9 -0.1 0.1-0.4 0.2-0.9 0.4 -0.5 0-0.8 0.3-0.8 0.8 0 0.6 0.4 1.8 1 3.6 0.3 0.6 0.5 1.1 0.6 1.5 0.1 0.5 0.3 1 0.3 1.5 0.1 0.6 0.1 1.2 0.1 1.9 0 0.7 0 1.5 0 2.6 0.1 1.4 0.2 2.5 0.2 3.2 0 0.8 0 1.4-0.1 1.8 -0.1 0.4-0.2 0.6-0.4 0.7 -0.2 0.1-0.5 0.1-0.8 0 -0.3 0-0.5 0.1-0.6 0.2 -0.1 0.1-0.2 0.6-0.4 1.5 -0.4 1.4-0.6 2.3-0.6 2.7 0 0.3 0 0.5 0 0.5 0 0 0.1 0 0.2-0.2 0.4-0.4 0.6-0.5 0.6-0.2 0 0.2-0.1 0.9-0.3 1.9 -0.1 0.9-0.3 1.9-0.6 3.1 -0.3 1.1-0.7 2.2-1.2 3.3 -0.5 1.1-1 2.1-1.5 3.1 -0.6 1-1.2 1.8-1.7 2.3 -0.7 0.5-1.1 0.8-1.4 1 -0.3 0.2-0.6 0.2-1-0.1h-0.9c0 0.2 0 0.5 0 0.8 0 0.3-0.1 0.5-0.3 0.7 -0.2 0.3-0.3 0.7-0.3 1 0 0.3 0 0.5 0 0.7 0 0.3-0.3 0.6-1 1 -0.2 0-0.4 0.1-0.7 0.4s-0.4 0.5-0.4 0.6c-0.2 0.3-0.4 0.7-0.6 1.1 -0.1 0.4-0.3 0.8-0.5 1.2 -0.2 0.3-0.4 0.7-0.5 1.2 -0.1 0.5-0.2 1.1-0.3 1.9 -0.1 0.8-0.1 1.9-0.2 3.2 0 1.3-0.1 3.1-0.2 5.3 0 1.4 0 2.7 0 3.7s0 2.1 0 3c0 0.9 0.1 1.8 0.1 2.7 0 0.9 0.1 1.9 0.2 3.1 0 0.8 0.1 1.6 0.2 2.2 0.1 0.7 0.2 1.3 0.3 1.8l0.4 1.7 0.2-0.3c0.1-0.1 0.3-0.4 0.4-0.8 0.1-0.3 0.4-0.9 1-1.8 0.6-0.8 1.2-1.7 2-2.7 0.8-1 1.6-1.9 2.4-2.8 0.8-0.9 1.5-1.7 2.1-2.2 2.7-2.6 5.4-4.1 8.1-4.6 2.7-0.5 5 0 7 1.6 1.2 0.9 2.3 2.2 3.2 4 0.9 1.8 1.8 4.4 2.6 7.8 0.6 2.5 0.6 4.5 0 5.8 -0.3 0.6-0.3 0.9 0 0.9 0.2 0.2 0.3 0.4 0.2 0.8 0 0.3-0.3 0.6-0.9 0.9 -0.2 0.4-0.4 0.8-0.7 1.3 -0.3 0.5-0.5 1-0.7 1.5 -0.9 2.4-1.8 4.4-2.9 6.2 -1.1 1.8-2.3 3.5-3.8 5 -0.9 0.8-1.7 1.7-2.4 2.5 -0.8 0.9-1.3 1.3-1.7 1.4 -0.6 0.4-1 0.7-1 0.9 0 0.2 0.1 0.4 0.4 0.7 0 0.4 0.1 0.7 0.3 0.9 0.2 0.2 0.4 0.3 0.6 0.3 0.4 0.1 0.9 0.5 1.5 0.9 0.6 0.5 1.2 1.1 1.8 1.8 0.6 0.7 1.2 1.5 1.8 2.5 0.6 0.9 1.1 1.9 1.5 2.9 0.3 0.6 0.7 1.2 1.2 1.8 0.5 0.6 1 1.3 1.6 1.8 0.6 0.6 1.1 1.1 1.6 1.6 0.5 0.5 1 0.8 1.3 1.1 0.3 0 0.7 0.1 1.2 0.4 0.4 0.3 0.8 0.5 1.2 0.6 1 0.5 2.1 0.8 3.2 0.8s2-0.3 2.5-0.8c0.2-0.3 0.7-1 1.3-2.1 0.6-1.1 1.3-2.4 2.2-4 0.8-1.6 1.7-3.3 2.6-5.1 0.9-1.8 1.8-3.7 2.7-5.4 0.8-1.8 1.6-3.4 2.3-4.9 0.7-1.5 1.2-2.7 1.5-3.6 0.1-0.5 0.4-1.3 0.6-2.2 0.3-1 0.6-2 1.1-3.2 0.3-0.8 0.6-1.7 0.9-2.6 0.3-0.9 0.6-1.8 1-2.8 0.2-0.7 0.5-1.3 0.8-1.9 0.3-0.6 0.6-1.3 0.8-1.9 0.9-2.3 1.6-4.3 2.1-6 0.5-1.8 0.8-2.7 1-3 0.4-0.8 0.6-0.9 0.6-0.4s-0.2 1.5-0.5 2.8c-0.3 1.3-0.7 3-1.3 5 -0.6 2-1.1 4-1.8 6l-1.5 4.9c-0.5 1.6-1 3-1.4 4.4 -0.4 1.3-0.8 2.4-1.2 3.2 -0.3 1.1-0.6 1.9-0.9 2.5 -0.3 0.6-0.4 1-0.4 1.2 0 0.2-0.1 0.5-0.2 0.6 -0.1 0.2-0.3 0.3-0.5 0.4 -0.3 0.2-0.4 0.4-0.4 0.7 0 0.3 0.1 0.5 0.4 0.7 0.2 0.1 0.3 0.2 0.5 0.4 0.1 0.2 0.1 0.3-0.1 0.3 -0.2 0.2-0.3 0.4-0.3 0.6 0 0.2 0 0.5 0 0.8 0 0.1-0.1 0.4-0.2 0.9 -0.1 0.5-0.4 0.9-0.8 1.4 -0.2 0.4-0.4 0.9-0.6 1.3 -0.2 0.4-0.4 0.9-0.4 1.4 -0.1 0.4-0.3 0.8-0.5 1.2 -0.3 0.4-0.6 0.8-0.9 1.2 -0.3 0.4-0.7 0.7-1 0.9 -0.3 0.3-0.5 0.4-0.7 0.4 -0.2 0-0.4 0.1-0.4 0.4 0 0 0 0.1 0.1 0.1 0 0 0.1 0 0.3-0.1 0.2-0.2 0.3-0.1 0.3 0.3 0 0.4-0.2 0.9-0.6 1.4 -0.1 0.1-0.2 0.2-0.2 0.3 0 0.1-0.1 0.2-0.2 0.3l-0.2 0.4c0 0.1 0 0.3-0.1 0.7 -0.1 0.4-0.2 0.8-0.4 1.2 -0.1 0.4-0.3 0.8-0.5 1.1 -0.2 0.3-0.3 0.5-0.3 0.5 -0.2 0-0.4 0.2-0.5 0.6 -0.2 0.4-0.3 0.8-0.5 1.2 -0.1 0.3-0.4 0.7-0.7 1.2 -0.3 0.4-0.7 0.8-1.1 1.2 -0.1 0.2-0.3 0.5-0.6 0.8 -0.3 0.4-0.5 0.7-0.7 0.9 -0.7 1.2-1.6 2-2.8 2.3 -1.2 0.3-2.8 0.2-4.9-0.3 -3.2-0.7-6.5-2.1-9.8-4.2s-6.2-4.8-8.8-7.9l-1.1-1.4 -0.6-0.6c-0.1 0-0.3-0.1-0.5-0.4 -0.2-0.3-0.5-0.5-0.9-0.8 -0.1-0.4-0.4-0.9-0.9-1.5 -0.5-0.6-1-1.2-1.4-1.7 -0.5-0.5-1-1.1-1.4-1.8 -0.4-0.7-0.7-1.2-0.9-1.5 -0.4-0.5-0.6-0.8-0.7-0.9 -0.1-0.1-0.3 0-0.6 0.1 -0.2 0.2-0.4 0.4-0.5 0.5 -0.2 0.1-0.4 0.1-0.6-0.1 -0.1-0.1-0.3 0-0.6 0.1 -0.3 0.2-0.5 0.5-0.7 0.8 -0.2 0.4-0.4 0.7-0.5 1.1 -0.1 0.4-0.1 0.7 0 1 0.1 0 0.2 0.3 0.3 0.7 0.1 0.4 0.1 0.9 0.2 1.4 0 0.6 0.1 1.1 0.1 1.7 0 0.6 0 1.1 0 1.5 0 1.3-0.1 2.4-0.3 3.1 -0.2 0.7-0.5 1.2-1 1.3 -0.3 0.2-0.7 0.4-1 0.8 -0.3 0.3-0.5 0.6-0.7 1 -0.3 0.4-0.7 0.6-1 0.6 -0.4 0-1.2-0.1-2.4-0.3 -1.3 0-2.1-0.1-2.4-0.2 -0.3-0.1-0.5-0.4-0.5-0.7 0-0.1-0.1-0.4-0.3-0.7 -0.2-0.3-0.4-0.6-0.8-0.9 -0.3-0.4-0.7-1.1-1.2-2 -0.5-1-1-2-1.5-3 -0.5-1-1-2-1.4-3 -0.4-0.9-0.7-1.5-0.8-1.8 0-0.4-0.1-0.9-0.2-1.3 -0.1-0.4-0.3-0.7-0.4-0.8 -0.5-0.5-0.8-1-0.9-1.4 0-0.4 0.1-0.6 0.5-0.6 0.5 0 0.6-0.3 0.4-1 -0.1-0.3-0.3-1.1-0.6-2.4 -0.3-1.3-0.6-2.7-0.9-4.2 -0.3-1.6-0.6-3.1-0.9-4.5 -0.3-1.5-0.5-2.6-0.7-3.3 -0.1-0.8-0.2-1.9-0.3-3.4 -0.1-1.4-0.2-3-0.4-4.7 -0.1-1.7-0.2-3.4-0.4-5.1 -0.1-1.8-0.2-3.3-0.3-4.8 0-1.4-0.1-2.6 0-3.6 0-0.9 0.1-1.4 0.3-1.5 0.2-0.2 0.3-0.7 0.4-1.5 0-0.8 0.2-2.3 0.4-4.3 0.2-0.7 0.3-1.2 0.4-1.7 0-0.5 0.1-0.7 0.2-0.7 0.2 0 0.4-0.6 0.5-1.8 0.1-1.2 0.2-2.6 0.2-4.1 0-0.7 0.1-1.5 0.2-2.3 0.1-0.9 0.3-1.7 0.6-2.5 0.1-1.7 0.3-3.1 0.4-4.3 0.1-1.2 0.1-1.9-0.1-2.1 -0.3-0.4-0.3-1.5 0-3.2 0.2-0.8 0.4-1.6 0.5-2.5 0.1-0.8 0.2-1.5 0.2-1.8 0-0.5 0.1-1.4 0.2-2.6 0.1-1.2 0.3-2.5 0.5-3.9 0.2-1.4 0.5-2.9 0.7-4.3 0.3-1.5 0.5-2.7 0.8-3.7 0.4-1.4 0.8-2.7 1.2-3.9 0.4-1.2 0.7-2.2 1-3.2 0.3-1 0.7-1.9 1-2.9 0.4-0.9 0.8-1.9 1.2-2.9 1.4-2.9 2.5-4.8 3.3-5.9 0.7-1 1.5-1.5 2.1-1.5 1 0 2-0.2 2.8-0.5 0.9-0.3 1.6-0.7 2.1-1.3 0.1-0.2 0.4-0.3 0.8-0.3 0.4 0 0.9 0 1.6 0H194.1zM197.1 5.4c-0.2 0-0.4 0.1-0.5 0.3 -0.2 0.2-0.3 0.3-0.5 0.5 -0.7 0.6-1.1 1.7-1.3 3.3 -0.2 1.6-0.3 3.7-0.3 6.4 0 1.3 0.1 2.6 0.1 3.6s0 2.1-0.1 3.1c-0.1 1-0.2 1.9-0.4 2.9 -0.2 1-0.5 2-0.8 3.1 -0.2 0.8-0.4 1.7-0.7 2.7s-0.5 1.9-0.7 2.6c-0.4 1.1-0.7 2.3-1 3.7 -0.3 1.4-0.6 2.7-0.8 4 0 1.2 0 1.8 0.1 1.9 0 0.1 0.2-0.2 0.6-0.8 0.2-0.4 0.5-0.9 0.8-1.5 0.3-0.6 0.6-1.2 1-1.7 0.2-0.5 0.4-0.9 0.5-1.4 0.2-0.4 0.3-0.8 0.5-1 0.1-0.1 0.4-0.5 0.6-1.1 0.3-0.6 0.6-1.3 1-2.2 0.4-0.8 0.8-1.7 1.2-2.7 0.4-1 0.8-1.8 1.2-2.7 0.5-1.4 0.9-2.9 1.3-4.6 0.4-1.7 0.7-3.3 0.9-4.9 0.2-1.6 0.4-3 0.5-4.3s0-2.3-0.1-3c-0.4-1.3-0.8-2.6-1.2-3.7 -0.4-1.2-0.8-1.9-1.2-2.2 -0.1-0.2-0.2-0.3-0.4-0.4C197.4 5.4 197.3 5.4 197.1 5.4zM206.9 72.2c-0.8 0-1.8 0.3-2.8 0.8 -1.1 0.6-2.2 1.3-3.3 2.3 -1.2 1-2.3 2.2-3.5 3.6 -1.2 1.4-2.3 3-3.4 4.7 -0.9 1.4-1.5 2.6-2 3.4 -0.5 0.8-0.8 1.5-1 1.9s-0.3 0.9-0.4 1.1c0 0.3 0 0.6 0 0.9 0.1 0.3 0.2 1.1 0.3 2.2 0 1.1 0 2.3 0 3.7 0 1.2 0 2.3 0 3.1 0 0.8 0.2 1.3 0.4 1.3 0.1 0 0.4-0.2 0.8-0.5 0.4-0.3 0.9-0.7 1.5-1.1 0.6-0.4 1.1-0.8 1.7-1.2 0.6-0.4 1-0.7 1.3-0.9 0.4-0.1 0.9-0.4 1.4-0.9 0.5-0.4 1.1-1 1.6-1.6 0.6-0.6 1.1-1.3 1.6-2 0.5-0.7 1-1.4 1.4-2.1 0.2-0.2 0.5-0.5 0.7-0.7s0.4-0.5 0.6-0.7c0.1-0.1 0.3-0.4 0.5-0.8l0.2-0.4c0.1-0.1 0.2-0.3 0.2-0.5 0-0.2 0.1-0.3 0.2-0.5 0.2-0.4 0.5-1 0.9-1.8 0.3-0.8 0.7-1.6 1-2.6 0.4-0.9 0.7-1.8 1-2.7 0.3-0.9 0.6-1.7 0.8-2.4 0.1-1.4 0.2-2.6 0.2-3.7 0-1.1-0.1-1.8-0.2-1.9H206.9z"/>
</svg>
