<svg version="1.1" xmlns="http://www.w3.org/2000/svg" viewBox="0 0 1000 1000" enable-background="new 0 0 1000 1000" xml:space="preserve">
<metadata> Svg Vector Icons : http://www.onlinewebfonts.com/icon </metadata>
<g><path d="M128.1,649.3l329.8,219.8V672.8L275.2,550.9L128.1,649.3z M94.2,570.6L199.8,500L94.2,429.5V570.6L94.2,570.6z M542.1,869.2l329.8-219.8l-147.1-98.4L542.1,672.8V869.2z M500,599.6L648.8,500L500,400.5L351.3,500L500,599.6z M275.2,449.2l182.7-121.9V130.9L128.1,350.7L275.2,449.2z M800.2,500l105.6,70.6V429.5L800.2,500z M724.8,449.2l147.1-98.4L542.1,130.9v196.3L724.8,449.2z M990,350.7v298.6c0,15-6.2,26.6-18.6,35L523.5,982.9c-7.7,4.7-15.5,7.1-23.5,7.1s-15.9-2.4-23.5-7.1L28.6,684.3c-12.4-8.4-18.6-20-18.6-35V350.7c0-15,6.2-26.6,18.6-35L476.5,17.1C484.1,12.4,492,10,500,10s15.9,2.4,23.5,7.1l447.9,298.6C983.8,324.1,990,335.8,990,350.7z"/></g>
</svg>