<svg version="1.1" id="Layer_1" xmlns="http://www.w3.org/2000/svg" viewBox="0 0 382.4 113.3" style="enable-background:new 0 0 382.4 113.3;" xml:space="preserve">
<style type="text/css">
	.st0{fill:darkgoldenrod;}
</style>
<g id="XMLID_3_">
	<path id="XMLID_7_" class="st0" d="M26,28.1c0.4,0,1.1,0.1,2.2,0.3c1.1,0.2,2.5,0.4,4.5,0.7c0.7,0.1,1.4,0.2,2,0.2
		c0.6,0,1.2,0.1,1.7,0.2l1.6,0.2V30c0,0.2,0.2,0.5,0.5,0.8c0.3,0.3,0.6,0.5,0.8,0.6c0.2,0.1,0.5,0.3,0.9,0.7
		c0.4,0.4,0.7,0.8,1.1,1.3c0.4,0.5,0.7,1,1,1.6c0.3,0.6,0.6,1.1,0.9,1.7c0,0.3,0.1,0.8,0.2,1.6c0.1,0.8,0.1,1.6,0.2,2.5
		c0.1,0.9,0.1,1.8,0.2,2.6c0,0.8,0.1,1.5,0.1,1.8c-0.2,1-0.4,1.6-0.6,2c-0.2,0.4-0.5,0.3-0.9,0c-0.5,0-0.8-0.2-0.8-0.6
		c-0.1-0.4-0.1-1.2-0.1-2.3c0-1,0-1.8,0-2.7c0-0.8-0.1-1.6-0.3-2.4c-0.4-1.7-1.2-2.6-2.4-2.7c-1.2-0.1-2.4,0.4-3.8,1.5
		c-1.4,1.2-2.7,2.9-4,5.1c-1.3,2.3-2.2,5-2.8,8.1c-0.2,0.4-0.5,0.9-0.8,1.3c-0.3,0.5-0.4,0.9-0.4,1.2c0,0.7-0.3,1.2-0.8,1.6
		c-0.1,0.1-0.3,0.6-0.6,1.3c-0.3,0.7-0.7,1.6-1.1,2.6c-0.4,1-0.9,2.1-1.4,3.3c-0.5,1.2-1,2.3-1.4,3.4c-0.4,1.1-0.7,2-1,2.8
		c-0.3,0.8-0.4,1.4-0.4,1.7c0,0.5-0.1,1.1-0.4,1.8c-0.3,0.7-0.5,1.3-0.7,1.8c-0.2,0.6-0.4,1.2-0.6,1.9c-0.2,0.7-0.3,1.3-0.4,1.9
		c-0.1,0.6-0.1,1.1-0.1,1.5c0,0.4,0,0.6,0.1,0.6c0.2,0,0.5,0.1,0.7,0.3c0.2,0.2,0.3,0.5,0.3,0.8c0.2,0.5,0.2,1,0,1.5
		c-0.2,0.5-0.5,0.8-1,0.8c-0.2-0.2-0.4,0-0.5,0.4c-0.1,0.5-0.1,0.9,0.2,1.2c0,0.1,0.1,0.2,0.2,0.2c0.1,0,0.2-0.2,0.2-0.5
		c0.7-0.9,1.1-1.2,1.3-1c0.2,0.2,0.5,0.7,0.9,1.7c0,0.3,0.1,0.6,0.3,0.7c0.2,0.1,0.3,0.2,0.5,0.2c0.4,0,0.8,0.2,1.2,0.5
		c0.3,0.3,0.5,0.6,0.5,1h-0.8c-0.2,0-0.4,0.1-0.6,0.2c-0.1,0.1-0.1,0.4,0.1,0.7c0,0.3,0,0.5,0,0.5c0,0-0.1,0-0.3-0.2
		c-0.2-0.3-0.4-0.5-0.5-0.5c-0.2,0-0.3,0.3-0.3,0.8v0.9l-0.4-1.2c-0.4-0.7-0.8-1-1.2-1c-0.4,0-0.7,0.3-0.9,1c0,0.4-0.1,0.6-0.3,0.8
		c-0.2,0.1-0.3,0.2-0.5,0.2l-0.2,0.4c-0.1,0.2-0.2,0.5-0.2,0.8c-0.2,0.4-0.4,0.7-0.5,1c-0.1,0.3-0.2,0.5-0.4,0.7
		c-0.1,0.3,0,0.6,0.3,1c0.3,0.4,0.6,0.7,1.1,1c0.5,0.3,1,0.5,1.6,0.7c0.6,0.2,1.2,0.3,1.7,0.3c0.8-0.2,1.5-0.5,2-0.9
		c0.5-0.4,0.5-0.6,0-0.8c-0.1,0-0.2-0.1-0.4-0.1c-0.3,0-0.4,0-0.4,0.1c-0.4,0-0.5,0-0.4,0c0.1,0,0.2,0,0.4-0.1
		c0.5-0.3,0.9-0.3,1.3,0c0.2,0.2,0.7,0.3,1.3,0.3c0.6-0.1,1.1-0.2,1.3-0.3c0-0.5,0.3-0.7,0.9-0.7c0.4,0,0.6,0,0.6-0.1
		c0-0.1-0.2-0.5-0.6-1.2c0-0.4,0-0.6,0-0.6c0,0,0.2,0,0.4,0.2c0,0.2,0.2,0.4,0.6,0.6c0.4,0.1,0.7,0.3,0.9,0.4
		c0.6,0.4,1.1,0.6,1.5,0.6c0.4,0,0.9-0.1,1.5-0.3c0.3-0.1,0.7-0.3,1.2-0.7c0.5-0.3,1.1-0.7,1.7-1.2c0.6-0.5,1.2-1,1.8-1.5
		c0.6-0.5,1.1-1,1.5-1.5c0.5-0.5,1.3-1.4,2.2-2.7c1-1.3,2-2.8,3-4.5c1.1-1.7,2.1-3.3,3-5c1-1.7,1.7-3.1,2.2-4.2
		c0.2-0.4,0.4-0.8,0.6-1.2c0.2-0.4,0.3-0.8,0.5-1l0.5-0.9c0.6-0.6,0.9-1.2,0.9-1.9c0.2-0.3,0.5-0.7,0.6-1.1c0.2-0.4,0.4-0.6,0.6-0.6
		c0.1-0.1,0.2-0.3,0.3-0.6c0.1-0.3,0.3-0.6,0.6-0.9c0.1-0.4,0.2-0.9,0.4-1.4c0.2-0.5,0.4-0.9,0.6-1.4c0.2-0.4,0.5-0.8,0.7-1.2
		c0.2-0.3,0.5-0.6,0.6-0.6c0.8,0,0.8,0.4,0,1.2c-0.2,0.2-0.4,0.4-0.6,0.5c-0.1,0.1-0.2,0.3-0.2,0.4c0,0.3-0.1,0.7-0.3,1.2
		c-0.2,0.5-0.4,1-0.6,1.5c-0.2,0.5-0.5,1-0.8,1.4c-0.3,0.4-0.6,0.7-0.8,0.8c0,0.1-0.1,0.3-0.2,0.6c-0.1,0.3-0.2,0.6-0.2,1l-0.6,0.7
		c0,0.1-0.1,0.2-0.1,0.2c0,0-0.1,0.1-0.1,0.1c-0.2,0-0.4,0.5-0.4,1.5c0,0.4-0.1,0.7-0.3,1.1l-0.2,0.6c-0.2,0.1-0.4,0.4-0.5,0.6
		s-0.2,0.6-0.2,0.9c0,0.4-0.1,0.7-0.3,0.9c-0.2,0.2-0.4,0.4-0.6,0.5c-0.2,0.1-0.5,0.3-0.8,0.8c-0.3,0.4-0.6,0.9-0.8,1.3
		c-0.3,0.5-0.5,0.9-0.7,1.4c-0.2,0.4-0.3,0.7-0.3,0.8c0,0.1-0.3,0.5-0.8,1.3c-0.5,0.7-1.1,1.6-1.7,2.6c-0.4,1.1-0.9,2.2-1.6,3.3
		c-0.7,1.1-1.3,2-1.8,2.7c-0.5,0.8-1.2,1.7-1.9,2.7c-0.7,1-1.5,1.9-2.4,2.8c-0.8,0.9-1.7,1.7-2.5,2.5c-0.8,0.7-1.6,1.3-2.3,1.7
		c-0.7,0.5-1.3,0.9-1.9,1.2c-0.6,0.3-1.3,0.6-1.9,0.8c-0.7,0.2-1.4,0.3-2.3,0.3c-0.9,0-1.9,0-3-0.1c-2.3,0-4.2-0.3-5.8-0.8
		c-1.6-0.5-3.1-1.4-4.6-2.7c-1-0.7-1.8-1.5-2.6-2.4c-0.7-0.9-1.5-1.9-2.2-3.1c-0.7-1.2-1.4-2.6-2.1-4.2c-0.7-1.6-1.5-3.5-2.3-5.8
		c-0.2-0.7-0.3-1.2-0.5-1.7c-0.1-0.4-0.2-0.9-0.3-1.3c-0.1-0.5-0.1-1-0.2-1.6c-0.1-0.6-0.2-1.5-0.3-2.5c-0.2-2.8-0.1-5.8,0.3-8.9
		c0.4-3.1,1.1-6.2,2.1-9.2c1-3,2.2-6,3.6-8.8c1.4-2.8,3.1-5.4,4.9-7.6c0.8-1.1,1.9-2.3,3.3-3.6c1.4-1.4,2.7-2.7,4.1-3.9
		c1.3-1.2,2.5-2.2,3.6-2.9c1.1-0.7,1.7-1,1.9-0.8c0.1,0,0.3,0,0.4-0.1c0.2,0,0.4-0.2,0.6-0.4h0.9H26z M6,66.9
		c-0.2,0.1-0.4,0.5-0.5,0.9C5.4,68.3,5.3,69,5,69.7c-0.4,2.7-0.8,3.4-1.2,1.9V73V74c0-0.4,0.3-0.6,0.9-0.6c0.8,0,1.3-0.2,1.4-0.7
		c0.1-0.5,0.2-1.5,0.2-3C6.2,67.9,6.2,66.9,6,66.9z M13.9,83.3c-0.2,0-0.4,0-0.6,0c-0.2,0-0.3,0.1-0.3,0.3c0,0.4,0.3,0.7,0.8,0.9
		c0.5,0.2,0.9,0.2,1.1,0c0.1-0.1,0.1-0.3,0-0.7C14.7,83.5,14.4,83.3,13.9,83.3z M15.5,80.7c-0.2,0-0.4,0.1-0.5,0.3
		c-0.1,0.2-0.3,0.4-0.3,0.6c-0.1,0.2-0.1,0.4-0.1,0.6c0,0.2,0.1,0.3,0.2,0.4c0.2,0.2,0.3,0.3,0.4,0.3c0.1,0.1,0.2,0.1,0.3,0
		c0.4-0.1,0.6-0.5,0.5-1C15.9,81.3,15.7,80.9,15.5,80.7z"/>
</g>
<g id="XMLID_4_">
	<path id="XMLID_28_" class="st0" d="M75.4,28.3c1.2,0,2,0.1,2.5,0.3c0.5,0.2,1.1,0.4,1.7,0.8c0.5,0.2,1,0.4,1.4,0.6l0.5,0.4
		c0.4,0,0.8,0.2,1.2,0.5c0.4,0.4,0.6,0.8,0.6,1.3c0,0.4-0.4,1-1.1,1.6C82,34,81.5,34.4,81,35.1s-0.9,1.3-1.3,2
		c-0.3,0.5-0.5,1-0.7,1.3c-0.2,0.4-0.3,0.7-0.4,1.2c-0.1,0.4-0.2,0.9-0.3,1.4c-0.1,0.5-0.2,1.2-0.3,2c0,0.8,0,1.5,0,2
		c0,0.5,0,1,0.1,1.4c0,0.4,0.1,0.8,0.3,1.1c0.1,0.3,0.3,0.6,0.5,1c0.2,0.5,0.5,1.1,1,1.7c0.5,0.6,0.9,1.1,1.2,1.5
		c0.4,0.5,0.7,0.9,0.7,1.2c0,0.3,0,0.4-0.3,0.3c-0.2,0-0.4,0-0.4,0.1c0,0,0.1,0.2,0.4,0.4c0.1,0.2,0.5,0.6,1.1,1.1
		c0.6,0.5,1.4,1.1,2.1,1.6c0.8,0.6,1.5,1,2.1,1.4c0.6,0.4,1,0.6,1.1,0.5l0.2-0.9c0-0.2,0.1-0.5,0.1-0.8c0-0.3,0.1-0.6,0.1-0.8
		c0-0.2,0.1-1,0.2-2.3c0.1-1.4,0.1-2.9-0.1-4.5c0.3-1,0.3-2.2,0-3.7c-0.3-1.5-0.8-3.1-1.4-4.6c-0.8-1.8-1.5-3.4-2.2-4.8
		c-0.7-1.3-1.2-2-1.4-1.9l0.2-0.3c0-0.1,0.1-0.2,0.1-0.3c0-0.1,0.1-0.3,0.1-0.4c0-0.7,0.1-1,0.3-1.1c0.2-0.1,0.6,0.3,1.1,1.1
		c0.1,0.1,0.2,0.3,0.2,0.5c0,0.2,0.1,0.3,0.1,0.4c0,0.1,0.1,0.3,0.1,0.4c0.7,0.2,1.4,0.7,1.9,1.3c0.6,0.6,1.1,1.3,1.6,2.1
		c0.5,0.8,0.9,1.7,1.3,2.7c0.4,1,0.7,1.9,1,2.8c0.2,0.6,0.4,1.1,0.5,1.6c0.1,0.5,0.3,1,0.5,1.5c0.5,1.2,0.9,2,1.3,2.4
		c0.2,0.4,0.4,1.1,0.4,2.1c0,1,0,2.1,0,3.5l-1.2,9.6c0.3-0.1,0.8-0.1,1.3-0.1c0.5,0,1,0,1.4-0.1c0.2-0.1,0.5-0.2,0.7-0.3
		c0.2-0.1,0.5-0.2,0.7-0.3c0.5-0.2,1-0.3,1.4-0.4c0.5-0.1,1-0.2,1.4-0.4c0.3-0.1,0.6-0.2,0.9-0.4c0.3-0.1,0.6-0.3,0.9-0.4l1.8-0.8
		c0.9-0.4,1.5-0.9,2-1.4c0.5-0.6,0.8-0.9,1.1-1.2h0.6c1.3,0,1.6,0.2,0.9,0.7c-0.2,0.1-0.4,0.2-0.4,0.4c0,0.2,0,0.3,0,0.4
		c0,0.1-0.1,0.3-0.3,0.5c-0.2,0.2-0.3,0.3-0.4,0.3c-0.2,0-0.4,0.1-0.5,0.2c-0.1,0.1-0.2,0.3-0.5,0.5c0,0.1,0,0.2,0,0.4
		c0,0.1-0.1,0.2-0.3,0.2c-0.2,0-0.4,0.1-0.6,0.4c-0.2,0.3-0.5,0.5-0.9,0.6c-0.4,0.2-0.7,0.3-0.8,0.3c-0.1,0.1-0.2,0.1-0.2,0
		c-0.2,0-0.6,0.1-1.2,0.4c-0.5,0.3-1.1,0.5-1.7,0.7c-0.7,0.3-1.4,0.6-2.1,0.8c-0.7,0.2-1.3,0.3-1.9,0.5c-0.2,0.4-0.6,0.6-1.2,0.6
		c-0.2,0-0.5,0-0.9-0.1c-0.4,0-0.8,0-1,0.3c-0.2,0.1-0.4,0.3-0.6,0.4c-0.2,0.1-0.4,0.2-0.6,0.2c-0.2,0-0.4,0.2-0.7,0.6
		c-0.3,0.4-0.6,0.8-0.8,1.3c-0.2,0.5-0.4,1-0.6,1.5c-0.1,0.5-0.2,0.9-0.1,1.2l-0.4,0.2c-0.2,0-0.3,0.1-0.4,0.4
		c0,0.2-0.2,0.5-0.4,0.7c0,0.3-0.1,0.8-0.3,1.5c-0.2,0.6-0.4,1.2-0.6,1.7c-0.1,0.5-0.3,1-0.5,1.7c-0.2,0.6-0.3,1.3-0.5,1.9
		c-0.2,0.6-0.3,1.3-0.4,1.8c-0.1,0.6-0.1,1-0.1,1.3c0.2,0.2,0.2,0.6,0.1,1c-0.1,0.4-0.3,0.9-0.5,1.4c-0.2,1-0.3,1.7-0.4,2.2
		c-0.1,0.4,0,0.6,0.4,0.5l0.1,0.2c0,0.1,0.1,0.2,0.1,0.4c0,0.2,0.1,0.4,0.1,0.6c0,0.7-0.1,1.1-0.3,1.2c-0.2,0.1-0.6,0.1-1.3,0.1
		c-0.3,0-0.6,0.6-1,1.7c-0.4,0.3-0.8,0.7-1,1.1c-0.2,0.4-0.4,0.7-0.6,0.8c0,0.2-0.1,0.4-0.4,0.7c-0.3,0.3-0.4,0.6-0.4,0.9
		c-0.2,0.3-0.5,0.6-0.8,0.9c-0.3,0.3-0.5,0.7-0.7,1c-0.1,0.3-0.4,0.8-1,1.5c-0.6,0.7-1.3,1.5-2.2,2.3c-0.9,0.8-2,1.6-3.1,2.3
		c-1.2,0.7-2.4,1.3-3.7,1.7c-1.3,0.4-2.6,0.6-3.9,0.5c-1.3-0.1-2.5-0.6-3.6-1.6c-1.2-0.5-2.2-0.9-3-1.3c-0.7-0.4-1.4-0.9-1.9-1.3
		c-0.6-0.5-1.1-1-1.5-1.5c-0.5-0.6-1.1-1.2-1.7-1.9c-0.8-0.9-1.5-1.8-2.2-2.7c-0.7-0.9-1.3-1.6-1.8-2.3c-0.5-0.7-0.9-1.2-1.3-1.7
		c-0.3-0.5-0.5-0.7-0.5-0.8c-0.1-0.1-0.2-0.2-0.3-0.4c-0.1-0.1-0.2-0.3-0.3-0.4c-0.3-0.4-0.5-0.9-0.6-1.4c-1-1.7-1.7-3.6-2.3-5.8
		c-0.6-2.2-1-4.4-1.2-6.7v-4.2l0.1-1.4c0-0.4,0.1-0.9,0.1-1.5c0-0.6,0.1-1.2,0.1-1.9c0.1-2.4,0.2-4.2,0.2-5.5c0-1.3,0.1-2.4,0.3-3.3
		c0.1-0.9,0.4-1.7,0.6-2.4c0.3-0.7,0.7-1.7,1.2-2.8c0.4-1.2,0.8-2.3,1.3-3.4c0.5-1.1,0.8-1.9,0.9-2.4c0.2-0.3,0.4-0.8,0.7-1.3
		c0.3-0.5,0.4-0.9,0.4-1c0.2-0.3,0.8-0.7,1.8-1s1.9-0.5,2.8-0.4c0.4,0.2,1.1,0.4,1.9,0.4c0.8,0,1.6,0.1,2.4,0.3
		c1,0.1,1.9,0.3,2.8,0.5c0.9,0.2,1.6,0.5,2.1,0.8c0.2,0.1,0.4,0.2,0.6,0.3c0.2,0.1,0.5,0.1,0.6,0.2c0.3,0.1,0.5,0.1,0.6,0.1
		c0.2,0,0.4-0.3,0.4-1c0-0.7,0-1.6,0-2.7c0.1-2.2,0.2-3.8,0.3-5c0.1-1.2,0.3-2.1,0.5-2.8c0.2-0.7,0.5-1.3,0.9-1.8
		c0.4-0.5,1-1.1,1.7-1.8c0.2-0.4,0.4-0.7,0.6-0.8s0.2-0.3,0.2-0.5c0-1.1,0.4-1.3,1.2-0.6c0.9,0.7,1.1,0.7,0.7,0l0.3-0.1
		c0.1,0,0.3-0.1,0.5-0.1c0.2,0,0.5-0.1,0.8-0.1H75.4z M75.2,54.7c-0.1,0-0.2,0-0.3,0.1c-0.1,0-0.3,0.1-0.4,0.1
		c-0.1,0-0.2,0.1-0.3,0.1l-3.4,0.3l-0.2,0.6c-0.1,0.2-0.2,0.4-0.3,0.7c-0.1,0.3-0.2,0.5-0.3,0.8c-0.2,0.5-0.5,1.1-0.8,1.8
		c-0.3,0.7-0.6,1.4-0.8,2.1c-0.4,0.4-0.7,0.9-0.9,1.4c-0.2,0.5-0.3,0.9-0.3,1.1l-0.4,1l-0.7,2.3c-0.6,1.5-1,3-1.4,4.4
		c-0.3,1.4-0.6,2.7-0.7,4c-0.1,1.3-0.2,2.7-0.1,4c0.1,1.3,0.3,2.8,0.6,4.2c0.2,0.6,0.5,1.3,0.8,1.9c0.3,0.7,0.4,1.2,0.4,1.6
		c0.3,0.6,0.8,1.3,1.6,2.3c0.8,1,1.6,1.9,2.6,2.8c0.9,0.9,1.8,1.8,2.6,2.4c0.8,0.7,1.3,1,1.6,1c0.4,0,1-0.4,1.7-1.2
		c0.7-0.8,1.4-1.7,2.1-2.8c0.7-1.1,1.3-2.3,1.9-3.6c0.6-1.3,1-2.4,1.3-3.3c0.2-1,0.5-1.8,0.8-2.6c0.3-0.7,0.4-1.2,0.4-1.4
		c0.2-0.3,0.4-0.9,0.7-1.5c0.3-0.7,0.5-1.5,0.8-2.3s0.6-1.8,0.9-2.7c0.3-0.9,0.5-1.8,0.7-2.5c0.2-0.8,0.4-1.7,0.5-2.7
		c0.2-1,0.3-1.8,0.5-2.5c0.4-1.3,0.7-2.2,0.7-2.8c0-0.6-0.1-0.8-0.3-0.8c-0.2,0-0.6-0.2-1.2-0.5c-0.6-0.3-1.2-0.7-1.8-1.2
		c-0.6-0.4-1.2-0.8-1.7-1.2c-0.5-0.4-0.7-0.6-0.7-0.7c0-0.2-0.1-0.3-0.3-0.3c-0.2,0-0.3,0-0.5,0c-0.2,0.2-0.3,0.2-0.3,0.1
		c0-0.1,0-0.2,0-0.3c0.2-0.2,0.3-0.4,0.3-0.4c0,0-0.1,0-0.3,0c-0.2,0.2-0.6,0.2-1.2-0.1c-0.6-0.2-0.9-0.6-0.9-0.9
		c0-0.1-0.1-0.2-0.2-0.2H78c-0.2,0-0.3,0-0.3,0.1c0,0,0,0.1,0,0.1c0,0.5-0.1,0.7-0.4,0.5c-0.2-0.2-0.4-0.4-0.4-0.7
		c0-0.3,0-0.6,0-0.8c0-0.2-0.2-0.1-0.4,0.1c-0.4,0-0.6-0.1-0.7-0.3c-0.1-0.2-0.2-0.4-0.5-0.7C75.4,55,75.3,54.7,75.2,54.7z
		 M106.8,58c-0.2,0-0.2-0.1-0.1-0.1c0.1,0,0.2,0,0.3,0L106.8,58z M106.9,57.9L106.9,57.9L106.9,57.9z"/>
</g>
<g id="XMLID_5_">
	<path id="XMLID_33_" class="st0" d="M100.2,38.1c1,0,1.6-0.1,1.9-0.2c0.3-0.1,0.5-0.4,0.7-0.8c0.3-0.4,0.6-0.6,0.8-0.6
		c0.2,0,0.6,0.1,1.3,0.3c0.9,0.4,1.4,0.6,1.6,0.6s0.2-0.2,0.2-0.6c0-0.2,0-0.3,0.1-0.3c0.1,0,0.4,0,0.9,0c2.3,0.4,3.9,1.7,5,3.8
		c0.4,0.5,0.7,1.1,1.1,1.6c0.3,0.5,0.7,0.9,1,1.2c0.6,0.2,1.1,0.8,1.4,1.9c0,0.4,0.1,0.8,0.2,1.2c0.1,0.4,0.3,0.6,0.5,0.6
		c0.1,0.1,0.3,0.6,0.5,1.2c0.2,0.7,0.5,1.4,0.7,2.3c0.2,0.8,0.5,1.7,0.6,2.6c0.2,0.9,0.3,1.5,0.3,2c0.2,0.7,0.3,1.2,0.4,1.4
		c0,0.2,0.2,0.1,0.4-0.3c0.1-0.2,0.3-0.4,0.4-0.5c0.1-0.2,0.2-0.3,0.2-0.5c0-0.2,0.2-0.8,0.7-1.8c0.5-1,1.1-2.1,1.7-3.3
		c0.7-1.2,1.4-2.5,2.1-3.7c0.7-1.2,1.3-2.2,1.9-3c1.7-2.4,3.3-4.4,4.8-6c1.5-1.6,3-2.9,4.4-3.9c1.5-1,3-1.7,4.6-2.1
		c1.6-0.4,3.3-0.6,5.2-0.6c2,0,3.8,0.7,5.5,2.1c1.6,1.4,3.2,3.5,4.8,6.4c1,1.5,1.6,3,2,4.6c0.4,1.6,0.7,3.3,0.9,5.1
		c0,0.9,0,1.5,0.1,2c0.1,0.5,0.4,0.8,0.9,1.1c0.6,0.7,1.1,1.4,1.4,2.1c0.3,0.7,0.5,1.6,0.5,2.6c0,1.1-0.1,2.4-0.4,4
		s-0.7,3.7-1.2,6.2c-0.3,1.5-0.6,2.9-0.9,4.1c-0.2,1.2-0.4,2.5-0.6,3.9s-0.3,2.9-0.4,4.7c-0.1,1.8-0.2,4-0.3,6.6
		c0,0.8-0.1,1.7-0.2,2.6c-0.1,0.9-0.3,1.5-0.5,1.8c-0.4,1.1-0.5,2.5-0.4,4.2c0.1,1.8,0.5,3.4,1,4.9c0.2,0.5,0.4,1.1,0.5,1.7
		c0.1,0.6,0.2,1,0.2,1.2c0,0.1,0,0.2,0,0.4c0,0.2,0.1,0.3,0.3,0.5c0.2,0.1,0.3,0.1,0.5,0.1c0.1,0,0.3-0.1,0.5-0.3
		c0.2-0.2,0.4-0.6,0.7-1.1s0.7-1.2,1.2-2.2l3.2-5.6c0.6-1,1.2-2.2,2-3.8c0.7-1.6,1.5-3.3,2.2-5.1c0.7-1.8,1.4-3.7,2-5.6
		c0.6-1.9,1.1-3.6,1.5-5.2c0.6-1.2,1.2-2.5,1.7-3.8s0.8-2.4,0.9-3.3c0.2-0.8,0.5-1.5,0.9-2.3c0.4-0.8,0.7-1.5,1.1-2.1
		c0.4-0.6,0.7-1.1,0.9-1.5c0.3-0.4,0.4-0.6,0.5-0.6c0.1,0.1,0.1,0.4,0,1c-0.1,0.6-0.3,1.3-0.5,2.1s-0.4,1.6-0.6,2.5
		c-0.2,0.9-0.4,1.6-0.5,2.3c-0.2,0.6-0.5,1.4-0.7,2.3c-0.2,0.9-0.5,1.7-0.6,2.3c-0.6,0.5-1.2,1.4-1.8,2.9c-0.6,1.4-1.2,3-1.7,4.5
		c-0.5,1.6-0.9,3-1.3,4.2c-0.3,1.2-0.4,1.9-0.3,1.9c0,0,0.1,0.2,0.1,0.4c0,0.2,0.1,0.5,0,0.7c0,0.3-0.1,0.5-0.2,0.8
		c-0.1,0.3-0.3,0.5-0.6,0.6c-0.9,1-1.5,2-1.8,3.1c-0.3,1-0.8,2.3-1.3,3.9c-0.3,1.4-0.9,2.8-1.7,4.3c-0.8,1.5-1.7,2.8-2.6,3.8
		c-2,2.2-3.3,3.6-3.7,4.3c-0.5,0.7-0.4,0.9,0.1,0.5c0.8-0.3,1.1-0.3,0.9,0c-0.2,0.3-0.8,1-1.9,2.1l-1.7,1.9l-1.7-0.4
		c-0.6,0-1.2-0.1-1.8-0.2c-0.6-0.1-1-0.3-1.2-0.5c-0.3,0-0.7-0.1-1-0.3c-0.3-0.2-0.7-0.3-1.1-0.3c-0.3-0.2-0.7-0.4-1.2-0.8
		c-0.4-0.3-0.7-0.6-0.9-1c-0.3-0.3-0.6-0.7-1-1.2c-0.4-0.5-0.8-1-1.2-1.4c-0.4-0.5-0.7-0.9-1-1.3c-0.3-0.4-0.4-0.7-0.4-0.8l-0.2-0.6
		c-0.1-0.2-0.2-0.4-0.4-0.7c-0.1-0.3-0.3-0.5-0.5-0.8c-0.7-0.9-0.8-1.6-0.4-2c0.1-0.2,0.1-0.5,0.1-1c0-0.5-0.1-1-0.2-1.4
		c-0.1-0.5-0.2-0.9-0.3-1.2c-0.1-0.3-0.2-0.5-0.3-0.4c-0.2,0-0.4,0-0.5-0.1c-0.2,0-0.3-0.2-0.5-0.6c-0.3-0.3-0.3-0.6,0-0.9l0.1-0.9
		c0-0.2,0.1-0.5,0.1-0.8c0-0.3,0.1-0.6,0.1-1c0-1.1,0-1.8-0.1-2.1c0-0.3-0.3-0.4-0.6-0.4c-0.4,0.2-0.6,0.1-0.6-0.3
		c0-0.4,0.2-1,0.6-1.7c0.3-0.2,0.5-0.5,0.6-0.6c0.1-0.2,0.3-0.4,0.3-0.8c0.1-0.3,0.1-0.7,0.1-1.2s0-1.1,0-1.9
		c-0.2-1.5-0.2-3.5-0.1-5.9c0.1-2.4,0.4-4.8,0.7-7.2c0-0.8,0.1-2,0.2-3.5c0.1-1.5,0.2-2.9,0.2-4.2c0.1-3.2,0.3-5.6,0.4-7.1l0.2-2
		v-1.1c0-0.3,0.1-0.8,0.3-1.4c0.2-0.6,0.4-1.3,0.5-1.9c0.1-0.7,0.1-1.5,0.1-2.4c0-0.9,0-1.8-0.1-2.7c-0.1-0.9-0.2-1.7-0.4-2.4
		c-0.2-0.8-0.4-1.4-0.7-1.9c-0.7-1.5-1.5-2.4-2.4-2.5c-0.9-0.1-2.3,0.6-4.1,2.1l-1.9,1.4l-0.9,0.6c-0.3,0-0.8,0.3-1.3,1
		c-0.6,0.7-0.9,1.3-1,2c-0.2,0.3-0.4,0.6-0.7,1c-0.3,0.4-0.5,0.8-0.8,1.2c-0.3,0.4-0.5,0.8-0.8,1.2c-0.2,0.4-0.4,0.7-0.6,0.9
		c-0.3,0.2-0.6,0.5-0.8,0.8c-0.3,0.4-0.5,0.9-0.8,1.5c-0.3,0.7-0.6,1.5-1,2.6c-0.4,1.1-0.8,2.3-1.3,3.8c-0.4,0.9-0.8,2.4-1.4,4.4
		c-0.5,2-1.2,4.4-1.9,7.2c-0.1,0.8-0.3,1.9-0.6,3.2c-0.3,1.3-0.4,2.5-0.4,3.6c-0.1,1.7-0.2,2.8-0.2,3.3s0.1,0.9,0.2,1
		c0.1,0.1,0.2,0.2,0.2,0.3c0,0-0.1,0.2-0.2,0.4c-0.7,0.7-0.7,2.4,0,5.1c0.5,2.2,0.9,4,1,5.5c0.2,1.4,0.1,2.3-0.3,2.7
		c0,0.2-0.1,0.4-0.3,0.5c-0.2,0.1-0.3,0.2-0.5,0.2l-0.7,0.2l-1.5,0.4c-0.4,0.2-0.8,0.4-1.1,0.5c-0.3,0.1-0.6,0.2-0.9,0.3
		c-0.3,0-0.7,0.1-1.1,0c-0.4,0-1-0.1-1.7-0.2c-0.6,0-1.1,0-1.5,0c-0.4,0-0.8-0.1-1.2-0.1c-0.4-0.1-0.7-0.2-1.1-0.4
		c-0.4-0.2-0.8-0.4-1.3-0.8c-0.7-0.5-1.2-1-1.7-1.4c-0.4-0.4-0.8-1-1.2-1.7c-0.1-0.5-0.4-1.1-0.6-1.6c-0.3-0.6-0.5-1-0.6-1.4
		c-0.4-0.7-0.7-1.6-1-2.6c-0.3-1-0.4-2-0.4-2.9c0-0.1,0-0.3-0.1-0.5c0-0.2-0.1-0.3-0.1-0.5l-0.1-0.6c0-0.2-0.1-0.6-0.3-1.2
		c-0.2-0.6-0.3-1.3-0.3-2.2s0-1.5-0.1-2.2c-0.1-0.6-0.1-1-0.1-1.2c0-0.1,0-0.4-0.1-1c0-0.6-0.1-1.3-0.1-2.2c0-0.9-0.1-1.9-0.1-3.1
		c0-1.2-0.1-2.4-0.1-3.7c-0.1-1.9-0.2-3.5-0.2-4.7c0-1.2-0.1-2.1-0.2-2.8c-0.1-0.7-0.2-1.1-0.3-1.4c-0.1-0.3-0.2-0.4-0.4-0.5
		c-0.4-0.2-0.6-0.4-0.6-0.7s0.2-0.5,0.6-0.7c0.1,0,0.2-0.1,0.2-0.3c0-0.2-0.2-0.5-0.6-1c-0.7-1.3-0.7-1.9,0-1.7
		c0.2,0.2,0.4,0.1,0.5-0.3c0.1-0.4,0.2-1.3,0.2-2.7c0-1.7-0.1-2.8-0.2-3.3s-0.4-0.4-0.8,0.3c0,0.2-0.1,0.3-0.2,0.4
		c-0.1,0.1-0.2,0.1-0.2-0.1c0-0.1,0-0.2,0.1-0.2c0-0.2,0.1-0.4,0.3-0.5c0-0.1,0-0.3,0.1-0.4c0.1-0.1,0-0.2-0.1-0.2
		c0-0.2,0.1-0.4,0.3-0.4c0.3,0,0.5-0.1,0.6-0.4c0.1-0.3,0.1-0.6,0-1.1c-0.1-0.4-0.2-0.9-0.4-1.4c-0.2-0.5-0.5-0.9-0.8-1.2
		c-0.7-0.7-1-1.2-0.8-1.4C98.2,38.2,99,38.1,100.2,38.1z"/>
</g>
<g id="XMLID_6_">
	<path id="XMLID_35_" class="st0" d="M168.5,38.1c1,0,1.6-0.1,1.9-0.2c0.3-0.1,0.5-0.4,0.7-0.8c0.3-0.4,0.6-0.6,0.8-0.6
		c0.2,0,0.6,0.1,1.3,0.3c0.9,0.4,1.4,0.6,1.6,0.6c0.1,0,0.2-0.2,0.2-0.6c0-0.2,0-0.3,0.1-0.3c0.1,0,0.4,0,0.9,0
		c2.3,0.4,3.9,1.7,5,3.8c0.4,0.5,0.7,1.1,1.1,1.6c0.3,0.5,0.7,0.9,1,1.2c0.6,0.2,1.1,0.8,1.4,1.9c0,0.4,0.1,0.8,0.2,1.2
		c0.1,0.4,0.3,0.6,0.5,0.6c0.1,0.1,0.3,0.6,0.5,1.2c0.2,0.7,0.5,1.4,0.7,2.3c0.2,0.8,0.5,1.7,0.6,2.6c0.2,0.9,0.3,1.5,0.3,2
		c0.2,0.7,0.3,1.2,0.4,1.4c0,0.2,0.2,0.1,0.4-0.3c0.1-0.2,0.3-0.4,0.4-0.5c0.1-0.2,0.2-0.3,0.2-0.5c0-0.2,0.2-0.8,0.7-1.8
		c0.5-1,1.1-2.1,1.7-3.3c0.7-1.2,1.4-2.5,2.1-3.7c0.7-1.2,1.3-2.2,1.9-3c1.7-2.4,3.3-4.4,4.8-6c1.5-1.6,3-2.9,4.4-3.9
		c1.5-1,3-1.7,4.6-2.1c1.6-0.4,3.3-0.6,5.2-0.6c2,0,3.8,0.7,5.5,2.1c1.6,1.4,3.2,3.5,4.8,6.4c1,1.5,1.6,3,2,4.6
		c0.4,1.6,0.7,3.3,0.9,5.1c0,0.9,0,1.5,0.1,2c0.1,0.5,0.4,0.8,0.9,1.1c0.6,0.7,1.1,1.4,1.4,2.1c0.3,0.7,0.5,1.6,0.5,2.6
		c0,1.1-0.1,2.4-0.4,4s-0.7,3.7-1.2,6.2c-0.3,1.5-0.6,2.9-0.9,4.1c-0.2,1.2-0.4,2.5-0.6,3.9c-0.1,1.4-0.3,2.9-0.4,4.7
		c-0.1,1.8-0.2,4-0.3,6.6c0,0.8-0.1,1.7-0.2,2.6c-0.1,0.9-0.3,1.5-0.5,1.8c-0.4,1.1-0.5,2.5-0.4,4.2c0.1,1.8,0.5,3.4,1,4.9
		c0.2,0.5,0.4,1.1,0.5,1.7c0.1,0.6,0.2,1,0.2,1.2c0,0.1,0,0.2,0,0.4c0,0.2,0.1,0.3,0.3,0.5c0.2,0.1,0.3,0.1,0.5,0.1s0.3-0.1,0.5-0.3
		s0.4-0.6,0.7-1.1c0.3-0.5,0.7-1.2,1.2-2.2l3.2-5.6c0.6-1,1.2-2.2,2-3.8s1.5-3.3,2.2-5.1c0.7-1.8,1.4-3.7,2-5.6
		c0.6-1.9,1.1-3.6,1.5-5.2c0.6-1.2,1.2-2.5,1.7-3.8s0.8-2.4,0.9-3.3c0.2-0.8,0.5-1.5,0.9-2.3c0.4-0.8,0.7-1.5,1.1-2.1
		c0.4-0.6,0.7-1.1,0.9-1.5c0.3-0.4,0.4-0.6,0.5-0.6c0.1,0.1,0.1,0.4,0,1c-0.1,0.6-0.3,1.3-0.5,2.1c-0.2,0.8-0.4,1.6-0.6,2.5
		c-0.2,0.9-0.4,1.6-0.5,2.3c-0.2,0.6-0.5,1.4-0.7,2.3c-0.2,0.9-0.5,1.7-0.6,2.3c-0.6,0.5-1.2,1.4-1.8,2.9c-0.6,1.4-1.2,3-1.7,4.5
		c-0.5,1.6-0.9,3-1.3,4.2c-0.3,1.2-0.4,1.9-0.3,1.9c0,0,0.1,0.2,0.1,0.4c0,0.2,0.1,0.5,0,0.7c0,0.3-0.1,0.5-0.2,0.8
		c-0.1,0.3-0.3,0.5-0.6,0.6c-0.9,1-1.5,2-1.8,3.1c-0.3,1-0.8,2.3-1.3,3.9c-0.3,1.4-0.9,2.8-1.7,4.3c-0.8,1.5-1.7,2.8-2.6,3.8
		c-2,2.2-3.3,3.6-3.7,4.3c-0.5,0.7-0.4,0.9,0.1,0.5c0.8-0.3,1.1-0.3,0.9,0c-0.2,0.3-0.8,1-1.9,2.1l-1.7,1.9l-1.7-0.4
		c-0.6,0-1.2-0.1-1.8-0.2c-0.6-0.1-1-0.3-1.2-0.5c-0.3,0-0.7-0.1-1-0.3c-0.3-0.2-0.7-0.3-1.1-0.3c-0.3-0.2-0.7-0.4-1.2-0.8
		c-0.4-0.3-0.7-0.6-0.9-1c-0.3-0.3-0.6-0.7-1-1.2c-0.4-0.5-0.8-1-1.2-1.4c-0.4-0.5-0.7-0.9-1-1.3c-0.3-0.4-0.4-0.7-0.4-0.8l-0.2-0.6
		c-0.1-0.2-0.2-0.4-0.4-0.7c-0.1-0.3-0.3-0.5-0.5-0.8c-0.7-0.9-0.8-1.6-0.4-2c0.1-0.2,0.1-0.5,0.1-1c0-0.5-0.1-1-0.2-1.4
		c-0.1-0.5-0.2-0.9-0.3-1.2c-0.1-0.3-0.2-0.5-0.3-0.4c-0.2,0-0.4,0-0.5-0.1c-0.2,0-0.3-0.2-0.5-0.6c-0.3-0.3-0.3-0.6,0-0.9l0.1-0.9
		c0-0.2,0.1-0.5,0.1-0.8c0-0.3,0.1-0.6,0.1-1c0-1.1,0-1.8-0.1-2.1s-0.3-0.4-0.6-0.4c-0.4,0.2-0.6,0.1-0.6-0.3c0-0.4,0.2-1,0.6-1.7
		c0.3-0.2,0.5-0.5,0.6-0.6c0.1-0.2,0.3-0.4,0.3-0.8c0.1-0.3,0.1-0.7,0.1-1.2s0-1.1,0-1.9c-0.2-1.5-0.2-3.5-0.1-5.9
		c0.1-2.4,0.4-4.8,0.7-7.2c0-0.8,0.1-2,0.2-3.5c0.1-1.5,0.2-2.9,0.2-4.2c0.1-3.2,0.3-5.6,0.4-7.1l0.2-2v-1.1c0-0.3,0.1-0.8,0.3-1.4
		c0.2-0.6,0.4-1.3,0.5-1.9c0.1-0.7,0.1-1.5,0.1-2.4c0-0.9,0-1.8-0.1-2.7s-0.2-1.7-0.4-2.4c-0.2-0.8-0.4-1.4-0.7-1.9
		c-0.7-1.5-1.5-2.4-2.4-2.5c-0.9-0.1-2.3,0.6-4.1,2.1l-1.9,1.4l-0.9,0.6c-0.3,0-0.8,0.3-1.3,1c-0.6,0.7-0.9,1.3-1,2
		c-0.2,0.3-0.4,0.6-0.7,1c-0.3,0.4-0.5,0.8-0.8,1.2c-0.3,0.4-0.5,0.8-0.8,1.2c-0.2,0.4-0.4,0.7-0.6,0.9c-0.3,0.2-0.6,0.5-0.8,0.8
		s-0.5,0.9-0.8,1.5c-0.3,0.7-0.6,1.5-1,2.6c-0.4,1.1-0.8,2.3-1.3,3.8c-0.4,0.9-0.8,2.4-1.4,4.4c-0.5,2-1.2,4.4-1.9,7.2
		c-0.1,0.8-0.3,1.9-0.6,3.2c-0.3,1.3-0.4,2.5-0.4,3.6c-0.1,1.7-0.2,2.8-0.2,3.3s0.1,0.9,0.2,1c0.1,0.1,0.2,0.2,0.2,0.3
		c0,0-0.1,0.2-0.2,0.4c-0.7,0.7-0.7,2.4,0,5.1c0.5,2.2,0.9,4,1,5.5c0.2,1.4,0.1,2.3-0.3,2.7c0,0.2-0.1,0.4-0.3,0.5
		c-0.2,0.1-0.3,0.2-0.5,0.2l-0.7,0.2l-1.5,0.4c-0.4,0.2-0.8,0.4-1.1,0.5c-0.3,0.1-0.6,0.2-0.9,0.3c-0.3,0-0.7,0.1-1.1,0
		c-0.4,0-1-0.1-1.7-0.2c-0.6,0-1.1,0-1.5,0c-0.4,0-0.8-0.1-1.2-0.1c-0.4-0.1-0.7-0.2-1.1-0.4c-0.4-0.2-0.8-0.4-1.3-0.8
		c-0.7-0.5-1.2-1-1.7-1.4c-0.4-0.4-0.8-1-1.2-1.7c-0.1-0.5-0.4-1.1-0.6-1.6c-0.3-0.6-0.5-1-0.6-1.4c-0.4-0.7-0.7-1.6-1-2.6
		c-0.3-1-0.4-2-0.4-2.9c0-0.1,0-0.3-0.1-0.5c0-0.2-0.1-0.3-0.1-0.5l-0.1-0.6c0-0.2-0.1-0.6-0.3-1.2c-0.2-0.6-0.3-1.3-0.3-2.2
		s0-1.5-0.1-2.2c-0.1-0.6-0.1-1-0.1-1.2c0-0.1,0-0.4-0.1-1c0-0.6-0.1-1.3-0.1-2.2c0-0.9-0.1-1.9-0.1-3.1c0-1.2-0.1-2.4-0.1-3.7
		c-0.1-1.9-0.2-3.5-0.2-4.7c0-1.2-0.1-2.1-0.2-2.8c-0.1-0.7-0.2-1.1-0.3-1.4c-0.1-0.3-0.2-0.4-0.4-0.5c-0.4-0.2-0.6-0.4-0.6-0.7
		s0.2-0.5,0.6-0.7c0.1,0,0.2-0.1,0.2-0.3c0-0.2-0.2-0.5-0.6-1c-0.7-1.3-0.7-1.9,0-1.7c0.2,0.2,0.4,0.1,0.5-0.3
		c0.1-0.4,0.2-1.3,0.2-2.7c0-1.7-0.1-2.8-0.2-3.3s-0.4-0.4-0.8,0.3c0,0.2-0.1,0.3-0.2,0.4c-0.1,0.1-0.2,0.1-0.2-0.1
		c0-0.1,0-0.2,0.1-0.2c0-0.2,0.1-0.4,0.3-0.5c0-0.1,0-0.3,0.1-0.4c0.1-0.1,0-0.2-0.1-0.2c0-0.2,0.1-0.4,0.3-0.4
		c0.3,0,0.5-0.1,0.6-0.4c0.1-0.3,0.1-0.6,0-1.1c-0.1-0.4-0.2-0.9-0.4-1.4c-0.2-0.5-0.5-0.9-0.8-1.2c-0.7-0.7-1-1.2-0.8-1.4
		S167.3,38.1,168.5,38.1z"/>
</g>
<g id="XMLID_1_">
	<path id="XMLID_37_" class="st0" d="M259.3,29.5c0.3,0,0.7,0.1,1,0.2c0.3,0.1,0.7,0.3,1,0.4c0.2,0.1,0.5,0.3,0.8,0.4
		c0.4,0.1,0.6,0.2,0.8,0.2c0.1,0,0.4,0.1,0.6,0.2c0.3,0.1,0.6,0.3,0.9,0.5c0.3,0.1,0.7,0.2,1.1,0.3c0.4,0.1,0.7,0.2,0.9,0.2
		c0.1,0,0.4,0.1,0.7,0.2c0.3,0.1,0.7,0.3,1,0.5c0.1,0,0.3,0,0.6,0.1c0.3,0.1,0.5,0.1,0.7,0.1c0.1,0,0.4,0.1,0.6,0.3
		c0.3,0.2,0.6,0.4,0.9,0.6c0.3,0.2,0.5,0.5,0.8,0.8c0.2,0.3,0.3,0.5,0.3,0.6c0,0.2-0.1,0.3-0.2,0.4c-0.1,0-0.3,0.1-0.4,0.2
		c-0.2,0-0.3,0.1-0.2,0.3c0.1,0.2,0.4,0.6,1.1,1.3l0.9,1.3c0.1,0.1,0.3,0.4,0.5,0.6c0.1,0,0.2,0,0.2-0.1c0.1,0,0.3-0.1,0.4-0.3
		c0.1-0.4,0.3-0.6,0.3-0.6c0.1,0,0.3,0.2,0.6,0.6c0.5,0.5,0.9,1.2,1.1,2.2c0.2,1,0.2,1.8,0,2.4c0,0.3-0.2,0.6-0.4,0.7
		c-0.3,0.2-0.5,0.3-0.5,0.4c0,0.1,0,0.4,0.2,0.9c0.3,0.3,0.5,0.6,0.5,0.6c0,0.1-0.2,0.3-0.5,0.6c-0.2,0.1-0.5,0.5-0.6,1.2
		c-0.1,0.3-0.2,0.6-0.3,0.9c-0.1,0.3-0.2,0.6-0.3,0.9l-0.2,0.9c0,0.2,0,0.4,0,0.5s-0.1,0.3-0.3,0.5c-0.2,0.2-0.4,0.3-0.6,0.3
		c-0.2,0-0.5-0.2-0.9-0.5c-0.1-0.4-0.2-0.6-0.3-0.7c0-0.1,0-0.2,0-0.3c0,0,0.1,0,0.2-0.1c0-0.1,0-0.2,0.1-0.2c0,0,0-0.1,0-0.3
		c0-0.1,0-0.3,0.1-0.5l0.1-1.2c0-0.2,0-0.6,0.1-0.9c0-0.1,0.1-0.2,0.1-0.4c-0.3,0.3-0.6,0.1-1.1-0.6c-0.1-0.1-0.2-0.3-0.3-0.5
		c-0.1-0.2-0.2-0.4-0.3-0.6c-0.1-0.3-0.2-0.6-0.2-0.9c0-0.3-0.1-0.5-0.1-0.8c-0.5-1.8-0.8-3-0.8-3.7c-0.1-0.7-0.1-1.2-0.1-1.4
		c0-0.1-0.1-0.1-0.2-0.1c-0.1,0-0.3,0-0.4,0.1l-0.2,0.5c-0.1,0.5-0.1,0.8-0.1,1.1c0,0.7,0,1.1-0.1,1.4c-0.1,0.2-0.3,0.6-0.8,0.9
		c-0.2,0.2-0.4,0.4-0.7,0.6c-0.3,0.2-0.5,0.3-0.7,0.3c-0.1,0-0.4,0.1-0.7,0.4c-0.3,0.2-0.7,0.5-1,0.9c-0.4,0.3-0.7,0.7-1,1
		c-0.3,0.4-0.6,0.7-0.7,0.9l-4,5.3c-0.6,0.7-1.2,1.5-1.8,2.3c-0.6,0.8-1.2,1.7-1.7,2.4c-0.5,0.8-1,1.5-1.4,2.2
		c-0.4,0.7-0.8,1.3-1,1.7c-0.2,0.4-0.4,0.9-0.5,1.3c-0.1,0.4-0.3,0.7-0.5,0.9c-0.5,0.7-0.6,1.1-0.3,1.2c0.3,0.1,1.2,0.2,2.9,0.1
		c1.5,0,2.8-0.1,3.9-0.4c1.1-0.3,2.1-0.8,3.2-1.5c0.5-0.4,1.1-0.8,1.6-1.3c0.5-0.5,1.1-1,1.7-1.7c0.2-0.2,0.5-0.5,0.7-0.8
		c0.2-0.3,0.5-0.6,0.8-1c0.4-0.4,0.7-0.8,1-1c0.3-0.2,0.5-0.3,0.7-0.2h0.2c0.1,0,0.3-0.1,0.4-0.2c0-0.2,0.1-0.3,0.2-0.3
		s0.3,0.1,0.4,0.3c0,0.1,0.2,0.1,0.4-0.1c0.2-0.2,0.4-0.4,0.6-0.8c0.2-0.3,0.4-0.7,0.7-1c0.2-0.4,0.4-0.7,0.6-1
		c0.1-0.4,0.3-0.7,0.4-0.7c0.1,0,0.2,0,0.2,0.1c0.1,0.3,0.2,0.5,0.3,0.5c0,0,0.2-0.1,0.4-0.3c0.1-0.1,0.2-0.2,0.3-0.2
		c0,0,0,0.2,0,0.5c0,0.2-0.1,0.6-0.4,1.1s-0.5,1-0.8,1.5c-0.3,0.5-0.6,1-0.9,1.4c-0.3,0.4-0.5,0.6-0.5,0.6c-0.1,0-0.4,0.2-0.6,0.6
		c-0.3,0.4-0.6,1-0.9,1.6c-0.2,0.5-0.5,0.9-0.8,1.2c-0.3,0.3-0.5,0.7-0.8,1c-0.7,0.8-1.4,1.5-2.1,2s-1.6,1-2.7,1.4
		c-0.4,0.1-0.9,0.2-1.4,0.4c-0.6,0.1-1.2,0.3-1.8,0.4c-1.1,0.2-2.2,0.3-3.4,0.4c-1.2,0.1-2.1,0-3-0.2c-1.4-0.3-2.3-0.3-2.6,0
		c0,0-0.1,0.4-0.1,1.2c0,0.7-0.1,1.6-0.1,2.6c0,1,0,2.1,0,3.1c0,1.1,0.1,2,0.2,2.6c0.2,1.1,0.4,1.9,0.5,2.3c0.2,0.4,0.4,0.7,0.8,0.8
		c0.2,0,0.3,0.2,0.5,0.6c0.1,0.4,0.2,0.9,0.2,1.5c0,0.2,0.1,0.5,0.3,0.9c0.2,0.4,0.4,0.8,0.8,1c0.1,0.4,0.3,0.7,0.3,0.7
		c0.1,0,0,0-0.3-0.1c-0.3-0.3-0.5-0.4-0.5-0.3c0,0.2,0.2,0.6,0.5,1.2c0.3,0.2,0.5,0.4,0.6,0.6c0.1,0.1,0.5,0.1,1-0.1
		c0.3,0,0.7,0,1,0c0.3,0,0.6,0.1,1,0.3c0.3,0.4,0.8,0.6,1.3,0.6c0.6,0,1.3,0.1,2.3,0.1c1.6,0,2.7,0.1,3.1,0.2c0.5,0.1,0.6,0.5,0.4,1
		c0,0.3-0.3,0.5-0.9,0.7c-0.6,0.2-1.1,0-1.6-0.4c-0.3-0.3-1-0.6-2-0.8c-1-0.2-2-0.3-3-0.3c-0.8,0-1.3,0-1.4,0.1
		c-0.1,0.1,0,0.4,0.4,0.9c0.1,0.2,0.3,0.6,0.5,0.9c0.2,0.4,0.3,0.7,0.4,1c0.1,0.3,0.1,0.6,0.1,0.7c0,0.2-0.1,0.2-0.3,0
		c-0.1,0-0.3,0-0.4-0.1l-0.6-0.1c-0.3,0-0.6,0-0.8-0.1c-0.2-0.1-0.3-0.5-0.3-1.1c0-0.7-0.2-1.4-0.6-2.1c-0.4-0.7-0.8-1.1-1.4-1.1
		c0,0.1,0,0.2,0.1,0.2c0,0.1,0.1,0.2,0.1,0.2c0,0,0.1,0.1,0.1,0.1c0.3,0.3,0.3,0.6,0,1c-0.1,0.1-0.1,0.4,0,0.8
		c0.1,0.4,0.2,0.7,0.4,1.2c0.2,0.4,0.4,0.8,0.6,1c0.2,0.3,0.4,0.4,0.6,0.4c0.2,0,0.4,0,0.4,0c0,0,0,0.1,0,0.3c0,0.2,0.2,0.3,0.5,0.3
		c0.3,0,0.6-0.1,0.8-0.3v0.4c0,0.3,0,0.5,0.1,0.8c0,0.2,0.2,0.5,0.6,0.8c0.1,0.1,0.3,0.2,0.6,0.3c0.3,0.1,0.5,0.1,0.7-0.1
		c0.2,0,0.2-0.1,0-0.2c-0.3,0-0.5-0.2-0.5-0.6c0-0.4,0-0.6,0.2-0.6c0.1-0.1,0.3-0.1,0.5,0s0.4,0.3,0.6,0.5c0.2,0.2,0.4,0.4,0.6,0.7
		c0.2,0.2,0.3,0.4,0.3,0.6c0,0.4,0.6,0.9,1.9,1.5c1.3,0.5,2.7,1,4.4,1.4c0.9,0,1.7-0.1,2.6-0.3c0.9-0.2,1.5-0.5,2-0.9
		c0.4-0.3,1-0.9,1.8-1.5c0.7-0.7,1.5-1.4,2.3-2.2c0.8-0.8,1.5-1.5,2.2-2.2c0.6-0.7,1.1-1.2,1.3-1.5c1.4-1.8,2.7-3.4,3.8-4.9
		c1.1-1.5,2.1-2.8,2.9-4.1c0.8-1.2,1.5-2.4,2.1-3.4c0.6-1,1-2,1.5-2.9c0.3-0.9,0.8-1.8,1.3-2.9c0.5-1.1,1-2.1,1.5-3.1s1-1.9,1.4-2.6
		c0.5-0.7,0.8-1.2,1-1.3c0.5-0.3,0.8-0.4,0.9-0.4s0,0.4-0.2,1c-0.3,0.7-0.6,1.2-0.9,1.6c-0.2,0.2-0.3,0.3-0.5,0.5
		c-0.1,0.1-0.2,0.3-0.2,0.4v0.4c-0.1,0.1-0.3,0.5-0.6,1.2c-0.3,0.7-0.7,1.5-1.2,2.4c-0.4,0.9-0.9,1.8-1.3,2.8
		c-0.4,0.9-0.7,1.7-1,2.3c-0.1,0.3-0.3,0.8-0.6,1.5c-0.3,0.7-0.7,1.5-1.1,2.3c-0.4,0.8-0.8,1.5-1.2,2.3c-0.4,0.7-0.8,1.2-1,1.5
		c-0.1,0.3-0.3,0.6-0.5,0.9c-0.2,0.3-0.3,0.5-0.5,0.7c-0.7,1.1-1.5,2.4-2.6,4c-1.1,1.6-2.2,3.1-3.4,4.7c-0.7,1-1.3,2-1.9,3
		c-0.6,1.1-1,1.8-1.4,2.2c-0.5,1-1.2,1.9-2.1,2.7c-0.9,0.9-2,1.7-3.1,2.5c-0.4,0.3-0.7,0.5-1,0.8c-0.3,0.2-0.7,0.4-1,0.5
		c-0.4,0.1-0.8,0.2-1.3,0.3c-0.5,0.1-1.1,0.2-1.9,0.3c-1.4,0.3-2.6,0.4-3.3,0.5c-0.8,0-1.8-0.1-2.9-0.3c-1.7-0.1-3.3-0.5-5-1.2
		c-1.6-0.7-3-1.6-4.2-2.7c-0.5-0.4-1-0.7-1.4-1c-0.4-0.3-0.7-0.4-0.9-0.4c-0.3,0-0.6-0.1-0.7-0.3c-0.1-0.2-0.1-0.4,0-0.6
		c0.2,0,0.2-0.3,0-0.8c-0.2-0.5-0.4-1.1-0.8-1.7c-0.3-0.6-0.7-1.3-1.2-1.9c-0.5-0.6-0.9-1.1-1.3-1.4c-0.9-0.8-1.4-1.2-1.5-1.1
		c-0.2,0.1,0.1,0.5,0.8,1.1c0.5,0.6,0.9,1.2,1.2,1.8s0.4,0.9,0.2,0.9c-0.1,0-0.5-0.3-0.9-0.9c-0.5-0.6-1-1.2-1.5-2
		c-0.6-0.8-1.1-1.5-1.5-2.3c-0.5-0.7-0.8-1.3-0.9-1.5c0-0.5-0.1-1-0.2-1.4c-0.1-0.4-0.3-0.8-0.4-1.2c-0.2-0.5-0.3-0.9-0.5-1.2
		s-0.2-0.5-0.2-0.6c0-0.4,0-0.7,0-0.8c0-0.2-0.1-0.4-0.3-0.8c-0.5-0.6-1-1.8-1.4-3.6c-0.4-1.8-0.7-3.7-0.9-5.9s-0.3-4.4-0.3-6.7
		c0-2.2,0.2-4.1,0.5-5.7c0.3-2.2,0.8-4.2,1.3-6.1c0.6-1.9,1.3-3.7,2.2-5.4c0.9-1.7,2-3.5,3.3-5.2s2.9-3.6,4.7-5.7
		c1.7-1.8,3.2-3.3,4.6-4.4c1.4-1.1,2.9-2.1,4.6-3c0.8-0.6,1.5-1,2-1.3C258.2,29.6,258.7,29.5,259.3,29.5z"/>
</g>
<g id="XMLID_8_">
	<path id="XMLID_64_" class="st0" d="M305.1,30.1c0.4,0,1.1,0.1,2.2,0.3c1.1,0.2,2.5,0.4,4.5,0.7c0.7,0.1,1.4,0.2,2,0.2
		c0.6,0,1.2,0.1,1.7,0.2l1.6,0.2V32c0,0.2,0.2,0.5,0.5,0.8c0.3,0.3,0.6,0.5,0.8,0.6c0.2,0.1,0.5,0.3,0.9,0.7
		c0.4,0.4,0.7,0.8,1.1,1.3s0.7,1,1,1.6c0.3,0.6,0.6,1.1,0.9,1.7c0,0.3,0.1,0.8,0.2,1.6c0.1,0.8,0.1,1.6,0.2,2.5
		c0.1,0.9,0.1,1.8,0.2,2.6c0,0.8,0.1,1.5,0.1,1.8c-0.2,1-0.4,1.6-0.6,2c-0.2,0.4-0.5,0.3-0.9,0c-0.5,0-0.8-0.2-0.8-0.6
		c-0.1-0.4-0.1-1.2-0.1-2.3c0-1,0-1.8,0-2.7c0-0.8-0.1-1.6-0.3-2.4c-0.4-1.7-1.2-2.6-2.4-2.7c-1.2-0.1-2.4,0.4-3.8,1.5
		c-1.4,1.2-2.7,2.9-4,5.1c-1.3,2.3-2.2,5-2.8,8.1c-0.2,0.4-0.5,0.9-0.8,1.3c-0.3,0.5-0.4,0.9-0.4,1.2c0,0.7-0.3,1.2-0.8,1.6
		c-0.1,0.1-0.3,0.6-0.6,1.3c-0.3,0.7-0.7,1.6-1.1,2.6c-0.4,1-0.9,2.1-1.4,3.3c-0.5,1.2-1,2.3-1.4,3.4c-0.4,1.1-0.7,2-1,2.8
		c-0.3,0.8-0.4,1.4-0.4,1.7c0,0.5-0.1,1.1-0.4,1.8c-0.3,0.7-0.5,1.3-0.7,1.8c-0.2,0.6-0.4,1.2-0.6,1.9c-0.2,0.7-0.3,1.3-0.4,1.9
		c-0.1,0.6-0.1,1.1-0.1,1.5c0,0.4,0,0.6,0.1,0.6c0.2,0,0.5,0.1,0.7,0.3c0.2,0.2,0.3,0.5,0.3,0.8c0.2,0.5,0.2,1,0,1.5
		c-0.2,0.5-0.5,0.8-1,0.8c-0.2-0.2-0.4,0-0.5,0.4c-0.1,0.5-0.1,0.9,0.2,1.2c0,0.1,0.1,0.2,0.2,0.2c0.1,0,0.2-0.2,0.2-0.5
		c0.7-0.9,1.1-1.2,1.3-1c0.2,0.2,0.5,0.7,0.9,1.7c0,0.3,0.1,0.6,0.3,0.7c0.2,0.1,0.3,0.2,0.5,0.2c0.4,0,0.8,0.2,1.2,0.5
		c0.3,0.3,0.5,0.6,0.5,1h-0.8c-0.2,0-0.4,0.1-0.6,0.2c-0.1,0.1-0.1,0.4,0.1,0.7c0,0.3,0,0.5,0,0.5c0,0-0.1,0-0.3-0.2
		c-0.2-0.3-0.4-0.5-0.5-0.5c-0.2,0-0.3,0.3-0.3,0.8v0.9l-0.4-1.2c-0.4-0.7-0.8-1-1.2-1c-0.4,0-0.7,0.3-0.9,1c0,0.4-0.1,0.6-0.3,0.8
		c-0.2,0.1-0.3,0.2-0.5,0.2l-0.2,0.4c-0.1,0.2-0.2,0.5-0.2,0.8c-0.2,0.4-0.4,0.7-0.5,1c-0.1,0.3-0.2,0.5-0.4,0.7
		c-0.1,0.3,0,0.6,0.3,1c0.3,0.4,0.6,0.7,1.1,1c0.5,0.3,1,0.5,1.6,0.7c0.6,0.2,1.2,0.3,1.7,0.3c0.8-0.2,1.5-0.5,2-0.9
		c0.5-0.4,0.5-0.6,0-0.8c-0.1,0-0.2-0.1-0.4-0.1c-0.3,0-0.4,0-0.4,0.1c-0.4,0-0.5,0-0.4,0c0.1,0,0.2,0,0.4-0.1
		c0.5-0.3,0.9-0.3,1.3,0c0.2,0.2,0.7,0.3,1.3,0.3c0.6-0.1,1.1-0.2,1.3-0.3c0-0.5,0.3-0.7,0.9-0.7c0.4,0,0.6,0,0.6-0.1
		c0-0.1-0.2-0.5-0.6-1.2c0-0.4,0-0.6,0-0.6c0,0,0.2,0,0.4,0.2c0,0.2,0.2,0.4,0.6,0.6c0.4,0.1,0.7,0.3,0.9,0.4
		c0.6,0.4,1.1,0.6,1.5,0.6c0.4,0,0.9-0.1,1.5-0.3c0.3-0.1,0.7-0.3,1.2-0.7c0.5-0.3,1.1-0.7,1.7-1.2c0.6-0.5,1.2-1,1.8-1.5
		c0.6-0.5,1.1-1,1.5-1.5c0.5-0.5,1.3-1.4,2.2-2.7c1-1.3,2-2.8,3-4.5c1.1-1.7,2.1-3.3,3-5c1-1.7,1.7-3.1,2.2-4.2
		c0.2-0.4,0.4-0.8,0.6-1.2c0.2-0.4,0.3-0.8,0.5-1l0.5-0.9c0.6-0.6,0.9-1.2,0.9-1.9c0.2-0.3,0.5-0.7,0.6-1.1c0.2-0.4,0.4-0.6,0.6-0.6
		c0.1-0.1,0.2-0.3,0.3-0.6c0.1-0.3,0.3-0.6,0.6-0.9c0.1-0.4,0.2-0.9,0.4-1.4c0.2-0.5,0.4-0.9,0.6-1.4c0.2-0.4,0.5-0.8,0.7-1.2
		s0.5-0.6,0.6-0.6c0.8,0,0.8,0.4,0,1.2c-0.2,0.2-0.4,0.4-0.6,0.5c-0.1,0.1-0.2,0.3-0.2,0.4c0,0.3-0.1,0.7-0.3,1.2
		c-0.2,0.5-0.4,1-0.6,1.5c-0.2,0.5-0.5,1-0.8,1.4c-0.3,0.4-0.6,0.7-0.8,0.8c0,0.1-0.1,0.3-0.2,0.6c-0.1,0.3-0.2,0.6-0.2,1l-0.6,0.7
		c0,0.1-0.1,0.2-0.1,0.2c0,0-0.1,0.1-0.1,0.1c-0.2,0-0.4,0.5-0.4,1.5c0,0.4-0.1,0.7-0.3,1.1l-0.2,0.6c-0.2,0.1-0.4,0.4-0.5,0.6
		c-0.1,0.3-0.2,0.6-0.2,0.9c0,0.4-0.1,0.7-0.3,0.9c-0.2,0.2-0.4,0.4-0.6,0.5c-0.2,0.1-0.5,0.3-0.8,0.8c-0.3,0.4-0.6,0.9-0.8,1.3
		c-0.3,0.5-0.5,0.9-0.7,1.4c-0.2,0.4-0.3,0.7-0.3,0.8c0,0.1-0.3,0.5-0.8,1.3c-0.5,0.7-1.1,1.6-1.7,2.6c-0.4,1.1-0.9,2.2-1.6,3.3
		c-0.7,1.1-1.3,2-1.8,2.7c-0.5,0.8-1.2,1.7-1.9,2.7c-0.7,1-1.5,1.9-2.4,2.8c-0.8,0.9-1.7,1.7-2.5,2.5s-1.6,1.3-2.3,1.7
		c-0.7,0.5-1.3,0.9-1.9,1.2s-1.3,0.6-1.9,0.8c-0.7,0.2-1.4,0.3-2.3,0.3c-0.9,0-1.9,0-3-0.1c-2.3,0-4.2-0.3-5.8-0.8
		c-1.6-0.5-3.1-1.4-4.6-2.7c-1-0.7-1.8-1.5-2.6-2.4c-0.7-0.9-1.5-1.9-2.2-3.1c-0.7-1.2-1.4-2.6-2.1-4.2c-0.7-1.6-1.5-3.5-2.3-5.8
		c-0.2-0.7-0.3-1.2-0.5-1.7c-0.1-0.4-0.2-0.9-0.3-1.3c-0.1-0.5-0.1-1-0.2-1.6c-0.1-0.6-0.2-1.5-0.3-2.5c-0.2-2.8-0.1-5.8,0.3-8.9
		c0.4-3.1,1.1-6.2,2.1-9.2s2.2-6,3.6-8.8c1.4-2.8,3.1-5.4,4.9-7.6c0.8-1.1,1.9-2.3,3.3-3.6c1.4-1.4,2.7-2.7,4.1-3.9
		c1.3-1.2,2.5-2.2,3.6-2.9c1.1-0.7,1.7-1,1.9-0.8c0.1,0,0.3,0,0.4-0.1c0.2,0,0.4-0.2,0.6-0.4h0.9H305.1z M285,68.9
		c-0.2,0.1-0.4,0.5-0.5,0.9c-0.1,0.5-0.2,1.1-0.5,1.9c-0.4,2.7-0.8,3.4-1.2,1.9V75V76c0-0.4,0.3-0.6,0.9-0.6c0.8,0,1.3-0.2,1.4-0.7
		c0.1-0.5,0.2-1.5,0.2-3C285.3,69.9,285.2,68.9,285,68.9z M292.9,85.3c-0.2,0-0.4,0-0.6,0c-0.2,0-0.3,0.1-0.3,0.3
		c0,0.4,0.3,0.7,0.8,0.9c0.5,0.2,0.9,0.2,1.1,0c0.1-0.1,0.1-0.3,0-0.7C293.7,85.5,293.4,85.3,292.9,85.3z M294.5,82.7
		c-0.2,0-0.4,0.1-0.5,0.3c-0.1,0.2-0.3,0.4-0.3,0.6c-0.1,0.2-0.1,0.4-0.1,0.6c0,0.2,0.1,0.3,0.2,0.4c0.2,0.2,0.3,0.3,0.4,0.3
		c0.1,0.1,0.2,0.1,0.3,0c0.4-0.1,0.6-0.5,0.5-1S294.7,82.9,294.5,82.7z"/>
</g>
<g id="XMLID_9_">
	<path id="XMLID_69_" class="st0" d="M305.4,26.3c0.1-0.2,0.5-0.4,1.1-0.5c0.6-0.2,1.6-0.3,3-0.5c1.1,0,2.2-0.1,3.4-0.4
		s2.1-0.5,2.6-0.6c0.8,0,1.8-0.1,3.1-0.3c1.3-0.2,2.6-0.3,4-0.5c1.2,0,2.5-0.1,3.7-0.4c1.2-0.2,2.1-0.4,2.6-0.4l0.7-3.1l0.7-3.2
		c0.2-1.1,0.4-2,0.6-3c0.2-0.9,0.3-1.8,0.5-2.6c0-0.4,0.1-0.7,0.2-1.1c0.1-0.3,0.2-0.6,0.3-0.9c0.3-1.9,0.6-3.3,0.9-4.2
		c0.2-0.9,0.5-1.6,0.7-2.1c0.1-0.3,0.4-0.6,0.8-0.8c0.4-0.2,0.7-0.3,1.1-0.4c0.4-0.1,0.7-0.1,0.9-0.1c0.2,0,0.3,0.1,0.3,0.2l3.9-1.5
		l2.6,0.7l3.6,0.8l3.7,1.6L350,3.6c-0.2,0-0.3,0.2,0,0.7s0.3,1,0.3,1.8c0,0.5,0,1-0.1,1.3c-0.1,0.4-0.1,0.7-0.2,1s-0.1,0.6,0,0.9
		c0,0.3,0.1,0.6,0.3,1.1c0.3,0.3,0.4,0.8,0.4,1.4c0,0.6-0.1,1-0.1,1.2c0,0,0,0.3,0,0.8c0,0.5,0,1,0.1,1.5c0,0.6,0.1,1.1,0.1,1.5
		c0.1,0.5,0.2,0.7,0.3,0.8c0.2,0.4,0.8,0.6,1.6,0.5c0.8,0,2.3-0.3,4.4-0.8c0.8-0.2,1.7-0.4,2.6-0.6c0.9-0.2,1.8-0.4,2.7-0.5
		c0.7-0.1,1.3-0.2,2-0.3c0.6-0.1,1.3-0.2,1.8-0.3c0.7-0.1,1.4-0.2,2-0.2c0.6,0,1.1,0,1.5,0.1c0.7-0.1,1-0.1,1,0.1
		c0,0.2-0.2,0.4-0.6,0.8c-0.4,0.4-1.4,1-2.9,1.7c-0.4,0.2-0.9,0.4-1.3,0.6c-0.5,0.2-0.9,0.3-1.5,0.5c-1.6,0.5-3.2,0.9-4.7,1.2
		c-0.3,0.1-0.6,0.2-0.9,0.2c-0.3,0-0.6,0.1-0.9,0.2c-0.7,0.1-1.3,0.3-1.9,0.4c-0.6,0.1-1.2,0.3-1.7,0.4c-0.2,0-0.4,0.1-0.5,0.1
		c-0.1,0-0.3,0.1-0.4,0.1c-2.6,0.8-4,1.4-4.2,1.9c-0.1,0.2-0.1,1-0.1,2.6c0,1.5,0,3.2,0.1,5.1v7.3L349,39c-0.3,0.1-0.5,0.1-0.6,0.1
		c-0.1,0-0.3,0.2-0.3,0.5c-0.1,0.3-0.1,1-0.2,2s-0.1,2.5-0.2,4.5s-0.2,4.5-0.3,7.7v11.8l1,0.4c0.8,0.4,1.2,0.7,1.2,1
		s-0.4,0.4-1.2,0.4L347,67v5.9c-0.1,0.7-0.2,1.5-0.2,2.3s-0.1,1.6-0.1,2.3c0,0.7,0,1.3,0.1,1.8c0,0.5,0.1,0.9,0.2,1.1
		c0,0.7,0.1,1.4,0.2,2.1c0.1,0.6,0.2,1.1,0.2,1.5l0.4,1.4l-0.8-1.1l-0.3-1v1c0,0.4,0,0.9,0,1.7c0,0.7,0.1,1.5,0.3,2.1
		c0.2,1.4,0.4,2.4,0.6,3c0.2,0.6,0.5,0.7,0.8,0.1c0-0.2,0.1-0.3,0.3-0.3c0.2,0,0.3,0.2,0.3,0.5c0.1,0.4,0.2,0.6,0.2,0.8
		c0,0.1,0.2,0,0.4-0.4c0.2-0.2,0.5-0.2,0.6-0.1c0.2,0.1,0.4,0.6,0.7,1.5c0.4,0.7,0.6,1.2,0.6,1.4c0,0.2,0,0.4-0.1,0.4h-1.1
		c-0.2,0.3-0.7,0.1-1.4-0.7c-0.4-0.5-0.6-0.7-0.8-0.6c-0.1,0.1,0,0.4,0.3,1c0.2,0.2,0.3,0.4,0.3,0.5c0,0.1-0.2,0.2-0.6,0.2l-0.2-0.1
		c-0.1,0-0.2-0.1-0.3-0.1s-0.2-0.1-0.3-0.1v0.4c0.2,0.4,0.3,0.6,0.3,0.8c0,0.1-0.3,0.2-0.6,0.2c-0.2,0-0.3,0.3-0.3,1
		c0,0.9,0.1,1.5,0.4,1.9c0.3,0.3,0.9,0.8,2,1.3l2.2,0.7l1.4-1.4c0.5-0.2,1.1-0.6,1.7-1.2c0.6-0.6,1.2-1.1,1.7-1.6
		c0.5-0.7,1.2-1.5,2.1-2.5c0.9-1,1.7-1.9,2.3-2.8c0.9-0.9,1.8-1.8,2.6-2.7c0.8-0.9,1.4-1.6,1.7-2.1c0.3-0.6,0.8-1.3,1.3-2.2
		c0.6-0.9,1.1-1.8,1.6-2.7c0.5-0.9,1-1.7,1.4-2.3c0.4-0.7,0.6-1.1,0.6-1.2l0.2-0.4l0.4-0.6c0.1-0.1,0.5-0.7,1.1-1.7
		c0.6-1,1.2-2.1,1.9-3.3c0.7-1.2,1.3-2.4,1.9-3.5s0.9-1.8,1.1-2.1c0.5-0.6,1-1.4,1.6-2.3c0.6-1,1.1-2,1.5-3c0.5-1,0.8-2,1-2.9
		c0.2-0.9,0.3-1.6,0.1-1.9c0.3-0.5,0.5-0.8,0.6-0.9c0.1-0.1,0.4,0,0.8,0.2c0.2,0.2,0.3,0.6,0.2,1c0,0.4,0,0.8,0.2,1.2
		c-0.4,0.4-0.7,0.9-0.8,1.3c-0.1,0.5-0.1,0.9-0.1,1.4c0,0.5,0.1,0.9,0.1,1.4c0,0.5-0.1,0.9-0.4,1.3c-0.7,0.8-1.4,1.7-2.2,2.6
		c-0.8,0.9-1.2,1.7-1.2,2.3c-0.4,0.8-0.8,1.7-1,2.6c-0.2,0.9-0.3,1.5-0.3,1.7c-0.3,0.1-0.7,0.6-1.2,1.6c-0.5,1-1.1,2.1-1.6,3.3
		c-0.6,1.2-1.1,2.4-1.5,3.6c-0.5,1.2-0.8,2-0.9,2.6c-0.1,0.5-0.4,1.1-0.7,1.7c-0.3,0.6-0.7,1.1-1.1,1.5c-0.2,0.1-0.5,0.6-0.9,1.3
		c-0.4,0.7-0.9,1.5-1.4,2.1c-0.4,0.7-0.9,1.3-1.4,2c-0.6,0.6-1,1.2-1.4,1.5c-1.2,0.9-2.2,1.7-2.8,2.4c-0.6,0.8-1,1.3-1,1.7
		c0,0.3-0.1,0.5-0.3,0.5c-0.2,0-0.3,0-0.5-0.2c-0.2-0.2-0.3-0.2-0.4-0.1c-0.1,0.1-0.1,0.3-0.2,0.6c-0.1,0.3-0.2,0.7-0.4,1.2
		c-0.2,0.5-0.4,0.9-0.8,1.4c-0.3,0.5-0.8,1.1-1.3,1.7c-0.5,0.6-1,1.2-1.5,1.9c-0.5,0.6-1,1.2-1.4,1.8c-0.4,0.6-0.7,1.1-0.8,1.5
		c-2.4,1.8-4.6,2.7-6.5,2.9c-1.9,0.2-3.7-0.1-5.3-0.9c-1.6-0.8-2.9-1.9-4.1-3.3c-1.2-1.4-2.1-2.9-2.9-4.3s-1.4-2.7-1.9-3.9
		c-0.5-1.1-0.8-1.8-0.9-1.9c-0.1-0.2-0.2-0.4-0.1-0.7c0.1-0.3,0.2-0.5,0.4-0.8c0.1-0.2,0.3-0.5,0.4-0.7c0.1-0.2,0.1-0.5-0.1-0.6
		c-0.2-0.4-0.4-0.7-0.5-1c-0.1-0.3-0.3-0.4-0.5-0.4v2.8v2.8c-0.2,0.1-0.5,0-0.9-0.3c-0.4-0.3-0.6-0.6-0.6-0.9
		c0.2-0.1,0.4-0.2,0.4-0.3c0,0,0.1,0,0.3,0c0,0.1,0.1,0.2,0.2,0.1c0.1-0.1,0.2-0.2,0.2-0.4l-0.6-0.6c-0.5,0-0.8-0.1-0.9-0.4
		c0-0.3,0.1-0.6,0.4-1c0.4-0.3,0.6-0.5,0.6-0.6c0-0.1-0.2-0.2-0.6-0.5c-0.1,0-0.3,0-0.4,0c-0.1,0-0.2,0.2-0.2,0.4
		c-0.2,0.5-0.3,0.7-0.5,0.4c-0.1-0.3-0.1-0.7,0.1-1.2v-0.9c-0.4,0-0.4-0.4,0-1.1c0.1-0.5,0.1-1.2,0.1-2.3c0-1.1,0-2.2-0.1-3.4
		c0-1.2-0.1-2.4-0.3-3.7c-0.1-1.2-0.3-2.3-0.5-3.1c-0.4-1.3-0.7-2.5-0.9-3.5c-0.2-1-0.3-2.1-0.4-3.2c0-1.1,0-2.3,0-3.7
		c0-1.4,0.1-3,0.2-4.9c0-1,0-2.1,0-3.5c0-1.3,0.1-2.7,0.1-4.2c0.1-1.5,0.1-3,0.2-4.5c0.1-1.5,0.2-2.9,0.3-4.2c0-1.3,0-2.6,0.1-4
		c0-1.4,0.1-2.7,0.2-4c0.1-1.3,0.1-2.5,0.2-3.6c0.1-1.1,0.2-2,0.3-2.6c0.2-1.4,0.4-2.7,0.5-3.9c0.1-1.2,0.2-1.9,0.2-2.1
		c0-0.2,0-0.4,0-0.5c0-0.1-0.2-0.1-0.6-0.1c-0.4,0-0.9,0.1-1.8,0.2c-0.8,0.1-2,0.3-3.6,0.4c-0.3,0.2-1.1,0.3-2.3,0.3
		c-1.2,0-2.5,0-3.9,0c-1.2,0-2.4,0.1-3.4,0.3s-1.6,0.3-1.8,0.5c-0.5,0.2-1.4,0.3-2.6,0.3c-1.2,0-2.1-0.1-2.8-0.3
		c-0.9-0.4-1.3-0.6-1.4-0.7S304.9,27,305.4,26.3z"/>
</g>
</svg>
