<svg version="1.1" id="Layer_1" xmlns="http://www.w3.org/2000/svg" viewBox="0 0 382.4 273.6" style="enable-background:new 0 0 382.4 273.6;" xml:space="preserve">
<style type="text/css">
	.title-code{fill:darkgoldenrod;}
</style>
<g id="XMLID_87_">
	<g id="XMLID_3_">
		<path id="XMLID_7_" class="title-code" d="M26,43.3c0.4,0,1.1,0.1,2.2,0.3c1.1,0.2,2.5,0.4,4.5,0.7c0.7,0.1,1.4,0.2,2,0.2
			c0.6,0,1.2,0.1,1.7,0.2L38,45v0.2c0,0.2,0.2,0.5,0.5,0.8c0.3,0.3,0.6,0.5,0.8,0.6c0.2,0.1,0.5,0.3,0.9,0.7
			c0.4,0.4,0.7,0.8,1.1,1.3c0.4,0.5,0.7,1,1,1.6c0.3,0.6,0.6,1.1,0.9,1.7c0,0.3,0.1,0.8,0.2,1.6c0.1,0.8,0.1,1.6,0.2,2.5
			c0.1,0.9,0.1,1.8,0.2,2.6c0,0.8,0.1,1.5,0.1,1.8c-0.2,1-0.4,1.6-0.6,2c-0.2,0.4-0.5,0.3-0.9,0c-0.5,0-0.8-0.2-0.8-0.6
			c-0.1-0.4-0.1-1.2-0.1-2.3c0-1,0-1.8,0-2.7c0-0.8-0.1-1.6-0.3-2.4c-0.4-1.7-1.2-2.6-2.4-2.7c-1.2-0.1-2.4,0.4-3.8,1.5
			c-1.4,1.2-2.7,2.9-4,5.1c-1.3,2.3-2.2,5-2.8,8.1c-0.2,0.4-0.5,0.9-0.8,1.3c-0.3,0.5-0.4,0.9-0.4,1.2c0,0.7-0.3,1.2-0.8,1.6
			c-0.1,0.1-0.3,0.6-0.6,1.3c-0.3,0.7-0.7,1.6-1.1,2.6c-0.4,1-0.9,2.1-1.4,3.3c-0.5,1.2-1,2.3-1.4,3.4c-0.4,1.1-0.7,2-1,2.8
			c-0.3,0.8-0.4,1.4-0.4,1.7c0,0.5-0.1,1.1-0.4,1.8c-0.3,0.7-0.5,1.3-0.7,1.8c-0.2,0.6-0.4,1.2-0.6,1.9c-0.2,0.7-0.3,1.3-0.4,1.9
			c-0.1,0.6-0.1,1.1-0.1,1.5c0,0.4,0,0.6,0.1,0.6c0.2,0,0.5,0.1,0.7,0.3c0.2,0.2,0.3,0.5,0.3,0.8c0.2,0.5,0.2,1,0,1.5
			c-0.2,0.5-0.5,0.8-1,0.8c-0.2-0.2-0.4,0-0.5,0.4c-0.1,0.5-0.1,0.9,0.2,1.2c0,0.1,0.1,0.2,0.2,0.2c0.1,0,0.2-0.2,0.2-0.5
			c0.7-0.9,1.1-1.2,1.3-1c0.2,0.2,0.5,0.7,0.9,1.7c0,0.3,0.1,0.6,0.3,0.7c0.2,0.1,0.3,0.2,0.5,0.2c0.4,0,0.8,0.2,1.2,0.5
			c0.3,0.3,0.5,0.6,0.5,1h-0.8c-0.2,0-0.4,0.1-0.6,0.2c-0.1,0.1-0.1,0.4,0.1,0.7c0,0.3,0,0.5,0,0.5c0,0-0.1,0-0.3-0.2
			c-0.2-0.3-0.4-0.5-0.5-0.5c-0.2,0-0.3,0.3-0.3,0.8v0.9l-0.4-1.2c-0.4-0.7-0.8-1-1.2-1c-0.4,0-0.7,0.3-0.9,1c0,0.4-0.1,0.6-0.3,0.8
			c-0.2,0.1-0.3,0.2-0.5,0.2l-0.2,0.4c-0.1,0.2-0.2,0.5-0.2,0.8c-0.2,0.4-0.4,0.7-0.5,1c-0.1,0.3-0.2,0.5-0.4,0.7
			c-0.1,0.3,0,0.6,0.3,1c0.3,0.4,0.6,0.7,1.1,1c0.5,0.3,1,0.5,1.6,0.7c0.6,0.2,1.2,0.3,1.7,0.3c0.8-0.2,1.5-0.5,2-0.9
			c0.5-0.4,0.5-0.6,0-0.8c-0.1,0-0.2-0.1-0.4-0.1c-0.3,0-0.4,0-0.4,0.1c-0.4,0-0.5,0-0.4,0c0.1,0,0.2,0,0.4-0.1
			c0.5-0.3,0.9-0.3,1.3,0c0.2,0.2,0.7,0.3,1.3,0.3c0.6-0.1,1.1-0.2,1.3-0.3c0-0.5,0.3-0.7,0.9-0.7c0.4,0,0.6,0,0.6-0.1
			c0-0.1-0.2-0.5-0.6-1.2c0-0.4,0-0.6,0-0.6c0,0,0.2,0,0.4,0.2c0,0.2,0.2,0.4,0.6,0.6c0.4,0.1,0.7,0.3,0.9,0.4
			c0.6,0.4,1.1,0.6,1.5,0.6c0.4,0,0.9-0.1,1.5-0.3c0.3-0.1,0.7-0.3,1.2-0.7c0.5-0.3,1.1-0.7,1.7-1.2c0.6-0.5,1.2-1,1.8-1.5
			c0.6-0.5,1.1-1,1.5-1.5c0.5-0.5,1.3-1.4,2.2-2.7c1-1.3,2-2.8,3-4.5c1.1-1.7,2.1-3.3,3-5c1-1.7,1.7-3.1,2.2-4.2
			c0.2-0.4,0.4-0.8,0.6-1.2c0.2-0.4,0.3-0.8,0.5-1l0.5-0.9c0.6-0.6,0.9-1.2,0.9-1.9c0.2-0.3,0.5-0.7,0.6-1.1
			c0.2-0.4,0.4-0.6,0.6-0.6c0.1-0.1,0.2-0.3,0.3-0.6c0.1-0.3,0.3-0.6,0.6-0.9c0.1-0.4,0.2-0.9,0.4-1.4c0.2-0.5,0.4-0.9,0.6-1.4
			c0.2-0.4,0.5-0.8,0.7-1.2c0.2-0.3,0.5-0.6,0.6-0.6c0.8,0,0.8,0.4,0,1.2c-0.2,0.2-0.4,0.4-0.6,0.5c-0.1,0.1-0.2,0.3-0.2,0.4
			c0,0.3-0.1,0.7-0.3,1.2c-0.2,0.5-0.4,1-0.6,1.5c-0.2,0.5-0.5,1-0.8,1.4c-0.3,0.4-0.6,0.7-0.8,0.8c0,0.1-0.1,0.3-0.2,0.6
			c-0.1,0.3-0.2,0.6-0.2,1l-0.6,0.7c0,0.1-0.1,0.2-0.1,0.2c0,0-0.1,0.1-0.1,0.1c-0.2,0-0.4,0.5-0.4,1.5c0,0.4-0.1,0.7-0.3,1.1
			l-0.2,0.6c-0.2,0.1-0.4,0.4-0.5,0.6s-0.2,0.6-0.2,0.9c0,0.4-0.1,0.7-0.3,0.9c-0.2,0.2-0.4,0.4-0.6,0.5c-0.2,0.1-0.5,0.3-0.8,0.8
			c-0.3,0.4-0.6,0.9-0.8,1.3c-0.3,0.5-0.5,0.9-0.7,1.4c-0.2,0.4-0.3,0.7-0.3,0.8c0,0.1-0.3,0.5-0.8,1.3c-0.5,0.7-1.1,1.6-1.7,2.6
			c-0.4,1.1-0.9,2.2-1.6,3.3c-0.7,1.1-1.3,2-1.8,2.7c-0.5,0.8-1.2,1.7-1.9,2.7c-0.7,1-1.5,1.9-2.4,2.8c-0.8,0.9-1.7,1.7-2.5,2.5
			c-0.8,0.7-1.6,1.3-2.3,1.7c-0.7,0.5-1.3,0.9-1.9,1.2c-0.6,0.3-1.3,0.6-1.9,0.8c-0.7,0.2-1.4,0.3-2.3,0.3c-0.9,0-1.9,0-3-0.1
			c-2.3,0-4.2-0.3-5.8-0.8c-1.6-0.5-3.1-1.4-4.6-2.7c-1-0.7-1.8-1.5-2.6-2.4c-0.7-0.9-1.5-1.9-2.2-3.1c-0.7-1.2-1.4-2.6-2.1-4.2
			c-0.7-1.6-1.5-3.5-2.3-5.8C1.2,96,1,95.4,0.9,95c-0.1-0.4-0.2-0.9-0.3-1.3c-0.1-0.5-0.1-1-0.2-1.6c-0.1-0.6-0.2-1.5-0.3-2.5
			c-0.2-2.8-0.1-5.8,0.3-8.9c0.4-3.1,1.1-6.2,2.1-9.2c1-3,2.2-6,3.6-8.8c1.4-2.8,3.1-5.4,4.9-7.6c0.8-1.1,1.9-2.3,3.3-3.6
			c1.4-1.4,2.7-2.7,4.1-3.9c1.3-1.2,2.5-2.2,3.6-2.9c1.1-0.7,1.7-1,1.9-0.8c0.1,0,0.3,0,0.4-0.1c0.2,0,0.4-0.2,0.6-0.4h0.9H26z
			 M6,82.1c-0.2,0.1-0.4,0.5-0.5,0.9c-0.1,0.5-0.2,1.1-0.5,1.9c-0.4,2.7-0.8,3.4-1.2,1.9v1.3v1.1c0-0.4,0.3-0.6,0.9-0.6
			c0.8,0,1.3-0.2,1.4-0.7c0.1-0.5,0.2-1.5,0.2-3C6.2,83.1,6.2,82.1,6,82.1z M13.9,98.5c-0.2,0-0.4,0-0.6,0c-0.2,0-0.3,0.1-0.3,0.3
			c0,0.4,0.3,0.7,0.8,0.9c0.5,0.2,0.9,0.2,1.1,0c0.1-0.1,0.1-0.3,0-0.7C14.7,98.7,14.4,98.5,13.9,98.5z M15.5,96
			c-0.2,0-0.4,0.1-0.5,0.3c-0.1,0.2-0.3,0.4-0.3,0.6c-0.1,0.2-0.1,0.4-0.1,0.6c0,0.2,0.1,0.3,0.2,0.4c0.2,0.2,0.3,0.3,0.4,0.3
			c0.1,0.1,0.2,0.1,0.3,0c0.4-0.1,0.6-0.5,0.5-1C15.9,96.5,15.7,96.1,15.5,96z"/>
	</g>
	<g id="XMLID_4_">
		<path id="XMLID_28_" class="title-code" d="M75.4,43.6c1.2,0,2,0.1,2.5,0.3c0.5,0.2,1.1,0.4,1.7,0.8c0.5,0.2,1,0.4,1.4,0.6l0.5,0.4
			c0.4,0,0.8,0.2,1.2,0.5c0.4,0.4,0.6,0.8,0.6,1.3c0,0.4-0.4,1-1.1,1.6c-0.4,0.2-0.8,0.6-1.3,1.3s-0.9,1.3-1.3,2
			c-0.3,0.5-0.5,1-0.7,1.3c-0.2,0.4-0.3,0.7-0.4,1.2c-0.1,0.4-0.2,0.9-0.3,1.4c-0.1,0.5-0.2,1.2-0.3,2c0,0.8,0,1.5,0,2
			c0,0.5,0,1,0.1,1.4c0,0.4,0.1,0.8,0.3,1.1c0.1,0.3,0.3,0.6,0.5,1c0.2,0.5,0.5,1.1,1,1.7c0.5,0.6,0.9,1.1,1.2,1.5
			c0.4,0.5,0.7,0.9,0.7,1.2c0,0.3,0,0.4-0.3,0.3c-0.2,0-0.4,0-0.4,0.1c0,0,0.1,0.2,0.4,0.4c0.1,0.2,0.5,0.6,1.1,1.1
			c0.6,0.5,1.4,1.1,2.1,1.6c0.8,0.6,1.5,1,2.1,1.4c0.6,0.4,1,0.6,1.1,0.5l0.2-0.9c0-0.2,0.1-0.5,0.1-0.8c0-0.3,0.1-0.6,0.1-0.8
			c0-0.2,0.1-1,0.2-2.3c0.1-1.4,0.1-2.9-0.1-4.5c0.3-1,0.3-2.2,0-3.7c-0.3-1.5-0.8-3.1-1.4-4.6c-0.8-1.8-1.5-3.4-2.2-4.8
			c-0.7-1.3-1.2-2-1.4-1.9l0.2-0.3c0-0.1,0.1-0.2,0.1-0.3c0-0.1,0.1-0.3,0.1-0.4c0-0.7,0.1-1,0.3-1.1c0.2-0.1,0.6,0.3,1.1,1.1
			c0.1,0.1,0.2,0.3,0.2,0.5c0,0.2,0.1,0.3,0.1,0.4c0,0.1,0.1,0.3,0.1,0.4c0.7,0.2,1.4,0.7,1.9,1.3c0.6,0.6,1.1,1.3,1.6,2.1
			c0.5,0.8,0.9,1.7,1.3,2.7c0.4,1,0.7,1.9,1,2.8c0.2,0.6,0.4,1.1,0.5,1.6c0.1,0.5,0.3,1,0.5,1.5c0.5,1.2,0.9,2,1.3,2.4
			c0.2,0.4,0.4,1.1,0.4,2.1c0,1,0,2.1,0,3.5l-1.2,9.6c0.3-0.1,0.8-0.1,1.3-0.1c0.5,0,1,0,1.4-0.1c0.2-0.1,0.5-0.2,0.7-0.3
			c0.2-0.1,0.5-0.2,0.7-0.3c0.5-0.2,1-0.3,1.4-0.4c0.5-0.1,1-0.2,1.4-0.4c0.3-0.1,0.6-0.2,0.9-0.4c0.3-0.1,0.6-0.3,0.9-0.4l1.8-0.8
			c0.9-0.4,1.5-0.9,2-1.4c0.5-0.6,0.8-0.9,1.1-1.2h0.6c1.3,0,1.6,0.2,0.9,0.7c-0.2,0.1-0.4,0.2-0.4,0.4c0,0.2,0,0.3,0,0.4
			c0,0.1-0.1,0.3-0.3,0.5c-0.2,0.2-0.3,0.3-0.4,0.3c-0.2,0-0.4,0.1-0.5,0.2c-0.1,0.1-0.2,0.3-0.5,0.5c0,0.1,0,0.2,0,0.4
			c0,0.1-0.1,0.2-0.3,0.2c-0.2,0-0.4,0.1-0.6,0.4c-0.2,0.3-0.5,0.5-0.9,0.6c-0.4,0.2-0.7,0.3-0.8,0.3c-0.1,0.1-0.2,0.1-0.2,0
			c-0.2,0-0.6,0.1-1.2,0.4c-0.5,0.3-1.1,0.5-1.7,0.7c-0.7,0.3-1.4,0.6-2.1,0.8c-0.7,0.2-1.3,0.3-1.9,0.5c-0.2,0.4-0.6,0.6-1.2,0.6
			c-0.2,0-0.5,0-0.9-0.1c-0.4,0-0.8,0-1,0.3c-0.2,0.1-0.4,0.3-0.6,0.4c-0.2,0.1-0.4,0.2-0.6,0.2c-0.2,0-0.4,0.2-0.7,0.6
			c-0.3,0.4-0.6,0.8-0.8,1.3c-0.2,0.5-0.4,1-0.6,1.5c-0.1,0.5-0.2,0.9-0.1,1.2l-0.4,0.2c-0.2,0-0.3,0.1-0.4,0.4
			c0,0.2-0.2,0.5-0.4,0.7c0,0.3-0.1,0.8-0.3,1.5C88.5,90,88.3,90.5,88,91c-0.1,0.5-0.3,1-0.5,1.7c-0.2,0.6-0.3,1.3-0.5,1.9
			c-0.2,0.6-0.3,1.3-0.4,1.8c-0.1,0.6-0.1,1-0.1,1.3c0.2,0.2,0.2,0.6,0.1,1c-0.1,0.4-0.3,0.9-0.5,1.4c-0.2,1-0.3,1.7-0.4,2.2
			c-0.1,0.4,0,0.6,0.4,0.5l0.1,0.2c0,0.1,0.1,0.2,0.1,0.4c0,0.2,0.1,0.4,0.1,0.6c0,0.7-0.1,1.1-0.3,1.2c-0.2,0.1-0.6,0.1-1.3,0.1
			c-0.3,0-0.6,0.6-1,1.7c-0.4,0.3-0.8,0.7-1,1.1c-0.2,0.4-0.4,0.7-0.6,0.8c0,0.2-0.1,0.4-0.4,0.7c-0.3,0.3-0.4,0.6-0.4,0.9
			c-0.2,0.3-0.5,0.6-0.8,0.9c-0.3,0.3-0.5,0.7-0.7,1c-0.1,0.3-0.4,0.8-1,1.5c-0.6,0.7-1.3,1.5-2.2,2.3c-0.9,0.8-2,1.6-3.1,2.3
			c-1.2,0.7-2.4,1.3-3.7,1.7c-1.3,0.4-2.6,0.6-3.9,0.5c-1.3-0.1-2.5-0.6-3.6-1.6c-1.2-0.5-2.2-0.9-3-1.3c-0.7-0.4-1.4-0.9-1.9-1.3
			c-0.6-0.5-1.1-1-1.5-1.5c-0.5-0.6-1.1-1.2-1.7-1.9c-0.8-0.9-1.5-1.8-2.2-2.7c-0.7-0.9-1.3-1.6-1.8-2.3c-0.5-0.7-0.9-1.2-1.3-1.7
			c-0.3-0.5-0.5-0.7-0.5-0.8c-0.1-0.1-0.2-0.2-0.3-0.4c-0.1-0.1-0.2-0.3-0.3-0.4c-0.3-0.4-0.5-0.9-0.6-1.4c-1-1.7-1.7-3.6-2.3-5.8
			c-0.6-2.2-1-4.4-1.2-6.7v-4.2l0.1-1.4c0-0.4,0.1-0.9,0.1-1.5c0-0.6,0.1-1.2,0.1-1.9c0.1-2.4,0.2-4.2,0.2-5.5
			c0-1.3,0.1-2.4,0.3-3.3c0.1-0.9,0.4-1.7,0.6-2.4c0.3-0.7,0.7-1.7,1.2-2.8c0.4-1.2,0.8-2.3,1.3-3.4c0.5-1.1,0.8-1.9,0.9-2.4
			c0.2-0.3,0.4-0.8,0.7-1.3c0.3-0.5,0.4-0.9,0.4-1c0.2-0.3,0.8-0.7,1.8-1s1.9-0.5,2.8-0.4c0.4,0.2,1.1,0.4,1.9,0.4
			c0.8,0,1.6,0.1,2.4,0.3c1,0.1,1.9,0.3,2.8,0.5c0.9,0.2,1.6,0.5,2.1,0.8c0.2,0.1,0.4,0.2,0.6,0.3c0.2,0.1,0.5,0.1,0.6,0.2
			c0.3,0.1,0.5,0.1,0.6,0.1c0.2,0,0.4-0.3,0.4-1c0-0.7,0-1.6,0-2.7c0.1-2.2,0.2-3.8,0.3-5c0.1-1.2,0.3-2.1,0.5-2.8
			c0.2-0.7,0.5-1.3,0.9-1.8c0.4-0.5,1-1.1,1.7-1.8c0.2-0.4,0.4-0.7,0.6-0.8s0.2-0.3,0.2-0.5c0-1.1,0.4-1.3,1.2-0.6
			c0.9,0.7,1.1,0.7,0.7,0l0.3-0.1c0.1,0,0.3-0.1,0.5-0.1c0.2,0,0.5-0.1,0.8-0.1H75.4z M75.2,69.9c-0.1,0-0.2,0-0.3,0.1
			c-0.1,0-0.3,0.1-0.4,0.1c-0.1,0-0.2,0.1-0.3,0.1l-3.4,0.3l-0.2,0.6c-0.1,0.2-0.2,0.4-0.3,0.7c-0.1,0.3-0.2,0.5-0.3,0.8
			c-0.2,0.5-0.5,1.1-0.8,1.8c-0.3,0.7-0.6,1.4-0.8,2.1c-0.4,0.4-0.7,0.9-0.9,1.4c-0.2,0.5-0.3,0.9-0.3,1.1L67,80l-0.7,2.3
			c-0.6,1.5-1,3-1.4,4.4c-0.3,1.4-0.6,2.7-0.7,4c-0.1,1.3-0.2,2.7-0.1,4c0.1,1.3,0.3,2.8,0.6,4.2c0.2,0.6,0.5,1.3,0.8,1.9
			c0.3,0.7,0.4,1.2,0.4,1.6c0.3,0.6,0.8,1.3,1.6,2.3c0.8,1,1.6,1.9,2.6,2.8c0.9,0.9,1.8,1.8,2.6,2.4c0.8,0.7,1.3,1,1.6,1
			c0.4,0,1-0.4,1.7-1.2c0.7-0.8,1.4-1.7,2.1-2.8c0.7-1.1,1.3-2.3,1.9-3.6c0.6-1.3,1-2.4,1.3-3.3c0.2-1,0.5-1.8,0.8-2.6
			c0.3-0.7,0.4-1.2,0.4-1.4c0.2-0.3,0.4-0.9,0.7-1.5c0.3-0.7,0.5-1.5,0.8-2.3s0.6-1.8,0.9-2.7c0.3-0.9,0.5-1.8,0.7-2.5
			c0.2-0.8,0.4-1.7,0.5-2.7c0.2-1,0.3-1.8,0.5-2.5c0.4-1.3,0.7-2.2,0.7-2.8c0-0.6-0.1-0.8-0.3-0.8c-0.2,0-0.6-0.2-1.2-0.5
			c-0.6-0.3-1.2-0.7-1.8-1.2c-0.6-0.4-1.2-0.8-1.7-1.2c-0.5-0.4-0.7-0.6-0.7-0.7c0-0.2-0.1-0.3-0.3-0.3c-0.2,0-0.3,0-0.5,0
			c-0.2,0.2-0.3,0.2-0.3,0.1c0-0.1,0-0.2,0-0.3c0.2-0.2,0.3-0.4,0.3-0.4c0,0-0.1,0-0.3,0c-0.2,0.2-0.6,0.2-1.2-0.1
			c-0.6-0.2-0.9-0.6-0.9-0.9c0-0.1-0.1-0.2-0.2-0.2H78c-0.2,0-0.3,0-0.3,0.1c0,0,0,0.1,0,0.1c0,0.5-0.1,0.7-0.4,0.5
			C77.1,73,77,72.8,77,72.6c0-0.3,0-0.6,0-0.8c0-0.2-0.2-0.1-0.4,0.1c-0.4,0-0.6-0.1-0.7-0.3c-0.1-0.2-0.2-0.4-0.5-0.7
			C75.4,70.2,75.3,69.9,75.2,69.9z M106.8,73.2c-0.2,0-0.2-0.1-0.1-0.1c0.1,0,0.2,0,0.3,0L106.8,73.2z M106.9,73.1L106.9,73.1
			L106.9,73.1z"/>
	</g>
	<g id="XMLID_1_">
		<path id="XMLID_37_" class="title-code" d="M191.3,44.7c0.3,0,0.7,0.1,1,0.2c0.3,0.1,0.7,0.3,1,0.4c0.2,0.1,0.5,0.3,0.8,0.4
			c0.4,0.1,0.6,0.2,0.8,0.2c0.1,0,0.4,0.1,0.6,0.2c0.3,0.1,0.6,0.3,0.9,0.5c0.3,0.1,0.7,0.2,1.1,0.3c0.4,0.1,0.7,0.2,0.9,0.2
			c0.1,0,0.4,0.1,0.7,0.2c0.3,0.1,0.7,0.3,1,0.5c0.1,0,0.3,0,0.6,0.1c0.3,0.1,0.5,0.1,0.7,0.1c0.1,0,0.4,0.1,0.6,0.3
			c0.3,0.2,0.6,0.4,0.9,0.6c0.3,0.2,0.5,0.5,0.8,0.8c0.2,0.3,0.3,0.5,0.3,0.6c0,0.2-0.1,0.3-0.2,0.4c-0.1,0-0.3,0.1-0.4,0.2
			c-0.2,0-0.3,0.1-0.2,0.3c0.1,0.2,0.4,0.6,1.1,1.3l0.9,1.3c0.1,0.1,0.3,0.4,0.5,0.6c0.1,0,0.2,0,0.2-0.1c0.1,0,0.3-0.1,0.4-0.3
			c0.1-0.4,0.3-0.6,0.3-0.6c0.1,0,0.3,0.2,0.6,0.6c0.5,0.5,0.9,1.2,1.1,2.2c0.2,1,0.2,1.8,0,2.4c0,0.3-0.2,0.6-0.4,0.7
			c-0.3,0.2-0.5,0.3-0.5,0.4c0,0.1,0,0.4,0.2,0.9c0.3,0.3,0.5,0.6,0.5,0.6c0,0.1-0.2,0.3-0.5,0.6c-0.2,0.1-0.5,0.5-0.6,1.2
			c-0.1,0.3-0.2,0.6-0.3,0.9c-0.1,0.3-0.2,0.6-0.3,0.9l-0.2,0.9c0,0.2,0,0.4,0,0.5s-0.1,0.3-0.3,0.5c-0.2,0.2-0.4,0.3-0.6,0.3
			c-0.2,0-0.5-0.2-0.9-0.5c-0.1-0.4-0.2-0.6-0.3-0.7c0-0.1,0-0.2,0-0.3c0,0,0.1,0,0.2-0.1c0-0.1,0-0.2,0.1-0.2c0,0,0-0.1,0-0.3
			c0-0.1,0-0.3,0.1-0.5l0.1-1.2c0-0.2,0-0.6,0.1-0.9c0-0.1,0.1-0.2,0.1-0.4c-0.3,0.3-0.6,0.1-1.1-0.6c-0.1-0.1-0.2-0.3-0.3-0.5
			c-0.1-0.2-0.2-0.4-0.3-0.6c-0.1-0.3-0.2-0.6-0.2-0.9c0-0.3-0.1-0.5-0.1-0.8c-0.5-1.8-0.8-3-0.8-3.7c-0.1-0.7-0.1-1.2-0.1-1.4
			c0-0.1-0.1-0.1-0.2-0.1c-0.1,0-0.3,0-0.4,0.1l-0.2,0.5c-0.1,0.5-0.1,0.8-0.1,1.1c0,0.7,0,1.1-0.1,1.4c-0.1,0.2-0.3,0.6-0.8,0.9
			c-0.2,0.2-0.4,0.4-0.7,0.6c-0.3,0.2-0.5,0.3-0.7,0.3c-0.1,0-0.4,0.1-0.7,0.4c-0.3,0.2-0.7,0.5-1,0.9c-0.4,0.3-0.7,0.7-1,1
			c-0.3,0.4-0.6,0.7-0.7,0.9l-4,5.3c-0.6,0.7-1.2,1.5-1.8,2.3c-0.6,0.8-1.2,1.7-1.7,2.4c-0.5,0.8-1,1.5-1.4,2.2
			c-0.4,0.7-0.8,1.3-1,1.7c-0.2,0.4-0.4,0.9-0.5,1.3c-0.1,0.4-0.3,0.7-0.5,0.9c-0.5,0.7-0.6,1.1-0.3,1.2c0.3,0.1,1.2,0.2,2.9,0.1
			c1.5,0,2.8-0.1,3.9-0.4c1.1-0.3,2.1-0.8,3.2-1.5c0.5-0.4,1.1-0.8,1.6-1.3c0.5-0.5,1.1-1,1.7-1.7c0.2-0.2,0.5-0.5,0.7-0.8
			c0.2-0.3,0.5-0.6,0.8-1c0.4-0.4,0.7-0.8,1-1c0.3-0.2,0.5-0.3,0.7-0.2h0.2c0.1,0,0.3-0.1,0.4-0.2c0-0.2,0.1-0.3,0.2-0.3
			s0.3,0.1,0.4,0.3c0,0.1,0.2,0.1,0.4-0.1c0.2-0.2,0.4-0.4,0.6-0.8c0.2-0.3,0.4-0.7,0.7-1c0.2-0.4,0.4-0.7,0.6-1
			c0.1-0.4,0.3-0.7,0.4-0.7c0.1,0,0.2,0,0.2,0.1c0.1,0.3,0.2,0.5,0.3,0.5c0,0,0.2-0.1,0.4-0.3c0.1-0.1,0.2-0.2,0.3-0.2
			c0,0,0,0.2,0,0.5c0,0.2-0.1,0.6-0.4,1.1s-0.5,1-0.8,1.5c-0.3,0.5-0.6,1-0.9,1.4c-0.3,0.4-0.5,0.6-0.5,0.6c-0.1,0-0.4,0.2-0.6,0.6
			c-0.3,0.4-0.6,1-0.9,1.6c-0.2,0.5-0.5,0.9-0.8,1.2c-0.3,0.3-0.5,0.7-0.8,1c-0.7,0.8-1.4,1.5-2.1,2s-1.6,1-2.7,1.4
			c-0.4,0.1-0.9,0.2-1.4,0.4c-0.6,0.1-1.2,0.3-1.8,0.4c-1.1,0.2-2.2,0.3-3.4,0.4c-1.2,0.1-2.1,0-3-0.2c-1.4-0.3-2.3-0.3-2.6,0
			c0,0-0.1,0.4-0.1,1.2c0,0.7-0.1,1.6-0.1,2.6c0,1,0,2.1,0,3.1c0,1.1,0.1,2,0.2,2.6c0.2,1.1,0.4,1.9,0.5,2.3
			c0.2,0.4,0.4,0.7,0.8,0.8c0.2,0,0.3,0.2,0.5,0.6c0.1,0.4,0.2,0.9,0.2,1.5c0,0.2,0.1,0.5,0.3,0.9c0.2,0.4,0.4,0.8,0.8,1
			c0.1,0.4,0.3,0.7,0.3,0.7c0.1,0,0,0-0.3-0.1c-0.3-0.3-0.5-0.4-0.5-0.3c0,0.2,0.2,0.6,0.5,1.2c0.3,0.2,0.5,0.4,0.6,0.6
			c0.1,0.1,0.5,0.1,1-0.1c0.3,0,0.7,0,1,0c0.3,0,0.6,0.1,1,0.3c0.3,0.4,0.8,0.6,1.3,0.6c0.6,0,1.3,0.1,2.3,0.1
			c1.6,0,2.7,0.1,3.1,0.2c0.5,0.1,0.6,0.5,0.4,1c0,0.3-0.3,0.5-0.9,0.7c-0.6,0.2-1.1,0-1.6-0.4c-0.3-0.3-1-0.6-2-0.8
			c-1-0.2-2-0.3-3-0.3c-0.8,0-1.3,0-1.4,0.1c-0.1,0.1,0,0.4,0.4,0.9c0.1,0.2,0.3,0.6,0.5,0.9c0.2,0.4,0.3,0.7,0.4,1
			c0.1,0.3,0.1,0.6,0.1,0.7c0,0.2-0.1,0.2-0.3,0c-0.1,0-0.3,0-0.4-0.1l-0.6-0.1c-0.3,0-0.6,0-0.8-0.1c-0.2-0.1-0.3-0.5-0.3-1.1
			c0-0.7-0.2-1.4-0.6-2.1c-0.4-0.7-0.8-1.1-1.4-1.1c0,0.1,0,0.2,0.1,0.2c0,0.1,0.1,0.2,0.1,0.2c0,0,0.1,0.1,0.1,0.1
			c0.3,0.3,0.3,0.6,0,1c-0.1,0.1-0.1,0.4,0,0.8c0.1,0.4,0.2,0.7,0.4,1.2c0.2,0.4,0.4,0.8,0.6,1c0.2,0.3,0.4,0.4,0.6,0.4
			c0.2,0,0.4,0,0.4,0c0,0,0,0.1,0,0.3c0,0.2,0.2,0.3,0.5,0.3c0.3,0,0.6-0.1,0.8-0.3v0.4c0,0.3,0,0.5,0.1,0.8c0,0.2,0.2,0.5,0.6,0.8
			c0.1,0.1,0.3,0.2,0.6,0.3c0.3,0.1,0.5,0.1,0.7-0.1c0.2,0,0.2-0.1,0-0.2c-0.3,0-0.5-0.2-0.5-0.6c0-0.4,0-0.6,0.2-0.6
			c0.1-0.1,0.3-0.1,0.5,0s0.4,0.3,0.6,0.5c0.2,0.2,0.4,0.4,0.6,0.7c0.2,0.2,0.3,0.4,0.3,0.6c0,0.4,0.6,0.9,1.9,1.5
			c1.3,0.5,2.7,1,4.4,1.4c0.9,0,1.7-0.1,2.6-0.3c0.9-0.2,1.5-0.5,2-0.9c0.4-0.3,1-0.9,1.8-1.5c0.7-0.7,1.5-1.4,2.3-2.2
			c0.8-0.8,1.5-1.5,2.2-2.2c0.6-0.7,1.1-1.2,1.3-1.5c1.4-1.8,2.7-3.4,3.8-4.9c1.1-1.5,2.1-2.8,2.9-4.1c0.8-1.2,1.5-2.4,2.1-3.4
			c0.6-1,1-2,1.5-2.9c0.3-0.9,0.8-1.8,1.3-2.9c0.5-1.1,1-2.1,1.5-3.1s1-1.9,1.4-2.6c0.5-0.7,0.8-1.2,1-1.3c0.5-0.3,0.8-0.4,0.9-0.4
			s0,0.4-0.2,1c-0.3,0.7-0.6,1.2-0.9,1.6c-0.2,0.2-0.3,0.3-0.5,0.5c-0.1,0.1-0.2,0.3-0.2,0.4v0.4c-0.1,0.1-0.3,0.5-0.6,1.2
			c-0.3,0.7-0.7,1.5-1.2,2.4c-0.4,0.9-0.9,1.8-1.3,2.8c-0.4,0.9-0.7,1.7-1,2.3c-0.1,0.3-0.3,0.8-0.6,1.5c-0.3,0.7-0.7,1.5-1.1,2.3
			c-0.4,0.8-0.8,1.5-1.2,2.3c-0.4,0.7-0.8,1.2-1,1.5c-0.1,0.3-0.3,0.6-0.5,0.9c-0.2,0.3-0.3,0.5-0.5,0.7c-0.7,1.1-1.5,2.4-2.6,4
			c-1.1,1.6-2.2,3.1-3.4,4.7c-0.7,1-1.3,2-1.9,3c-0.6,1.1-1,1.8-1.4,2.2c-0.5,1-1.2,1.9-2.1,2.7c-0.9,0.9-2,1.7-3.1,2.5
			c-0.4,0.3-0.7,0.5-1,0.8c-0.3,0.2-0.7,0.4-1,0.5c-0.4,0.1-0.8,0.2-1.3,0.3c-0.5,0.1-1.1,0.2-1.9,0.3c-1.4,0.3-2.6,0.4-3.3,0.5
			c-0.8,0-1.8-0.1-2.9-0.3c-1.7-0.1-3.3-0.5-5-1.2c-1.6-0.7-3-1.6-4.2-2.7c-0.5-0.4-1-0.7-1.4-1c-0.4-0.3-0.7-0.4-0.9-0.4
			c-0.3,0-0.6-0.1-0.7-0.3c-0.1-0.2-0.1-0.4,0-0.6c0.2,0,0.2-0.3,0-0.8c-0.2-0.5-0.4-1.1-0.8-1.7c-0.3-0.6-0.7-1.3-1.2-1.9
			c-0.5-0.6-0.9-1.1-1.3-1.4c-0.9-0.8-1.4-1.2-1.5-1.1c-0.2,0.1,0.1,0.5,0.8,1.1c0.5,0.6,0.9,1.2,1.2,1.8s0.4,0.9,0.2,0.9
			c-0.1,0-0.5-0.3-0.9-0.9c-0.5-0.6-1-1.2-1.5-2c-0.6-0.8-1.1-1.5-1.5-2.3c-0.5-0.7-0.8-1.3-0.9-1.5c0-0.5-0.1-1-0.2-1.4
			c-0.1-0.4-0.3-0.8-0.4-1.2c-0.2-0.5-0.3-0.9-0.5-1.2s-0.2-0.5-0.2-0.6c0-0.4,0-0.7,0-0.8c0-0.2-0.1-0.4-0.3-0.8
			c-0.5-0.6-1-1.8-1.4-3.6c-0.4-1.8-0.7-3.7-0.9-5.9s-0.3-4.4-0.3-6.7c0-2.2,0.2-4.1,0.5-5.7c0.3-2.2,0.8-4.2,1.3-6.1
			c0.6-1.9,1.3-3.7,2.2-5.4c0.9-1.7,2-3.5,3.3-5.2s2.9-3.6,4.7-5.7c1.7-1.8,3.2-3.3,4.6-4.4c1.4-1.1,2.9-2.1,4.6-3
			c0.8-0.6,1.5-1,2-1.3C190.2,44.8,190.7,44.7,191.3,44.7z"/>
	</g>
	<g id="XMLID_16_">
		<path id="XMLID_46_" class="title-code" d="M146.7,0c1.1,0,2.2,0.6,3.5,1.9c0.5,0.3,0.9,0.5,1.2,0.6c0.2,0.1,0.2,0-0.1-0.3
			c0-0.6,0.7-0.7,2.1-0.3c1.3,0,2.5,0.3,3.6,0.9c1.1,0.6,2.1,1.3,2.9,2.3c0.8,0.9,1.3,1.5,1.5,1.8c0.2,0.4,0,0.7-0.5,0.9
			c-0.3,0.1-0.6,0-1-0.2c-0.4-0.2-0.6-0.5-0.6-0.8c0-0.2-0.2-0.4-0.5-0.6c-0.3-0.2-0.8-0.6-1.3-1.1c-0.7-0.8-1.3-1.3-1.7-1.5
			c-0.4-0.3-0.8-0.4-1.3-0.4c-1.4,0-1.8,0.4-1.2,1.1c0.6,0.4,1,0.7,1.4,0.9c0.3,0.2,0.7,0.2,1,0c0.5-0.1,1.1,0,1.9,0.5
			c0.8,0.5,1.3,1.1,1.7,1.8c0.1,0.5,0.3,1,0.6,1.4c0.3,0.5,0.6,0.9,0.9,1.2l0.7,1l-0.1-1c-0.2-0.5-0.3-0.8-0.3-0.9
			c0,0,0.2,0,0.5,0.3c0.4,0.3,0.6,0.5,0.6,0.6c0,0.1,0,0.3-0.1,0.6c-0.3,0.3-0.5,0.5-0.5,0.7c0,0-0.1,0.1-0.1,0.2
			c0.5,0.4,0.7,0.4,0.6,0c0-0.2,0-0.3,0.1-0.5c0-0.1,0.1-0.3,0.1-0.5c0.3,0,0.6,0.3,0.7,0.9c0.1,0.6,0,1-0.4,1.3
			c-0.1,0.4-0.2,0.6-0.2,0.7c0,0.1,0.1,0.2,0.2,0.3c0.2,0.2,0.3,0.4,0.5,0.5c0.1,0.1,0.1,0.3-0.1,0.4c-0.2,0.1-0.3,0.4-0.3,0.8
			c0,0.4,0,0.7,0,1c0.1,0.7,0.2,1.3,0.2,1.7c0,0.4,0,0.6,0.1,0.8c0,0.1,0.1,0.2,0.1,0.1c0,0,0.2-0.1,0.4-0.3v-1.3v-0.1
			c0.2-0.1,0.4,0.3,0.5,1.2c0.1,0.9,0.1,2,0,3.3c0,0.8-0.1,1.7-0.1,2.8c0,1.1,0,2.1,0,3.1s0,1.9,0,2.6c0,0.7,0.1,1.2,0.1,1.3
			c0,0.1,0,0.3-0.1,0.4s-0.2,0.3-0.4,0.4c-0.4,0.1-0.6,0.2-0.6,0.2c0,0,0.2,0.2,0.6,0.4c0.2,0.2,0.4,0.5,0.4,0.7
			c0,0.2-0.1,0.3-0.4,0.3c-0.2-0.2-0.4-0.3-0.5-0.2c-0.1,0.1-0.2,0.2-0.2,0.3c0,0.3,0,0.6,0,0.8c0,0.2-0.1,0.6-0.3,1.3
			c-0.1,0.1-0.2,0.3-0.4,0.8c-0.1,0.4-0.1,0.7,0.2,0.8c0,0.3,0,0.5-0.1,0.8c-0.1,0.2-0.4,0.4-1,0.7c-0.1,0.3-0.3,0.7-0.5,1
			c-0.3,0.3-0.4,0.6-0.4,0.9c-0.2,1.8-0.7,3.5-1.4,5.3c-0.2,0.5-0.4,1-0.6,1.6c-0.2,0.6-0.3,1-0.3,1.3s0,0.7-0.1,1.2l-0.1,0.4
			c-0.3,0-0.4,0.2-0.4,0.6v1.2c-0.2,0.1-0.4,0.5-0.6,0.9c-0.2,0.5-0.3,1-0.4,1.7c-0.1,0.5-0.3,1-0.4,1.5c-0.1,0.5-0.3,0.8-0.5,0.9
			l-0.2,0.6c-0.1,0.2-0.2,0.4-0.2,0.7c0,0.3-0.1,0.5-0.2,0.8c-0.4,0.7-0.7,1.3-0.9,1.9c-0.2,0.6-0.4,1.1-0.6,1.5
			c-0.6,1-1.1,1.8-1.5,2.5c-0.4,0.6-0.6,1.2-0.8,1.7c-0.2,0.5-0.3,1-0.3,1.5c0,0.5,0,1.1,0.1,1.7c0,0.8,0,2,0.1,3.5
			c0.1,1.5,0.1,3.1,0.1,4.6c0.2,1.6,0.3,3.1,0.4,4.4c0.1,1.4,0.1,2.3,0.1,2.9c0.6,1.3,0.6,2.1,0,2.3v1.8c0,0.8,0,1.4,0,1.7
			c0,0.3,0,0.5-0.1,0.6c-0.1,0.2-0.3,0.6-0.4,1.3c-0.1,0.6-0.3,1.3-0.4,2.1c-0.1,0.7-0.2,1.4-0.2,1.9c0,0.6,0,0.9,0.2,0.9
			c0.1,0.2,0.2,0.5,0.3,0.8c0,0.3,0,0.5,0,0.7v0.7l-0.3-0.7c-0.3-0.5-0.4-0.8-0.5-0.8c-0.1,0-0.1,0.1-0.2,0.5v2.7c0,0.7,0,1.2,0,1.6
			c0,0.4-0.1,0.5-0.3,0.4c0-0.3,0-0.3-0.1,0c0,0.2,0,0.6,0.1,1.2c0.1,0.6,0.3,0.9,0.5,1c0,0.2,0.1,0.3,0.2,0.3c0.1,0,0.1,0-0.2,0
			c0,0.1,0,0.4,0.1,0.7c0.1,0.3,0.2,0.6,0.3,0.9c0.1,0.3,0.2,0.6,0.3,0.9c0.1,0.3,0.2,0.4,0.3,0.5c0.2,0.1,0.4,0.3,0.5,0.5
			c0.1,0.2,0.4,0.4,0.7,0.6c0,0.4,0.1,0.6,0.2,0.6c0.1,0,0.4,0.1,0.8,0.1c0.1,0,0.2,0,0.2,0c0,0.2,0,0.5,0,0.6
			c0,0.2,0.1,0.4,0.1,0.6l0.2,0.7c0.1,0,0.2,0,0.3,0c0.1,0,0.4,0,0.7,0.1c0.3,0.2,0.4,0.4,0.4,0.4c0,0,0-0.1-0.2-0.4
			c-0.4-0.6-0.3-0.9,0.3-0.9c0,0.1,0.2,0.2,0.4,0.4c0.3,0.4,0.5,0.7,0.6,0.9c0.3,0.5,0.6,0.8,0.7,0.9c0.1,0.1,0.1,0.4-0.1,0.8
			c-0.2,0.4-0.4,0.6-0.4,0.8c0,0.1,0.1,0.3,0.4,0.6c0.2,0.1,0.3,0.2,0.3,0.2s-0.1,0.2-0.3,0.4c-0.2,0-0.3,0.1-0.3,0.3
			c0,0.2,0.3,0.4,0.7,0.8c0.2,0.3,0.5,0.6,0.8,0.6c0.3,0.1,0.6,0,0.8-0.4c0-0.1,0.1-0.2,0.4-0.4c0.2-0.2,0.4-0.3,0.5-0.3
			c0.2-0.1,0.4-0.2,0.6-0.4c0.2-0.2,0.5-0.5,0.8-0.8c0.2-0.3,0.5-0.6,0.8-1c0.3-0.4,0.4-0.7,0.5-0.8c0.2-0.3,0.7-0.9,1.3-1.9
			c0.6-1,1.2-2.1,1.9-3.2c0.6-1.2,1.2-2.2,1.7-3.2c0.5-1,0.7-1.6,0.7-1.8c0-0.2,0-0.5,0.1-0.8c0-0.3,0.3-0.6,0.6-0.9
			c0.5-1.2,1.1-2.3,1.6-3.5c0.5-1.2,1-2.3,1.4-3.3c0.4-1,0.8-1.9,1.1-2.7c0.3-0.8,0.5-1.4,0.6-1.9c0.1-0.5,0.4-1.3,0.6-2.3
			c0.3-1,0.6-2.2,1-3.6c0.4-1.4,0.9-2.9,1.4-4.5c0.5-1.6,1-3.3,1.6-4.9c0.9-3,1.8-4.5,2.5-4.5c0.2,0,0,0.7-0.6,2.2
			c0,0.9-0.2,1.4-0.5,1.4l-0.1,0.1c0,0-0.1,0.3-0.1,0.8c0,0.1,0,0.3,0,0.7c0,0.4-0.1,0.7-0.3,1.1c-0.5,1-0.9,2.2-1.2,3.5
			c-0.3,1.3-0.5,2.9-0.5,4.7c0,1.1,0,1.9-0.1,2.4c-0.1,0.6-0.2,0.9-0.4,1.2c-0.1,0.2-0.2,0.5-0.4,0.9c-0.2,0.3-0.3,0.6-0.3,0.9
			c0,0.3,0,0.6-0.1,0.9c-0.1,0.3-0.1,0.5-0.1,0.8c0,0.4-0.2,0.6-0.5,0.6l-0.2-0.4c-0.1-0.3,0-0.8,0.2-1.3v-1.7l-0.7,1.2
			c-0.2,0.4-0.3,0.8-0.4,1.2s-0.1,0.6-0.2,0.8c0,0.3,0,0.7-0.1,1.1s-0.2,0.9-0.5,1.4c-0.2,0.2-0.3,0.7-0.5,1.4
			c-0.1,0.7-0.2,1.4-0.3,2c0,1-0.3,1.8-0.8,2.6c-0.5,0.8-1.2,1.6-2.1,2.4c-0.1,0.4-0.3,0.8-0.6,1.4c-0.3,0.5-0.6,1.1-0.8,1.8
			c-0.1,0.5-0.4,1.2-0.8,2.1c-0.4,0.8-0.6,1.5-0.8,2c-0.1,0.2-0.2,0.6-0.3,1.1c-0.1,0.5-0.1,0.8-0.1,0.9c0,0.2-0.1,0.5-0.3,0.8
			s-0.3,0.5-0.4,0.6c-0.1,0.2-0.3,0.5-0.5,0.7c-0.2,0.2-0.4,0.5-0.6,0.9s-0.5,0.8-0.8,1.4c-0.3,0.6-0.7,1.4-1,2.3
			c-0.8,2-1.6,3.5-2.5,4.4s-2,1.5-3.3,1.8c-0.4,0.1-0.8,0.3-1.1,0.4c-0.3,0.1-0.6,0.2-0.9,0.2c-0.3,0-0.7,0-1.1,0
			c-0.4,0-1-0.1-1.6-0.2c-0.6,0-1-0.1-1.4-0.1c-0.3,0-0.6-0.1-0.9-0.3c-0.3-0.1-0.5-0.3-0.7-0.5c-0.2-0.2-0.5-0.4-0.8-0.7
			c-1.2-1.1-2.2-2-2.9-2.7c-0.7-0.7-1.1-1.2-1.1-1.3c-0.1-0.1-0.2-0.2-0.3-0.4c-0.1-0.1-0.2-0.3-0.3-0.4c-0.1-0.2-0.3-0.5-0.5-0.8
			c-0.2-0.3-0.4-0.5-0.6-0.8c-0.2-0.3-0.5-0.7-0.7-1c-0.2-0.3-0.4-0.6-0.6-0.9l-0.6-0.9c0-0.1-0.1-0.3-0.2-0.6
			c-0.1-0.3-0.2-0.6-0.3-0.8c-0.5-0.6-1.1-1.5-1.6-2.7c-0.6-1.2-1.1-2.5-1.6-3.9c-0.5-1.4-1-2.9-1.4-4.5c-0.4-1.6-0.7-3-1-4.4
			c-0.2-1.6-0.4-2.6-0.5-3.1c-0.2-0.5-0.3-0.8-0.5-0.8c0,0-0.1,0.1-0.1,0.2c0,0-0.1,0.2-0.1,0.5c0,0,0,0.1-0.1,0.1
			c-0.2,0-0.4,0-0.5-0.1c-0.1,0-0.2,0.1-0.4,0.3c-0.2,0.2-0.4,0.5-0.6,0.8c-0.8,1.1-1.1,1.7-0.7,1.7c0.2,0.1,0.1,0.4-0.3,1
			c-0.4,0.6-0.8,1.2-1.3,1.9c-0.5,0.7-1.1,1.3-1.6,1.9c-0.6,0.6-0.9,0.9-1.1,0.9c-0.2,0-0.3,0.1-0.3,0.3c0,0.2,0,0.4,0,0.5
			c0.2,0.2,0,0.6-0.4,1.1c-0.5,0.5-0.9,0.9-1.4,1.2c-0.3,0.1-0.6,0.3-1,0.7c-0.4,0.4-0.7,0.7-1.1,1c-0.1,0.4-0.5,1.1-1.3,2
			c-0.7,0.9-1.5,1.8-2.3,2.8c-1,1-1.8,1.7-2.5,2.2c-0.6,0.5-1.2,0.9-1.8,1.2c-0.5,0.2-1.1,0.4-1.7,0.4c-0.6,0-1.3-0.1-2.2-0.2
			c-0.9-0.2-1.8-0.5-2.6-0.9s-1.5-0.8-2.1-1.3c-0.6-0.5-1-0.9-1.3-1.4c-0.3-0.5-0.3-1-0.2-1.5c0-0.4,0-0.8-0.1-1
			c0-0.2-0.2-0.5-0.6-0.8c-0.1-0.2-0.2-0.4-0.3-0.5c-0.1-0.1-0.2-0.2-0.3-0.3l-0.3-0.2c-0.1,0-0.3,0-0.5-0.3
			c-0.2-0.2-0.4-0.5-0.6-0.8c-0.2-0.3-0.4-0.6-0.5-1s-0.2-0.7-0.2-0.9c0-0.3,0-0.6,0-0.9c0-0.3-0.1-0.4-0.3-0.5
			c-0.1-0.4-0.2-0.8-0.3-1.3c0-0.5,0-1,0-1.6c0-1.4-0.3-2.5-0.8-3.1l-0.5-1.4v0.6l-0.4,1l-0.2-0.6c-0.4-0.8-0.6-2.1-0.6-3.9
			c0-1.8,0.1-3.9,0.3-6.2c0.3-2.3,0.6-4.7,1.2-7.3c0.5-2.5,1.1-5,1.9-7.3c0.6-1.9,1.4-3.7,2.3-5.4c0.9-1.8,1.8-3.4,2.9-4.9
			c1-1.5,2.1-2.9,3.3-4.2c1.2-1.2,2.3-2.3,3.5-3.2c0.3-0.2,0.8-0.5,1.3-0.8c0.5-0.4,0.9-0.6,1.3-0.8c0.5-0.2,0.8-0.4,1.1-0.6
			c0.2-0.1,0.7-0.1,1.3,0.1c0.3,0,0.6,0,0.8,0.1c0.2,0,0.5,0.1,0.9,0.3c0.4,0.1,0.8,0.3,1.4,0.5c0.6,0.2,1.3,0.6,2.2,0.9
			c0.6,0.3,1.3,0.5,2,0.7c0.7,0.2,1.2,0.4,1.5,0.5c1,0.1,1.8,0.4,2.6,0.7c0.8,0.3,1.5,0.8,2.2,1.3c0,0.1,0.3,0.3,0.6,0.6l0.4,0.2
			c0-0.3,0-0.7,0-1c0-0.3,0-0.7,0.1-1c0-0.6,0.1-1.4,0.2-2.2c0.1-0.8,0.2-1.7,0.3-2.7c0-1.7,0-3.5,0.1-5.3c0-1.8,0.1-3.6,0.2-5.2
			c0.1-1.7,0.2-3.2,0.4-4.6c0.1-1.4,0.3-2.5,0.5-3.5c0.1-0.5,0.2-1.1,0.2-1.8c0-0.7,0-1.2,0-1.7c-0.1-1.6-0.1-3-0.1-4.3
			c0-1.3,0.2-2.7,0.5-4.4c0.6-3.5,1.3-6.5,2.1-9.1c0.8-2.6,2-4.9,3.4-7.1c0.1-0.4,0.3-0.7,0.5-0.9c0.2-0.2,0.3-0.4,0.3-0.6
			s0.1-0.4,0.4-0.6c0.2-0.3,0.5-0.6,0.7-0.9c0.4-0.3,0.8-0.7,1-1c0.2-0.3,0.3-0.6,0.3-0.7c0-0.2,0.3-0.3,0.9-0.3
			c0.2,0,0.4,0,0.6-0.1c0.2-0.1,0.3-0.3,0.4-0.8c0-0.1,0.1-0.3,0.4-0.5c0.3-0.2,0.4-0.3,0.5-0.3V0z M126.5,64.2
			c-0.3,0-0.7,0.2-1.2,0.5c-0.5,0.4-0.8,0.7-1,1.1c0,0.4-0.1,0.8-0.4,1.3c-0.3,0.5-0.5,0.8-0.6,1.1c-0.4,0.6-0.6,1.1-0.6,1.3
			s0.1,0.5,0.4,0.8c0.1,0.5,0.1,0.9,0.1,1.1c0,0.3-0.3,0.5-0.6,0.8c-0.5,0.6-1,0.9-1.4,0.9c-0.1,0-0.2,0-0.4,0
			c-0.1,0-0.2,0.1-0.2,0.3c0,0.2,0,0.4,0,0.4c0,0,0.1,0,0.3,0l0.1,0.1h0.1V74c0,0.2,0,0.4,0,0.4c0,0-0.1,0.1-0.2,0.1
			c-0.1,0-0.2,0-0.2,0c0,0-0.1,0-0.1,0c0,0-0.1,0.1-0.1,0.1c0,0.2,0,0.4-0.1,0.6c0,0.2-0.2,0.4-0.4,0.8c-0.2,0.1-0.5,0.5-0.9,1.2
			c-0.4,0.7-0.8,1.3-1.2,2c-0.7,0.9-1.1,1.6-1.3,2.1c-0.2,0.5-0.3,1.2-0.3,1.9c0,0.4,0,0.9,0,1.5c0,0.6-0.1,1-0.3,1.3
			c-0.4,1-0.8,2-1.2,3.1c-0.4,1.1-0.7,2.3-1,3.4c-0.3,1.1-0.6,2.2-0.8,3.2c-0.2,1-0.4,1.8-0.5,2.4c0,0.6,0,1.2,0,1.8
			c0,0.6,0.2,0.8,0.4,0.8c0,0,0.2,0.3,0.3,0.8c0.2,0.5,0.4,1,0.6,1.6c0.2,0.6,0.4,1.2,0.6,1.8c0.2,0.6,0.3,1.1,0.3,1.4
			c0,0.1,0,0.4,0,0.8c0,0.4,0.2,0.7,0.4,1v1.5c-0.2,0.2-0.5,0.1-0.7-0.4c-0.2-0.4-0.4-0.9-0.5-1.5c-0.5-0.8-0.9-1.2-1.2-1.2
			c-0.3,0-0.2,0.6,0.2,1.5c0.3,0.4,0.5,0.8,0.8,1.2c0.2,0.4,0.4,0.6,0.5,0.6v0.8c0,0.1-0.1,0.2-0.2,0.1c-0.1,0-0.4-0.3-0.9-0.7
			c-0.6-0.6-0.9-0.6-0.9-0.2c0,0.3,0.2,0.7,0.5,1.1c0.4,0.5,0.8,0.7,1.2,0.7c0.1,0,0.2,0.1,0.2,0.2c0,0.1,0.2,0.2,0.4,0.2
			c0,0.3,0,0.3,0.1,0c0.4-0.2,0.6-0.4,0.6-0.4c0,0,0,0-0.2,0c-0.4,0-0.6-0.2-0.6-0.7c0-0.2,0.2-0.3,0.6-0.3c0.1,0.1,0.2,0.2,0.3,0.2
			c0,0,0-0.2,0-0.4c0-0.4,0.1-0.6,0.3-0.6c0.4-0.2,0.6-0.2,0.6-0.1c0,0.1,0.1,0.2,0.1,0.3c-0.1,0.1-0.2,0.2-0.1,0.3
			c0,0,0.1,0.1,0.1,0.1c0.2-0.4,0.5-0.4,0.8,0c0.4,0.1,0.7,0.1,0.9,0c0.2-0.1,0.4-0.2,0.6-0.4c0.9-0.4,1.7-1,2.3-1.7
			c0.6-0.7,0.9-1.1,0.9-1.3c0-0.3,0.2-0.6,0.6-0.9c0.1,0,0.3-0.2,0.6-0.5c0.3-0.3,0.7-0.7,1-1.2c0.3-0.3,0.7-0.9,1.2-1.6
			c0.5-0.7,1-1.3,1.5-1.8c0.4-0.6,1-1.4,1.8-2.6c0.8-1.2,1.7-2.2,2.5-3.2l2.4-3.6v-6.1c0-1,0-1.8,0-2.6c0-0.8,0.1-1.5,0.1-2.2
			l0.1-2.1c0.1,0,0.1-0.2,0.1-0.6c0-0.4,0-0.9-0.1-1.4c0-0.6-0.1-1.1-0.2-1.7c-0.1-0.6-0.2-1.1-0.3-1.5c0-0.5,0-0.8-0.1-0.8
			c0,0-0.2,0.2-0.5,0.5v0.6c0,0-0.1,0-0.1-0.1c0,0,0-0.1,0-0.2c0-0.1,0-0.2,0-0.3c0-0.4-0.1-0.9-0.3-1.5c-0.2-0.6-0.3-1.2-0.3-1.9
			c0-0.6,0-1.1-0.1-1.7c-0.1-0.5-0.2-0.8-0.3-0.8l-0.6,0.4c0,0.9-0.6,1.5-1.7,1.8c-0.6,0-0.9-0.1-1-0.2c-0.1-0.1-0.3-0.6-0.4-1.4
			c-0.2-0.8-0.5-1.5-0.7-2.2c-0.2-0.7-0.4-1.2-0.6-1.5H126.5z M159.1,11.2c-0.1,0-0.3,0.2-0.5,0.6c-0.2,0.4-0.4,1.1-0.8,2.1
			c-0.3,1-0.7,2.5-1.2,4.3c-0.5,1.8-1.1,4.2-1.7,7.1c-0.3,1-0.6,1.9-0.9,2.9c-0.3,1-0.5,1.7-0.7,2.1c-0.4,1.5-0.9,3.2-1.3,5
			c-0.4,1.9-0.8,3.8-1.1,5.8c-0.3,2-0.6,4-0.9,5.9c-0.3,1.9-0.5,3.7-0.6,5.4V57v4.6l0.1,3.2l1.4-1.3c0.2-0.5,0.5-1.2,0.8-2.1
			c0.3-0.9,0.7-1.9,1-3.1s0.8-2.4,1.2-3.8c0.4-1.4,0.9-2.8,1.3-4.2c0.1-0.6,0.3-1.3,0.5-1.9c0.2-0.7,0.4-1.3,0.5-1.9
			c0.2-0.6,0.3-1.2,0.5-1.7s0.2-0.9,0.3-1.2c0.5-1.3,1-3.2,1.5-5.5s0.8-5.1,1.1-8.2c0.1-0.8,0.2-1.6,0.4-2.4
			c0.1-0.8,0.3-1.5,0.6-1.9c0-0.5,0.1-1.3,0.1-2.4c0-1.2,0.1-2.3,0.1-3.6s0.1-2.3,0-3.3c0-1-0.1-1.6-0.2-1.9
			c-0.1-0.1-0.2-0.4-0.4-0.6c-0.2-0.3-0.3-0.7-0.5-1.2c-0.1-0.2-0.2-0.5-0.4-0.8C159.4,11.3,159.2,11.2,159.1,11.2z"/>
	</g>
</g>
<g id="XMLID_88_">
	<g id="XMLID_17_">
		<path id="XMLID_20_" class="title-code" d="M22.3,145.1c0.4,0,0.6,0.2,0.6,0.6c0.2,0.3,0.4,0.5,0.4,0.5c0,0,0,0,0-0.2
			c0-0.2,0.2-0.4,0.7-0.4c0.1,0.2,0.3,0.2,0.6,0.1c0.3-0.1,0.6-0.3,0.8-0.5c0.7-0.3,1.7-0.4,3.2-0.2c1.5,0.1,3.3,0.6,5.7,1.2
			c1.3,0.4,2.4,0.8,3.2,1.1c0.8,0.4,1.5,0.8,2,1.4c0.5,0.6,1,1.3,1.4,2.2c0.4,0.9,0.8,2.1,1.4,3.7c0.2,0.8,0.4,1.4,0.6,1.9
			c0.2,0.5,0.3,0.9,0.4,1.2c0.1,0.3,0.1,0.6,0.1,0.9c0,0.2-0.2,0.5-0.4,0.8c-0.4,1.4-1.1,2.4-2.2,3.2c-1.1,0.7-2.2,0.8-3.3,0.3
			c-0.8-0.3-1.2-0.7-1.4-1.3c-0.2-0.6-0.2-1.7-0.1-3.4c0.1-0.4,0.2-0.8,0.2-1.2c0-0.3,0-0.6,0-0.9l-0.1-0.5
			c-0.1,0.2-0.2,0.7-0.2,1.6c0,0.3,0,0.6,0,1c0,0.4-0.1,0.7-0.3,0.9c-0.2,0.3-0.5,0.7-0.8,1.2c-0.4,0.4-0.8,0.9-1.2,1.3
			c-0.4,0.4-0.9,0.8-1.3,1.2c-0.4,0.4-0.8,0.6-1.2,0.8c-0.5,0.3-1.3,0.8-2.2,1.6s-1.8,1.6-2.7,2.4c-0.9,0.8-1.7,1.6-2.3,2.3
			c-0.7,0.7-1,1-1,1.1c0,0.3,0,0.6,0.1,0.8c0,0.2,0.3,0.4,0.6,0.5c0.4,0.3,0.6,0.6,0.6,0.7c0,0.1-0.1,0.4-0.3,0.9
			c-0.1,0.1-0.4,0.4-0.7,0.9c-0.3,0.4-0.6,0.9-0.9,1.3c-0.3,0.3-0.6,0.6-0.9,0.9c-0.3,0.3-0.4,0.5-0.4,0.6c0,0.1,0,0.3,0,0.5
			c0,0.2-0.1,0.4-0.3,0.5c-0.2,0.1-0.1,0.7,0.1,1.6c0.3,0.9,0.6,2,1.1,3.1c0.2,0.3,0.3,0.6,0.5,0.9c0.1,0.3,0.2,0.6,0.3,1
			c0.1,0.4,0.1,0.9,0.1,1.5c0,0.6,0,1.4-0.1,2.4c0,0.9,0.1,1.9,0.2,3.1c0.1,1.2,0.2,2.4,0.4,3.5c0.1,1.1,0.3,2.1,0.4,3
			c0.1,0.8,0.3,1.3,0.4,1.4l2.3-2c0.7-0.6,1.4-1.2,2.1-1.9c0.7-0.7,1.3-1.3,1.8-1.9c0.7-0.8,1.3-1.4,1.8-2c0.5-0.6,1-1.1,1.5-1.7
			s1-1.2,1.6-1.9c0.6-0.7,1.2-1.6,2-2.6c0.6-0.5,1-1,1.4-1.4c0.3-0.4,0.6-0.6,0.8-0.6c0.5,0,0.7-0.2,0.7-0.6c0-0.1,0-0.3,0-0.4
			c0-0.1,0.1-0.3,0.2-0.5c0.4-0.3,0.6-0.6,0.7-0.9c0-0.3,0.1-1,0.1-2c0-0.9,0.1-1.8,0.4-2.8c0.2-1,0.5-1.9,0.9-2.7
			c0.3-0.8,0.7-1.5,1.1-2.1c0.4-0.6,0.8-0.8,1.1-0.8c0,0,0.2,0,0.5-0.1l0.2-0.2c0.2-0.1,0.5-0.2,0.9-0.3c0.4,0,0.9,0,1.4,0
			c0.5,0.1,0.9,0.2,1.4,0.3c0.5,0.1,0.8,0.3,1,0.6c0.4,0.2,0.7,0.3,0.9,0.5c0.2,0.1,0.4,0.2,0.5,0.2l0.4,0.2
			c0.1,0.1,0.2,0.2,0.4,0.3c0.2,0.1,0.3,0.2,0.5,0.4c1,0.7,1.8,1.3,2.4,1.9c0.7,0.6,1.2,1.2,1.7,1.8c0.5,0.6,0.9,1.3,1.2,2.1
			c0.3,0.8,0.6,1.7,0.9,2.8c0.2,0.4,0.3,0.8,0.4,1.2c0.1,0.4,0.1,0.8,0.1,1.2c0,0.4,0,0.9-0.1,1.5c0,0.6-0.1,1.3-0.2,2.2
			c-0.1,1.1-0.1,2.3-0.1,3.5s0,2.4,0.1,3.5c0,1.1,0.1,2,0.2,2.8c0.1,0.7,0.2,1.1,0.3,1.2c0.1,0.1,0.3,0.2,0.5,0.1
			c0.2-0.1,0.5-0.2,0.9-0.4c0.4-0.1,0.8-0.4,1.2-0.8c0.4-0.4,0.8-0.6,1.2-0.8c0.9-0.6,1.5-1.2,1.9-1.6c0.2,0,0.5-0.1,0.8-0.3
			c0.3-0.2,0.5-0.4,0.6-0.7c0.3-0.3,0.7-0.6,1.2-0.9c0.5-0.3,0.7-0.7,0.8-1.3c0.2-0.3,0.5-0.6,0.9-1.1c0.4-0.4,0.8-0.8,1.2-1.1
			c0.3-0.3,0.6-0.6,0.9-0.9c0.3-0.2,0.6-0.5,0.9-0.9c0.3-0.3,0.7-0.7,1.1-1.2c0.4-0.5,1-1.1,1.7-1.9c0.9-1.1,1.8-2.5,2.8-4.1
			c1-1.6,2.1-3.5,3.3-5.7c0.9-1.4,1.5-2.4,1.9-3c0.4-0.6,0.6-0.5,0.5,0.1c-0.5,2-0.7,3.3-0.4,3.7c0.2,0.2,0.3,0.4,0.4,0.5
			c0,0,0.1,0.1,0.1,0.2c0,0-0.2,0-0.5-0.1l-0.2-0.2c0,0.3-0.3,0.8-1,1.7c-0.2,0.3-0.4,0.6-0.5,1c-0.1,0.4-0.2,0.8-0.2,1.2
			c0,0.3,0,0.5,0,0.7c0,0.2-0.1,0.4-0.3,0.6v0.6l-0.3,0.7c-0.1,0.5-0.4,1-0.7,1.4c-1.1,0.9-1.7,1.6-1.7,2.2l0.1-0.1
			c0,0,0.1-0.1,0.2-0.1c0.1,0,0.2-0.1,0.3-0.2c0,0.1,0,0.2-0.1,0.3c0,0.2-0.2,0.3-0.4,0.4v0.6v0.2c0,0.1-0.1,0.1-0.2,0.1l-0.5,0.4
			l-0.2,0.2c0,0.4-0.4,1-1.2,1.6c-0.5,0.4-0.8,0.8-1.1,1.2c-0.2,0.4-0.1,0.4,0.4,0.1c0,0,0.1,0.1,0.1,0.1c0,0,0,0.1-0.1,0.2
			l-0.2,0.1L75,192c-0.1,0-0.3,0.1-0.5,0.3c-0.3,0.2-0.5,0.4-0.8,0.7c-0.3,0.3-0.6,0.5-0.8,0.8c-0.2,0.2-0.4,0.4-0.4,0.4
			c0,0.2-0.1,0.3-0.2,0.3c-0.2,0-0.4,0.1-0.6,0.3c-0.1,0.2-0.3,0.4-0.6,0.7c-0.1,0.1-0.4,0.4-0.8,0.8c-0.4,0.4-0.8,0.6-1.2,0.8
			c-0.3,0.1-0.7,0.3-1.2,0.5c-0.5,0.2-1,0.5-1.4,0.8c-0.5,0.3-0.9,0.6-1.3,0.9c-0.4,0.3-0.6,0.5-0.8,0.6l-0.5,0.4
			c-0.1,0.1-0.3,0.2-0.5,0.4c-0.2,0.2-0.4,0.3-0.6,0.5c-1.4,0.9-2.4,1.7-2.9,2.3c-0.6,0.6-0.7,1.3-0.5,1.9c0,0.3,0,1.1,0,2.2
			c0,1.1-0.1,2.4-0.1,3.9c-0.1,1.5-0.1,3-0.2,4.6c0,1.6-0.1,3.1-0.2,4.5c-0.1,1.4-0.1,2.5-0.1,3.4c0,0.9,0,1.4,0,1.4
			c0,0.2,0,0.5,0,0.8c0,0.3,0.1,0.6,0.3,0.9c0.2,0.5,0.4,1,0.5,1.6c0.1,0.6,0.1,1.5,0,2.8c0,1-0.1,2.1-0.2,3.4s-0.2,2.5-0.2,3.4
			c-0.1,0.8-0.2,1.6-0.3,2.4c-0.1,0.8-0.1,1.4-0.2,2c-0.1,0.6-0.1,0.9-0.2,1.2c0,0.2-0.1,0.2-0.1-0.1l-0.2-0.2
			c-0.1,0-0.2-0.1-0.2-0.1c0,0-0.1-0.1-0.2-0.1c-0.1,0-0.3,0.1-0.4,0.3c-0.1,0.2-0.2,0.5-0.2,1c0,0.3,0.1,0.5,0.2,0.7
			c0.1,0.2,0.3,0.3,0.4,0.3v-0.6c0-0.4,0.1-0.6,0.4-0.6c0,0.1,0,0.2,0.1,0.3c0.1,0,0.1,0.2,0.1,0.4c0,0,0,0.1,0.1,0.1l0.4,0.4v0.4
			c-0.2,0-0.4,0.1-0.4,0.2c0,0.1,0,0.3,0,0.4c0.2,0.4,0.3,0.6,0.3,0.6c0,0-0.2-0.1-0.6-0.3c-0.3-0.3-0.6-0.4-0.7-0.3
			c-0.1,0.1,0,0.4,0.3,1c0.1,0.2,0.3,0.6,0.3,1c0.1,0.5,0.1,0.9,0.1,1.4c0,0.5-0.1,1-0.2,1.5c-0.1,0.5-0.3,0.9-0.5,1.3
			c-0.4,0.3-0.6,0.6-0.6,0.9c0,0.3-0.1,0.5-0.1,0.6v0.6c-0.1,0-0.2,0-0.2,0.1c0,0-0.1,0.1-0.1,0.1c0,0-0.1,0.1-0.1,0.1
			c0,0.1-0.1,0.4-0.2,0.6s-0.3,0.6-0.4,0.9c-0.2,0.1-0.4,0.4-0.5,0.8s-0.2,0.9-0.2,1.3c0,0.3-0.1,0.6-0.4,1.1
			c-0.3,0.4-0.4,0.8-0.5,1.1c-0.4,0.2-0.7,0.5-0.9,0.6l-0.3,0.4c0,0.2-0.1,0.5-0.2,0.8c-0.1,0.3-0.3,0.6-0.5,0.9
			c-0.2,0.3-0.4,0.6-0.7,0.8c-0.2,0.2-0.4,0.3-0.6,0.3c-0.2,0-0.4,0-0.4,0c0,0,0.1-0.2,0.4-0.4c0.1,0,0.3-0.2,0.4-0.4
			c0.1-0.2,0.2-0.5,0.2-0.7c0-0.2,0-0.5,0-0.7c0-0.2-0.1-0.3-0.2-0.3c-0.1,0-0.3,0.1-0.5,0.2c-0.2,0.1-0.4,0.3-0.5,0.4
			c-0.5,0.4-0.8,0.6-0.9,0.6c0,0,0.1,0.1,0.4,0.1c0.4,0,0.6,0.1,0.5,0.3c0,0.2-0.3,0.3-0.8,0.3l-0.7,0.3l0.7,0.4
			c0.5,0.1,0.7,0.2,0.6,0.3c0,0.1-0.4,0.4-1.1,0.9c-0.4,0-0.9,0.2-1.6,0.6c-0.7,0.4-1.3,0.9-1.8,1.4c-0.7,1-1.6,1.8-2.7,2.6
			c-1.1,0.8-2.2,1.5-3.5,2.1c-1.2,0.5-2.3,0.6-3,0.5c-0.8-0.1-1.2-0.6-1.2-1.4v-0.6l-3.1,0.3c-1.4,0-2.2,0-2.5-0.1s-0.5-0.2-0.6-0.6
			c0-0.2-0.1-0.4-0.3-0.6s-0.3-0.3-0.4-0.3c-0.2,0-0.5-0.2-1-0.5c-0.5-0.3-0.9-0.6-1.4-1c-0.5-0.4-0.9-0.7-1.2-1s-0.5-0.5-0.5-0.6
			c0-0.2,0-0.4-0.1-0.6c0-0.2-0.3-0.5-0.6-0.9c-0.4-0.8-0.7-1.6-1-2.6c-0.3-0.9-0.4-2-0.5-3.2c-0.1-1.2-0.1-2.7-0.1-4.3
			c0-1.7,0.1-3.6,0.3-5.9c0.1-1.2,0.3-2.3,0.4-3.1c0.1-0.8,0.2-1.5,0.4-2.2c0.1-0.6,0.3-1.2,0.5-1.8c0.2-0.6,0.5-1.2,0.9-2
			c0.3-1.1,0.7-2.1,1.1-3.1c0.4-1,0.7-1.6,0.9-1.9c0.3-0.4,0.7-0.9,1-1.4c0.3-0.6,0.6-1.1,0.9-1.6c0.2-0.5,0.4-1,0.6-1.4
			c0.2-0.4,0.3-0.7,0.3-0.9c0-0.3,0.1-0.7,0.3-1.3c0.2-0.6,0.6-1.2,1.2-1.8c1.3-1.9,2.2-3.3,2.7-4.1c0.5-0.8,0.7-1.4,0.7-1.5
			c0-0.3,0.3-0.8,0.8-1.5c0.5-0.7,1-1.4,1.5-2.2c0.4-0.3,0.8-0.7,1.3-1.2c0.5-0.5,0.9-1,1.2-1.5l1.3-1.3v-5c0-0.6,0-1.4,0.1-2.4
			c0-1,0.1-2,0.1-3.1c0-1.1,0.1-2.3,0.1-3.5c0-1.2,0.1-2.4,0.1-3.5c0-1.6,0.1-2.9,0.1-3.9c0-1,0-1.8,0-2.3c0-0.6-0.1-0.9-0.1-1.1
			c-0.1-0.2-0.2-0.3-0.3-0.3c0,0.1-0.1,0.3-0.3,0.5c-0.2,0.2-0.4,0.3-0.6,0.5c-0.3,0.6-0.7,1.2-1.2,1.8c-0.5,0.6-1.2,1.5-2.3,2.6
			c-0.5,0.7-1.2,1.4-1.9,2.2c-0.7,0.8-1.2,1.6-1.6,2.2c-0.5,0.8-1,1.4-1.5,2c-0.5,0.6-0.8,0.9-0.9,1.1c-0.4,0.4-0.9,0.9-1.3,1.4
			c-0.5,0.6-0.9,1.1-1.2,1.7c-0.4,0.6-0.7,1.1-0.9,1.5c-0.2,0.5-0.4,0.8-0.4,0.9c0,0.4-0.2,0.6-0.7,0.6c-0.3,0.5-0.7,1-1.4,1.3
			c-0.4,0.7-0.9,1.2-1.5,1.6c-0.6,0.4-1.3,0.6-2.2,0.6c-0.7,0-1.5-0.1-2.5-0.3c-1-0.2-2.1-0.4-3.1-0.7s-2.1-0.6-3.1-1
			c-1-0.4-1.9-0.7-2.6-1.1c-1.6-1.2-2.4-1-2.4,0.6c0,0.5,0.1,0.8,0.3,0.9c0.2,0.1,0.3-0.1,0.5-0.6c0-0.1,0.1-0.3,0.3-0.4
			c0.2-0.1,0.3-0.2,0.4-0.2c0.2,0,0.3,0.1,0.3,0.3c0,0.2-0.2,0.4-0.5,0.6l-0.2,0.2C7,209.6,7,209.7,7,209.9c0,0.8-0.7,0.7-2.1-0.3
			c-0.7-0.7-1-1.2-1.1-1.5c0-0.3,0.1-0.5,0.4-0.5v0.7l0.2,0.1c0.3,0.1,0.5,0.1,0.5,0.1v-0.3c0-0.1,0-0.3,0-0.5
			c0-0.2,0.2-0.3,0.4-0.4c0.3-0.2,0.5-0.3,0.5-0.3c0,0-0.2,0-0.5,0c0,0-0.2,0-0.5-0.1l-0.2-0.1c0-0.1,0-0.3,0.1-0.4
			c0-0.1,0.3-0.1,0.6,0.1l0.6,0.1c0.1,0,0.2,0.1,0.2,0.1c0,0,0.1,0,0.1,0.1v0.3c0.4,0,0.4-0.3,0.1-1c-0.3-0.6-0.8-1.7-1.5-3.1
			c-0.4-0.8-0.7-1.2-0.8-1.4c-0.2-0.2-0.3-0.2-0.5-0.1c-0.2,0.1-0.4,0.2-0.5,0.1c-0.2,0-0.3-0.3-0.5-0.8c-0.7-1.2-0.7-1.9,0-1.9
			c0.4,0.1,0.5,0,0.4-0.5c-0.1-0.5-0.5-1.5-1-3.3c-0.3-1-0.6-1.7-0.8-2.1c-0.2-0.5-0.1-1,0.1-1.6c0.3-1.8,0.3-2.9,0-3.2
			c-0.1-0.2-0.1-0.5,0-0.8c0-0.6,0.1-1.2,0.3-1.7c0.2-1.2,0.3-2.4,0.3-3.3s-0.1-1.5-0.3-1.7c-0.1-0.1-0.2-0.4-0.2-0.8
			c0-0.4,0.1-0.9,0.2-1.3c0-0.5,0.1-1.1,0.2-1.8c0.1-0.6,0.2-1.1,0.2-1.4c0.1-1,0.4-1.7,0.7-2.3c0.3-0.6,0.7-0.9,1-0.9
			c0.1,0,0.3,0,0.4-0.1c0.1-0.1,0.3-0.3,0.5-0.6c0.2-0.3,0.5-0.8,0.8-1.5c0.3-0.6,0.8-1.5,1.3-2.7c0.4-0.8,0.8-1.8,1.4-3.1
			c0.5-1.2,1-2.3,1.4-3.3c0.2-0.4,0.5-0.8,0.7-1.2c0.2-0.4,0.4-0.7,0.5-1l0.5-1c0,0,0.2-0.3,0.5-0.9c0.4-0.6,0.8-1.2,1.2-1.8
			c0.5-0.7,0.9-1.3,1.4-2c0.5-0.7,0.8-1.2,0.9-1.4c0.2-0.1,0.4-0.3,0.5-0.6c0.1-0.2,0.2-0.5,0.2-0.7c0-0.2,0.3-0.6,0.9-1.2
			c0.6-0.6,1.2-1.2,2-1.8c0.8-0.6,1.5-1.1,2.2-1.6C21.6,145.3,22.1,145.1,22.3,145.1z M39.9,223c-0.1,0-0.4,0.2-0.9,0.6
			c-0.5,0.4-1.1,0.9-1.8,1.5c-1.1,1.2-2,2.2-2.7,3.1c-0.7,0.9-1.1,1.5-1.1,2c0,0.5-0.3,1-0.8,1.3c-0.5,0.3-1,0.5-1.3,0.4
			c-0.4,0-0.8,0.2-1.4,0.6c-0.2,0.1-0.5,0.5-0.8,1c-0.3,0.5-0.7,1.1-1,1.7c-0.3,0.6-0.6,1.1-0.9,1.6c-0.3,0.5-0.4,0.8-0.4,1
			c0,0.2-0.1,0.5-0.2,0.9c-0.1,0.4-0.3,1-0.4,1.6c-0.4,1.1-0.8,2-1.1,2.8c-0.3,0.7-0.5,1.4-0.6,2.1c-0.1,0.6-0.2,1.3-0.2,2.1
			c0,0.7,0,1.7,0,2.8c0,1.2,0.1,2.4,0.2,3.3c0.1,1,0.2,1.5,0.2,1.7c0.1,0.2,0.3,0.6,0.5,1.1c0.2,0.6,0.3,1.2,0.3,2.1
			c0.1,1.1,0.3,1.8,0.3,2.1c0.1,0.3,0.3,0.4,0.6,0.4c0.4,0,0.7,0.2,0.9,0.5c0.2,0.3,0.4,0.9,0.6,1.7c0,0.1,0.1,0.3,0.3,0.7
			c0.2,0.4,0.4,0.6,0.8,0.8c0.4,0.7,0.8,0.9,1.1,0.8c0.4-0.1,0.5-0.5,0.5-1.1c0-0.3,0.1-0.6,0.3-0.8c0.2-0.2,0.3-0.3,0.5-0.3
			c0.9,0,1.6-0.3,2.2-0.8c0.6-0.6,1.3-1.6,2-3.2c0.9-1.4,1.6-3,2.3-4.9c0.7-1.9,1.3-3.7,1.8-5.4c0.2-1.3,0.4-3.1,0.6-5.2
			c0.2-2.1,0.3-4.3,0.4-6.4c0.1-2.1,0.1-4,0-5.8c0-1.8-0.2-2.9-0.4-3.6c-0.5-0.7-0.7-1.7-0.4-3.2V223z"/>
	</g>
	<g id="XMLID_2_">
		<path id="XMLID_23_" class="title-code" d="M73,152.8c0.4,0,0.9,0,1.5,0.1c0.6,0.1,1.2,0.2,1.9,0.3c0.6,0.1,1.3,0.2,1.8,0.3
			c0.6,0.1,1,0.2,1.3,0.2c0.9,0.3,1.5,0.7,2.1,1.2c0.5,0.4,0.9,0.9,1.2,1.5s0.5,1.3,0.6,2.1c0.1,0.8,0.2,1.8,0.3,2.8
			c0.2,1.1,0.3,2.3,0.3,3.6c0,1.3,0,2.7-0.2,4s-0.3,2.6-0.6,3.9c-0.3,1.2-0.6,2.2-0.9,3.1c-0.1,0.4-0.2,0.8-0.2,1.1
			c0,0.4-0.1,0.7-0.2,1l-0.2,1c0,0.1,0.1,0.3,0.4,0.5c0.3,0.2,0.6,0.4,0.9,0.5c0.3,0.1,0.7,0.2,1,0.3c0.3,0,0.5,0,0.6-0.1
			c0.1-0.2,0.4-0.4,0.9-0.4c0.5,0,0.9,0,1.5,0c0.4,0,0.8,0,1.3-0.1c0.5-0.1,0.9-0.2,1.4-0.3c0.4-0.1,0.8-0.2,1.1-0.3
			c0.3-0.1,0.4-0.2,0.4-0.3c0-0.1,0.2-0.3,0.5-0.8c0.4-0.4,0.8-0.8,1.2-1.3s0.9-0.8,1.3-1.2c0.4-0.4,0.7-0.5,0.8-0.5
			c0,0,0.4,0.2,1,0.5s1.4,0.7,2.2,1.2c0.8,0.4,1.5,0.9,2.3,1.3c0.7,0.5,1.2,0.8,1.4,1c0.3,0.2,0.6,0.5,0.9,0.9
			c0.3,0.4,0.5,0.8,0.6,1.1c0.4,0.7,0.9,1.5,1.7,2.4c0.2,0.3,0.5,0.9,0.9,1.5c0.4,0.7,0.8,1.4,1.1,2.1c0.3,0.6,0.6,1,0.8,1.4
			c0.2,0.4,0.3,0.7,0.4,1c0.1,0.3,0.1,0.6,0,0.9c0,0.3-0.1,0.6-0.2,1c0,0.9-0.1,1.5-0.3,1.8c-0.2,0.3-0.7,0.7-1.3,1.3
			c-0.7,0.5-1.2,0.8-1.6,1c-0.4,0.2-0.7,0.2-1.1-0.1c-0.4-0.1-0.7-0.1-0.8,0.2c-0.1,0.3-0.3,1-0.5,2.2v1.3c0.2-0.2,0.4-0.3,0.4-0.3
			c0,0,0.1,0,0.2,0c0.1,0,0.2,0.2,0.3,0.6c0,0.4,0,0.8-0.1,1.3c-0.1,0.5-0.2,0.9-0.4,1.4c-0.2,0.4-0.3,0.7-0.5,0.8
			c0,0.1-0.1,0.6-0.2,1.5c-0.1,0.9-0.3,2.1-0.5,3.8c-0.1,1.3-0.3,2.6-0.5,3.9c-0.2,1.3-0.3,2.2-0.3,2.7c-0.3,1.1-0.3,1.8,0,2.1
			l0.2,0.2c0,0.1,0.1,0.2,0.1,0.2c0,0,0.1,0.1,0.1,0.2c0,0.2,0,0.6,0.1,0.9l0.1,0.4c0.3,0.2,0.5,0.4,0.5,0.6c0,0.2,0,0.7-0.2,1.3
			c-0.1,0.7-0.3,1.5-0.3,2.6c-0.1,1-0.1,2.1-0.1,3.2s0,2.1,0.1,3.1c0.1,1,0.2,1.7,0.3,2.2c0.1,0.1,0.2,0.3,0.2,0.4
			c0,0.1-0.1,0.2-0.2,0.2c-0.2,0-0.4-0.3-0.4-1c0,0,0-0.1-0.1-0.4l-0.1-0.2c-0.2-0.2-0.4-0.4-0.4-0.6c0-0.2-0.1-0.4-0.3-0.8
			c0-0.3,0-0.7-0.1-1.1c-0.1-0.4-0.1-0.7-0.1-0.9c-0.4-0.6-0.4-1.3,0-1.9v-5.1c0.1-0.5,0.2-0.9,0.3-1.4c0-0.4,0-0.8,0-1.2
			c-0.1-0.3-0.2-0.4-0.3-0.2c0,0.2-0.2,0.8-0.4,1.8c-0.1,0.8-0.2,1.6-0.3,2.4c0,0.8,0,1.4,0,1.9c0,0.4,0,0.9,0,1.4
			c0,0.6-0.2,1-0.4,1.3c-0.2,2.5-0.3,4.6-0.3,6.2c0,1.6,0.1,2.3,0.3,2.2c0.1,0,0.2,0,0.2,0.1c0.1,0.1,0.2,0.3,0.2,0.6
			c0,0.2,0,0.4,0,0.5c0,0.1,0.1,0.3,0.3,0.5c0.3,0.1,0.5,0.2,0.5,0.1c0,0,0-0.3-0.2-0.8c0-0.5,0-0.8,0-0.8c0,0,0.1,0.1,0.3,0.5
			l0.4,0.6l0.3,0.4c0,0.1,0,0.2,0,0.2c0,0,0.1-0.1,0.3-0.2c-0.1-0.4,0-0.8,0.3-1.2c0.6-0.8,1.2-1.8,1.9-3c0.7-1.2,1.5-2.5,2.2-3.9
			c0.7-1.4,1.5-2.8,2.2-4.3c0.7-1.5,1.4-2.9,1.9-4.2c0.1-0.5,0.4-0.9,0.6-1.4c0.3-0.4,0.5-0.8,0.7-1.2l2.4-4.9
			c0.5-1.1,1.1-2.2,1.7-3.3c0.6-1.2,1.1-2.2,1.6-3.2c0.5-1,0.9-1.9,1.3-2.6c0.4-0.7,0.6-1.3,0.7-1.5c0.2-0.3,0.3-0.5,0.3-0.5
			c0,0-0.2,0-0.5,0.2c-0.2,0-0.4,0-0.5,0.1c-0.1,0.1-0.2,0-0.2-0.1c-0.1,0,0-0.2,0.3-0.7c0.4-0.5,0.7-0.8,1-0.9
			c0.1-0.1,0.4-0.3,0.7-0.8c0.3-0.4,0.6-0.9,0.9-1.4c0.3-0.5,0.5-1,0.8-1.5c0.2-0.5,0.3-0.9,0.3-1.2c0-0.1,0.1-0.6,0.3-1.4
			s0.5-1.6,0.7-2.6c0.3-0.9,0.5-1.8,0.8-2.7c0.3-0.9,0.5-1.5,0.6-2c0.3-0.3,0.6-0.8,1-1.3c0.4-0.5,0.8-1,1.2-1.4
			c0.4-0.5,0.7-0.8,1.1-1.2c0.3-0.3,0.6-0.5,0.8-0.5c0.2,0,0.3,0.3,0.3,0.8c0,0.5-0.2,1-0.6,1.5c-0.1,0.3-0.3,0.8-0.6,1.3
			c-0.3,0.6-0.5,1-0.7,1.3c-0.2,0.5-0.4,1.1-0.7,1.7c-0.3,0.6-0.5,1.2-0.6,1.7c-0.2,0.3-0.4,0.8-0.5,1.5c-0.2,0.6-0.3,1.1-0.5,1.5
			c-0.1,1.5-0.4,3.1-0.8,4.8c-0.4,1.6-0.9,3-1.4,4c-0.4,0.7-0.8,1.6-1.4,2.8c-0.5,1.2-1.1,2.4-1.7,3.8l-1.2,2.7
			c-0.7,1.4-1.2,2.7-1.7,3.8s-0.6,1.7-0.5,1.9c0,0.2,0,0.4,0,0.5c0,0.2-0.1,0.3-0.3,0.5l-0.3,0.4l-0.4,0.6c0,0.6-0.2,0.9-0.6,0.9
			c-0.2,0-0.4-0.2-0.4-0.6c0.2-0.3,0.2-0.5,0.1-0.6c-0.1,0-0.3-0.1-0.5-0.1c-0.1,0.1-0.2,0.2-0.3,0.3c-0.1,0-0.2,0.2-0.2,0.4
			c0,0.1-0.1,0.4-0.4,0.9c-0.3,0.5-0.6,1-1,1.7c-0.3,0.7-0.6,1.4-0.8,2.1c-0.2,0.7-0.4,1.2-0.6,1.3c0,0.3-0.1,0.8-0.4,1.4
			c-0.3,0.6-0.6,1.2-0.9,1.9c-0.3,0.9-0.6,1.7-0.9,2.6c-0.3,0.9-0.5,1.9-0.7,3.1c-0.2,1-0.4,1.9-0.5,2.8c-0.1,0.9-0.3,1.5-0.5,1.8
			c-0.1,0.5-0.1,1.1,0,1.6s0.3,1,0.4,1.5c0.1,0.5,0.1,0.9,0,1.3c-0.1,0.4-0.4,0.7-1,0.9c-0.4,0.1-0.9,0.3-1.5,0.6s-1.1,0.5-1.5,0.7
			c-0.9,0.6-1.7,1-2.2,1.4c-0.6,0.4-1.1,0.6-1.5,0.8c-0.5,0.2-0.9,0.3-1.3,0.4c-0.4,0.1-0.9,0.1-1.5,0.1c-0.5-0.1-1-0.2-1.4-0.4
			c-0.4-0.1-0.9-0.4-1.4-0.6c-0.5-0.3-1-0.7-1.7-1.2c-0.6-0.5-1.4-1.1-2.2-1.8c-0.8-1.1-1.3-1.7-1.5-2s-0.3-0.5-0.1-0.7
			c0.2-0.1,0.4-0.3,0.5-0.4c0.1-0.1,0.1-0.6-0.1-1.2c-0.2-0.3-0.4-0.6-0.4-0.9c0-0.3,0-0.5,0-0.7l0.2,0.2c0,0.1,0.1,0.2,0.1,0.2
			c0,0,0.1,0.1,0.1,0.2c0.1,0.3,0.2,0.6,0.3,0.8c0,0.2,0.1,0.3,0.3,0.3c0.1,0,0.1-0.1,0.1-0.4c0-0.2-0.1-0.5-0.3-0.8
			c-0.1-0.3-0.3-0.6-0.5-0.9c-0.2-0.3-0.4-0.5-0.6-0.6c0-0.2-0.1-0.5-0.2-0.8c-0.1-0.3-0.2-0.5-0.2-0.6c0-0.4-0.1-0.9-0.2-1.5
			c-0.1-0.6-0.3-1.1-0.5-1.6c-0.2-0.5-0.4-0.9-0.5-1.2c-0.2-0.3-0.3-0.4-0.4-0.4c0,0-0.1,0.1-0.1,0.1c-0.1,0.1-0.1,0.2-0.1,0.2v0.4
			c-0.1,0.1-0.2,0.1-0.3-0.1c0-0.2-0.2-0.5-0.4-0.8c0-0.1,0-0.5-0.1-0.9l-0.1-0.4c-0.3,0.1-0.6-0.5-0.8-1.8
			c-0.2-1.3-0.4-3.2-0.6-5.5c0-2.7,0-5,0.1-6.8c0.1-1.8,0.4-3.4,0.9-4.9c0.3-0.7,0.6-1.5,0.8-2.5c0.3-1,0.5-1.9,0.7-2.9
			c0.2-0.9,0.3-1.7,0.4-2.4c0.1-0.6,0.1-1,0.1-1l-0.4,0.7c-0.1,0.5-0.3,0.7-0.4,0.5c-0.1-0.2-0.2-0.6-0.2-1.3c0-0.6,0.1-1.4,0.2-2.3
			c0.1-1,0.3-2.1,0.4-3.2c0.2-1.2,0.4-2.3,0.6-3.6c0.2-1.2,0.5-2.4,0.7-3.5c0.3-1.3,0.6-2.4,0.8-3.1c0.2-0.7,0.3-1.2,0.3-1.6
			c0-0.3,0-0.6,0-0.6c0-0.1-0.1-0.2-0.2-0.3c-0.1,0-0.3,0.1-0.6,0.2c-0.3,0.1-0.6,0.3-1,0.5c-0.2,0.2-0.5,0.4-0.6,0.5
			c-0.2,0.1-0.5,0.2-0.8,0.3s-0.8,0.1-1.4,0.1c-0.6,0-1.4,0-2.4,0c-0.8,0-1.5-0.1-2-0.1c-0.5,0-1-0.1-1.4-0.2
			c-0.4-0.1-0.7-0.2-1.1-0.3c-0.3-0.1-0.7-0.2-1.2-0.4c-0.6-0.2-1-0.4-1.4-0.5c-0.4-0.1-0.7-0.2-0.9-0.1c-0.3,0-0.5,0.2-0.8,0.4
			c-0.2,0.2-0.5,0.5-0.8,0.9c-0.2,0.1-0.4,0.3-0.5,0.4c-0.1,0.1-0.3,0.2-0.5,0.2c0-0.1,0-0.3,0.1-0.4c0-0.1,0.2-0.3,0.6-0.5
			c0.5-0.9,0.6-1.3,0.4-1.3c-0.2,0-0.4-0.2-0.4-0.7c0.1-0.1,0.2-0.3,0.1-0.4l-0.1-0.2c-0.1,0-0.5-0.2-0.9-0.6
			c-0.5-0.4-1.1-1-1.7-1.7c-0.7-0.7-1.3-1.2-1.9-1.7c-0.6-0.4-1-0.6-1.2-0.6l-1.3-4.4c-0.2-0.5-0.4-0.9-0.5-1.4
			c-0.1-0.5-0.2-1-0.2-1.5c0-0.6,0-1.2,0.1-1.9c0.1-0.7,0.2-1.7,0.3-2.8c0.4-1.8,0.8-3.5,1.3-5c0.5-1.5,1.1-2.8,1.7-4
			c0.5-0.7,1.1-1.3,1.8-1.8c0.6-0.5,1.7-1,3.1-1.5H73z M79.3,160.9c-0.4,0-1,0.3-1.7,1c-0.8,0.7-1.4,1.4-1.9,2.2
			c-0.3,0.8-0.6,1.5-0.8,2.2c-0.2,0.6-0.3,1.5-0.3,2.5c0,0.9-0.1,1.7-0.2,2.5c-0.1,0.8,0.2,1.7,0.8,2.6l3.9,4l1.4-2.7
			c0.3-1.9,0.7-3.5,1-4.8c0.3-1.3,0.5-2.5,0.6-3.6c0-1.1-0.1-2.1-0.5-3c-0.4-0.9-1.1-2-2.1-3.1H79.3z M96.1,232
			c0-0.1-0.1-0.2-0.2-0.1c-0.1,0.1-0.4,0.2-0.7,0.4c-0.5,0.3-0.7,0.8-0.8,1.3c0,0.6,0.2,1.3,0.5,2.3c0.2,1.2,0.5,1.7,0.9,1.7
			c0.1,0.1,0.3,0.2,0.4,0.1c0.1-0.1,0.1-0.2-0.1-0.4c-0.1-0.1-0.2-0.2-0.2-0.4c0-0.2-0.1-0.3-0.2-0.5l-0.2-0.7
			c0.2,0,0.4,0.1,0.8,0.4c0.3,0.3,0.6,0.6,0.9,1c0.5,0.5,1,0.9,1.3,1.2c0.3,0.3,0.6,0.4,0.7,0.4s0.2-0.3,0-0.9
			c-0.1-0.6-0.3-1.2-0.7-1.7c-0.1-0.3-0.2-0.6-0.3-0.9c0-0.3,0-0.5,0-0.6c0.1-0.2,0.2-0.4,0.2-0.4c0,0-0.2,0-0.6,0
			c-0.1,0.2-0.2,0.3-0.3,0.1c0-0.2-0.2-0.4-0.4-0.8C97.1,232.5,96.7,232,96.1,232z M94.5,229.7c0.2-0.1,0.4-0.3,0.4-0.6
			s-0.1-0.5-0.4-0.7V229.7z"/>
	</g>
	<g id="XMLID_6_">
		<path id="XMLID_9_" class="title-code" d="M145.7,146.7c1.2,0,2,0.1,2.5,0.3c0.5,0.2,1.1,0.4,1.7,0.8c0.5,0.2,1,0.4,1.4,0.6l0.5,0.4
			c0.4,0,0.8,0.2,1.2,0.5c0.4,0.4,0.6,0.8,0.6,1.3c0,0.4-0.4,1-1.1,1.6c-0.4,0.2-0.8,0.6-1.3,1.3s-0.9,1.3-1.3,2
			c-0.3,0.5-0.5,1-0.7,1.3c-0.2,0.4-0.3,0.7-0.4,1.2c-0.1,0.4-0.2,0.9-0.3,1.4c-0.1,0.5-0.2,1.2-0.3,2c0,0.8,0,1.5,0,2
			c0,0.5,0,1,0.1,1.4c0,0.4,0.1,0.8,0.3,1.1c0.1,0.3,0.3,0.6,0.5,1c0.2,0.5,0.5,1.1,1,1.7c0.5,0.6,0.9,1.1,1.2,1.5
			c0.4,0.5,0.7,0.9,0.7,1.2c0,0.3,0,0.4-0.3,0.3c-0.2,0-0.4,0-0.4,0.1c0,0,0.1,0.2,0.4,0.4c0.1,0.2,0.5,0.6,1.1,1.1
			c0.6,0.5,1.4,1.1,2.1,1.6c0.8,0.6,1.5,1,2.1,1.4c0.6,0.4,1,0.6,1.1,0.5l0.2-0.9c0-0.2,0.1-0.5,0.1-0.8c0-0.3,0.1-0.6,0.1-0.8
			c0-0.2,0.1-1,0.2-2.3c0.1-1.4,0.1-2.9-0.1-4.5c0.3-1,0.3-2.2,0-3.7c-0.3-1.5-0.8-3.1-1.4-4.6c-0.8-1.8-1.5-3.4-2.2-4.8
			c-0.7-1.3-1.2-2-1.4-1.9l0.2-0.3c0-0.1,0.1-0.2,0.1-0.3c0-0.1,0.1-0.3,0.1-0.4c0-0.7,0.1-1,0.3-1.1c0.2-0.1,0.6,0.3,1.1,1.1
			c0.1,0.1,0.2,0.3,0.2,0.5c0,0.2,0.1,0.3,0.1,0.4c0,0.1,0.1,0.3,0.1,0.4c0.7,0.2,1.4,0.7,1.9,1.3c0.6,0.6,1.1,1.3,1.6,2.1
			c0.5,0.8,0.9,1.7,1.3,2.7c0.4,1,0.7,1.9,1,2.8c0.2,0.6,0.4,1.1,0.5,1.6c0.1,0.5,0.3,1,0.5,1.5c0.5,1.2,0.9,2,1.3,2.4
			c0.2,0.4,0.4,1.1,0.4,2.1c0,1,0,2.1,0,3.5l-1.2,9.6c0.3-0.1,0.8-0.1,1.3-0.1c0.5,0,1,0,1.4-0.1c0.2-0.1,0.5-0.2,0.7-0.3
			c0.2-0.1,0.5-0.2,0.7-0.3c0.5-0.2,1-0.3,1.4-0.4c0.5-0.1,1-0.2,1.4-0.4c0.3-0.1,0.6-0.2,0.9-0.4c0.3-0.1,0.6-0.3,0.9-0.4l1.8-0.8
			c0.9-0.4,1.5-0.9,2-1.4c0.5-0.6,0.8-0.9,1.1-1.2h0.6c1.3,0,1.6,0.2,0.9,0.7c-0.2,0.1-0.4,0.2-0.4,0.4c0,0.2,0,0.3,0,0.4
			c0,0.1-0.1,0.3-0.3,0.5c-0.2,0.2-0.3,0.3-0.4,0.3c-0.2,0-0.4,0.1-0.5,0.2c-0.1,0.1-0.2,0.3-0.5,0.5c0,0.1,0,0.2,0,0.4
			c0,0.1-0.1,0.2-0.3,0.2c-0.2,0-0.4,0.1-0.6,0.4c-0.2,0.3-0.5,0.5-0.9,0.6c-0.4,0.2-0.7,0.3-0.8,0.3c-0.1,0.1-0.2,0.1-0.2,0
			c-0.2,0-0.6,0.1-1.2,0.4c-0.5,0.3-1.1,0.5-1.7,0.7c-0.7,0.3-1.4,0.6-2.1,0.8c-0.7,0.2-1.3,0.3-1.9,0.5c-0.2,0.4-0.6,0.6-1.2,0.6
			c-0.2,0-0.5,0-0.9-0.1c-0.4,0-0.8,0-1,0.3c-0.2,0.1-0.4,0.3-0.6,0.4c-0.2,0.1-0.4,0.2-0.6,0.2c-0.2,0-0.4,0.2-0.7,0.6
			c-0.3,0.4-0.6,0.8-0.8,1.3c-0.2,0.5-0.4,1-0.6,1.5c-0.1,0.5-0.2,0.9-0.1,1.2l-0.4,0.2c-0.2,0-0.3,0.1-0.4,0.4
			c0,0.2-0.2,0.5-0.4,0.7c0,0.3-0.1,0.8-0.3,1.5c-0.2,0.6-0.4,1.2-0.6,1.7c-0.1,0.5-0.3,1-0.5,1.7c-0.2,0.6-0.3,1.3-0.5,1.9
			c-0.2,0.6-0.3,1.3-0.4,1.8c-0.1,0.6-0.1,1-0.1,1.3c0.2,0.2,0.2,0.6,0.1,1c-0.1,0.4-0.3,0.9-0.5,1.4c-0.2,1-0.3,1.7-0.4,2.2
			c-0.1,0.4,0,0.6,0.4,0.5l0.1,0.2c0,0.1,0.1,0.2,0.1,0.4c0,0.2,0.1,0.4,0.1,0.6c0,0.7-0.1,1.1-0.3,1.2c-0.2,0.1-0.6,0.1-1.3,0.1
			c-0.3,0-0.6,0.6-1,1.7c-0.4,0.3-0.8,0.7-1,1.1c-0.2,0.4-0.4,0.7-0.6,0.8c0,0.2-0.1,0.4-0.4,0.7c-0.3,0.3-0.4,0.6-0.4,0.9
			c-0.2,0.3-0.5,0.6-0.8,0.9c-0.3,0.3-0.5,0.7-0.7,1c-0.1,0.3-0.4,0.8-1,1.5c-0.6,0.7-1.3,1.5-2.2,2.3c-0.9,0.8-2,1.6-3.1,2.3
			c-1.2,0.7-2.4,1.3-3.7,1.7c-1.3,0.4-2.6,0.6-3.9,0.5c-1.3-0.1-2.5-0.6-3.6-1.6c-1.2-0.5-2.2-0.9-3-1.3c-0.7-0.4-1.4-0.9-1.9-1.3
			c-0.6-0.5-1.1-1-1.5-1.5c-0.5-0.6-1.1-1.2-1.7-1.9c-0.8-0.9-1.5-1.8-2.2-2.7c-0.7-0.9-1.3-1.6-1.8-2.3c-0.5-0.7-0.9-1.2-1.3-1.7
			c-0.3-0.5-0.5-0.7-0.5-0.8c-0.1-0.1-0.2-0.2-0.3-0.4c-0.1-0.1-0.2-0.3-0.3-0.4c-0.3-0.4-0.5-0.9-0.6-1.4c-1-1.7-1.7-3.6-2.3-5.8
			c-0.6-2.2-1-4.4-1.2-6.7v-4.2l0.1-1.4c0-0.4,0.1-0.9,0.1-1.5c0-0.6,0.1-1.2,0.1-1.9c0.1-2.4,0.2-4.2,0.2-5.5
			c0-1.3,0.1-2.4,0.3-3.3c0.1-0.9,0.4-1.7,0.6-2.4c0.3-0.7,0.7-1.7,1.2-2.8c0.4-1.2,0.8-2.3,1.3-3.4c0.5-1.1,0.8-1.9,0.9-2.4
			c0.2-0.3,0.4-0.8,0.7-1.3c0.3-0.5,0.4-0.9,0.4-1c0.2-0.3,0.8-0.7,1.8-1s1.9-0.5,2.8-0.4c0.4,0.2,1.1,0.4,1.9,0.4
			c0.8,0,1.6,0.1,2.4,0.3c1,0.1,1.9,0.3,2.8,0.5c0.9,0.2,1.6,0.5,2.1,0.8c0.2,0.1,0.4,0.2,0.6,0.3c0.2,0.1,0.5,0.1,0.6,0.2
			c0.3,0.1,0.5,0.1,0.6,0.1c0.2,0,0.4-0.3,0.4-1c0-0.7,0-1.6,0-2.7c0.1-2.2,0.2-3.8,0.3-5c0.1-1.2,0.3-2.1,0.5-2.8
			c0.2-0.7,0.5-1.3,0.9-1.8c0.4-0.5,1-1.1,1.7-1.8c0.2-0.4,0.4-0.7,0.6-0.8s0.2-0.3,0.2-0.5c0-1.1,0.4-1.3,1.2-0.6
			c0.9,0.7,1.1,0.7,0.7,0l0.3-0.1c0.1,0,0.3-0.1,0.5-0.1c0.2,0,0.5-0.1,0.8-0.1H145.7z M145.5,173.1c-0.1,0-0.2,0-0.3,0.1
			c-0.1,0-0.3,0.1-0.4,0.1c-0.1,0-0.2,0.1-0.3,0.1l-3.4,0.3l-0.2,0.6c-0.1,0.2-0.2,0.4-0.3,0.7c-0.1,0.3-0.2,0.5-0.3,0.8
			c-0.2,0.5-0.5,1.1-0.8,1.8c-0.3,0.7-0.6,1.4-0.8,2.1c-0.4,0.4-0.7,0.9-0.9,1.4c-0.2,0.5-0.3,0.9-0.3,1.1l-0.4,1l-0.7,2.3
			c-0.6,1.5-1,3-1.4,4.4c-0.3,1.4-0.6,2.7-0.7,4c-0.1,1.3-0.2,2.7-0.1,4c0.1,1.3,0.3,2.8,0.6,4.2c0.2,0.6,0.5,1.3,0.8,1.9
			c0.3,0.7,0.4,1.2,0.4,1.6c0.3,0.6,0.8,1.3,1.6,2.3c0.8,1,1.6,1.9,2.6,2.8c0.9,0.9,1.8,1.8,2.6,2.4c0.8,0.7,1.3,1,1.6,1
			c0.4,0,1-0.4,1.7-1.2c0.7-0.8,1.4-1.7,2.1-2.8c0.7-1.1,1.3-2.3,1.9-3.6c0.6-1.3,1-2.4,1.3-3.3c0.2-1,0.5-1.8,0.8-2.6
			c0.3-0.7,0.4-1.2,0.4-1.4c0.2-0.3,0.4-0.9,0.7-1.5c0.3-0.7,0.5-1.5,0.8-2.3s0.6-1.8,0.9-2.7c0.3-0.9,0.5-1.8,0.7-2.5
			c0.2-0.8,0.4-1.7,0.5-2.7c0.2-1,0.3-1.8,0.5-2.5c0.4-1.3,0.7-2.2,0.7-2.8c0-0.6-0.1-0.8-0.3-0.8c-0.2,0-0.6-0.2-1.2-0.5
			c-0.6-0.3-1.2-0.7-1.8-1.2c-0.6-0.4-1.2-0.8-1.7-1.2c-0.5-0.4-0.7-0.6-0.7-0.7c0-0.2-0.1-0.3-0.3-0.3c-0.2,0-0.3,0-0.5,0
			c-0.2,0.2-0.3,0.2-0.3,0.1c0-0.1,0-0.2,0-0.3c0.2-0.2,0.3-0.4,0.3-0.4c0,0-0.1,0-0.3,0c-0.2,0.2-0.6,0.2-1.2-0.1
			c-0.6-0.2-0.9-0.6-0.9-0.9c0-0.1-0.1-0.2-0.2-0.2h-0.2c-0.2,0-0.3,0-0.3,0.1c0,0,0,0.1,0,0.1c0,0.5-0.1,0.7-0.4,0.5
			c-0.2-0.2-0.4-0.4-0.4-0.7c0-0.3,0-0.6,0-0.8c0-0.2-0.2-0.1-0.4,0.1c-0.4,0-0.6-0.1-0.7-0.3c-0.1-0.2-0.2-0.4-0.5-0.7
			C145.7,173.4,145.6,173.1,145.5,173.1z M177.1,176.4c-0.2,0-0.2-0.1-0.1-0.1c0.1,0,0.2,0,0.3,0L177.1,176.4z M177.2,176.3
			L177.2,176.3L177.2,176.3z"/>
	</g>
	<g id="XMLID_8_">
		<path id="XMLID_36_" class="title-code" d="M169,181.6c0-0.6,0.1-1.7,0.2-3.3c0.1-1.6,0.3-3.2,0.4-4.9c0.1-0.7,0.2-1.5,0.4-2.3
			c0.1-0.8,0.3-1.6,0.4-2.4s0.3-1.5,0.4-2.2c0.1-0.7,0.3-1.2,0.4-1.6c0.2-0.8,0.4-1.8,0.7-3.1c0.3-1.2,0.4-2.2,0.4-3.1
			c0.2-1,0.4-1.9,0.6-2.6s0.4-1.2,0.6-1.4c0.1-0.4,0.4-0.9,0.8-1.5c0.4-0.6,0.8-1.2,1.2-1.8c0.4-0.6,0.8-1.1,1.2-1.6
			c0.4-0.5,0.6-0.8,0.7-0.9c0.4-0.2,1.1-0.3,2.2-0.2c1.1,0.1,2.1,0.4,3.1,1c0.5,0.2,1,0.6,1.6,1.1c0.6,0.6,1.2,1.2,1.7,1.8
			c0.5,0.6,1,1.3,1.3,1.9c0.4,0.6,0.5,1,0.5,1.3c0,0.2,0.1,0.5,0.3,1c0.2,0.5,0.4,0.9,0.5,1.3c0.1,0.3,0.2,0.8,0.4,1.4
			c0.1,0.6,0.3,1.4,0.4,2.2c0.1,0.8,0.3,1.7,0.4,2.7c0.1,0.9,0.1,1.9,0.1,2.8c0,0.3,0,1.1-0.1,2.3c-0.1,1.2-0.2,2.7-0.3,4.3
			c-0.1,1.6-0.2,3.4-0.3,5.2c-0.1,1.8-0.2,3.6-0.4,5.1s-0.2,2.9-0.3,4.1c-0.1,1.1-0.2,1.8-0.2,2c0,0.2,0,0.7-0.1,1.4
			c0,0.7-0.2,1.3-0.4,1.9c-0.1,1.5-0.2,2.8-0.3,3.7c-0.1,1-0.2,1.8-0.3,2.4c-0.1,0.6-0.1,1.1-0.2,1.5c-0.1,0.4-0.1,0.7-0.2,1
			c-0.2,0.6-0.4,1.2-0.4,1.8c0,0.6-0.1,1.3-0.1,2.3c0.2,0.8,0.3,1.4,0.3,1.7c0,0.3-0.3,0.7-0.8,1.1c-0.4,0.4-0.6,0.9-0.5,1.4
			s0.4,0.8,0.9,0.8c0.2,0,0.6-0.3,1.2-0.8c0.6-0.6,1.3-1.2,2.1-2.1c0.8-0.8,1.5-1.7,2.3-2.7c0.8-1,1.5-1.8,2.1-2.7
			c0.5-0.6,0.9-1.2,1.3-1.7c0.4-0.6,0.8-1.2,1.2-1.9c0.4-0.7,0.8-1.5,1.3-2.3c0.4-0.9,0.9-1.8,1.5-3l1.5-3.2l0.4-6
			c0-2.9,0.1-5.2,0.2-6.9c0.1-1.8,0.2-3.1,0.3-4.1c0.1-1,0.2-1.7,0.3-2.2c0.1-0.4,0.2-0.8,0.3-1c0.2-0.4,0.4-0.9,0.6-1.6
			c0.2-0.7,0.4-1.4,0.6-2.1c0.3-3.7,0.7-6.6,1.3-8.5s1.1-3,1.7-3.2l0.4-0.1l0.2-0.2c0-0.2,0.1-0.4,0.3-0.6c0.2-0.2,0.5-0.4,0.8-0.6
			c0.8-0.4,1.2-0.4,1.2,0c0,0.2,0.1,0.3,0.2,0.3c0.1,0,0.2-0.3,0.2-0.6c0-0.4,0.3-0.6,1-0.6c0.6,0,1.5,0.3,2.4,1
			c0.6,0.4,1,0.7,1.2,0.8c0.2,0.1,0.2,0.4,0,0.8c0,0.2,0,0.5-0.1,0.8c0,0.3-0.1,0.5-0.1,0.7c0,0.2-0.1,0.3-0.1,0.4s-0.1,0-0.1-0.2
			c0.2-0.2,0.5-0.4,0.8-0.5c0.3-0.1,0.4,0.1,0.4,0.5c0,0.2,0.3,0.3,0.8,0.4c0.6,0.1,0.9,0,1.2-0.4l0.1,0.3c0.1,0.4,0.1,0.7,0.1,0.9
			c0,0.6,0,1.2,0.1,1.6c0.1,0.5,0.5,0.9,1.1,1.3l1.1,1.2l-0.4-1.6c0-1.3-0.4-2.6-1.1-3.7c-1.2-1.6-1.4-2.3-0.7-2
			c0.7,0.3,2.1,1.5,4.1,3.5c1,1.1,1.5,1.8,1.7,2.2c0.2,0.4,0,0.9-0.6,1.5c-0.2,0.4-0.3,0.7-0.3,1s0.1,0.6,0.3,1
			c0.4,0.7,0.7,1.3,0.9,1.7c0.2,0.4,0.3,0.7,0.4,1c0.1,0.3,0.1,0.6,0.1,0.9c0,0.3-0.1,0.7-0.2,1.3c0,0.6-0.1,1.3-0.2,2
			c-0.1,0.7-0.1,1.3,0.2,1.7c0,0.2,0,0.5,0.1,1c0,0.5,0.1,1,0.1,1.7c0,0.6,0.1,1.3,0.1,2.1c0,0.7,0.1,1.4,0.1,2.2c0,1.4,0,2.8,0,4
			c0,1.2,0.1,2.1,0.3,2.4v5.7c-0.1,1.4-0.3,3.2-0.4,5.2c-0.1,2-0.2,4-0.2,5.9c0,1.9,0,3.6-0.1,5.1c0,1.5,0,2.4,0,2.8
			c0.2,0.5,0.4,0.9,0.5,1.2c0.2,0.3,0.4,0.5,0.6,0.5c0.5,0.2,0.8,0.2,0.9,0c0-0.3-0.1-0.8-0.5-1.7c-0.2-0.4-0.4-0.7-0.5-0.9
			c-0.1-0.2-0.1-0.3,0.1-0.3c0.2,0,0.4,0.1,0.6,0.4c0.2,0.2,0.5,0.7,0.9,1.4c0.1,0.2,0.2,0.3,0.3,0.5c0,0.1,0,0.1,0-0.1
			c0.2-0.5,0.4-0.6,0.8-0.5c0.3,0.2,0.6,0.4,0.8,0.8c0.4,0.8,0.7,1.2,0.9,1c0.2-0.1,0.5-0.6,0.9-1.4c0.2-0.5,0.4-0.9,0.5-1.2
			c0.1-0.3,0.1-0.5,0-0.5c-0.2-0.2-0.3-0.5-0.3-0.7c0-0.2,0.2-0.6,0.6-0.9c0.4-0.6,0.6-1.1,0.5-1.4c0-0.3-0.3-0.6-0.8-1.1
			c-0.8-0.4-1.2-0.6-1.2-0.6c0,0,0.4-0.1,1.2-0.1c0.4,0,0.7,0,0.9,0c0.2,0,0.4-0.1,0.6-0.3c0.2-0.2,0.4-0.5,0.6-0.9
			c0.2-0.4,0.5-0.9,0.9-1.7c0.1-0.2,0.3-0.8,0.6-1.8c0.3-1,0.7-2.1,1.2-3.4c0.5-1.3,1-2.7,1.5-4.1c0.5-1.5,1-2.8,1.5-4.1
			c0.5-1.3,0.9-2.4,1.3-3.3c0.4-0.9,0.6-1.4,0.8-1.6c0.8-1.2,1.4-2.5,1.8-3.7c0.5-1.2,1-2.4,1.5-3.6c0.2-0.4,0.4-0.7,0.6-1
			c0.1-0.3,0.3-0.5,0.5-0.7l1.2-1.2c0.3-0.3,0.3-0.1,0,0.4s-0.6,1.3-1,2.1c-0.4,0.8-0.8,1.7-1,2.5c-0.3,0.8-0.3,1.4-0.1,1.6
			c0.3,0.2,0.5,0.4,0.6,0.5c0,0.2,0.1,0.4,0.1,0.6c-0.4,0.4-0.4,0.8,0,1.3c0.1,0.2,0.2,0.4,0.1,0.5c-0.1,0.1-0.3,0.3-0.5,0.5
			c-0.2,0.2-0.5,0.5-0.8,0.9c-0.3,0.4-0.6,0.9-0.9,1.7c-0.1,0.4-0.3,0.9-0.6,1.5c-0.3,0.6-0.6,1.2-1,1.8c-0.3,0.6-0.6,1.1-0.9,1.6
			c-0.3,0.5-0.4,0.7-0.4,0.8c-0.9,3-1.5,5.6-1.8,7.8c-0.3,2.2-0.5,3.8-0.5,4.9c0,1,0,1.4,0.2,1.2c0.2-0.3,0.3-1.4,0.5-3.3
			c-0.4,0.2-0.7,0.5-0.9,0.9c-0.2,0.3-0.4,0.6-0.6,0.9c-0.2,0.6-0.1,1.1,0.1,1.4c0.3,0.3,0.6,0.3,1,0.1c0.1,0,0.3,0,0.4,0.2
			c0.1,0.2,0.2,0.4,0.2,0.7c0,0.3,0,0.5-0.1,0.8c-0.1,0.3-0.2,0.5-0.4,0.7c-0.2,0.2-0.4,0.4-0.6,0.5c-0.2,0.1-0.5,0.1-0.9-0.1
			c-1,0-1.1,0.4-0.4,1.2c0.2,0.1,0.3,0.3,0.4,0.7c0.1,0.4,0.2,0.7,0.2,1.2c0,0.4,0,0.8,0,1.2c0,0.4-0.1,0.6-0.2,0.7
			c-0.2,0.2-0.3,0.3-0.3,0.4c0,0,0,0.2,0,0.4c0.4,0.5,0.4,0.8,0,0.8c-0.4,0-0.6-0.1-0.6-0.4c0-0.3,0.1-0.6,0.3-0.8
			c0,0,0.1-0.1,0.1-0.4s0-0.6,0-1c0-0.4-0.1-0.8-0.2-1.2c-0.1-0.4-0.2-0.7-0.3-1c-0.2-0.2-0.3-0.2-0.3,0c0,0.2,0,0.5,0,1
			c0,0.2,0,0.5-0.1,0.8c-0.1,0.4-0.5,0.7-1.1,1.1c-0.4,0.4-0.7,0.8-0.9,1.2c-0.2,0.4-0.3,0.7-0.3,0.9l-0.2,0.2
			c-0.1,0.1-0.3,0.2-0.6,0.2c-0.2,0.2-0.4,0.4-0.4,0.6c0,0.2-0.1,0.3-0.3,0.5c0,0.2-0.2,0.6-0.5,1.2c-0.3,0.5-0.7,1-1,1.4
			c-1,1.1-1.7,2.1-2.3,2.8c-0.6,0.8-1,1.5-1.4,2.1c-0.3,0.6-0.6,1.1-0.6,1.5c-0.1,0.5-0.1,0.9-0.1,1.3c0,1.2-0.2,2-0.7,2.5
			c-0.5,0.5-1.4,0.7-2.7,0.7c-1,0-2-0.2-3-0.7c-1-0.5-1.9-1.2-2.7-2.2c-0.4-0.2-0.7-0.4-1.1-0.5c-0.3-0.1-0.6-0.2-0.9-0.2
			c-0.3,0-0.6-0.1-1-0.3c-0.4-0.2-0.8-0.4-1.3-0.7c-0.5-0.3-0.9-0.5-1.3-0.8c-0.4-0.3-0.7-0.5-0.9-0.7c-0.8-0.9-1.5-2.1-2.3-3.6
			c-0.8-1.5-1.5-3-2.1-4.6c-0.6-1.6-1.1-3.1-1.5-4.7c-0.4-1.5-0.6-2.8-0.6-3.8c0-0.4-0.1-0.8-0.2-1.4c-0.1-0.5-0.3-1-0.5-1.4
			c-0.2-0.6-0.4-1.2-0.6-1.8c-0.2-0.6-0.3-1.1-0.3-1.5c0-0.8-0.1-1.3-0.4-1.4s-0.4,0.2-0.6,1c0,0.4-0.2,0.9-0.5,1.5
			c-0.3,0.6-0.7,1.3-1.2,2c-0.5,0.7-1,1.4-1.6,2.2c-0.6,0.7-1.2,1.4-1.8,2c-0.6,0.7-1,1.2-1.3,1.7l-0.5,0.8c0,0.2-0.1,0.4-0.3,0.8
			c-0.2,0.3-0.5,0.6-0.8,1c-0.3,0.3-0.6,0.6-0.9,0.9c-0.3,0.3-0.5,0.4-0.7,0.5c-0.2,0.2-0.6,0.5-1.2,0.9c-0.5,0.4-1.2,0.7-2,1.1
			c-0.7,0.7-1.4,1.3-2,1.7c-0.6,0.4-1.2,0.7-1.7,0.9c-0.6,0.2-1.1,0.3-1.7,0.3c-0.6,0-1.3,0-2-0.1c-1.5-0.2-2.8-0.6-3.9-1.1
			c-1.1-0.5-2-1.4-3-2.6c-1-1-1.8-2.3-2.5-3.8c-0.7-1.5-1.3-3.4-1.7-5.6c-0.1-0.5-0.3-1.4-0.4-2.7c-0.1-1.2-0.2-2.7-0.3-4.3
			c-0.1-1.6-0.1-3.4-0.1-5.2c0-1.8,0-3.6,0-5.2c0-1.7,0.1-3.1,0.1-4.4C168.8,183.2,168.9,182.2,169,181.6z"/>
	</g>
	<g id="XMLID_18_">
		<path id="XMLID_40_" class="title-code" d="M234.9,154.7c1,0,1.6-0.1,1.9-0.2s0.5-0.4,0.7-0.8c0.3-0.4,0.6-0.6,0.8-0.6
			c0.2,0,0.6,0.1,1.3,0.3c0.9,0.4,1.4,0.6,1.6,0.6c0.1,0,0.2-0.2,0.2-0.6c0-0.2,0-0.3,0.1-0.3s0.4,0,0.9,0c2.3,0.4,3.9,1.7,5,3.8
			c0.4,0.5,0.7,1.1,1.1,1.6c0.3,0.5,0.7,0.9,1,1.2c0.6,0.2,1.1,0.8,1.4,1.9c0,0.4,0.1,0.8,0.2,1.2c0.1,0.4,0.3,0.6,0.5,0.6
			c0.1,0.1,0.3,0.6,0.5,1.2c0.2,0.7,0.5,1.4,0.7,2.3c0.2,0.8,0.5,1.7,0.6,2.6c0.2,0.9,0.3,1.5,0.3,2c0.2,0.7,0.3,1.2,0.4,1.4
			c0,0.2,0.2,0.1,0.4-0.3c0.1-0.2,0.3-0.4,0.4-0.5c0.1-0.2,0.2-0.3,0.2-0.5c0-0.2,0.2-0.8,0.7-1.8c0.5-1,1.1-2.1,1.7-3.3
			c0.7-1.2,1.4-2.5,2.1-3.7c0.7-1.2,1.3-2.2,1.9-3c1.7-2.4,3.3-4.4,4.8-6c1.5-1.6,3-2.9,4.4-3.9c1.5-1,3-1.7,4.6-2.1
			c1.6-0.4,3.3-0.6,5.2-0.6c2,0,3.8,0.7,5.5,2.1c1.6,1.4,3.2,3.5,4.8,6.4c1,1.5,1.6,3,2,4.6c0.4,1.6,0.7,3.3,0.9,5.1
			c0,0.9,0,1.5,0.1,2c0.1,0.5,0.4,0.8,0.9,1.1c0.6,0.7,1.1,1.4,1.4,2.1c0.3,0.7,0.5,1.6,0.5,2.6c0,1.1-0.1,2.4-0.4,4
			c-0.3,1.6-0.7,3.7-1.2,6.2c-0.3,1.5-0.6,2.9-0.9,4.1c-0.2,1.2-0.4,2.5-0.6,3.9c-0.1,1.4-0.3,2.9-0.4,4.7c-0.1,1.8-0.2,4-0.3,6.6
			c0,0.8-0.1,1.7-0.2,2.6c-0.1,0.9-0.3,1.5-0.5,1.8c-0.4,1.1-0.5,2.5-0.4,4.2s0.5,3.4,1,4.9c0.2,0.5,0.4,1.1,0.5,1.7
			c0.1,0.6,0.2,1,0.2,1.2c0,0.1,0,0.2,0,0.4c0,0.2,0.1,0.3,0.3,0.5c0.2,0.1,0.3,0.1,0.5,0.1c0.1,0,0.3-0.1,0.5-0.3
			c0.2-0.2,0.4-0.6,0.7-1.1s0.7-1.2,1.2-2.2l3.2-5.6c0.6-1,1.2-2.2,2-3.8c0.7-1.6,1.5-3.3,2.2-5.1c0.7-1.8,1.4-3.7,2-5.6
			c0.6-1.9,1.1-3.6,1.5-5.2c0.6-1.2,1.2-2.5,1.7-3.8s0.8-2.4,0.9-3.3c0.2-0.8,0.5-1.5,0.9-2.3c0.4-0.8,0.7-1.5,1.1-2.1
			c0.4-0.6,0.7-1.1,0.9-1.5c0.3-0.4,0.4-0.6,0.5-0.6c0.1,0.1,0.1,0.4,0,1c-0.1,0.6-0.3,1.3-0.5,2.1c-0.2,0.8-0.4,1.6-0.6,2.5
			c-0.2,0.9-0.4,1.6-0.5,2.3c-0.2,0.6-0.5,1.4-0.7,2.3c-0.2,0.9-0.5,1.7-0.6,2.3c-0.6,0.5-1.2,1.4-1.8,2.9c-0.6,1.4-1.2,3-1.7,4.5
			s-0.9,3-1.3,4.2c-0.3,1.2-0.4,1.9-0.3,1.9c0,0,0.1,0.2,0.1,0.4c0,0.2,0.1,0.5,0,0.7c0,0.3-0.1,0.5-0.2,0.8s-0.3,0.5-0.6,0.6
			c-0.9,1-1.5,2-1.8,3.1c-0.3,1-0.8,2.3-1.3,3.9c-0.3,1.4-0.9,2.8-1.7,4.3c-0.8,1.5-1.7,2.8-2.6,3.8c-2,2.2-3.3,3.6-3.7,4.3
			c-0.5,0.7-0.4,0.9,0.1,0.5c0.8-0.3,1.1-0.3,0.9,0c-0.2,0.3-0.8,1-1.9,2.1l-1.7,1.9l-1.7-0.4c-0.6,0-1.2-0.1-1.8-0.2
			c-0.6-0.1-1-0.3-1.2-0.5c-0.3,0-0.7-0.1-1-0.3c-0.3-0.2-0.7-0.3-1.1-0.3c-0.3-0.2-0.7-0.4-1.2-0.8c-0.4-0.3-0.7-0.6-0.9-1
			c-0.3-0.3-0.6-0.7-1-1.2c-0.4-0.5-0.8-1-1.2-1.4c-0.4-0.5-0.7-0.9-1-1.3c-0.3-0.4-0.4-0.7-0.4-0.8l-0.2-0.6
			c-0.1-0.2-0.2-0.4-0.4-0.7c-0.1-0.3-0.3-0.5-0.5-0.8c-0.7-0.9-0.8-1.6-0.4-2c0.1-0.2,0.1-0.5,0.1-1c0-0.5-0.1-1-0.2-1.4
			c-0.1-0.5-0.2-0.9-0.3-1.2c-0.1-0.3-0.2-0.5-0.3-0.4c-0.2,0-0.4,0-0.5-0.1c-0.2,0-0.3-0.2-0.5-0.6c-0.3-0.3-0.3-0.6,0-0.9l0.1-0.9
			c0-0.2,0.1-0.5,0.1-0.8c0-0.3,0.1-0.6,0.1-1c0-1.1,0-1.8-0.1-2.1c0-0.3-0.3-0.4-0.6-0.4c-0.4,0.2-0.6,0.1-0.6-0.3s0.2-1,0.6-1.7
			c0.3-0.2,0.5-0.5,0.6-0.6c0.1-0.2,0.3-0.4,0.3-0.8c0.1-0.3,0.1-0.7,0.1-1.2c0-0.5,0-1.1,0-1.9c-0.2-1.5-0.2-3.5-0.1-5.9
			c0.1-2.4,0.4-4.8,0.7-7.2c0-0.8,0.1-2,0.2-3.5c0.1-1.5,0.2-2.9,0.2-4.2c0.1-3.2,0.3-5.6,0.4-7.1l0.2-2v-1.1c0-0.3,0.1-0.8,0.3-1.4
			c0.2-0.6,0.4-1.3,0.5-1.9c0.1-0.7,0.1-1.5,0.1-2.4c0-0.9,0-1.8-0.1-2.7c-0.1-0.9-0.2-1.7-0.4-2.4c-0.2-0.8-0.4-1.4-0.7-1.9
			c-0.7-1.5-1.5-2.4-2.4-2.5c-0.9-0.1-2.3,0.6-4.1,2.1l-1.9,1.4l-0.9,0.6c-0.3,0-0.8,0.3-1.3,1c-0.6,0.7-0.9,1.3-1,2
			c-0.2,0.3-0.4,0.6-0.7,1c-0.3,0.4-0.5,0.8-0.8,1.2c-0.3,0.4-0.5,0.8-0.8,1.2c-0.2,0.4-0.4,0.7-0.6,0.9c-0.3,0.2-0.6,0.5-0.8,0.8
			c-0.3,0.4-0.5,0.9-0.8,1.5c-0.3,0.7-0.6,1.5-1,2.6c-0.4,1.1-0.8,2.3-1.3,3.8c-0.4,0.9-0.8,2.4-1.4,4.4c-0.5,2-1.2,4.4-1.9,7.2
			c-0.1,0.8-0.3,1.9-0.6,3.2c-0.3,1.3-0.4,2.5-0.4,3.6c-0.1,1.7-0.2,2.8-0.2,3.3s0.1,0.9,0.2,1c0.1,0.1,0.2,0.2,0.2,0.3
			c0,0-0.1,0.2-0.2,0.4c-0.7,0.7-0.7,2.4,0,5.1c0.5,2.2,0.9,4,1,5.5c0.2,1.4,0.1,2.3-0.3,2.7c0,0.2-0.1,0.4-0.3,0.5
			c-0.2,0.1-0.3,0.2-0.5,0.2l-0.7,0.2l-1.5,0.4c-0.4,0.2-0.8,0.4-1.1,0.5c-0.3,0.1-0.6,0.2-0.9,0.3c-0.3,0-0.7,0.1-1.1,0
			c-0.4,0-1-0.1-1.7-0.2c-0.6,0-1.1,0-1.5,0c-0.4,0-0.8-0.1-1.2-0.1s-0.7-0.2-1.1-0.4c-0.4-0.2-0.8-0.4-1.3-0.8
			c-0.7-0.5-1.2-1-1.7-1.4c-0.4-0.4-0.8-1-1.2-1.7c-0.1-0.5-0.4-1.1-0.6-1.6c-0.3-0.6-0.5-1-0.6-1.4c-0.4-0.7-0.7-1.6-1-2.6
			c-0.3-1-0.4-2-0.4-2.9c0-0.1,0-0.3-0.1-0.5c0-0.2-0.1-0.3-0.1-0.5l-0.1-0.6c0-0.2-0.1-0.6-0.3-1.2c-0.2-0.6-0.3-1.3-0.3-2.2
			c0-0.8,0-1.5-0.1-2.2c-0.1-0.6-0.1-1-0.1-1.2c0-0.1,0-0.4-0.1-1c0-0.6-0.1-1.3-0.1-2.2c0-0.9-0.1-1.9-0.1-3.1
			c0-1.2-0.1-2.4-0.1-3.7c-0.1-1.9-0.2-3.5-0.2-4.7c0-1.2-0.1-2.1-0.2-2.8c-0.1-0.7-0.2-1.1-0.3-1.4c-0.1-0.3-0.2-0.4-0.4-0.5
			c-0.4-0.2-0.6-0.4-0.6-0.7s0.2-0.5,0.6-0.7c0.1,0,0.2-0.1,0.2-0.3c0-0.2-0.2-0.5-0.6-1c-0.7-1.3-0.7-1.9,0-1.7
			c0.2,0.2,0.4,0.1,0.5-0.3c0.1-0.4,0.2-1.3,0.2-2.7c0-1.7-0.1-2.8-0.2-3.3c-0.1-0.5-0.4-0.4-0.8,0.3c0,0.2-0.1,0.3-0.2,0.4
			c-0.1,0.1-0.2,0.1-0.2-0.1c0-0.1,0-0.2,0.1-0.2c0-0.2,0.1-0.4,0.3-0.5c0-0.1,0-0.3,0.1-0.4c0.1-0.1,0-0.2-0.1-0.2
			c0-0.2,0.1-0.4,0.3-0.4c0.3,0,0.5-0.1,0.6-0.4c0.1-0.3,0.1-0.6,0-1.1c-0.1-0.4-0.2-0.9-0.4-1.4c-0.2-0.5-0.5-0.9-0.8-1.2
			c-0.7-0.7-1-1.2-0.8-1.4C232.9,154.8,233.6,154.7,234.9,154.7z"/>
	</g>
	<g id="XMLID_19_">
		<path id="XMLID_42_" class="title-code" d="M348.8,95.7c1.1,0,2.2,0.6,3.5,1.9c0.5,0.3,0.9,0.5,1.2,0.6c0.2,0.1,0.2,0-0.1-0.3
			c0-0.6,0.7-0.7,2.1-0.3c1.3,0,2.5,0.3,3.6,0.9c1.1,0.6,2.1,1.3,2.9,2.3c0.8,0.9,1.3,1.5,1.5,1.8c0.2,0.4,0,0.7-0.5,0.9
			c-0.3,0.1-0.6,0-1-0.2c-0.4-0.2-0.6-0.5-0.6-0.8c0-0.2-0.2-0.4-0.5-0.6c-0.3-0.2-0.8-0.6-1.3-1.1c-0.7-0.8-1.3-1.3-1.7-1.5
			c-0.4-0.3-0.8-0.4-1.3-0.4c-1.4,0-1.8,0.4-1.2,1.1c0.6,0.4,1,0.7,1.4,0.9c0.3,0.2,0.7,0.2,1,0c0.5-0.1,1.1,0,1.9,0.5
			c0.8,0.5,1.3,1.1,1.7,1.8c0.1,0.5,0.3,1,0.6,1.4c0.3,0.5,0.6,0.9,0.9,1.2l0.7,1l-0.1-1c-0.2-0.5-0.3-0.8-0.3-0.9
			c0,0,0.2,0,0.5,0.3c0.4,0.3,0.6,0.5,0.6,0.6c0,0.1,0,0.3-0.1,0.6c-0.3,0.3-0.5,0.5-0.5,0.7c0,0-0.1,0.1-0.1,0.2
			c0.5,0.4,0.7,0.4,0.6,0c0-0.2,0-0.3,0.1-0.5c0-0.1,0.1-0.3,0.1-0.5c0.3,0,0.6,0.3,0.7,0.9c0.1,0.6,0,1-0.4,1.3
			c-0.1,0.4-0.2,0.6-0.2,0.7s0.1,0.2,0.2,0.3c0.2,0.2,0.3,0.4,0.5,0.5c0.1,0.1,0.1,0.3-0.1,0.4c-0.2,0.1-0.3,0.4-0.3,0.8
			c0,0.4,0,0.7,0,1c0.1,0.7,0.2,1.3,0.2,1.7c0,0.4,0,0.6,0.1,0.8c0,0.1,0.1,0.2,0.1,0.1c0,0,0.2-0.1,0.4-0.3v-1.3v-0.1
			c0.2-0.1,0.4,0.3,0.5,1.2c0.1,0.9,0.1,2,0,3.3c0,0.8-0.1,1.7-0.1,2.8c0,1.1,0,2.1,0,3.1s0,1.9,0,2.6c0,0.7,0.1,1.2,0.1,1.3
			c0,0.1,0,0.3-0.1,0.4c0,0.1-0.2,0.3-0.4,0.4c-0.4,0.1-0.6,0.2-0.6,0.2c0,0,0.2,0.2,0.6,0.4c0.2,0.2,0.4,0.5,0.4,0.7
			c0,0.2-0.1,0.3-0.4,0.3c-0.2-0.2-0.4-0.3-0.5-0.2c-0.1,0.1-0.2,0.2-0.2,0.3c0,0.3,0,0.6,0,0.8c0,0.2-0.1,0.6-0.3,1.3
			c-0.1,0.1-0.2,0.3-0.4,0.8c-0.1,0.4-0.1,0.7,0.2,0.8c0,0.3,0,0.5-0.1,0.8c-0.1,0.2-0.4,0.4-1,0.7c-0.1,0.3-0.3,0.7-0.5,1
			c-0.3,0.3-0.4,0.6-0.4,0.9c-0.2,1.8-0.7,3.5-1.4,5.3c-0.2,0.5-0.4,1-0.6,1.6c-0.2,0.6-0.3,1-0.3,1.3c0,0.3,0,0.7-0.1,1.2l-0.1,0.4
			c-0.3,0-0.4,0.2-0.4,0.6v1.2c-0.2,0.1-0.4,0.5-0.6,0.9c-0.2,0.5-0.3,1-0.4,1.7c-0.1,0.5-0.3,1-0.4,1.5c-0.1,0.5-0.3,0.8-0.5,0.9
			l-0.2,0.6c-0.1,0.2-0.2,0.4-0.2,0.7c0,0.3-0.1,0.5-0.2,0.8c-0.4,0.7-0.7,1.3-0.9,1.9s-0.4,1.1-0.6,1.5c-0.6,1-1.1,1.8-1.5,2.5
			c-0.4,0.6-0.6,1.2-0.8,1.7c-0.2,0.5-0.3,1-0.3,1.5c0,0.5,0,1.1,0.1,1.7c0,0.8,0,2,0.1,3.5c0.1,1.5,0.1,3.1,0.1,4.6
			c0.2,1.6,0.3,3.1,0.4,4.4c0.1,1.4,0.1,2.3,0.1,2.9c0.6,1.3,0.6,2.1,0,2.3v1.8c0,0.8,0,1.4,0,1.7c0,0.3,0,0.5-0.1,0.6
			c-0.1,0.2-0.3,0.6-0.4,1.3c-0.1,0.6-0.3,1.3-0.4,2.1s-0.2,1.4-0.2,1.9c0,0.6,0,0.9,0.2,0.9c0.1,0.2,0.2,0.5,0.3,0.8
			c0,0.3,0,0.5,0,0.7v0.7l-0.3-0.7c-0.3-0.5-0.4-0.8-0.5-0.8c-0.1,0-0.1,0.1-0.2,0.5v2.7c0,0.7,0,1.2,0,1.6c0,0.4-0.1,0.5-0.3,0.4
			c0-0.3,0-0.3-0.1,0c0,0.2,0,0.6,0.1,1.2c0.1,0.6,0.3,0.9,0.5,1c0,0.2,0.1,0.3,0.2,0.3c0.1,0,0.1,0-0.2,0c0,0.1,0,0.4,0.1,0.7
			c0.1,0.3,0.2,0.6,0.3,0.9c0.1,0.3,0.2,0.6,0.3,0.9c0.1,0.3,0.2,0.4,0.3,0.5c0.2,0.1,0.4,0.3,0.5,0.5c0.1,0.2,0.4,0.4,0.7,0.6
			c0,0.4,0.1,0.6,0.2,0.6c0.1,0,0.4,0.1,0.8,0.1c0.2,0,0.2,0,0.2,0c0,0.2,0,0.5,0,0.6c0,0.2,0.1,0.4,0.1,0.6l0.2,0.7
			c0.1,0,0.2,0,0.3,0c0.1,0,0.4,0,0.7,0.1c0.3,0.2,0.4,0.4,0.4,0.4c0,0,0-0.1-0.2-0.4c-0.4-0.6-0.3-0.9,0.3-0.9
			c0,0.1,0.2,0.2,0.4,0.4c0.3,0.4,0.5,0.7,0.6,0.9c0.3,0.5,0.6,0.8,0.7,0.9c0.1,0.1,0.1,0.4-0.1,0.8c-0.2,0.4-0.4,0.6-0.4,0.8
			c0,0.1,0.1,0.3,0.4,0.6c0.2,0.1,0.3,0.2,0.3,0.2s-0.1,0.2-0.3,0.4c-0.2,0-0.3,0.1-0.3,0.3c0,0.2,0.3,0.4,0.7,0.8
			c0.2,0.3,0.5,0.6,0.8,0.6c0.3,0.1,0.6,0,0.8-0.4c0-0.1,0.1-0.2,0.4-0.4c0.2-0.2,0.4-0.3,0.5-0.3c0.2-0.1,0.4-0.2,0.6-0.4
			c0.2-0.2,0.5-0.5,0.8-0.8c0.2-0.3,0.5-0.6,0.8-1c0.3-0.4,0.4-0.7,0.5-0.8c0.2-0.3,0.7-0.9,1.3-1.9c0.6-1,1.2-2.1,1.9-3.2
			c0.6-1.2,1.2-2.2,1.7-3.2c0.5-1,0.7-1.6,0.7-1.8c0-0.2,0-0.5,0.1-0.8c0-0.3,0.3-0.6,0.6-0.9c0.5-1.2,1.1-2.3,1.6-3.5
			c0.5-1.2,1-2.3,1.4-3.3c0.4-1,0.8-1.9,1.1-2.7c0.3-0.8,0.5-1.4,0.6-1.9c0.1-0.5,0.4-1.3,0.6-2.3s0.6-2.2,1-3.6
			c0.4-1.4,0.9-2.9,1.4-4.5c0.5-1.6,1-3.3,1.6-4.9c0.9-3,1.8-4.5,2.5-4.5c0.2,0,0,0.7-0.6,2.2c0,0.9-0.2,1.4-0.5,1.4l-0.1,0.1
			c0,0-0.1,0.3-0.1,0.8c0,0.1,0,0.3,0,0.7c0,0.4-0.1,0.7-0.3,1.1c-0.5,1-0.9,2.2-1.2,3.5c-0.3,1.3-0.5,2.9-0.5,4.7
			c0,1.1,0,1.9-0.1,2.4c-0.1,0.6-0.2,0.9-0.4,1.2c-0.1,0.2-0.2,0.5-0.4,0.9c-0.2,0.3-0.3,0.6-0.3,0.9c0,0.3,0,0.6-0.1,0.9
			c-0.1,0.3-0.1,0.5-0.1,0.8c0,0.4-0.2,0.6-0.5,0.6l-0.2-0.4c-0.1-0.3,0-0.8,0.2-1.3V187l-0.7,1.2c-0.2,0.4-0.3,0.8-0.4,1.2
			c0,0.3-0.1,0.6-0.2,0.8c0,0.3,0,0.7-0.1,1.1s-0.2,0.9-0.5,1.4c-0.2,0.2-0.3,0.7-0.5,1.4c-0.1,0.7-0.2,1.4-0.3,2
			c0,1-0.3,1.8-0.8,2.6c-0.5,0.8-1.2,1.6-2.1,2.4c-0.1,0.4-0.3,0.8-0.6,1.4c-0.3,0.5-0.6,1.1-0.8,1.8c-0.1,0.5-0.4,1.2-0.8,2.1
			c-0.4,0.8-0.6,1.5-0.8,2c-0.1,0.2-0.2,0.6-0.3,1.1c-0.1,0.5-0.1,0.8-0.1,0.9c0,0.2-0.1,0.5-0.3,0.8s-0.3,0.5-0.4,0.6
			c-0.1,0.2-0.3,0.5-0.5,0.7c-0.2,0.2-0.4,0.5-0.6,0.9c-0.2,0.4-0.5,0.8-0.8,1.4c-0.3,0.6-0.7,1.4-1,2.3c-0.8,2-1.6,3.5-2.5,4.4
			c-0.8,0.9-2,1.5-3.3,1.8c-0.4,0.1-0.8,0.3-1.1,0.4c-0.3,0.1-0.6,0.2-0.9,0.2s-0.7,0-1.1,0c-0.4,0-1-0.1-1.6-0.2
			c-0.6,0-1-0.1-1.4-0.1c-0.3,0-0.6-0.1-0.9-0.3c-0.3-0.1-0.5-0.3-0.7-0.5c-0.2-0.2-0.5-0.4-0.8-0.7c-1.2-1.1-2.2-2-2.9-2.7
			c-0.7-0.7-1.1-1.2-1.1-1.3c-0.1-0.1-0.2-0.2-0.3-0.4c-0.1-0.1-0.2-0.3-0.3-0.4c-0.1-0.2-0.3-0.5-0.5-0.8c-0.2-0.3-0.4-0.5-0.6-0.8
			c-0.2-0.3-0.5-0.7-0.7-1c-0.2-0.3-0.4-0.6-0.6-0.9l-0.6-0.9c0-0.1-0.1-0.3-0.2-0.6c-0.1-0.3-0.2-0.6-0.3-0.8
			c-0.5-0.6-1.1-1.5-1.6-2.7c-0.6-1.2-1.1-2.5-1.6-3.9c-0.5-1.4-1-2.9-1.4-4.5c-0.4-1.6-0.7-3-1-4.4c-0.2-1.6-0.4-2.6-0.5-3.1
			s-0.3-0.8-0.5-0.8c0,0-0.1,0.1-0.1,0.2c0,0-0.1,0.2-0.1,0.5c0,0,0,0.1-0.1,0.1c-0.2,0-0.4,0-0.5-0.1c-0.1,0-0.2,0.1-0.4,0.3
			s-0.4,0.5-0.6,0.8c-0.8,1.1-1.1,1.7-0.7,1.7c0.2,0.1,0.1,0.4-0.3,1c-0.4,0.6-0.8,1.2-1.3,1.9c-0.5,0.7-1.1,1.3-1.6,1.9
			c-0.6,0.6-0.9,0.9-1.1,0.9c-0.2,0-0.3,0.1-0.3,0.3c0,0.2,0,0.4,0,0.5c0.2,0.2,0,0.6-0.4,1.1c-0.5,0.5-0.9,0.9-1.4,1.2
			c-0.3,0.1-0.6,0.3-1,0.7s-0.7,0.7-1.1,1c-0.1,0.4-0.5,1.1-1.3,2c-0.7,0.9-1.5,1.8-2.3,2.8c-1,1-1.8,1.7-2.5,2.2
			c-0.6,0.5-1.2,0.9-1.8,1.2c-0.5,0.2-1.1,0.4-1.7,0.4s-1.3-0.1-2.2-0.2c-0.9-0.2-1.8-0.5-2.6-0.9c-0.8-0.4-1.5-0.8-2.1-1.3
			c-0.6-0.5-1-0.9-1.3-1.4c-0.3-0.5-0.3-1-0.2-1.5c0-0.4,0-0.8-0.1-1c0-0.2-0.2-0.5-0.6-0.8c-0.1-0.2-0.2-0.4-0.3-0.5
			c-0.1-0.1-0.2-0.2-0.3-0.3l-0.3-0.2c-0.1,0-0.3,0-0.5-0.3c-0.2-0.2-0.4-0.5-0.6-0.8c-0.2-0.3-0.4-0.6-0.5-1
			c-0.1-0.4-0.2-0.7-0.2-0.9c0-0.3,0-0.6,0-0.9c0-0.3-0.1-0.4-0.3-0.5c-0.1-0.4-0.2-0.8-0.3-1.3c0-0.5,0-1,0-1.6
			c0-1.4-0.3-2.5-0.8-3.1l-0.5-1.4v0.6l-0.4,1l-0.2-0.6c-0.4-0.8-0.6-2.1-0.6-3.9c0-1.8,0.1-3.9,0.3-6.2s0.6-4.7,1.2-7.3
			c0.5-2.5,1.1-5,1.9-7.3c0.6-1.9,1.4-3.7,2.3-5.4c0.9-1.8,1.8-3.4,2.9-4.9c1-1.5,2.1-2.9,3.3-4.2c1.2-1.2,2.3-2.3,3.5-3.2
			c0.3-0.2,0.8-0.5,1.3-0.8c0.5-0.4,0.9-0.6,1.3-0.8c0.5-0.2,0.8-0.4,1.1-0.6c0.2-0.1,0.7-0.1,1.3,0.1c0.3,0,0.6,0,0.8,0.1
			c0.2,0,0.5,0.1,0.9,0.3c0.4,0.1,0.8,0.3,1.4,0.5c0.6,0.2,1.3,0.6,2.2,0.9c0.6,0.3,1.3,0.5,2,0.7c0.7,0.2,1.2,0.4,1.5,0.5
			c1,0.1,1.8,0.4,2.6,0.7c0.8,0.3,1.5,0.8,2.2,1.3c0,0.1,0.3,0.3,0.6,0.6l0.4,0.2c0-0.3,0-0.7,0-1c0-0.3,0-0.7,0.1-1
			c0-0.6,0.1-1.4,0.2-2.2c0.1-0.8,0.2-1.7,0.3-2.7c0-1.7,0-3.5,0.1-5.3c0-1.8,0.1-3.6,0.2-5.2s0.2-3.2,0.4-4.6
			c0.1-1.4,0.3-2.5,0.5-3.5c0.1-0.5,0.2-1.1,0.2-1.8c0-0.7,0-1.2,0-1.7c-0.1-1.6-0.1-3-0.1-4.3c0-1.3,0.2-2.7,0.5-4.4
			c0.6-3.5,1.3-6.5,2.1-9.1c0.8-2.6,2-4.9,3.4-7.1c0.1-0.4,0.3-0.7,0.5-0.9c0.2-0.2,0.3-0.4,0.3-0.6c0-0.1,0.1-0.4,0.4-0.6
			c0.2-0.3,0.5-0.6,0.7-0.9c0.4-0.3,0.8-0.7,1-1c0.2-0.3,0.3-0.6,0.3-0.7c0-0.2,0.3-0.3,0.9-0.3c0.2,0,0.4,0,0.6-0.1
			c0.2-0.1,0.3-0.3,0.4-0.8c0-0.1,0.1-0.3,0.4-0.5c0.3-0.2,0.4-0.3,0.5-0.3V95.7z M328.5,159.9c-0.3,0-0.7,0.2-1.2,0.5
			c-0.5,0.4-0.8,0.7-1,1.1c0,0.4-0.1,0.8-0.4,1.3c-0.3,0.5-0.5,0.8-0.6,1.1c-0.4,0.6-0.6,1.1-0.6,1.3s0.1,0.5,0.4,0.8
			c0.1,0.5,0.1,0.9,0.1,1.1c0,0.3-0.3,0.5-0.6,0.8c-0.5,0.6-1,0.9-1.4,0.9c-0.1,0-0.2,0-0.4,0c-0.1,0-0.2,0.1-0.2,0.3
			c0,0.2,0,0.4,0,0.4c0,0,0.1,0,0.3,0l0.1,0.1h0.1v0.1c0,0.2,0,0.4,0,0.4c0,0-0.1,0.1-0.2,0.1c-0.1,0-0.2,0-0.2,0c0,0-0.1,0-0.1,0
			c0,0-0.1,0.1-0.1,0.1c0,0.2,0,0.4-0.1,0.6c0,0.2-0.2,0.4-0.4,0.8c-0.2,0.1-0.5,0.5-0.9,1.2c-0.4,0.7-0.8,1.3-1.2,2
			c-0.7,0.9-1.1,1.6-1.3,2.1c-0.2,0.5-0.3,1.2-0.3,1.9c0,0.4,0,0.9,0,1.5c0,0.6-0.1,1-0.3,1.3c-0.4,1-0.8,2-1.2,3.1
			c-0.4,1.1-0.7,2.3-1,3.4c-0.3,1.1-0.6,2.2-0.8,3.2s-0.4,1.8-0.5,2.4c0,0.6,0,1.2,0,1.8s0.2,0.8,0.4,0.8c0,0,0.2,0.3,0.3,0.8
			s0.4,1,0.6,1.6c0.2,0.6,0.4,1.2,0.6,1.8c0.2,0.6,0.3,1.1,0.3,1.4c0,0.1,0,0.4,0,0.8c0,0.4,0.2,0.7,0.4,1v1.5
			c-0.2,0.2-0.5,0.1-0.7-0.4c-0.2-0.4-0.4-0.9-0.5-1.5c-0.5-0.8-0.9-1.2-1.2-1.2c-0.3,0-0.2,0.6,0.2,1.5c0.3,0.4,0.5,0.8,0.8,1.2
			c0.2,0.4,0.4,0.6,0.5,0.6v0.8c0,0.1-0.1,0.2-0.2,0.1c-0.1,0-0.4-0.3-0.9-0.7c-0.6-0.6-0.9-0.6-0.9-0.2c0,0.3,0.2,0.7,0.5,1.1
			c0.4,0.5,0.8,0.7,1.2,0.7c0.1,0,0.2,0.1,0.2,0.2c0,0.1,0.2,0.2,0.4,0.2c0,0.3,0,0.3,0.1,0c0.4-0.2,0.6-0.4,0.6-0.4c0,0,0,0-0.2,0
			c-0.4,0-0.6-0.2-0.6-0.7c0-0.2,0.2-0.3,0.6-0.3c0.1,0.1,0.2,0.2,0.3,0.2c0,0,0-0.2,0-0.4c0-0.4,0.1-0.6,0.3-0.6
			c0.4-0.2,0.6-0.2,0.6-0.1c0,0.1,0.1,0.2,0.1,0.3c-0.1,0.1-0.2,0.2-0.1,0.3c0,0,0.1,0.1,0.1,0.1c0.2-0.4,0.5-0.4,0.8,0
			c0.4,0.1,0.7,0.1,0.9,0c0.2-0.1,0.4-0.2,0.6-0.4c0.9-0.4,1.7-1,2.3-1.7c0.6-0.7,0.9-1.1,0.9-1.3c0-0.3,0.2-0.6,0.6-0.9
			c0.1,0,0.3-0.2,0.6-0.5c0.3-0.3,0.7-0.7,1-1.2c0.3-0.3,0.7-0.9,1.2-1.6c0.5-0.7,1-1.3,1.5-1.8c0.4-0.6,1-1.4,1.8-2.6
			s1.7-2.2,2.5-3.2l2.4-3.6v-6.1c0-1,0-1.8,0-2.6s0.1-1.5,0.1-2.2l0.1-2.1c0.1,0,0.1-0.2,0.1-0.6c0-0.4,0-0.9-0.1-1.4
			s-0.1-1.1-0.2-1.7c-0.1-0.6-0.2-1.1-0.3-1.5c0-0.5,0-0.8-0.1-0.8c0,0-0.2,0.2-0.5,0.5v0.6c0,0-0.1,0-0.1-0.1c0,0,0-0.1,0-0.2
			c0-0.1,0-0.2,0-0.3c0-0.4-0.1-0.9-0.3-1.5c-0.2-0.6-0.3-1.2-0.3-1.9c0-0.6,0-1.1-0.1-1.7c-0.1-0.5-0.2-0.8-0.3-0.8l-0.6,0.4
			c0,0.9-0.6,1.5-1.7,1.8c-0.6,0-0.9-0.1-1-0.2c-0.1-0.1-0.3-0.6-0.4-1.4c-0.2-0.8-0.5-1.5-0.7-2.2c-0.2-0.7-0.4-1.2-0.6-1.5H328.5z
			 M361.2,106.8c-0.1,0-0.3,0.2-0.5,0.6c-0.2,0.4-0.4,1.1-0.8,2.1c-0.3,1-0.7,2.5-1.2,4.3c-0.5,1.8-1.1,4.2-1.7,7.1
			c-0.3,1-0.6,1.9-0.9,2.9c-0.3,1-0.5,1.7-0.7,2.1c-0.4,1.5-0.9,3.2-1.3,5c-0.4,1.9-0.8,3.8-1.1,5.8c-0.3,2-0.6,4-0.9,5.9
			s-0.5,3.7-0.6,5.4v4.7v4.6l0.1,3.2l1.4-1.3c0.2-0.5,0.5-1.2,0.8-2.1c0.3-0.9,0.7-1.9,1-3.1c0.4-1.2,0.8-2.4,1.2-3.8
			c0.4-1.4,0.9-2.8,1.3-4.2c0.1-0.6,0.3-1.3,0.5-1.9c0.2-0.7,0.4-1.3,0.5-1.9c0.2-0.6,0.3-1.2,0.5-1.7c0.1-0.5,0.2-0.9,0.3-1.2
			c0.5-1.3,1-3.2,1.5-5.5c0.5-2.3,0.8-5.1,1.1-8.2c0.1-0.8,0.2-1.6,0.4-2.4c0.1-0.8,0.3-1.5,0.6-1.9c0-0.5,0.1-1.3,0.1-2.4
			c0-1.2,0.1-2.3,0.1-3.6c0-1.2,0.1-2.3,0-3.3c0-1-0.1-1.6-0.2-1.9c-0.1-0.1-0.2-0.4-0.4-0.6s-0.3-0.7-0.5-1.2
			c-0.1-0.2-0.2-0.5-0.4-0.8C361.4,107,361.3,106.8,361.2,106.8z"/>
	</g>
</g>
</svg>
